<?xml version="1.0" standalone="no"?>
<!DOCTYPE svg PUBLIC "-//W3C//DTD SVG 20010904//EN"
 "http://www.w3.org/TR/2001/REC-SVG-20010904/DTD/svg10.dtd">
<svg version="1.0" xmlns="http://www.w3.org/2000/svg"
 width="1536.000000pt" height="1536.000000pt" viewBox="0 0 1536.000000 1536.000000"
 preserveAspectRatio="xMidYMid meet">
<metadata>
Created by potrace 1.14, written by Peter Selinger 2001-2017
</metadata>
<g transform="translate(0.000000,1536.000000) scale(0.100000,-0.100000)"
fill="#000000" stroke="none">
<path d="M12233 11692 c-360 -364 -1533 -1547 -1533 -1547 0 0 -206 -208 -458
-462 -251 -254 -752 -760 -1112 -1123 -672 -678 -1490 -1504 -1593 -1609 -32
-32 -55 -61 -50 -63 4 -3 1183 -4 2619 -4 l2612 1 1321 1322 1321 1321 -907
912 c-500 501 -913 916 -920 923 -6 7 -45 45 -86 85 -41 39 -71 72 -68 72 3 0
-7 9 -24 20 -16 11 -28 20 -25 20 4 0 -579 587 -610 614 -3 3 -222 -214 -487
-482z"/>
<path d="M10 5043 l0 -1873 1873 0 1873 0 1854 1855 c1020 1021 1856 1857
1857 1858 1 1 -263 3 -585 4 -323 1 -1113 4 -1757 7 -1491 7 -3813 17 -4547
20 l-568 2 0 -1873z"/>
</g>
</svg>
