<svg id="Layer_1" data-name="Layer 1" xmlns="http://www.w3.org/2000/svg" viewBox="0 0 400 400"><defs><style>.cls-1{fill:#c3c3c3;}.cls-2{fill:#7d7e84;}.cls-3{fill:#fff;}</style></defs><title>moneyclip</title><path d="M115.6935,313.1507c-5.7954,3.1084-11.25,2.0537-16.6232-3.7971-6.565-7.1484-12.8272-14.5752-19.2087-21.8917-5.75-6.5928-11.5208-13.1685-17.21-19.8135-2.64-3.0838-5.593-6.0578-7.4611-9.5815-.9887-1.8648-.5438-5.0327.31-7.1954,1.09-2.7594,2.0122-4.3458-.6156-7.2533-10.71-11.85-20.8775-24.1891-31.284-36.3144-2.4326-2.8343-5.7075-5.183-7.3568-8.3915a30.6227,30.6227,0,0,1-3.6558-12.8083c-.0524-2.3447,2.8662-5.4667,5.2407-7.0252,8.0287-5.27,16.3369-10.1309,24.6815-14.8975,9.8662-5.6359,19.9642-10.8676,29.807-16.5429,8.5729-4.943,16.9042-10.3033,25.3913-15.3976,7.1738-4.3059,14.467-8.4135,21.6167-12.758,6.9719-4.2364,13.8224-8.6723,20.7384-13.0009,5.3779-3.3659,10.8956-6.5245,16.1314-10.0973,5.9516-4.0612,11.8786-8.2157,17.4164-12.8114,6.7832-5.6294,13.1546-11.7553,19.6989-17.6723,6.3814-5.77,12.5109-11.8553,19.2327-17.196,3.5987-2.8592,8.1327-4.6166,12.3918-6.5468,3.8121-1.7275,6.8035.2483,9.6892,2.7142q11.9006,10.17,23.9985,20.1072c8.2391,6.7672,16.6394,13.3387,24.8692,20.1171,7.7557,6.3879,15.3317,12.9941,23.0788,19.3926,7.309,6.0368,14.77,11.889,22.1048,17.8949,7.0478,5.7711,13.998,11.6614,21.0306,17.4511,7.1587,5.8937,14.4372,11.6439,21.5329,17.6119,8.2092,6.9045,16.24,14.02,24.429,20.95,2.1468,1.8166,1.8669,3.99.759,5.7629-2.2313,3.5709-4.4918,7.3144-7.5149,10.1652-10.5592,9.957-21.4254,19.59-32.2192,29.2962-9.2021,8.2753-18.3933,16.5653-27.721,24.6977-9.5817,8.354-19.3694,16.4715-28.9768,24.7966-5.5805,4.8355-10.8863,9.9894-16.4927,14.7935-6.2039,5.3162-12.6833,10.31-18.9078,15.6036-6.5087,5.5349-12.8126,11.31-19.2874,16.8856-6.7621,5.8234-13.6252,11.5295-20.4367,17.2956-5.9473,5.0344-11.7745,10.2185-17.8573,15.0831-5.8488,4.6773-11.9688,9.0148-17.9466,13.532-2.5389,1.9186-4.9111,4.0793-7.5622,5.8208a21.7264,21.7264,0,0,1-6.2753,2.88,5.3971,5.3971,0,0,1-5.837-1.6431c-5.3364-6.0739-10.82-12.0194-16.2933-17.9722-5.9908-6.516-12.0988-12.9253-18.0271-19.4973-3.408-3.7782-6.5385-7.8055-9.8354-11.6856C122.08,320.4977,118.871,316.83,115.6935,313.1507ZM285.67,155.102c-.9158-1.9384-1.4285-4.2566-2.8266-5.74-3.5147-3.73-7.346-7.1778-11.2059-10.5614-4.3188-3.7859-8.694-7.5273-13.2618-11.0029a93.582,93.582,0,0,0-11.0823-7.2286c-1.914-1.0669-4.3354-1.4357-6.2935.4472q-9.8406,9.4618-19.6713,18.934c-2.8251,2.7048-5.4695,5.6907-8.6345,7.9286-6.1272,4.3324-12.6346,8.1225-18.8545,12.3293-6.2079,4.1989-12.1893,8.7323-18.3907,12.941-9.961,6.76-20.0541,13.325-30.03,20.0634-8.6966,5.8743-17.2815,11.9139-25.9676,17.8039-5.1786,3.5115-10.5233,6.78-15.6766,10.3264-9.8745,6.7965-19.73,13.6245-29.4608,20.6238a119.1806,119.1806,0,0,0-11.4487,9.5087c-.8122.755-1.1873,3.2414-.5836,4.0527,3.7282,5.0107,7.7157,9.837,11.7637,14.6,9.1413,10.7556,18.3734,21.4337,27.5514,32.1581.9617,1.1236,1.9039,1.4725,2.7973.0675,3.2134-5.0535,8.4309-7.7845,13.0186-11.216,5.5369-4.1413,11.2627-8.0289,16.8659-12.083,8.4784-6.1344,16.8991-12.3486,25.3873-18.4692,5.6258-4.0567,11.3625-7.96,16.9856-12.02,7.2545-5.2381,14.4129-10.61,21.6717-15.8417,8.1985-5.9093,16.4946-11.6832,24.6892-17.5977,8.3475-6.0251,16.714-12.0306,24.898-18.2729A184.235,184.235,0,0,0,263.5637,183.8c5.553-5.3046,10.7005-11.0534,15.7909-16.8152C282.2635,163.6918,285.5156,160.3826,285.67,155.102Zm82.6862,8.6337c-2.2728-1.9324-4.7882-4.117-7.3529-6.2421-5.3048-4.3958-10.6534-8.7388-15.9509-13.1433-4.9364-4.1041-9.7849-8.3147-14.7528-12.38-7.2707-5.95-14.66-11.7548-21.91-17.729-5.0875-4.1922-9.96-8.6462-15.05-12.8343-6.6566-5.4765-13.4672-10.7655-20.149-16.2119-5.2026-4.2406-10.3037-8.6056-15.46-12.9026s-10.227-8.71-15.5371-12.8106c-2.4766-1.9124-4.7973-4.9973-8.6414-3.5553-4.78,1.7931-9.9921,3.0572-14.1067,5.8783A53.8746,53.8746,0,0,0,198.39,89.0281a172.0954,172.0954,0,0,0-5.1838,19.6352,101.3658,101.3658,0,0,0-1.8521,14.4059c-.1473,2.1623.633,4.4067,1.1075,6.5888,1.0894,5.0091,2.0085,10.0741,3.4539,14.9816,1.254,4.258,2.7086,4.6178,5.9491,2.6317,7.5139-4.6051,13.48-10.9284,19.5979-17.1341a170.8288,170.8288,0,0,1,15.1484-14.0249c2.3327-1.853,5.5885-3.3686,9.1489-1.848,1.2471.5327,2.8943.6636,3.5461-1.3792a45.317,45.317,0,0,1,2.5617-6.7541,3.2316,3.2316,0,0,0-1.1639-4.5571c-2.0163-1.3942-2.5973-2.9837-1.1669-4.9041,1.6364-2.1968,3.4728-1.4246,5.1687.1158.5012.4553.9534,1.1443,1.5359,1.2875a4.0141,4.0141,0,0,0,2.6026-.0837c2.7022-1.435,5.1833-3.3236,7.9566-4.5794,5.3024-2.4006,5.3308-2.2559,7.5061,2.9649.5974,1.434.1813,2.1119-1.18,2.6823-2.9047,1.2175-5.7575,2.56-8.6225,3.8707-1.6583.7588-1.5814,1.7687-.3875,2.935,3.01,2.9411,5.9308,5.9814,9.0594,8.79a6.12,6.12,0,0,0,3.91,1.745c1.51-.11,2.94-1.3093,4.4055-2.0349,7.8461-3.8845,14.2106-3.0056,20.35,2.8092,5.0537,4.7866,6.5633,16.37,2.8855,22.142-2.044,3.208-1.8884,4.1721,1.3025,6.446,1.544,1.1,3.0249,2.17,1.3916,4.1679-1.3612,1.6649-2.8051,4.0081-4.8566.5287a3.823,3.823,0,0,0-1.81-1.7443c-1.2422-.37-2.8109-.7639-3.8812-.3049a8.99,8.99,0,0,0-3.31,3.083c-.8262,1.1374-1.7983,2.6041-1.7349,3.8776.284,5.71-2.495,10.065-5.89,14.1056-3.4123,4.0606-7.1043,7.8859-10.67,11.8175-6.25,6.8915-12.5429,13.7229-20.6351,18.5886-1.1831.7113-2.03,1.9823-3.4794,3.4463,3.6319,1.2933,6.4078,2.4057,9.26,3.2664,3.7027,1.1176,7.4279,2.22,11.2112,2.999,7.2666,1.4973,14.5342,3.1539,21.8865,4.0343a60.9225,60.9225,0,0,0,32.7353-5.0192c1.8062-.8141,3.39-1.8059,3.9784-4.2157a10.3019,10.3019,0,0,1,3.37-5.0926c3.0967-2.5476,6.7088-4.4635,9.8468-6.9676,4.3395-3.4629,8.9492-6.7926,12.51-10.9737C360.4694,176.0533,364.0519,169.9528,368.3562,163.7357ZM287.1224,223.03c-2.8983-.6664-4.8642-1.0927-6.8171-1.5723-5.6472-1.3868-11.4239-2.4049-16.8977-4.2972-6.2761-2.1695-12.2384-5.2336-18.4433-7.6342-1.16-.4487-2.9639.1079-4.215.7217a32.9354,32.9354,0,0,0-4.4116,3.1855c-5.8449,4.2151-11.7083,8.4046-17.5485,12.6263-6.0712,4.3887-12.1122,8.819-18.1876,13.2018-4.8289,3.4838-9.7263,6.8736-14.527,10.3953-5.8038,4.2574-11.4757,8.6964-17.321,12.8949-4.9889,3.5835-10.2222,6.8271-15.2038,10.42-7.4155,5.3486-14.6808,10.9049-22.0636,16.3-1.909,1.3949-2.2168,2.7261-.661,4.5643,4.5214,5.3422,8.9271,10.784,13.5234,16.06,1.5488,1.7781,3.3784,4.2856,5.3447,4.56,9.35,1.3047,18.9105,2.5348,26.7915-4.755a11.5222,11.5222,0,0,0,3.0651-3.6933c.969-2.3951,1.2266-5.0722,2.1264-7.5038a6.6188,6.6188,0,0,1,2.5849-2.8507c.2347-.1565,1.4062,1.5678,2.3233,1.8486,1.3714.42,1.3685,3.6683,3.725,1.8119,1.8063-1.4231,3.52-2.9706,5.3783-4.32,3.9466-2.8647,7.1131-5.7846,6.3748-11.5643-.4789-3.7484,4.9474-6.6207,8.5113-5.054,2.5113,1.1039,4.4149,1.3346,7.1087-.64,3.8559-2.8259,6.5589-5.3164,6.0646-10.6574-.3641-3.9341,5.3318-7.5039,8.65-5.4638,3.6646,2.2529,5.6934.5381,7.9871-1.7131a18.4481,18.4481,0,0,1,1.4892-1.3481c6.7863-5.3418,13.5619-10.6976,20.3782-16.0011,5.6167-4.37,11.302-8.6521,16.92-13.02C281.6319,227.62,284,225.5905,287.1224,223.03ZM181.0882,120.1775c-3.4157,1.8788-6.3171,3.3571-9.102,5.0295-7.2645,4.3627-14.4643,8.8331-21.7163,13.2169-5.78,3.4941-11.7115,6.75-17.3764,10.42-10.325,6.6882-20.4745,13.6468-30.755,20.4047-4.0186,2.6416-8.2985,4.8908-12.2754,7.59-8.7669,5.95-17.4227,12.0647-26.111,18.1307-2.7381,1.9117-4.513,4.233-4.606,7.898-.1192,4.703-.2931,9.2069,4.1183,12.3238a7.4766,7.4766,0,0,1,1.1,1.364c4.2167,4.9409,8.439,9.8771,12.79,14.9664,1.8551-1.2638,3.6018-2.4443,5.3389-3.6387q9.51-6.54,19.018-13.083,11.1913-7.6589,22.41-15.2775c5.2288-3.5687,10.4425-7.16,15.674-10.7242,5.1607-3.5166,10.3073-7.0549,15.513-10.5037,3.9391-2.6095,8.0116-5.0187,11.9358-7.6495,6.3889-4.2832,12.6732-8.7227,19.0674-12.998,2.6893-1.7981,3.1644-3.0809,1.591-6.0039-3.3205-6.1689-4.5329-12.9563-5.63-19.7371C181.4585,128.1181,181.4092,124.2388,181.0882,120.1775Zm-56.0072,173.91c-2.3637,1.5428-4.5379,2.9467-6.6961,4.3747-2.3655,1.565-2.4159,2.5318-.4642,4.6644,2.3314,2.5473,4.633,5.1251,6.864,7.76,4.2943,5.0728,8.4877,10.2311,12.8,15.2879,5.162,6.0524,10.333,12.1,15.633,18.031q8.1946,9.17,16.7066,18.0521a4.0752,4.0752,0,0,0,3.6082.8776,43.7245,43.7245,0,0,0,9.4107-5.0226c6.2258-4.7719,12.1113-9.9861,18.1745-14.9724,9.1934-7.56,18.4311-15.0668,27.6272-22.6238,4.0772-3.3506,8.0511-6.8278,12.1562-10.1431,7.4091-5.9841,14.9262-11.8349,22.3129-17.8462,5.367-4.3678,10.556-8.9538,15.897-13.3544,7.9265-6.531,15.9991-12.8868,23.8572-19.498,7.634-6.4227,14.8331-13.3817,22.6618-19.5486,10.5436-8.3054,19.386-18.331,29.0375-27.5326,6.0937-5.81,11.8409-11.9814,17.9008-17.8279,4.6834-4.5184,9.6457-8.7469,14.38-13.2147.5168-.4877.7747-2.1619.4128-2.5046a12.6582,12.6582,0,0,0-4.4664-3.0425,5.2789,5.2789,0,0,0-4.2172.609,95.0192,95.0192,0,0,0-7.9291,7.1719q-14.9841,14.4165-29.9148,28.8885c-5.781,5.5961-11.2761,11.52-17.3574,16.7662-10.6332,9.1735-21.5935,17.9694-32.4684,26.86-4.9822,4.0732-10.1729,7.8933-15.1151,12.0129-6.914,5.7633-13.5908,11.8126-20.541,17.5306-7.5612,6.2207-15.3322,12.1859-22.9877,18.2926q-11.0226,8.7927-21.9952,17.648c-5.02,4.0409-10.04,8.0814-15.0193,12.1721-6.38,5.2414-12.6691,10.5952-19.1481,15.71-.6665.526-2.82.1994-3.4964-.4966-2.9541-3.0417-5.6253-6.3591-8.3848-9.5887-4.5445-5.3187-9.0284-10.69-13.6339-15.9554-2.9668-3.392-6.2081-6.5455-9.1448-9.9621C136.0272,307.2476,130.6441,300.7187,125.081,294.0875Zm172.0111-75.152a17.71,17.71,0,0,1-2.5737,3.3371c-3.7931,3.2468-7.7423,6.3111-11.6287,9.4491-5.1722,4.1761-10.3021,8.4061-15.522,12.5219q-13.11,10.3362-26.3194,20.5455c-1.3643,1.059-1.3049,2.0338-.5866,3.5217a41.2534,41.2534,0,0,1,2.8282,7.4029,6.5284,6.5284,0,0,1-6.319,8.047c-4.0641.101-6.516-2.6063-8.953-5.2-1.594-1.6961-2.7777-2.2095-4.3895-.0369a8.323,8.323,0,0,1-3.2593,2.7462c-2.8993,1.1847-2.1572,3.0941-.88,4.6066,2.119,2.51,1.9666,5.35,2.0292,8.2617.0728,3.3905-3.1577,6.5416-7.1931,6.2836-3.8118-.2438-6.1438-2.671-8.4966-4.981-1.5894-1.5607-2.3319-1.7879-3.8138.0419-1.0425,1.2871-2.7392,2.0406-4.1326,3.0479-6.3486,4.589-6.2855,4.5533-2.7808,10.2843.9187,1.5025,1.7012,1.7553,3.306,1.1246.9161-.36,2.1342.0481,3.2162.11l.3628,1.1705c-2.5344,2.1847-4.9971,4.4647-7.6648,6.4722-.5214.3922-1.9011-.1426-2.74-.5492a2.8093,2.8093,0,0,1,.4212-2.15c1.7488-1.4493.9688-2.7353.0164-4.0673-.45-.6294-1.0542-1.1478-1.5153-1.7707-1.9124-2.5837-3.0195-2.78-5.4824-.8447-3.7169,2.9205-7.3955,5.89-11.1325,8.7842a6.2338,6.2338,0,0,1-2.7683,1.52c-4.7332.4952-9.4868.8026-14.2366,1.1261a19.9657,19.9657,0,0,1-2.7022-.17l-.3942.6935c1.3638,1.7785,2.6127,3.6614,4.1152,5.3139,3.2031,3.5229,5.9551,7.7544,11.53,7.8682,2.3437.0479,4.683.3664,7.0258.3864,4.9295.0422,9.8118-.465,13.8423-3.63q11.7908-9.2581,23.3759-18.7775c9.94-8.1709,19.7728-16.4713,29.665-24.7,5.3168-4.4226,10.6731-8.7978,15.99-13.22q12.0944-10.0581,24.16-20.15,7.7386-6.4529,15.4863-12.8947,7.7489-6.4286,15.524-12.8253c2.9777-2.4439,6.26-4.5928,8.86-7.3824.9689-1.04.95-3.736.3639-5.2949-.671-1.7859-2.3216-.7557-3.6436.032a8.6221,8.6221,0,0,1-3.0477.9428C310.54,216.9453,304.0354,217.8975,297.0921,218.9355Zm-231.55,21.0119c2.25-1.7494,4.2588-3.3549,6.3167-4.8946,1.3392-1.002,1.0165-1.67-.0647-2.7472q-4.0693-4.0557-7.8273-8.4209c-4.3954-5.1044-8.608-10.3666-13.0212-15.4551-5.5641-6.4154-11.3262-12.66-16.8364-19.12-1.3962-1.637-2.33-4.0641-.238-5.7941A59.9268,59.9268,0,0,1,41.59,178.5c7.1988-4.2778,14.4712-8.4325,21.65-12.7427,7.15-4.2929,14.22-8.7207,21.3306-13.0794q7.1346-4.3731,14.287-8.7171,8.7491-5.316,17.5139-10.6062c4.2883-2.5762,8.6432-5.043,12.9032-7.6645,5.3909-3.3174,10.6988-6.7694,16.0736-10.1133,5.7945-3.6048,11.8411-6.8488,17.3845-10.8017,6.6829-4.7653,13.113-9.9226,19.3592-15.2538,7.5321-6.4289,15.1212-12.8638,22.0113-19.9517,6.9679-7.1679,14.9751-12.714,23.36-17.9091.7048-.4367.948-1.6185,1.4056-2.4541-1.0431-.3178-2.4578-1.2365-3.07-.8579-4.64,2.8694-9.4062,5.6521-13.5883,9.1187-5.98,4.9573-11.4707,10.503-17.2217,15.741-4.7467,4.3232-9.4658,8.6866-14.3836,12.81-5.4951,4.607-11.06,9.1565-16.8566,13.37-5.1226,3.7239-10.5738,7.0023-15.9382,10.3848-5.22,3.2915-10.4925,6.5015-15.7813,9.6818-5.9332,3.568-11.95,6.998-17.8574,10.6075-5.98,3.6537-11.8258,7.5276-17.8157,11.1646-4.3588,2.6465-8.8852,5.0154-13.2841,7.5979-4.8,2.8179-9.4664,5.8688-14.3238,8.58-5.0594,2.8243-10.352,5.2313-15.4066,8.0636-6.1337,3.437-12.14,7.1039-18.1727,10.7177-4.207,2.52-8.432,5.02-12.5179,7.7266-1.7067,1.1307-2.3008,2.6961-.5852,4.6634q7.9841,9.1554,15.7286,18.5188c8.1657,9.8954,16.2151,19.8866,24.36,29.7989A32.0455,32.0455,0,0,0,65.5419,239.9474ZM194.85,85.8116a27.573,27.573,0,0,0-2.9243,1.96c-4.7269,4.3486-9.3466,8.8161-14.1357,13.0942-7.8351,6.999-17.3739,11.3651-26.27,16.72-4.7155,2.8385-9.4756,5.6027-14.1975,8.43-5.79,3.4673-11.6027,6.8989-17.3273,10.4713-5.0451,3.1482-9.9825,6.4689-14.6725,9.5216,2.0331,3.5675,3.91,6.9987,5.9748,10.3126a2.36,2.36,0,0,0,2.2629.2692c6.515-4.2392,12.8552-8.753,19.439-12.8791,9.215-5.7749,18.5479-11.367,27.9234-16.8793,8.262-4.8579,16.91-9.0179,24.2013-15.4875a16.1174,16.1174,0,0,0,5.5475-10.0965,52.2084,52.2084,0,0,1,1.5135-5.2271C193.025,92.9147,193.8139,89.7935,194.85,85.8116ZM65.5949,175.2732c-1.93-.1974-3.0338-.35-4.1429-.4094a4.1379,4.1379,0,0,0-2.0549.1458c-2.0274,1.1085-4.0064,2.3179-5.9332,3.5956-5.774,3.8285-6.6716,9.99-7.5929,16.12a1.1713,1.1713,0,0,0,.1655.8448c2.4261,2.7864,4.88,5.5488,7.4847,8.495.4112-.7085.714-1.0121.7669-1.3542a17.4056,17.4056,0,0,1,6.9262-11.29c3.3592-2.67,8.0615-4.2524,8.4845-9.8048Zm10.9937-11.5126c-2.61,1.65-5.9015,3.6894-9.1145,5.8459-.2354.158-.0978,1.288.1995,1.7533,1.5021,2.351,3.2,4.5792,4.6619,6.9532,1.2268,1.9919,2.9823,2.68,4.904,1.7128a45.3431,45.3431,0,0,0,6.7377-4.4518c.3473-.2616.3079-1.6367-.0522-2.1387C81.7286,170.3733,79.3879,167.415,76.5886,163.7606Zm216.6075-21.7367c-1.5587-1.6345-2.8745-3.1646-4.3457-4.5268q-5.0545-4.6794-10.249-9.2067c-.7669-.67-5.7484.5776-5.7373,1.5064a5.3692,5.3692,0,0,0,1.7655,3.3856c4.13,3.8216,8.4459,7.4425,12.612,11.2267,1.4709,1.3361,2.6978,1.2423,3.98-.0842C291.8275,143.6981,292.362,143.0021,293.1961,142.0239Zm44.76,58.99c1.1943,0,1.6319.1328,1.9148-.02,3.72-2.0125,7.382-4.1362,11.13-6.0944,9.9077-5.1759,14.547-14.8012,20.0552-23.6824.2841-.458-.1595-1.3674-.2643-2.0667-.6058.1807-1.4695.1682-1.7741.5747a58.3778,58.3778,0,0,0-4.358,6.3759c-3.2291,5.77-7.1476,10.87-12.653,14.6906C347.468,193.9413,343.0635,197.2861,337.9565,201.0137Zm-39.199-68.3895c.3-6.7329-6.24-12.258-12.59-9.8323-2.11.806-2.6434,1.9987-1.2256,3.35q4.9465,4.7156,10.04,9.2757c1.62,1.444,2.983.9007,3.53-1.2775A10.25,10.25,0,0,0,298.7575,132.6242ZM94.1553,169.27c2.5688-1.7561,4.8711-3.2257,7.001-4.913.2781-.22-.1246-1.6971-.5673-2.3516-1.0624-1.5712-2.5029-2.8993-3.4756-4.5152a32.7451,32.7451,0,0,1-1.9734-4.7583c-1.6463.73-3.2941,1.4565-4.9372,2.1938-.2659.1193-.51.2868-.7644.4322-2.2048,1.2611-2.2349,2.082-.4415,3.9055C91.5134,161.8223,93.6665,164.63,94.1553,169.27ZM187.62,115.4347l-1.2615-.1054a23.1285,23.1285,0,0,0-.8375,4.0138,72.2624,72.2624,0,0,0,5.8652,31.48c.298.6876,1.3232,1.06,2.01,1.5787.1315-.8709.6346-1.9027.3376-2.5878-3.1457-7.256-5.6517-14.6556-5.7713-22.6727-.0437-2.9248-.04-5.85-.097-8.775C187.8465,117.388,187.7053,116.4118,187.62,115.4347ZM292.57,218.952l-.1623-1.2852c-14.7955-2.8849-29.7124-5.3036-43.7292-11.2751a4.7291,4.7291,0,0,0,1.945,1.8372c11.2315,4.2449,22.3815,8.7722,34.3835,10.4951,1.5329.22,3.0616.5317,4.6022.613A15.7734,15.7734,0,0,0,292.57,218.952ZM267.3959,121.98l2.4361-1.111a11.7628,11.7628,0,0,0-1.669-3.0586c-2.1872-2.1291-4.5425-4.09-6.8905-6.0464a13.9246,13.9246,0,0,0-2.3146-1.2925c-.5176.9958-1.4767,1.9916-1.4771,2.9876C257.4789,118.02,261.6156,121.8159,267.3959,121.98ZM239.7093,276.9407c.0186-3.2936-2.9827-8.43-4.2908-7.6451a10.9543,10.9543,0,0,0-4.6981,5.1637c-.7987,2.3537,2.8112,4.8743,6.1281,5.0547C239.0154,279.6319,239.96,278.8348,239.7093,276.9407Zm-24.4186,19.5425c.2262-.0443.9756.0158,1.1271-.2565.6429-1.1558,1.8819-2.82,1.4941-3.5517-1.1732-2.2131-.8475-5.6748-4.3882-6.2028a1.2309,1.2309,0,0,0-.8218.2615,28.988,28.988,0,0,0-3.33,2.7172,2.5435,2.5435,0,0,0-.5359,2.0075C209.3421,293.7407,212.7989,296.44,215.2907,296.4832ZM104.5913,161.2539l1.3083.0379c.6406-1.0531,2.0621-2.4307,1.7832-3.1015a32.171,32.171,0,0,0-4.1686-7.1823c-.5535-.72-2.2843-.5364-3.4767-.7659-.1361,1.05-.73,2.3413-.326,3.1057C101.1551,156.08,102.9373,158.633,104.5913,161.2539Zm78.2562,177.4494-.3865-.6178H169.118c1.1258,1.4944,1.8359,2.3839,2.4892,3.3134,2.8378,4.0368,2.8649,4.0855,6.6575,1.2649C179.8805,341.4621,181.3251,340.0305,182.8475,338.7033ZM82.0466,162.2078a11.5827,11.5827,0,0,0,4.7113,8.5889,3.0362,3.0362,0,0,0,2.65.1677c.4163-.1939.6708-1.7383.3538-2.3288-1.342-2.5-2.8739-4.9039-4.4558-7.2631a7.1651,7.1651,0,0,0-1.9047-1.4117ZM40.97,189.6657q.4811-.1368.9622-.2733l2.0443-6.409-.5716-.6877a27.405,27.405,0,0,0-4.6523,3.8956C38.4787,186.5312,40.1792,188.4655,40.97,189.6657Zm166.8916,90.983a30.6705,30.6705,0,0,0-2.7953,4.0645c-.1827.3815.6858,1.2663,1.0725,1.92,1.2668-1.2006,2.5587-2.3785,3.7278-3.6677A27.8591,27.8591,0,0,0,207.862,280.6487ZM228.6914,270.21c.9262-1.6618,1.6791-3.0124,2.4319-4.363-1.1532-.0122-2.59-.4681-3.4033.0518C225.7565,267.1545,227.0454,268.4248,228.6914,270.21Zm102.82-57.7965-.378-.9242a2.6943,2.6943,0,0,0-3.6085,1.58l.56,1.0242Q329.7986,213.2542,331.5118,212.4139Z"/><path class="cls-1" d="M285.67,155.102c-.1544,5.2806-3.4065,8.59-6.3154,11.8826-5.09,5.7618-10.2379,11.5106-15.7909,16.8152A184.235,184.235,0,0,1,247.91,196.8527c-8.184,6.2423-16.55,12.2478-24.898,18.2729-8.1946,5.9145-16.4907,11.6884-24.6892,17.5977-7.2588,5.232-14.4172,10.6036-21.6717,15.8417-5.6231,4.06-11.36,7.9633-16.9856,12.02-8.4882,6.1206-16.9089,12.3348-25.3873,18.4692-5.6032,4.0541-11.329,7.9417-16.8659,12.083-4.5877,3.4315-9.8052,6.1625-13.0186,11.216-.8934,1.405-1.8356,1.0561-2.7973-.0675-9.178-10.7244-18.41-21.4025-27.5514-32.1581-4.048-4.7628-8.0355-9.5891-11.7637-14.6-.6037-.8113-.2286-3.2977.5836-4.0527a119.1806,119.1806,0,0,1,11.4487-9.5087c9.7308-6.9993,19.5863-13.8273,29.4608-20.6238,5.1533-3.5469,10.498-6.8149,15.6766-10.3264,8.6861-5.89,17.271-11.93,25.9676-17.8039,9.9758-6.7384,20.0689-13.3034,30.03-20.0634,6.2014-4.2087,12.1828-8.7421,18.3907-12.941,6.22-4.2068,12.7273-7.9969,18.8545-12.3293,3.165-2.2379,5.8094-5.2238,8.6345-7.9286q9.8607-9.4407,19.6713-18.934c1.9581-1.8829,4.38-1.5141,6.2935-.4472a93.582,93.582,0,0,1,11.0823,7.2286c4.5678,3.4756,8.943,7.217,13.2618,11.0029,3.86,3.3836,7.6912,6.8316,11.2059,10.5614C284.2415,150.8454,284.7542,153.1636,285.67,155.102Zm-65.7456-4.7183c-.4706.6453-1.1722,1.1893-1.0963,1.5836a5.891,5.891,0,0,0,1.1913,3.0733c6.6032,6.2526,13.314,12.3915,19.99,18.567,2.3905,2.2112,4.6682,4.5639,7.2159,6.5752.8857.6993,2.92,1.1926,3.5744.6825,1.4658-1.142.5362-2.5651-.7133-3.5938-1.6215-1.3351-3.311-2.5972-4.8477-4.0239-7.216-6.7-14.3749-13.4612-21.595-20.1568A39.9582,39.9582,0,0,0,219.9244,150.3837Z"/><path class="cls-2" d="M368.3562,163.7357c-4.3043,6.2171-7.8868,12.3176-12.4044,17.6217-3.5612,4.1811-8.1709,7.5108-12.51,10.9737-3.138,2.5041-6.75,4.42-9.8468,6.9676a10.3019,10.3019,0,0,0-3.37,5.0926c-.5882,2.41-2.1722,3.4016-3.9784,4.2157a60.9225,60.9225,0,0,1-32.7353,5.0192c-7.3523-.88-14.62-2.537-21.8865-4.0343-3.7833-.78-7.5085-1.8814-11.2112-2.999-2.8518-.8607-5.6277-1.9731-9.26-3.2664,1.45-1.464,2.2963-2.735,3.4794-3.4463,8.0922-4.8657,14.3848-11.6971,20.6351-18.5886,3.5658-3.9316,7.2578-7.7569,10.67-11.8175,3.3954-4.0406,6.1744-8.3959,5.89-14.1056-.0634-1.2735.9087-2.74,1.7349-3.8776a8.99,8.99,0,0,1,3.31-3.083c1.07-.459,2.639-.065,3.8812.3049a3.823,3.823,0,0,1,1.81,1.7443c2.0515,3.4794,3.4954,1.1362,4.8566-.5287,1.6333-1.9978.1524-3.0677-1.3916-4.1679-3.1909-2.2739-3.3465-3.238-1.3025-6.446,3.6778-5.7719,2.1682-17.3554-2.8855-22.142-6.139-5.8148-12.5035-6.6937-20.35-2.8092-1.4656.7256-2.8958,1.9251-4.4055,2.0349a6.12,6.12,0,0,1-3.91-1.745c-3.1286-2.8089-6.049-5.8492-9.0594-8.79-1.1939-1.1663-1.2708-2.1762.3875-2.935,2.865-1.3111,5.7178-2.6532,8.6225-3.8707,1.361-.57,1.7771-1.2483,1.18-2.6823-2.1753-5.2208-2.2037-5.3655-7.5061-2.9649-2.7733,1.2558-5.2544,3.1444-7.9566,4.5794a4.0141,4.0141,0,0,1-2.6026.0837c-.5825-.1432-1.0347-.8322-1.5359-1.2875-1.6959-1.54-3.5323-2.3126-5.1687-.1158-1.43,1.92-.8494,3.51,1.1669,4.9041a3.2316,3.2316,0,0,1,1.1639,4.5571,45.317,45.317,0,0,0-2.5617,6.7541c-.6518,2.0428-2.299,1.9119-3.5461,1.3792-3.56-1.5206-6.8162-.005-9.1489,1.848a170.8288,170.8288,0,0,0-15.1484,14.0249c-6.118,6.2057-12.084,12.529-19.5979,17.1341-3.24,1.9861-4.6951,1.6263-5.9491-2.6317-1.4454-4.9075-2.3645-9.9725-3.4539-14.9816-.4745-2.1821-1.2548-4.4265-1.1075-6.5888a101.3658,101.3658,0,0,1,1.8521-14.4059A172.0954,172.0954,0,0,1,198.39,89.0281a53.8746,53.8746,0,0,1,21.055-27.2231c4.1146-2.8211,9.3266-4.0852,14.1067-5.8783,3.8441-1.442,6.1648,1.6429,8.6414,3.5553,5.31,4.1005,10.38,8.5129,15.5371,12.8106s10.2578,8.662,15.46,12.9026c6.6818,5.4464,13.4924,10.7354,20.149,16.2119,5.0908,4.1881,9.963,8.6421,15.0505,12.8343,7.25,5.9742,14.639,11.7795,21.91,17.729,4.9679,4.0652,9.8164,8.2758,14.7528,12.38,5.2975,4.4045,10.6461,8.7475,15.9509,13.1433C363.568,159.6187,366.0834,161.8033,368.3562,163.7357Z"/><path class="cls-2" d="M287.1224,223.03c-3.122,2.56-5.4905,4.59-7.95,6.5025-5.6183,4.368-11.3036,8.65-16.92,13.02-6.8163,5.3035-13.5919,10.6593-20.3782,16.0011a18.4481,18.4481,0,0,0-1.4892,1.3481c-2.2937,2.2512-4.3225,3.966-7.9871,1.7131-3.3185-2.04-9.0144,1.53-8.65,5.4638.4943,5.341-2.2087,7.8315-6.0646,10.6574-2.6938,1.9743-4.5974,1.7436-7.1087.64-3.5639-1.5667-8.99,1.3056-8.5113,5.054.7383,5.78-2.4282,8.7-6.3748,11.5643-1.8586,1.349-3.572,2.8965-5.3783,4.32-2.3565,1.8564-2.3536-1.3921-3.725-1.8119-.9171-.2808-2.0886-2.0051-2.3233-1.8486a6.6188,6.6188,0,0,0-2.5849,2.8507c-.9,2.4316-1.1574,5.1087-2.1264,7.5038a11.5222,11.5222,0,0,1-3.0651,3.6933c-7.881,7.29-17.4419,6.06-26.7915,4.755-1.9663-.2744-3.7959-2.7819-5.3447-4.56-4.5963-5.2762-9.002-10.718-13.5234-16.06-1.5558-1.8382-1.248-3.1694.661-4.5643,7.3828-5.3946,14.6481-10.9509,22.0636-16.3,4.9816-3.5931,10.2149-6.8367,15.2038-10.42,5.8453-4.1985,11.5172-8.6375,17.321-12.8949,4.8007-3.5217,9.6981-6.9115,14.527-10.3953,6.0754-4.3828,12.1164-8.8131,18.1876-13.2018,5.84-4.2217,11.7036-8.4112,17.5485-12.6263a32.9354,32.9354,0,0,1,4.4116-3.1855c1.2511-.6138,3.0553-1.17,4.215-.7217,6.2049,2.4006,12.1672,5.4647,18.4433,7.6342,5.4738,1.8923,11.25,2.91,16.8977,4.2972C282.2582,221.9373,284.2241,222.3636,287.1224,223.03Z"/><path class="cls-2" d="M181.0882,120.1775c.321,4.0613.37,7.9406.9834,11.7285,1.0975,6.7808,2.31,13.5682,5.63,19.7371,1.5734,2.923,1.0983,4.2058-1.591,6.0039-6.3942,4.2753-12.6785,8.7148-19.0674,12.998-3.9242,2.6308-7.9967,5.04-11.9358,7.6495-5.2057,3.4488-10.3523,6.9871-15.513,10.5037-5.2315,3.5647-10.4452,7.1555-15.674,10.7242q-11.2009,7.6447-22.41,15.2775-9.5248,6.5182-19.018,13.083c-1.7371,1.1944-3.4838,2.3749-5.3389,3.6387-4.3506-5.0893-8.5729-10.0255-12.79-14.9664a7.4766,7.4766,0,0,0-1.1-1.364c-4.4114-3.1169-4.2375-7.6208-4.1183-12.3238.093-3.665,1.8679-5.9863,4.606-7.898,8.6883-6.066,17.3441-12.18,26.111-18.1307,3.9769-2.6992,8.2568-4.9484,12.2754-7.59,10.2805-6.7579,20.43-13.7165,30.755-20.4047,5.6649-3.67,11.5963-6.926,17.3764-10.42,7.252-4.3838,14.4518-8.8542,21.7163-13.2169C174.7711,123.5346,177.6725,122.0563,181.0882,120.1775Z"/><path class="cls-2" d="M125.081,294.0875c5.5631,6.6312,10.9462,13.16,16.4609,19.5758,2.9367,3.4166,6.178,6.57,9.1448,9.9621,4.6055,5.2652,9.0894,10.6367,13.6339,15.9554,2.7595,3.23,5.4307,6.547,8.3848,9.5887.676.696,2.83,1.0226,3.4964.4966,6.479-5.1145,12.7684-10.4683,19.1481-15.71,4.9791-4.0907,10-8.1312,15.0193-12.1721q10.9833-8.8417,21.9952-17.648c7.6555-6.1067,15.4265-12.0719,22.9877-18.2926,6.95-5.718,13.627-11.7673,20.541-17.5306,4.9422-4.12,10.1329-7.94,15.1151-12.0129,10.8749-8.891,21.8352-17.6869,32.4684-26.86,6.0813-5.2462,11.5764-11.17,17.3574-16.7662q14.94-14.4622,29.9148-28.8885a95.0192,95.0192,0,0,1,7.9291-7.1719,5.2789,5.2789,0,0,1,4.2172-.609,12.6582,12.6582,0,0,1,4.4664,3.0425c.3619.3427.104,2.0169-.4128,2.5046-4.7342,4.4678-9.6965,8.6963-14.38,13.2147-6.06,5.8465-11.8071,12.0182-17.9008,17.8279-9.6515,9.2016-18.4939,19.2272-29.0375,27.5326-7.8287,6.1669-15.0278,13.1259-22.6618,19.5486-7.8581,6.6112-15.9307,12.967-23.8572,19.498-5.341,4.4006-10.53,8.9866-15.897,13.3544-7.3867,6.0113-14.9038,11.8621-22.3129,17.8462-4.1051,3.3153-8.079,6.7925-12.1562,10.1431-9.1961,7.557-18.4338,15.0634-27.6272,22.6238-6.0632,4.9863-11.9487,10.2-18.1745,14.9724a43.7245,43.7245,0,0,1-9.4107,5.0226,4.0752,4.0752,0,0,1-3.6082-.8776q-8.5149-8.8714-16.7066-18.0521c-5.3-5.9309-10.471-11.9786-15.633-18.031-4.3128-5.0568-8.5062-10.2151-12.8-15.2879-2.231-2.6353-4.5326-5.2131-6.864-7.76-1.9517-2.1326-1.9013-3.0994.4642-4.6644C120.5431,297.0342,122.7173,295.63,125.081,294.0875Z"/><path class="cls-2" d="M297.0921,218.9355c6.9433-1.038,13.4478-1.99,19.943-3.0023a8.6221,8.6221,0,0,0,3.0477-.9428c1.322-.7877,2.9726-1.8179,3.6436-.032.5858,1.5589.605,4.2554-.3639,5.2949-2.6,2.79-5.8818,4.9385-8.86,7.3824q-7.7827,6.3874-15.524,12.8253-7.7547,6.4335-15.4863,12.8947-12.0813,10.0738-24.16,20.15c-5.3173,4.422-10.6736,8.7972-15.99,13.22-9.8922,8.2288-19.7254,16.5292-29.665,24.7q-11.5806,9.52-23.3759,18.7775c-4.03,3.1649-8.9128,3.6721-13.8423,3.63-2.3428-.02-4.6821-.3385-7.0258-.3864-5.5751-.1138-8.3271-4.3453-11.53-7.8682-1.5025-1.6525-2.7514-3.5354-4.1152-5.3139l.3942-.6935a19.9657,19.9657,0,0,0,2.7022.17c4.75-.3235,9.5034-.6309,14.2366-1.1261a6.2338,6.2338,0,0,0,2.7683-1.52c3.737-2.8943,7.4156-5.8637,11.1325-8.7842,2.4629-1.9353,3.57-1.739,5.4824.8447.4611.6229,1.0652,1.1413,1.5153,1.7707.9524,1.332,1.7324,2.618-.0164,4.0673a2.8093,2.8093,0,0,0-.4212,2.15c.8386.4066,2.2183.9414,2.74.5492,2.6677-2.0075,5.13-4.2875,7.6648-6.4722l-.3628-1.1705c-1.082-.0622-2.3-.47-3.2162-.11-1.6048.6307-2.3873.3779-3.306-1.1246-3.5047-5.731-3.5678-5.6953,2.7808-10.2843,1.3934-1.0073,3.09-1.7608,4.1326-3.0479,1.4819-1.83,2.2244-1.6026,3.8138-.0419,2.3528,2.31,4.6848,4.7372,8.4966,4.981,4.0354.258,7.2659-2.8931,7.1931-6.2836-.0626-2.9114.09-5.7515-2.0292-8.2617-1.2769-1.5125-2.019-3.4219.88-4.6066a8.323,8.323,0,0,0,3.2593-2.7462c1.6118-2.1726,2.7955-1.6592,4.3895.0369,2.437,2.5934,4.8889,5.3007,8.953,5.2a6.5284,6.5284,0,0,0,6.319-8.047,41.2534,41.2534,0,0,0-2.8282-7.4029c-.7183-1.4879-.7777-2.4627.5866-3.5217q13.189-10.2351,26.3194-20.5455c5.22-4.1158,10.35-8.3458,15.522-12.5219,3.8864-3.138,7.8356-6.2023,11.6287-9.4491A17.71,17.71,0,0,0,297.0921,218.9355Z"/><path class="cls-2" d="M65.5419,239.9474a32.0455,32.0455,0,0,1-3.387-3.0533c-8.1453-9.9123-16.1947-19.9035-24.36-29.7989q-7.7317-9.3695-15.7286-18.5188c-1.7156-1.9673-1.1215-3.5327.5852-4.6634,4.0859-2.7068,8.3109-5.2068,12.5179-7.7266,6.0332-3.6138,12.039-7.2807,18.1727-10.7177,5.0546-2.8323,10.3472-5.2393,15.4066-8.0636,4.8574-2.7114,9.5242-5.7623,14.3238-8.58,4.3989-2.5825,8.9253-4.9514,13.2841-7.5979,5.99-3.637,11.8357-7.5109,17.8157-11.1646,5.9074-3.6095,11.9242-7.0395,17.8574-10.6075,5.2888-3.18,10.5613-6.39,15.7813-9.6818,5.3644-3.3825,10.8156-6.6609,15.9382-10.3848,5.7966-4.2139,11.3615-8.7634,16.8566-13.37,4.9178-4.1231,9.6369-8.4865,14.3836-12.81,5.751-5.238,11.2413-10.7837,17.2217-15.741,4.1821-3.4666,8.9479-6.2493,13.5883-9.1187.6125-.3786,2.0272.54,3.07.8579-.4576.8356-.7008,2.0174-1.4056,2.4541-8.3852,5.1951-16.3924,10.7412-23.36,17.9091-6.89,7.0879-14.4792,13.5228-22.0113,19.9517-6.2462,5.3312-12.6763,10.4885-19.3592,15.2538-5.5434,3.9529-11.59,7.1969-17.3845,10.8017-5.3748,3.3439-10.6827,6.7959-16.0736,10.1133-4.26,2.6215-8.6149,5.0883-12.9032,7.6645q-8.7757,5.2719-17.5139,10.6062-7.1514,4.3455-14.287,8.7171c-7.1109,4.3587-14.18,8.7865-21.3306,13.0794-7.1792,4.31-14.4516,8.4649-21.65,12.7427a59.9268,59.9268,0,0,0-7.7187,5.015c-2.0919,1.73-1.1582,4.1571.238,5.7941,5.51,6.46,11.2723,12.7051,16.8364,19.12,4.4132,5.0885,8.6258,10.3507,13.0212,15.4551q3.75,4.3543,7.8273,8.4209c1.0812,1.0775,1.4039,1.7452.0647,2.7472C69.8007,236.5925,67.7922,238.198,65.5419,239.9474Z"/><path class="cls-2" d="M194.85,85.8116c-1.0359,3.9819-1.8248,7.1031-2.6653,10.21a52.2084,52.2084,0,0,0-1.5135,5.2271,16.1174,16.1174,0,0,1-5.5475,10.0965c-7.2914,6.47-15.9393,10.63-24.2013,15.4875-9.3755,5.5123-18.7084,11.1044-27.9234,16.8793-6.5838,4.1261-12.924,8.64-19.439,12.8791a2.36,2.36,0,0,1-2.2629-.2692c-2.065-3.3139-3.9417-6.7451-5.9748-10.3126,4.69-3.0527,9.6274-6.3734,14.6725-9.5216,5.7246-3.5724,11.5374-7.004,17.3273-10.4713,4.7219-2.8278,9.482-5.592,14.1975-8.43,8.8965-5.3551,18.4353-9.7212,26.27-16.72,4.7891-4.2781,9.4088-8.7456,14.1357-13.0942A27.573,27.573,0,0,1,194.85,85.8116Z"/><path class="cls-2" d="M65.5949,175.2732l4.1039,6.3426c-.423,5.5524-5.1253,7.1346-8.4845,9.8048a17.4056,17.4056,0,0,0-6.9262,11.29c-.0529.3421-.3557.6457-.7669,1.3542-2.6047-2.9462-5.0586-5.7086-7.4847-8.495a1.1713,1.1713,0,0,1-.1655-.8448c.9213-6.13,1.8189-12.2915,7.5929-16.12,1.9268-1.2777,3.9058-2.4871,5.9332-3.5956a4.1379,4.1379,0,0,1,2.0549-.1458C62.5611,174.9235,63.6651,175.0758,65.5949,175.2732Z"/><path class="cls-2" d="M76.5886,163.7606c2.7993,3.6544,5.14,6.6127,7.3364,9.6747.36.502.4,1.8771.0522,2.1387a45.3431,45.3431,0,0,1-6.7377,4.4518c-1.9217.9673-3.6772.2791-4.904-1.7128-1.462-2.374-3.16-4.6022-4.6619-6.9532-.2973-.4653-.4349-1.5953-.1995-1.7533C70.6871,167.45,73.9786,165.41,76.5886,163.7606Z"/><path class="cls-2" d="M293.1961,142.0239c-.8341.9782-1.3686,1.6742-1.9746,2.301-1.2821,1.3265-2.509,1.42-3.98.0842-4.1661-3.7842-8.4816-7.4051-12.612-11.2267a5.3692,5.3692,0,0,1-1.7655-3.3856c-.0111-.9288,4.97-2.1764,5.7373-1.5064q5.1875,4.5316,10.249,9.2067C290.3216,138.8593,291.6374,140.3894,293.1961,142.0239Z"/><path class="cls-2" d="M337.9565,201.0137c5.107-3.7276,9.5115-7.0724,14.0508-10.2224,5.5054-3.82,9.4239-8.9207,12.653-14.6906a58.3778,58.3778,0,0,1,4.358-6.3759c.3046-.4065,1.1683-.394,1.7741-.5747.1048.6993.5484,1.6087.2643,2.0667-5.5082,8.8812-10.1475,18.5065-20.0552,23.6824-3.7482,1.9582-7.41,4.0819-11.13,6.0944C339.5884,201.1465,339.1508,201.0137,337.9565,201.0137Z"/><path class="cls-2" d="M298.7575,132.6242a10.25,10.25,0,0,1-.2456,1.5162c-.5472,2.1782-1.91,2.7215-3.53,1.2775q-5.101-4.5476-10.04-9.2757c-1.4178-1.3516-.8845-2.5443,1.2256-3.35C292.5172,120.3662,299.0574,125.8913,298.7575,132.6242Z"/><path class="cls-2" d="M94.1553,169.27c-.4888-4.6405-2.6419-7.448-5.1584-10.0066-1.7934-1.8235-1.7633-2.6444.4415-3.9055.2542-.1454.4985-.3129.7644-.4322,1.6431-.7373,3.2909-1.4638,4.9372-2.1938a32.7451,32.7451,0,0,0,1.9734,4.7583c.9727,1.6159,2.4132,2.944,3.4756,4.5152.4427.6545.8454,2.1312.5673,2.3516C99.0264,166.0446,96.7241,167.5142,94.1553,169.27Z"/><path class="cls-2" d="M187.62,115.4347c.0855.9771.2267,1.9533.2458,2.9318.0572,2.9245.0533,5.85.097,8.775.12,8.0171,2.6256,15.4167,5.7713,22.6727.297.6851-.2061,1.7169-.3376,2.5878-.6871-.5189-1.7123-.8911-2.01-1.5787a72.2624,72.2624,0,0,1-5.8652-31.48,23.1285,23.1285,0,0,1,.8375-4.0138Z"/><path class="cls-2" d="M292.57,218.952a15.7734,15.7734,0,0,1-2.9608.385c-1.5406-.0813-3.0693-.3929-4.6022-.613-12.002-1.7229-23.152-6.25-34.3835-10.4951a4.7291,4.7291,0,0,1-1.945-1.8372c14.0168,5.9715,28.9337,8.39,43.7292,11.2751Z"/><path class="cls-2" d="M267.3959,121.98c-5.78-.1642-9.917-3.9606-9.9151-8.5209,0-.996.9595-1.9918,1.4771-2.9876a13.9246,13.9246,0,0,1,2.3146,1.2925c2.348,1.9564,4.7033,3.9173,6.8905,6.0464a11.7628,11.7628,0,0,1,1.669,3.0586Z"/><path class="cls-2" d="M239.7093,276.9407c.251,1.8941-.6939,2.6912-2.8608,2.5733-3.3169-.18-6.9268-2.701-6.1281-5.0547a10.9543,10.9543,0,0,1,4.6981-5.1637C236.7266,268.511,239.7279,273.6471,239.7093,276.9407Z"/><path class="cls-2" d="M215.2907,296.4832c-2.4918-.0434-5.9486-2.7425-6.4545-5.0248a2.5435,2.5435,0,0,1,.5359-2.0075,28.988,28.988,0,0,1,3.33-2.7172,1.2309,1.2309,0,0,1,.8218-.2615c3.5407.528,3.215,3.99,4.3882,6.2028.3878.7315-.8512,2.3959-1.4941,3.5517C216.2663,296.499,215.5169,296.4389,215.2907,296.4832Z"/><path class="cls-2" d="M104.5913,161.2539c-1.654-2.6209-3.4362-5.1741-4.88-7.9061-.4039-.7644.19-2.056.3259-3.1057,1.1925.23,2.9233.0455,3.4768.7659a32.171,32.171,0,0,1,4.1686,7.1823c.2789.6708-1.1426,2.0484-1.7832,3.1015Z"/><path class="cls-3" d="M182.8475,338.7033c-1.5224,1.3272-2.967,2.7588-4.5828,3.96-3.7926,2.8206-3.82,2.7719-6.6575-1.2649-.6533-.93-1.3634-1.819-2.4892-3.3134h13.343Z"/><path class="cls-2" d="M82.0466,162.2078l1.3551-2.247a7.1651,7.1651,0,0,1,1.9047,1.4117c1.5819,2.3592,3.1138,4.7636,4.4558,7.2631.317.59.0625,2.1349-.3538,2.3288a3.0362,3.0362,0,0,1-2.65-.1677A11.5827,11.5827,0,0,1,82.0466,162.2078Z"/><path class="cls-3" d="M40.97,189.6657c-.7912-1.2-2.4917-3.1345-2.2174-3.4744a27.405,27.405,0,0,1,4.6523-3.8956l.5716.6877-2.0443,6.409Q41.4516,189.5289,40.97,189.6657Z"/><path class="cls-2" d="M207.862,280.6487a27.8591,27.8591,0,0,1,2.005,2.3172c-1.1691,1.2892-2.461,2.4671-3.7278,3.6677-.3867-.6541-1.2552-1.5389-1.0725-1.92A30.6705,30.6705,0,0,1,207.862,280.6487Z"/><path class="cls-2" d="M228.6914,270.21c-1.646-1.7856-2.9349-3.0559-.9714-4.3112.813-.52,2.25-.064,3.4033-.0518C230.3705,267.198,229.6176,268.5486,228.6914,270.21Z"/><path class="cls-2" d="M331.5118,212.4139q-1.7131.84-3.4265,1.68l-.56-1.0242a2.6943,2.6943,0,0,1,3.6085-1.58Z"/><path d="M219.9244,150.3837a39.9582,39.9582,0,0,1,3.72,2.7071c7.22,6.6956,14.379,13.457,21.595,20.1568,1.5367,1.4267,3.2262,2.6888,4.8477,4.0239,1.2495,1.0287,2.1791,2.4518.7133,3.5938-.6546.51-2.6887.0168-3.5744-.6825-2.5477-2.0113-4.8254-4.364-7.2159-6.5752-6.6762-6.1755-13.387-12.3144-19.99-18.567a5.891,5.891,0,0,1-1.1913-3.0733C218.7522,151.573,219.4538,151.029,219.9244,150.3837Z"/></svg>