<svg id="Layer_1" data-name="Layer 1" xmlns="http://www.w3.org/2000/svg" viewBox="0 0 400 400"><defs><style>.cls-1{fill:#7d7e84;}.cls-2{fill:#c3c3c3;}</style></defs><title>loop</title><path d="M138.8255,321.9865c-5.2167,6.9087-10.1978,13.52-15.1946,20.12-6.4913,8.5732-13.014,17.1227-19.4806,25.7144-1.6791,2.231-3.1391,4.6277-4.8325,6.8469a3.0973,3.0973,0,0,1-2.15,1.1947c-.4936-.0124-1.1415-1.0313-1.41-1.7212q-3.7324-9.5734-7.3391-19.1957c-1.62-4.3308-3.12-8.7066-4.7128-13.0479q-5.2491-14.3058-10.5344-28.5984C71.12,307.7138,69.1457,302.1,67.0556,296.53c-3.2541-8.672-6.6172-17.303-9.859-25.98-2.6928-7.2068-5.2692-14.4571-7.912-21.6827-2.9739-8.1309-6.022-16.2352-8.9269-24.3907-1.83-5.1386-3.3853-10.3751-5.198-15.52-1.5065-4.276-3.2721-8.46-4.8007-12.7291-.9138-2.5518-1.5745-5.1934-2.38-7.7849-1.3238-4.2581-2.732-8.4908-3.9954-12.7664-1.3347-4.5167-2.7172-9.0328-3.7184-13.6278-.4048-1.8578.0507-3.9353.29-5.8915.2061-1.6888-.3306-2.06-1.932-1.681-7.3411,1.7389-14.7114,3.3551-22.0469,5.117-4.1.9847-8.14,2.2155-12.2323,3.2373-1.5887.3968-3.245.5231-4.7147.7487-.3016-.38-.4669-.4951-.4936-.6361-.8985-4.755-.8872-4.7168,4.028-5.9006,5.6351-1.3571,11.2453-2.8172,16.8777-4.1856,5.7905-1.4068,11.585-2.8011,17.4-4.1033,1.6174-.3623,2.1933-1.14,2.5945-2.7767a66.896,66.896,0,0,1,8.64-20.9826c3.019-4.6189,5.878-9.3426,8.9054-13.9559,3.524-5.37,7.16-10.6667,10.7356-16.0029,2.4752-3.6938,4.9506-7.3876,7.3909-11.1044,3.6158-5.5072,7.2388-11.01,10.7854-16.5619C68.8809,63.6291,71.053,59.75,73.486,56.04q4.32-6.5858,8.9419-12.971c1.5311-2.1242,3.305-4.08,5.0408-6.0481a10.1313,10.1313,0,0,1,7.8745-3.5749c7.1668.0126,14.38-.381,21.4878.3a233.4386,233.4386,0,0,1,24.24,3.9368,222.2315,222.2315,0,0,0,32.6535,3.8589c11.5446.6137,23.1,1.1219,34.6566,1.3753,6.664.1462,13.3516-.1294,20.0091-.534,6.3047-.3832,12.62-.939,18.8642-1.8683a117.6723,117.6723,0,0,0,18.2168-3.73c11.502-3.6433,23.0948-2.9006,34.5706-1.0552a33.2827,33.2827,0,0,1,18.8738,10.0848c2.7792,2.9432,4.7131,6.6885,7.001,10.09q4.5869,6.82,9.1281,13.67,5.5536,8.3966,11.0549,16.8279c3.7462,5.7537,7.5275,11.4869,11.1482,17.3192,2.3857,3.8427,4.513,7.8457,6.7585,11.7756,2.3963,4.1937,4.9168,8.3223,7.155,12.5987a83.4626,83.4626,0,0,1,4.7855,10.5888c1.3,3.6473,2.9427,5.9533,7.308,6.5641,7.5176,1.0519,14.9263,2.9182,22.354,4.563,4.6657,1.0331,9.2967,2.2351,13.908,3.491a3.9192,3.9192,0,0,1,1.8708,1.5927c-.6086,1.0916-.2993,3.1561-2.4248,2.8844-2.7247-.3482-5.4656-.6605-8.1475-1.2323-4.7634-1.0155-9.4814-2.2424-14.23-3.3294-5.064-1.1591-10.1585-2.189-15.2071-3.41-3.0546-.7388-3.38-.6169-3.9825,2.4585-1.1451,5.8407-2.2061,11.7015-3.5244,17.5034-1.0224,4.499-2.4416,8.9063-3.5748,13.3821-.8868,3.5029-1.48,7.0829-2.4353,10.5649-.91,3.3142-2.1239,6.5446-3.197,9.8142-.7952,2.423-1.5164,4.8723-2.3785,7.2711-3.232,8.9929-6.51,17.9692-9.7673,26.953-2.1911,6.0433-4.3164,12.1113-6.5795,18.1275-3.0425,8.088-6.2384,16.1184-9.2711,24.21-1.5893,4.24-2.906,8.5825-4.4612,12.8365-2.4683,6.7516-5.0493,13.4619-7.552,20.2011-1.6635,4.48-3.2377,8.993-4.9175,13.4666-1.65,4.3934-3.4151,8.7436-5.07,13.1353-1.657,4.3978-3.1938,8.8412-4.8685,13.2321-1.6438,4.31-3.4334,8.5644-5.0772,12.8743-.56,1.4693-.7848,3.0663-1.34,4.5383-.2307.6121-.8776,1.3968-1.42,1.4695a2.45,2.45,0,0,1-1.784-1.0221c-5.6011-7.5728-11.0275-15.2776-16.7418-22.7629-5.1574-6.7555-10.4163-13.4546-15.9946-19.8617-6.008-6.9007-12.2085-13.67-18.7554-20.0548a231.594,231.594,0,0,0-18.3583-15.942,53.4646,53.4646,0,0,0-19.6529-10.1075c-2.8716-.7482-4.6941,1.1892-6.9328,1.99-4.9582,1.7744-9.7831,3.919-14.73,5.727-2.5572.9344-5.3107,1.3329-7.8638,2.276a3.4052,3.4052,0,0,0-1.5723,2.4406,43.4712,43.4712,0,0,0-.1383,5.9944q.5014,48.298,1.0262,96.596c.0331,3.0483-.3042,3.303-3.243,2.9833-1.9232-.2092-1.9636-1.4791-1.97-2.8594-.0306-6.6745.0662-13.3519-.0977-20.0229-.2146-8.7277-.6518-17.45-.9419-26.176-.05-1.5157-.7-1.87-2.1461-2.0063-4.2762-.4023-8.7125-.4489-12.7557-1.7016-8.4628-2.6221-15.7139-7.03-18.2113-16.4517C140.3484,328.0592,139.6494,325.22,138.8255,321.9865ZM364.206,131.7612c-.3052-2.9335.0873-5.7162-.9464-7.7869-2.4542-4.9159-5.5472-9.5173-8.45-14.2034-3.55-5.73-7.1226-11.4479-10.7721-17.1151-4.3084-6.69-8.7039-13.3245-13.0721-19.9762-3.75-5.7108-7.4575-11.4512-11.2979-17.1009-1.9379-2.8508-3.6669-6.1235-6.2964-8.1693-6.6047-5.1385-14.47-7.593-22.7719-8.109-5.2258-.3248-10.4989.0961-15.75.2095a10.7313,10.7313,0,0,0-2.4745.2905c-5.9768,1.5689-11.8941,3.4045-17.9273,4.705a93.0013,93.0013,0,0,1-14.2983,1.9579c-10.5722.5965-21.1642,1.16-31.7479,1.1563-15.227-.0059-30.49.5144-45.6392-1.8839-5.8931-.9329-11.8831-1.2446-17.7855-2.1292-7.8606-1.178-15.6357-3.0694-23.5271-3.859-8.1056-.8111-16.3064-.6793-24.4665-.93a7.87,7.87,0,0,0-6.9613,3.6c-3.2269,4.4675-6.7,8.7629-9.7992,13.3151-2.9676,4.3593-5.5768,8.9619-8.3675,13.4427-3.7777,6.0657-7.5036,12.1655-11.3939,18.1584-2.8235,4.35-5.9212,8.52-8.818,12.8232-3.8115,5.6624-7.5931,11.3461-11.2975,17.0788-2.75,4.2552-5.3562,8.6031-8.0265,12.91l.7691.019c.3644,1.0816.81,2.1439,1.0725,3.25a26.8306,26.8306,0,0,1,.69,4.1311,3.8484,3.8484,0,0,1-.4348,2.4418,2.2551,2.2551,0,0,1-2.1038.6161,3.8055,3.8055,0,0,1-1.2124-2.23,20.82,20.82,0,0,1-.2935-3.2345l-.8984-.1589c-1.23,3.329-3.1383,6.5735-3.5659,10.0025a62.91,62.91,0,0,0,4.2433,31.1707c2.0515,5.2258,3.38,10.7343,5.0612,16.1069.8641,2.7612,1.7155,5.53,2.6968,8.25,1.5424,4.2757,3.2745,8.484,4.7706,12.7752,1.773,5.0854,3.2945,10.2587,5.0812,15.3391,2.5232,7.1748,5.2132,14.2907,7.7857,21.4484,1.4814,4.1217,2.7963,8.3041,4.3207,12.4093,2.4146,6.5027,4.9792,12.95,7.4083,19.447,1.5943,4.2644,2.9932,8.602,4.6008,12.8611,2.9728,7.8762,6.0814,15.7012,9.0443,23.581,2.3272,6.1892,4.4464,12.4569,6.7911,18.6392,3.1646,8.3447,6.4456,16.6454,9.7146,24.95a11.1193,11.1193,0,0,0,1.2685,1.9348,9.8572,9.8572,0,0,0,1.8383-1.5189c2.5087-3.3692,4.8741-6.8463,7.42-10.1862,4.97-6.52,10.0827-12.9315,15.0316-19.4672,4.3646-5.764,8.48-11.718,12.9-17.4384,4.9993-6.4709,9.9251-13.0393,15.4278-19.0677A111.2135,111.2135,0,0,1,166.27,283.0443a30.352,30.352,0,0,1,15.6978-6.3627,2.331,2.331,0,0,0,1.7385-1.1126c.152-.4635-.4329-1.3408-.9141-1.8069a26.2,26.2,0,0,0-4.1313-3.51,4.5215,4.5215,0,0,0-2.9169-.1754c-.6614.12-1.1777,1.0243-1.8407,1.1515-1.12.2148-2.8784.5722-3.3462.0137-1.0857-1.2963.3061-2.2336,1.3895-2.8255,2.0586-1.1248,2.397-1.5089.29-3.6057q-11.0385-10.9857-21.2016-22.8416a252.0093,252.0093,0,0,1-16.7816-21.5165c-5.7575-8.4-10.9972-17.1851-16.0008-26.0626a216.39,216.39,0,0,1-10.1783-20.8431c-3.6182-8.421-7.0206-16.9635-9.9418-25.6467-2.6872-7.9876-4.6483-16.2219-6.854-24.3679-.8208-3.031-1.535-6.1-2.1106-9.1865-1.1371-6.098-2.4887-12.185-3.1188-18.3412A77.56,77.56,0,0,1,87.06,71.69a34.2692,34.2692,0,0,1,4.4742-11.6552c2.1705-3.3887,4.9409-5.4406,9.2866-4.39,2.3212.5609,4.7151.8343,7.0844,1.1815,8.5326,1.25,17.06,2.5371,25.606,3.6934,7.2512.9811,14.5231,1.8091,21.7881,2.6865,1.82.22,3.6558.309,5.47.5611,6.7188.9334,13.4125,2.5075,20.1515,2.724,9.1222.293,18.2867-.2765,27.4158-.7846,9.1174-.5074,18.2175-1.3487,27.3175-2.133,5.9594-.5136,11.9079-1.16,17.8563-1.7945,6.7626-.7209,13.5158-1.5305,20.2805-2.23,3.3139-.3424,6.6535-.439,9.9656-.7945,4.6135-.4953,9.2019-1.2628,13.8238-1.6192a7.8383,7.8383,0,0,1,4.0811,1.2967c4.7733,2.7206,6.7981,7.587,7.5831,12.428a77.87,77.87,0,0,1,.7042,18.6609c-.585,7.1376-2.1784,14.21-3.6039,21.2559-1.1294,5.5827-2.5128,11.1263-4.0589,16.61-2.1243,7.5338-4.4956,14.9983-6.7889,22.484-.7955,2.5968-1.6022,5.1943-2.53,7.7455-1.7766,4.8854-3.5778,9.764-5.4935,14.596-1.6,4.0361-3.2012,8.0893-5.1255,11.9747-2.0763,4.1926-4.4766,8.2293-6.8328,12.2774-2.0188,3.4682-4.0211,6.963-6.3031,10.2573-4.43,6.3951-9.0237,12.6773-13.6015,18.9686-3.4624,4.7585-6.87,9.5669-10.5455,14.1579-4.9133,6.1367-10.05,12.0946-15.1136,18.1107-4.9473,5.8784-9.848,11.7991-14.9387,17.5513-1.236,1.3965-.7951,1.579.4938,2.187a127.1914,127.1914,0,0,1,12.3313,6.1121c9.3485,5.7243,17.3493,13.211,25.1807,20.7686A230.975,230.975,0,0,1,270.15,323.4288c8.0376,9.687,15.7115,19.676,23.5426,29.5345,2.2131,2.786,4.4347,5.5652,6.9559,8.7282,1.8127-4.7329,3.4358-8.91,5.0126-13.1045,1.6692-4.4406,3.297-8.8967,4.9374-13.3481.7134-1.9357,1.3818-3.8885,2.1253-5.8125,2.2811-5.9032,4.6011-11.7914,6.8806-17.6953,1.13-2.9271,2.2158-5.8715,3.3015-8.8154,1.8274-4.9552,3.6642-9.9072,5.4489-14.8778,1.4781-4.117,2.8234-8.2824,4.3432-12.3834,1.6885-4.5563,3.5216-9.0588,5.2668-13.5942,1.5717-4.0844,3.0924-8.1884,4.6672-12.2716,1.7767-4.6064,3.6852-9.1644,5.3583-13.8076,1.6475-4.5724,3.0079-9.2476,4.6109-13.837,1.8994-5.4376,3.9841-10.8107,5.8666-16.2539.8589-2.4835,1.3116-5.1069,2.159-7.5952.7611-2.2351,2.072-4.3017,2.6814-6.5661,1.61-5.9822,3.09-12.0056,4.399-18.0607,1.5147-7.0053,2.7779-14.0646,4.1768-21.0952,1.1394-5.7264.84-11.3465-2.2735-16.3584C368.3961,134.2606,368.7735,129.7887,364.206,131.7612ZM101.69,138.7764a29.0825,29.0825,0,0,0,.6125,3.48c1.2067,3.7677,2.386,7.55,3.77,11.2538,1.556,4.1643,3.2208,8.2949,5.0189,12.36,2.9327,6.6305,5.9321,13.2344,9.0591,19.7751,1.8814,3.9353,3.9116,7.8164,6.1375,11.566q4.4662,7.524,9.3592,14.7925c4.3077,6.3964,8.5985,12.8237,13.2875,18.9379,3.9805,5.19,8.3863,10.0749,12.8382,14.8776,5.4153,5.8423,10.8156,11.7439,16.7039,17.0895,5.8905,5.3477,12.4434,9.9593,18.5574,15.0713a4.74,4.74,0,0,0,5.4889.8254,12.1782,12.1782,0,0,0,3.67-2.4272c2.7268-2.7964,5.3079-5.7378,7.8933-8.6689,5.3-6.009,10.6669-11.964,15.8167-18.1,5.0134-5.9733,9.8357-12.1093,14.6563-18.2412,3.8023-4.8363,7.6084-9.68,11.1683-14.6938,3.7994-5.3513,7.4948-10.7949,10.9044-16.4,4.56-7.4962,9.2779-14.9595,13.0406-22.8595,3.4908-7.329,5.825-15.21,8.6481-22.8551q1.536-4.1594,2.9712-8.3555c.794-2.3353,1.5048-4.6988,2.3726-7.4275-1.5235.0826-2.4239.0905-3.3149.1864-5.3574.5764-10.709,1.2077-16.0694,1.7541-6.8553.6987-13.71,1.4274-20.5777,1.9742-9.0307.719-18.0692,1.7-27.1139,1.8149-22.3978.2857-44.7873,1.0839-67.2038-.5053-13.351-.9466-26.729-1.4667-40.0245-3.1213-1.8035-.2244-3.5939-.5565-5.3989-.7651C110.0235,139.66,106.08,139.2522,101.69,138.7764Zm194.5583-10.1423c-1.6523.1744-3.114.4274-4.5769.435-.5912.003-1.1852-.53-1.7779-.8193.3272-.5593.541-1.4639,1.0022-1.6155,1.6308-.536,3.38-.7084,5.015-1.2355.7993-.2577,1.9273-.8766,2.0857-1.5308,1.9074-7.8764,3.7967-15.7627,5.3951-23.7059.7533-3.7436.4377-7.7251,1.3726-11.4041,1.6328-6.4256-.3371-12.5211-.9335-18.7462a1.5149,1.5149,0,0,0-.8271-1.1087c-1.6447-.3945-1.6778-1.57-1.6829-2.8921-.0082-2.1091-2.776-4.4361-4.8267-4.1291-5.9726.8944-11.9328,1.8844-17.9211,2.6574-6.0835.7852-12.1946,1.3577-18.2938,2.0213-6.2676.6821-12.5285,1.4368-18.8049,2.0246-9.1894.8606-18.3763,1.8843-27.5888,2.33-16.2961.7882-32.5939,1.78-48.8549-1.122-9.7191-1.7347-19.5765-2.6944-29.3725-3.9971-5.2563-.6989-10.5169-1.3663-15.7706-2.0846-5.5874-.7639-11.1651-1.6-16.7559-2.3382a8.59,8.59,0,0,0-3.9567-.012c-1.312.504-2.3342,1.7619-3.4824,2.6922.8427.558,1.6762,1.1307,2.5316,1.6685a10.0554,10.0554,0,0,1,1.5011.8548,11.3508,11.3508,0,0,1,1.2429,1.5943,6.2322,6.2322,0,0,1-2.033.9987,15.71,15.71,0,0,1-3.2222-.34c-1.274-.1693-2.2952-.0745-2.5754,1.5465-.4487,2.595-1.2055,5.1458-1.5227,7.7529-1.1868,9.7539.3707,19.3623,1.8622,28.9483.6857,4.4065,1.6613,8.7752,2.6762,13.1212,1.1554,4.9475,1.2408,4.91,6.1525,5.5144a3.9515,3.9515,0,0,1,2.056.722,9.5768,9.5768,0,0,1,1.4347,2.16,7.2474,7.2474,0,0,1-2.2579.6814c-1.5731-.0622-3.1358-.3838-4.8721-.6223.2691,2.7781,1.3127,3.983,3.624,4.2816,3.12.4032,6.19,1.19,9.3088,1.6163,5.7551.7859,11.5159,1.5844,17.2991,2.0975,10.5931.94,21.1916,1.9915,31.811,2.4169,13.16.5271,26.3482.7765,39.5152.5706,13.5534-.2118,27.1021-1.0063,40.6413-1.7549,9.1284-.5048,18.2441-1.29,27.3519-2.1017,8.1184-.7239,16.2173-1.6656,24.3265-2.4942C295.9515,132.9378,296.14,132.75,296.2479,128.6341ZM159.8532,331.406c6.0534.3861,12.0345-5.4564,11.8915-11.063-.1978-7.7538-5.2855-12.0271-11.8788-12.1967-6.1078-.1571-11.43,5.0475-11.5636,11.7922C148.195,325.3332,153.418,331.9257,159.8532,331.406Zm-10.1963,3.4109a30.5939,30.5939,0,0,0,2.8818,2.8674c4.5225,3.4588,9.8844,4.7494,15.3539,5.6156,5.4079.8563,6.1971.0684,5.89-5.3818a3.2394,3.2394,0,0,0-.162-1.2264c-.2006-.4-.62-1.0054-.92-.9919-2.72.1225-5.4427.2925-8.1482.5946-1.3391.1495-2.7084,1.0295-3.9522.8411C157.0893,336.6037,153.6356,335.69,149.6569,334.8169Zm6.3082-33.0556.3091.9908a4.1723,4.1723,0,0,0,1.1429.2091c1.4447-.144,2.9624-.7351,4.3055-.4545a51.07,51.07,0,0,1,6.7776,2.29c2.9957,1.0847,4.8905-.2188,4.8256-3.3566-.0223-1.08-.0213-2.1639-.11-3.2395-.174-2.1138-1.0163-2.6454-2.9271-1.9708-1.1588.4092-2.37.6787-3.51,1.1313C163.1622,298.7974,159.568,300.29,155.9651,301.7613Zm9.4939-11.0269.4969.84c2.8055-.8636,6.3672.7387,8.3466-2.8761a1.7849,1.7849,0,0,1,1.0075-.6539c4.6485-1.4116,9.317-2.759,13.95-4.2188a9.839,9.839,0,0,0,2.2254-1.4469,9.4623,9.4623,0,0,0-2.39-.8379c-7.9478-.5377-14.6083,2.7768-20.8984,7.132C167.2584,289.3222,166.37,290.0452,165.459,290.7344Z"/><path class="cls-1" d="M364.206,131.7612c4.5675-1.9725,4.19,2.4994,5.4041,4.4534,3.1137,5.0119,3.4129,10.632,2.2735,16.3584-1.3989,7.0306-2.6621,14.09-4.1768,21.0952-1.3093,6.0551-2.7892,12.0785-4.399,18.0607-.6094,2.2644-1.92,4.331-2.6814,6.5661-.8474,2.4883-1.3,5.1117-2.159,7.5952-1.8825,5.4432-3.9672,10.8163-5.8666,16.2539-1.603,4.5894-2.9634,9.2646-4.6109,13.837-1.6731,4.6432-3.5816,9.2012-5.3583,13.8076-1.5748,4.0832-3.0955,8.1872-4.6672,12.2716-1.7452,4.5354-3.5783,9.0379-5.2668,13.5942-1.52,4.101-2.8651,8.2664-4.3432,12.3834-1.7847,4.9706-3.6215,9.9226-5.4489,14.8778-1.0857,2.9439-2.1714,5.8883-3.3015,8.8154-2.2795,5.9039-4.5995,11.7921-6.8806,17.6953-.7435,1.924-1.4119,3.8768-2.1253,5.8125-1.64,4.4514-3.2682,8.9075-4.9374,13.3481-1.5768,4.1945-3.2,8.3716-5.0126,13.1045-2.5212-3.163-4.7428-5.9422-6.9559-8.7282-7.8311-9.8585-15.505-19.8475-23.5426-29.5345a230.975,230.975,0,0,0-17.1315-18.8515c-7.8314-7.5576-15.8322-15.0443-25.1807-20.7686a127.1914,127.1914,0,0,0-12.3313-6.1121c-1.2889-.608-1.73-.7905-.4938-2.187,5.0907-5.7522,9.9914-11.6729,14.9387-17.5513,5.0632-6.0161,10.2-11.974,15.1136-18.1107,3.6757-4.591,7.0831-9.3994,10.5455-14.1579,4.5778-6.2913,9.1717-12.5735,13.6015-18.9686,2.282-3.2943,4.2843-6.7891,6.3031-10.2573,2.3562-4.0481,4.7565-8.0848,6.8328-12.2774,1.9243-3.8854,3.5253-7.9386,5.1255-11.9747,1.9157-4.832,3.7169-9.7106,5.4935-14.596.9279-2.5512,1.7346-5.1487,2.53-7.7455,2.2933-7.4857,4.6646-14.95,6.7889-22.484,1.5461-5.4833,2.9295-11.0269,4.0589-16.61,1.4255-7.0461,3.0189-14.1183,3.6039-21.2559a77.87,77.87,0,0,0-.7042-18.6609c-.785-4.841-2.81-9.7074-7.5831-12.428a7.8383,7.8383,0,0,0-4.0811-1.2967c-4.6219.3564-9.21,1.1239-13.8238,1.6192-3.3121.3555-6.6517.4521-9.9656.7945-6.7647.699-13.5179,1.5086-20.2805,2.23-5.9484.6342-11.8969,1.2809-17.8563,1.7945-9.1.7843-18.2,1.6256-27.3175,2.133-9.1291.5081-18.2936,1.0776-27.4158.7846-6.739-.2165-13.4327-1.7906-20.1515-2.724-1.8143-.2521-3.6506-.3414-5.47-.5611-7.265-.8774-14.5369-1.7054-21.7881-2.6865-8.5455-1.1563-17.0734-2.4432-25.606-3.6934-2.3693-.3472-4.7632-.6206-7.0844-1.1815-4.3457-1.05-7.1161,1.0018-9.2866,4.39A34.2692,34.2692,0,0,0,87.06,71.69a77.56,77.56,0,0,0-1.0106,24.3155c.63,6.1562,1.9817,12.2432,3.1188,18.3412.5756,3.0865,1.29,6.1555,2.1106,9.1865,2.2057,8.146,4.1668,16.38,6.854,24.3679,2.9212,8.6832,6.3236,17.2257,9.9418,25.6467a216.39,216.39,0,0,0,10.1783,20.8431c5.0036,8.8775,10.2433,17.6624,16.0008,26.0626A252.0093,252.0093,0,0,0,151.0348,241.97q10.1466,11.82,21.2016,22.8416c2.1068,2.0968,1.7684,2.4809-.29,3.6057-1.0834.5919-2.4752,1.5292-1.3895,2.8255.4678.5585,2.2264.2011,3.3462-.0137.663-.1272,1.1793-1.0311,1.8407-1.1515a4.5215,4.5215,0,0,1,2.9169.1754,26.2,26.2,0,0,1,4.1313,3.51c.4812.4661,1.0661,1.3434.9141,1.8069a2.331,2.331,0,0,1-1.7385,1.1126,30.352,30.352,0,0,0-15.6978,6.3627,111.2135,111.2135,0,0,0-14.5236,13.1725c-5.5027,6.0284-10.4285,12.5968-15.4278,19.0677-4.4194,5.72-8.5352,11.6744-12.9,17.4384C118.47,339.2586,113.357,345.67,108.3868,352.19c-2.5459,3.34-4.9113,6.817-7.42,10.1862a9.86,9.86,0,0,1-1.8382,1.5189A11.1142,11.1142,0,0,1,97.86,361.96c-3.269-8.3047-6.55-16.6054-9.7146-24.95-2.3447-6.1823-4.4639-12.45-6.7911-18.6392-2.9629-7.88-6.0715-15.7048-9.0443-23.581-1.6076-4.2591-3.0065-8.5967-4.6008-12.8611-2.4291-6.4974-4.9937-12.9443-7.4083-19.447-1.5244-4.1052-2.8393-8.2876-4.3207-12.4093-2.5725-7.1577-5.2625-14.2736-7.7857-21.4484-1.7867-5.08-3.3082-10.2537-5.0812-15.3391-1.4961-4.2912-3.2282-8.5-4.7706-12.7752-.9813-2.72-1.8327-5.4887-2.6968-8.25-1.6812-5.3726-3.01-10.8811-5.0612-16.1069a62.91,62.91,0,0,1-4.2433-31.1707c.4276-3.429,2.3354-6.6735,3.5659-10.0025l.8984.1589a20.82,20.82,0,0,0,.2935,3.2345,3.8055,3.8055,0,0,0,1.2124,2.23,2.2551,2.2551,0,0,0,2.1038-.6161,3.8484,3.8484,0,0,0,.4348-2.4418,26.8306,26.8306,0,0,0-.69-4.1311c-.2623-1.1059-.7081-2.1682-1.0725-3.25l-.7691-.019c2.67-4.3066,5.2767-8.6545,8.0265-12.91,3.7044-5.7327,7.486-11.4164,11.2975-17.0788,2.8968-4.3033,5.9945-8.4737,8.818-12.8232,3.89-5.9929,7.6162-12.0927,11.3939-18.1584,2.7907-4.4808,5.4-9.0834,8.3675-13.4427,3.0989-4.5522,6.5723-8.8476,9.7992-13.3151a7.87,7.87,0,0,1,6.9613-3.6c8.16.25,16.3609.1185,24.4665.93,7.8914.79,15.6665,2.681,23.5271,3.859,5.9024.8846,11.8924,1.1963,17.7855,2.1292,15.149,2.3983,30.4122,1.878,45.6392,1.8839,10.5837.0041,21.1757-.56,31.7479-1.1563a93.0013,93.0013,0,0,0,14.2983-1.9579c6.0332-1.3,11.9505-3.1361,17.9273-4.705a10.7313,10.7313,0,0,1,2.4745-.2905c5.2512-.1134,10.5243-.5343,15.75-.2095,8.3021.516,16.1672,2.97,22.7719,8.109,2.63,2.0458,4.3585,5.3185,6.2964,8.1693,3.84,5.65,7.5477,11.39,11.2979,17.1009,4.3682,6.6517,8.7637,13.2859,13.0721,19.9762,3.6495,5.6672,7.222,11.3848,10.7721,17.1151,2.9032,4.6861,5.9962,9.2875,8.45,14.2034C364.2933,126.045,363.9008,128.8277,364.206,131.7612Zm-316.9191,69.6c.8059,2.3273,1.4323,4.5347,2.3647,6.6044.3094.6867,1.4051,1.0192,2.1413,1.5136.4777-.7255,1.47-1.56,1.3434-2.1574a47.728,47.728,0,0,0-2.21-7.2651c-.1647-.426-1.498-.73-2.1341-.5456C48.2241,199.6752,47.8738,200.592,47.2869,201.3607Zm83.5848,104.6621c.6635-.22,1.1787-.2334,1.42-.4971,1.7467-1.906,3.5154-3.8036,5.08-5.8541a2.2433,2.2433,0,0,0-.4448-2.1028,3.0048,3.0048,0,0,0-2.5238.2413,23.9232,23.9232,0,0,0-4.1138,4.1167,5.2721,5.2721,0,0,0-.6828,3.0071C129.6038,305.3122,130.4721,305.6982,130.8717,306.0228ZM84.1926,290.1723c-1.1317-2.8228-2.0514-5.283-3.1511-7.66-.1458-.3151-1.3488-.4845-1.82-.2448-1.8121.9223-1.5357,2.5322-.9619,4.069a21.67,21.67,0,0,0,1.8958,4.2239,3.1391,3.1391,0,0,0,2.2766,1.2195C82.985,291.7864,83.5493,290.7983,84.1926,290.1723Zm-18.98-48.9814a75.13,75.13,0,0,0-2.3644-7.34,2.6818,2.6818,0,0,0-2.499-.7118,2.5689,2.5689,0,0,0-1.0327,2.2872,34.149,34.149,0,0,0,2.1943,6.0115c.3.6507,1.4285,1.5406,1.8364,1.3907C64.1892,242.5184,64.8021,241.5837,65.2121,241.1909Zm32.19,92.258c1.2916,2.6409,2.3138,4.8535,3.4651,6.997.28.5217.9841.8159,1.4932,1.2147.4573-.6121,1.2842-1.2179,1.2947-1.8375a13.0066,13.0066,0,0,0-.6588-3.8383,10.5181,10.5181,0,0,0-1.3687-2.8661c-.5094-.7513-1.4438-1.95-1.9087-1.8335C98.8984,331.4918,98.2928,332.55,97.4017,333.4489ZM87.376,298.1957l-1.2438-.1678c-.675,1.0728-2.0993,2.343-1.8789,3.18a26.9387,26.9387,0,0,0,2.9174,6.1686c.3343.59,1.207.8751,1.833,1.3.4329-.826,1.3893-1.7976,1.2072-2.4527C89.4526,303.4958,88.3514,300.8632,87.376,298.1957ZM65.092,251.4249c.9232,2.3086,1.82,4.1594,2.3914,6.1056.4446,1.5135,1.0645,2.1126,2.6432,1.5978,1.8239-.5947,1.2848-1.8928.9281-3.0385-.5114-1.6426-1.3123-3.201-1.7512-4.8584-.3366-1.2715-.6956-2.41-2.2094-1.81C66.3111,249.7311,65.7879,250.6973,65.092,251.4249Zm10.0935,24.06c2.5129.0857,2.8-1.0826,2.352-2.4445a27.428,27.428,0,0,0-2.3712-5.6752c-.4462-.736-1.8828-.8716-2.8692-1.28-.2058,1.0429-.764,2.1693-.541,3.1107a22.4765,22.4765,0,0,0,2.0036,4.9982A4.4244,4.4244,0,0,0,75.1855,275.4849Zm15.7611,41.4324c.9067,2.3392,1.6653,4.5109,2.61,6.5982.27.5954,1.0805.9457,1.6432,1.4084.6707-.8233,2.046-1.8326,1.8866-2.437a33.5456,33.5456,0,0,0-2.6711-6.5366,2.24,2.24,0,0,0-2.005-.8235C91.8173,315.2967,91.45,316.255,90.9466,316.9173Zm23.7246,8.5426c-.4924-.79-.7061-1.5593-1.1589-1.7446a2.4631,2.4631,0,0,0-1.8351.25,3.873,3.873,0,0,0-1.3359,1.3944,62.1023,62.1023,0,0,0-3.2,5.62c-.2019.4223.4666,1.2607.7342,1.9075a14.9353,14.9353,0,0,0,1.8271-.8058,3.7073,3.7073,0,0,0,1.0573-1.0234C112.0644,329.2343,113.3323,327.3843,114.6712,325.46ZM32.9238,149.7032a43.7649,43.7649,0,0,0,1.486,6.584c.2788.7171,1.7716.9623,2.711,1.4227.2862-.7519.8595-1.5263.8028-2.2513a26.415,26.415,0,0,0-.9611-5.591,2.77,2.77,0,0,0-1.9667-1.6951C34.262,148.1836,33.5436,149.206,32.9238,149.7032Zm117.5284,137.47c-.311-.6421-.4454-1.42-.8026-1.5412a2.2734,2.2734,0,0,0-1.86.1891,45.9058,45.9058,0,0,0-5.1664,4.62c-.49.5307-.2358,1.75-.3222,2.6541,1.0437-.11,2.287.0989,3.0864-.4014a19.5193,19.5193,0,0,0,3.5837-3.2635A14.9723,14.9723,0,0,0,150.4522,287.1734ZM37.0138,167.0307a67.296,67.296,0,0,0,2.4635,7.188c.2611.5607,1.8219.9131,2.6392.7244,1.2133-.28,1.0919-1.1477.528-2.3167a17.8081,17.8081,0,0,1-1.4506-5.1978c-.19-1.3442-.4465-2.4572-1.9811-2.0963C38.397,165.5242,37.75,166.4342,37.0138,167.0307Zm16.1772,51.21c.9388,2.5024,1.679,4.7712,2.6852,6.9151.2079.4429,1.4609.673,2.1292.5276.4723-.1029,1.19-1.1192,1.0773-1.5306a50.6936,50.6936,0,0,0-2.3095-6.7459c-.2856-.66-1.3355-.99-2.0353-1.4716C54.2306,216.6916,53.7234,217.4476,53.191,218.2411Zm-5.3469-27.3095c-.7635-2.7953-1.2773-5.11-2.0836-7.3177a2.35,2.35,0,0,0-2.0473-.9756c-.576.1048-1.49,1.2054-1.39,1.6893a42.2409,42.2409,0,0,0,2.0462,7.0972c.2578.6479,1.5769,1.1555,2.4174,1.1677C47.1938,192.5984,47.62,191.31,47.8441,190.9316Zm71.894,128.3041c1.985-2.1911,3.9512-4.1607,5.6268-6.3525.418-.5467-.1012-1.81-.19-2.7437-.7076.19-1.5964.174-2.0879.6082-1.34,1.1835-2.5045,2.5646-3.7529,3.8534C117.1331,316.8739,117.1287,316.87,119.7381,319.2357Zm166.5777,6.2526c.3485-.586,1.1518-1.5394.9964-1.7362-1.76-2.23-3.6233-4.3856-5.58-6.446a1.8772,1.8772,0,0,0-1.7548.0048,2.2625,2.2625,0,0,0-.0513,1.9766,67.0581,67.0581,0,0,0,4.2339,5.4017C284.48,325.0627,285.1992,325.0941,286.3158,325.4883ZM162.9751,273.9116c-2.2283,1.7083-4.427,3.2446-6.4143,5.018-.5231.4668-.392,1.6667-.5614,2.53.81-.0046,1.819.2983,2.393-.0723,1.6169-1.0435,2.9984-2.4447,4.5793-3.5528C164.6287,276.6729,164.6,275.5438,162.9751,273.9116ZM261.8444,298.67c.554-.4028,1.2966-.6648,1.3962-1.0807a2.4956,2.4956,0,0,0-.3173-1.982,51.095,51.095,0,0,0-4.7524-4.5667c-.4739-.399-1.3855-.278-2.0963-.3955-.03.8737-.4236,2.0152-.0169,2.5674a26.6389,26.6389,0,0,0,3.4834,3.4436C260.2582,297.3233,261.0153,297.9478,261.8444,298.67ZM359.751,176.5044c-.1085-.1165-.6475-1.0159-.9332-.9416-.8828.23-2.087.6356-2.4089,1.3261a21.4825,21.4825,0,0,0-1.4853,5.1475c-.152.8183-.0914,2.1727.4038,2.5143,1.14.7866,2.2862.1656,2.6821-1.1559C358.6329,181.3129,359.0857,179.18,359.751,176.5044Zm-29.5469,84.5519c-.4508-.5748-.9871-1.5942-1.2473-1.5281a3.6677,3.6677,0,0,0-2.2934,1.3219,30.6542,30.6542,0,0,0-2.0513,5.739,2.2636,2.2636,0,0,0,.6873,2.0331,2.181,2.181,0,0,0,2.0882-.4585C328.4388,265.9317,329.2363,263.58,330.2041,261.0563Zm-100.9485,7.4409c-.5709.49-1.3041.848-1.2836,1.1559a3.09,3.09,0,0,0,.7527,2.1219,29.6009,29.6009,0,0,0,5.0978,2.9175,2.6449,2.6449,0,0,0,2.4113-.2939,2.3656,2.3656,0,0,0-.1531-2.31C233.9435,270.765,231.6379,269.7131,229.2556,268.4972Zm73.2789,67.6921c.9229-.6064,1.5191-.7753,1.6605-1.1271a69.7416,69.7416,0,0,0,2.5085-6.9384c.1484-.5234-.6059-1.4426-1.1578-1.9458-.1837-.1675-1.3651.26-1.5243.6474a54.8318,54.8318,0,0,0-2.3565,6.7409C301.4883,334.233,302.1552,335.1231,302.5345,336.1893Zm-26.878-25.8115a3.5876,3.5876,0,0,0-.357-1.075c-1.5147-1.8032-2.9794-3.6638-4.658-5.3036-.4433-.4332-1.5783-.1584-2.3957-.2087.0712.8257-.1432,1.8519.2685,2.4385a28.84,28.84,0,0,0,3.8134,4.4112,4.2563,4.2563,0,0,0,2.4433.6452C275.0481,311.3068,275.3749,310.6825,275.6565,310.3778ZM336.0938,244.47c-.3553-.4554-.8394-1.4454-1.1418-1.3927-.8407.1466-2.013.53-2.3236,1.1726a34.2074,34.2074,0,0,0-2.0094,5.7687c-.1242.448.3361,1.5014.6076,1.5306.7363.0792,1.9846-.0107,2.1979-.4435C334.4288,249.0676,335.1539,246.8924,336.0938,244.47Zm-91.9527,33.5049c-1.8825,1.21-2.3826,2.2957-.5058,3.7046,1.3723,1.03,2.5831,2.2837,3.9943,3.25a7,7,0,0,0,2.3721.5766c-.1216-.8841.076-2.0707-.4229-2.597C247.8981,281.1361,245.97,279.5979,244.1411,277.9744Zm68.5231,33.2871a6.0336,6.0336,0,0,0-1.2594-1.6666,1.5539,1.5539,0,0,0-1.4648.3586,63.9138,63.9138,0,0,0-2.3447,7.0343c-.134.5218.6148,1.3887,1.1476,1.8969.1779.17,1.2745-.1565,1.3986-.4728C311.0419,316.117,311.801,313.7666,312.6642,311.2615Zm29.4444-83.7964c-.3248-.4451-.61-1.2281-1.0546-1.3324a1.7729,1.7729,0,0,0-1.49.8209c-.9475,2.0091-1.79,4.0739-2.541,6.1654a6.2091,6.2091,0,0,0,.0017,2.0726c.85-.1571,2.2508-.0633,2.4557-.5137C340.5,232.4355,341.2053,230.05,342.1086,227.4651ZM360.63,168.1236a14.6108,14.6108,0,0,0,1.3422-2.4992,29.8289,29.8289,0,0,0,1.0459-5.321c.0513-.7916-.75-1.6385-1.1643-2.46-.6112.57-1.57,1.041-1.7677,1.73a32.156,32.156,0,0,0-1.1156,6.0313C358.9184,166.198,359.77,166.8709,360.63,168.1236ZM324.1744,277.7424l-1.1463-1.788a7.9,7.9,0,0,0-1.5626,1.636,54.9886,54.9886,0,0,0-2.5074,5.591,2.4856,2.4856,0,0,0,.2875,1.7945c.8091.0859,2.2018.1089,2.39-.3021C322.6151,282.5377,323.29,280.2623,324.1744,277.7424Zm24.5839-66.6811c-.3839-.5368-.6666-1.2948-1.1852-1.528-.3405-.1531-1.285.3153-1.5058.7406a53.0242,53.0242,0,0,0-2.8622,6.299c-.2015.5554.3381,1.5956.8482,2.0961.2328.2284,1.61-.13,1.802-.5362C346.9022,215.9179,347.7417,213.6051,348.7583,211.0613Zm5.9725-16.85c-.42-.4667-.764-1.179-1.2012-1.242a1.7541,1.7541,0,0,0-1.4523.81,38.1824,38.1824,0,0,0-2.0533,5.5361,6.7776,6.7776,0,0,0,.3868,2.58c.8166-.4317,2.0816-.6709,2.3654-1.3316A56.7192,56.7192,0,0,0,354.7308,194.2111ZM292.9555,330.8566c-2.0218.2874-2.0037,1.4978-1.234,2.5355a32.097,32.097,0,0,0,3.98,4.3175,7.2887,7.2887,0,0,0,2.29.9576c-.0771-1.059.1947-2.34-.3074-3.1286a24.86,24.86,0,0,0-3.4811-3.8269A7.07,7.07,0,0,0,292.9555,330.8566Zm25.3692-36.2973c-.3457-.4817-.6039-1.1661-1.0844-1.4068-.3747-.1876-1.3948.0412-1.4958.3168-.841,2.2942-1.5836,4.6292-2.2194,6.9887-.0909.3372.4681,1.1069.8745,1.2472a1.5522,1.5522,0,0,0,1.4328-.4718C316.7189,299.1168,317.4574,296.9381,318.3247,294.5593Zm47.358-152.4219-1.7513-1.4161c-.48.6665-1.2366,1.2775-1.3837,2.0108a29.4329,29.4329,0,0,0-.494,5.1638c-.01.4652.5588,1.2841.9334,1.3279a1.7144,1.7144,0,0,0,1.4277-.8727C364.9059,146.5441,365.1883,144.68,365.6827,142.1374Z"/><path class="cls-1" d="M296.2479,128.6341c-.108,4.1155-.2964,4.3037-3.7043,4.6519-8.1092.8286-16.2081,1.77-24.3265,2.4942-9.1078.8121-18.2235,1.5969-27.3519,2.1017-13.5392.7486-27.0879,1.5431-40.6413,1.7549-13.167.2059-26.3554-.0435-39.5152-.5706-10.6194-.4254-21.2179-1.4771-31.811-2.4169-5.7832-.5131-11.544-1.3116-17.2991-2.0975-3.1184-.4259-6.1884-1.2131-9.3088-1.6163-2.3113-.2986-3.3549-1.5035-3.624-4.2816,1.7363.2385,3.299.56,4.8721.6223a7.2474,7.2474,0,0,0,2.2579-.6814,9.5768,9.5768,0,0,0-1.4347-2.16,3.9515,3.9515,0,0,0-2.056-.722c-4.9117-.6042-4.9971-.5669-6.1525-5.5144-1.0149-4.346-1.9905-8.7147-2.6762-13.1212-1.4915-9.586-3.049-19.1944-1.8622-28.9483.3172-2.6071,1.074-5.1579,1.5227-7.7529.28-1.621,1.3014-1.7158,2.5754-1.5465a15.71,15.71,0,0,0,3.2222.34,6.2322,6.2322,0,0,0,2.033-.9987,11.3508,11.3508,0,0,0-1.2429-1.5943,10.0554,10.0554,0,0,0-1.5011-.8548c-.8554-.5378-1.6889-1.1105-2.5316-1.6685,1.1482-.93,2.17-2.1882,3.4824-2.6922a8.59,8.59,0,0,1,3.9567.012c5.5908.7383,11.1685,1.5743,16.7559,2.3382,5.2537.7183,10.5143,1.3857,15.7706,2.0846,9.796,1.3027,19.6534,2.2624,29.3725,3.9971,16.261,2.9023,32.5588,1.91,48.8549,1.122,9.2125-.4456,18.3994-1.4693,27.5888-2.33,6.2764-.5878,12.5373-1.3425,18.8049-2.0246,6.0992-.6636,12.21-1.2361,18.2938-2.0213,5.9883-.773,11.9485-1.763,17.9211-2.6574,2.0507-.307,4.8185,2.02,4.8267,4.1291.0051,1.3222.0382,2.4976,1.6829,2.8921a1.5149,1.5149,0,0,1,.8271,1.1087c.5964,6.2251,2.5663,12.3206.9335,18.7462-.9349,3.679-.6193,7.66-1.3726,11.4041-1.5984,7.9432-3.4877,15.83-5.3951,23.7059-.1584.6542-1.2864,1.2731-2.0857,1.5308-1.6346.5271-3.3842.7-5.015,1.2355-.4612.1516-.675,1.0562-1.0022,1.6155.5927.2892,1.1867.8223,1.7779.8193C293.1339,129.0615,294.5956,128.8085,296.2479,128.6341ZM127.2245,71.038l-1.6788,1.43c.7383.7056,1.3714,1.7967,2.2376,2.0328a16.3365,16.3365,0,0,0,4.9611.4315,7.8818,7.8818,0,0,0,2.5352-1.0938c-.78-.7329-1.4474-1.8373-2.3653-2.1158A33.85,33.85,0,0,0,127.2245,71.038Zm20.7786,5.4856v.2088a10.9079,10.9079,0,0,0,2.7224-.0518,8.42,8.42,0,0,0,2.1112-1.2961c-.6543-.6168-1.2285-1.6187-1.9786-1.7745a26.1919,26.1919,0,0,0-5.6888-.4722c-.676.01-1.3411.749-2.0112,1.1551.62.7436,1.1039,1.789,1.8978,2.1475C145.8823,76.8136,147.0081,76.5236,148.0031,76.5236Zm-7.9442,53.6908a18.8791,18.8791,0,0,1-2.8592.5888c-1.327.0656-2.6823-.2142-3.9886-.0509-.6862.0858-1.2936.8008-1.9366,1.2318.6177.5139,1.1828,1.3744,1.8628,1.4775,2.1335.3236,4.3092.38,6.47.5055,1.8266.1065,1.8185-1.1,1.4662-2.3126A5.0033,5.0033,0,0,0,140.0589,130.2144Zm9.375,1.4971c-.4569,2.1567-.0791,3.2874,2.07,3.2667,1.66-.016,3.3231.2541,4.981.2177a12.1664,12.1664,0,0,0,2.6429-.646l.0405-1.1255C156.249,131.72,152.9236,131.7746,149.4339,131.7115Zm-29.0063.08.2912.61c.957-.4995,2.6445-.89,2.7382-1.5182.32-2.1442-1.6969-1.72-2.9536-1.994a26.2109,26.2109,0,0,0-4.61-.7392,6.7909,6.7909,0,0,0-2.3859.9023c.5735.72,1.0257,1.8714,1.7451,2.0741A32.2775,32.2775,0,0,0,120.4276,131.7913Zm-4.3012-58.9469c.4459-.323,1.3784-.7121,1.7637-1.4054.1765-.3175-.6262-1.6864-1.1523-1.8a51.3134,51.3134,0,0,0-7.1433-.9808c-.4506-.0321-1.0828.8191-1.39,1.392-.0995.1859.5015,1.0419.9022,1.1512C111.2479,71.7857,113.4268,72.23,116.1264,72.8444ZM178.182,77.77c2.6048.2442,4.8424.3546,7.044.6971,1.3656.2124,2.0461-.1963,2.3-1.5.2762-1.4177-.5-1.7114-1.6952-1.7088-1.9065.0043-3.8145-.13-5.7192-.088C177.4727,75.23,177.1476,75.9245,178.182,77.77Zm98.3,53.0523,0-.1736a19.0019,19.0019,0,0,0,3.7077-.0721,2.3625,2.3625,0,0,0,1.4162-1.5558c.0833-.3435-.8223-1.322-1.3084-1.3409a41.0126,41.0126,0,0,0-6.6884.219c-.5369.0675-.9353,1.236-1.3975,1.8983a6.2522,6.2522,0,0,0,1.8011,1.1229A9.4577,9.4577,0,0,0,276.4824,130.8227Zm-52.6287,4.3634v-.0429a8.3076,8.3076,0,0,0,2.6992-.0671c.7145-.26,1.2214-1.0909,1.82-1.67-.6182-.5619-1.231-1.5929-1.8556-1.6a37.4326,37.4326,0,0,0-6.321.579c-.382.0612-.89.9717-.8645,1.4653a1.7262,1.7262,0,0,0,1.0664,1.2749A21.817,21.817,0,0,0,223.8537,135.1861Zm11.3485-58.47v-.2009a18.0747,18.0747,0,0,0,3.7134-.0762c.58-.124,1.1324-.9951,1.3942-1.6494.0883-.22-.75-1.1687-1.1793-1.1794a47.7183,47.7183,0,0,0-6.9474.2254c-.6289.0767-1.1331,1.1769-1.6944,1.8074a7.9888,7.9888,0,0,0,1.9851,1.03A13.794,13.794,0,0,0,235.2022,76.7158ZM170.5813,132.68l-.01.0744a8.806,8.806,0,0,0-2.2352.0407,10.0389,10.0389,0,0,0-2.0705,1.1013c.6086.5244,1.1753,1.4309,1.8333,1.5029a43.3244,43.3244,0,0,0,6.4666.1549c.57-.0234,1.1126-.7073,1.6678-1.088-.48-.4623-.8974-1.2075-1.4529-1.3311A34.1952,34.1952,0,0,0,170.5813,132.68Zm84.195.4645c2.6721-.4437,5.1987-.7852,7.68-1.3334.576-.1273.9964-.959,1.4884-1.4666-.6049-.3757-1.2116-1.0711-1.8142-1.0675-1.826.0107-3.6474.3866-5.476.4435C254.5285,129.7868,254.0953,130.822,254.7763,133.1447Zm-48.6533-.3505a18.1449,18.1449,0,0,0-2.9947.19c-.5648.1186-1.0278.7226-1.5366,1.1076.4337.4906.8617,1.3965,1.3021,1.4026a64.3111,64.3111,0,0,0,7.1437-.3279c.4282-.042.7834-.8286,1.1723-1.2715-.47-.3669-.9059-.9783-1.4178-1.0508A27.3934,27.3934,0,0,0,206.123,132.7942Zm84.95-65.436c-2.4338.5022-4.4672.8519-6.4521,1.383-.4629.1239-.7611.8635-1.1351,1.32.5167.3779,1.0422,1.0884,1.5484,1.0749a27.8344,27.8344,0,0,0,5.9241-.6158c.8728-.2161,1.5167-1.3571,2.2643-2.0787Zm-38.718,7.8858.004-.0889a21.7406,21.7406,0,0,0,4.2044-.4555c.581-.1709.89-1.2659,1.3227-1.9413-.5466-.3407-1.126-1.015-1.6341-.965-2.3818.2345-4.7554.6113-7.1035,1.08-.4606.0919-.7954.8141-1.1881,1.2457.4662.375.8908.9821,1.4078,1.0751A17.0679,17.0679,0,0,0,252.3551,75.244Zm15.2626-1.868a59.58,59.58,0,0,0,6.0456-.7684c.6456-.1479,1.1148-1.0663,1.6644-1.6331-.5983-.4263-1.2263-1.2487-1.79-1.2066a30.6046,30.6046,0,0,0-5.5912.9732,7.6186,7.6186,0,0,0-2.1079,1.4712ZM165.2315,74.7224v-.0592a18.0043,18.0043,0,0,0-3.2221.0508,6.25,6.25,0,0,0-1.8732,1.1312c.6157.51,1.1854,1.3766,1.8559,1.4633a37.2361,37.2361,0,0,0,6.1846.2443c.5685-.0218,1.1076-.806,1.66-1.24-.4583-.53-.8376-1.3845-1.3921-1.5195A13.8867,13.8867,0,0,0,165.2315,74.7224Zm23.4754,61.075,0-.096a21.1488,21.1488,0,0,0,3.7029-.07,1.9413,1.9413,0,0,0,1.1878-1.4619c.0091-.4081-.8683-1.18-1.3711-1.1959a57.8871,57.8871,0,0,0-6.6786.1859c-.5527.0461-1.054.7078-1.579,1.0866.5055.517.937,1.3382,1.533,1.4832A13.8582,13.8582,0,0,0,188.7069,135.7974Zm34.2377-58.6033.1832-.7909c-.2945-.3711-.5755-1.0517-.8855-1.0651-2.7836-.1208-5.5728-.15-8.3587-.1076-.2006.0031-.6176.8456-.5266,1.19.118.4472.6495,1.1238.9951,1.1191C217.2173,77.5008,220.0807,77.3271,222.9446,77.1941Zm-22.8749.5428v-.0125a26.5733,26.5733,0,0,0,3.4634-.0459c.5357-.0709,1.0067-.6312,1.507-.97-.4854-.4688-.9446-1.3059-1.4609-1.3427a51.153,51.153,0,0,0-6.6813-.0293c-.4968.03-.9472.8366-1.419,1.2858.5389.3714,1.038.9561,1.6258,1.066A16.3421,16.3421,0,0,0,200.07,77.7369Zm41.2421,56.106.0011-.0394a22.0387,22.0387,0,0,0,3.7231-.2309c.5352-.1176.9152-.9421,1.3657-1.4458-.4976-.4133-.9909-1.1736-1.4936-1.18a53.3624,53.3624,0,0,0-6.4651.3372c-.4573.05-.84.7828-1.2565,1.201.46.4526.8557,1.1607,1.3965,1.2991A11.2882,11.2882,0,0,0,241.3118,133.8429Z"/><path class="cls-2" d="M159.8532,331.406c-6.4352.52-11.6582-6.0728-11.5509-11.4675.1341-6.7447,5.4558-11.9493,11.5636-11.7922,6.5933.17,11.681,4.4429,11.8788,12.1967C171.8877,325.95,165.9066,331.7921,159.8532,331.406Z"/><path d="M47.2869,201.3607c.5869-.7687.9372-1.6855,1.5055-1.85.6361-.1842,1.9694.12,2.1341.5456a47.728,47.728,0,0,1,2.21,7.2651c.1267.5971-.8657,1.4319-1.3434,2.1574-.7362-.4944-1.8319-.8269-2.1413-1.5136C48.7192,205.8954,48.0928,203.688,47.2869,201.3607Z"/><path d="M130.8717,306.0228c-.4-.3246-1.2679-.7106-1.2645-1.0889a5.2721,5.2721,0,0,1,.6828-3.0071,23.9232,23.9232,0,0,1,4.1138-4.1167,3.0048,3.0048,0,0,1,2.5238-.2413,2.2433,2.2433,0,0,1,.4448,2.1028c-1.5649,2.05-3.3336,3.9481-5.08,5.8541C132.05,305.7894,131.5352,305.8024,130.8717,306.0228Z"/><path d="M84.1926,290.1723c-.6433.626-1.2076,1.6141-1.76,1.6077a3.1391,3.1391,0,0,1-2.2766-1.2195,21.67,21.67,0,0,1-1.8958-4.2239c-.5738-1.5368-.85-3.1467.9619-4.069.4708-.24,1.6738-.07,1.82.2448C82.1412,284.8893,83.0609,287.35,84.1926,290.1723Z"/><path d="M65.2121,241.1909c-.41.3928-1.0229,1.3275-1.8654,1.6372-.4079.15-1.5363-.74-1.8364-1.3907a34.149,34.149,0,0,1-2.1943-6.0115,2.5689,2.5689,0,0,1,1.0327-2.2872,2.6818,2.6818,0,0,1,2.499.7118A75.13,75.13,0,0,1,65.2121,241.1909Z"/><path d="M97.4017,333.4489c.8911-.8991,1.4967-1.9571,2.3168-2.1637.4649-.117,1.3993,1.0822,1.9087,1.8335a10.5181,10.5181,0,0,1,1.3687,2.8661,13.0066,13.0066,0,0,1,.6588,3.8383c-.0105.62-.8374,1.2254-1.2947,1.8375-.5091-.3988-1.213-.693-1.4932-1.2147C99.7155,338.3024,98.6933,336.09,97.4017,333.4489Z"/><path d="M87.376,298.1957c.9754,2.6675,2.0766,5.3,2.8349,8.0279.1821.6551-.7743,1.6267-1.2072,2.4527-.626-.4248-1.4987-.71-1.833-1.3a26.9387,26.9387,0,0,1-2.9174-6.1686c-.22-.8369,1.2039-2.1071,1.8789-3.18Z"/><path d="M65.092,251.4249c.6959-.7276,1.2191-1.6938,2.0021-2.0038,1.5138-.5994,1.8728.5388,2.2094,1.81.4389,1.6574,1.24,3.2158,1.7512,4.8584.3567,1.1457.8958,2.4438-.9281,3.0385-1.5787.5148-2.1986-.0843-2.6432-1.5978C66.9117,255.5843,66.0152,253.7335,65.092,251.4249Z"/><path d="M75.1855,275.4849a4.4244,4.4244,0,0,1-1.4258-1.2908,22.4765,22.4765,0,0,1-2.0036-4.9982c-.223-.9414.3352-2.0678.541-3.1107.9864.4084,2.423.544,2.8692,1.28a27.428,27.428,0,0,1,2.3712,5.6752C77.9857,274.4023,77.6984,275.5706,75.1855,275.4849Z"/><path d="M90.9466,316.9173c.5032-.6623.8707-1.6206,1.464-1.7905a2.24,2.24,0,0,1,2.005.8235,33.5456,33.5456,0,0,1,2.6711,6.5366c.1594.6044-1.2159,1.6137-1.8866,2.437-.5627-.4627-1.3736-.813-1.6432-1.4084C92.6119,321.4282,91.8533,319.2565,90.9466,316.9173Z"/><path d="M114.6712,325.46c-1.3389,1.9244-2.6068,3.7744-3.9108,5.5988a3.7073,3.7073,0,0,1-1.0573,1.0234,14.9353,14.9353,0,0,1-1.8271.8058c-.2676-.6468-.9361-1.4852-.7342-1.9075a62.1023,62.1023,0,0,1,3.2-5.62,3.873,3.873,0,0,1,1.3359-1.3944,2.4631,2.4631,0,0,1,1.8351-.25C113.9651,323.9006,114.1788,324.67,114.6712,325.46Z"/><path d="M32.9238,149.7032c.62-.4972,1.3382-1.52,2.072-1.5307a2.77,2.77,0,0,1,1.9667,1.6951,26.415,26.415,0,0,1,.9611,5.591c.0567.725-.5166,1.4994-.8028,2.2513-.9394-.46-2.4322-.7056-2.711-1.4227A43.7649,43.7649,0,0,1,32.9238,149.7032Z"/><path d="M150.4522,287.1734a14.9723,14.9723,0,0,1-1.4813,2.2569,19.5193,19.5193,0,0,1-3.5837,3.2635c-.7994.5-2.0427.2914-3.0864.4014.0864-.9041-.1682-2.1234.3222-2.6541a45.9058,45.9058,0,0,1,5.1664-4.62,2.2734,2.2734,0,0,1,1.86-.1891C150.0068,285.7534,150.1412,286.5313,150.4522,287.1734Z"/><path d="M37.0138,167.0307c.7363-.5965,1.3832-1.5065,2.199-1.6984,1.5346-.3609,1.7908.7521,1.9811,2.0963a17.8081,17.8081,0,0,0,1.4506,5.1978c.5639,1.169.6853,2.0366-.528,2.3167-.8173.1887-2.3781-.1637-2.6392-.7244A67.296,67.296,0,0,1,37.0138,167.0307Z"/><path d="M53.191,218.2411c.5324-.7935,1.04-1.5495,1.5469-2.3054.7.4812,1.75.8112,2.0353,1.4716a50.6936,50.6936,0,0,1,2.31,6.7459c.1125.4114-.605,1.4277-1.0773,1.5306-.6683.1454-1.9213-.0847-2.1292-.5276C54.87,223.0123,54.13,220.7435,53.191,218.2411Z"/><path d="M47.8441,190.9316c-.2246.3782-.65,1.6668-1.0573,1.6609-.84-.0122-2.16-.52-2.4174-1.1677a42.2409,42.2409,0,0,1-2.0462-7.0972c-.1-.4839.814-1.5845,1.39-1.6893a2.35,2.35,0,0,1,2.0473.9756C46.5668,185.8217,47.0806,188.1363,47.8441,190.9316Z"/><path d="M119.7381,319.2357c-2.6094-2.3661-2.605-2.3618-.4036-4.6346,1.2484-1.2888,2.4128-2.67,3.7529-3.8534.4915-.4342,1.38-.4186,2.0879-.6082.0884.9339.6076,2.197.19,2.7437C123.6893,315.075,121.7231,317.0446,119.7381,319.2357Z"/><path d="M286.3158,325.4883c-1.1166-.3942-1.8361-.4256-2.1559-.7991a67.0581,67.0581,0,0,1-4.2339-5.4017,2.2625,2.2625,0,0,1,.0513-1.9766,1.8772,1.8772,0,0,1,1.7548-.0048c1.9568,2.06,3.82,4.2159,5.58,6.446C287.4676,323.9489,286.6643,324.9023,286.3158,325.4883Z"/><path d="M162.9751,273.9116c1.6247,1.6322,1.6536,2.7613-.0034,3.9229-1.5809,1.1081-2.9624,2.5093-4.5793,3.5528-.574.3706-1.5827.0677-2.393.0723.1694-.8633.0383-2.0632.5614-2.53C158.5481,277.1562,160.7468,275.62,162.9751,273.9116Z"/><path d="M261.8444,298.67c-.8291-.7221-1.5862-1.3466-2.3033-2.0139a26.6389,26.6389,0,0,1-3.4834-3.4436c-.4067-.5522-.0131-1.6937.0169-2.5674.7108.1175,1.6224-.0035,2.0963.3955a51.095,51.095,0,0,1,4.7524,4.5667,2.4956,2.4956,0,0,1,.3173,1.982C263.141,298.0051,262.3984,298.2671,261.8444,298.67Z"/><path d="M359.751,176.5044c-.6653,2.6754-1.1181,4.8085-1.7415,6.89-.3959,1.3215-1.5417,1.9425-2.6821,1.1559-.4952-.3416-.5558-1.696-.4038-2.5143a21.4825,21.4825,0,0,1,1.4853-5.1475c.3219-.6905,1.5261-1.0965,2.4089-1.3261C359.1035,175.4885,359.6425,176.3879,359.751,176.5044Z"/><path d="M330.2041,261.0563c-.9678,2.524-1.7653,4.8754-2.8165,7.1074a2.181,2.181,0,0,1-2.0882.4585,2.2636,2.2636,0,0,1-.6873-2.0331,30.6542,30.6542,0,0,1,2.0513-5.739,3.6677,3.6677,0,0,1,2.2934-1.3219C329.217,259.4621,329.7533,260.4815,330.2041,261.0563Z"/><path d="M229.2556,268.4972c2.3823,1.2159,4.6879,2.2678,6.8251,3.5914a2.3656,2.3656,0,0,1,.1531,2.31,2.6449,2.6449,0,0,1-2.4113.2939,29.6009,29.6009,0,0,1-5.0978-2.9175,3.09,3.09,0,0,1-.7527-2.1219C227.9515,269.3452,228.6847,268.9872,229.2556,268.4972Z"/><path d="M302.5345,336.1893c-.3793-1.0662-1.0462-1.9563-.87-2.623a54.8318,54.8318,0,0,1,2.3565-6.7409c.1592-.3877,1.3406-.8149,1.5243-.6474.5519.5032,1.3062,1.4224,1.1578,1.9458a69.7416,69.7416,0,0,1-2.5085,6.9384C304.0536,335.414,303.4574,335.5829,302.5345,336.1893Z"/><path d="M275.6565,310.3778c-.2816.3047-.6084.929-.8855.9076a4.2563,4.2563,0,0,1-2.4433-.6452,28.84,28.84,0,0,1-3.8134-4.4112c-.4117-.5866-.1973-1.6128-.2685-2.4385.8174.05,1.9524-.2245,2.3957.2087,1.6786,1.64,3.1433,3.5,4.658,5.3036A3.5876,3.5876,0,0,1,275.6565,310.3778Z"/><path d="M336.0938,244.47c-.94,2.4229-1.665,4.5981-2.6693,6.6357-.2133.4328-1.4616.5227-2.1979.4435-.2715-.0292-.7318-1.0826-.6076-1.5306a34.2074,34.2074,0,0,1,2.0094-5.7687c.3106-.6428,1.4829-1.026,2.3236-1.1726C335.2544,243.0241,335.7385,244.0141,336.0938,244.47Z"/><path d="M244.1411,277.9744c1.8286,1.6235,3.757,3.1617,5.4377,4.9346.4989.5263.3013,1.7129.4229,2.597a7,7,0,0,1-2.3721-.5766c-1.4112-.9667-2.622-2.22-3.9943-3.25C241.7585,280.27,242.2586,279.184,244.1411,277.9744Z"/><path d="M312.6642,311.2615c-.8632,2.5051-1.6223,4.8555-2.5227,7.15-.1241.3163-1.2207.6424-1.3986.4728-.5328-.5082-1.2816-1.3751-1.1476-1.8969a63.9138,63.9138,0,0,1,2.3447-7.0343,1.5539,1.5539,0,0,1,1.4648-.3586A6.0336,6.0336,0,0,1,312.6642,311.2615Z"/><path d="M342.1086,227.4651c-.9033,2.5849-1.6087,4.97-2.6286,7.2128-.2049.45-1.6061.3566-2.4557.5137a6.2091,6.2091,0,0,1-.0017-2.0726c.7506-2.0915,1.5935-4.1563,2.541-6.1654a1.7729,1.7729,0,0,1,1.49-.8209C341.4986,226.237,341.7838,227.02,342.1086,227.4651Z"/><path d="M360.63,168.1236c-.8605-1.2527-1.7117-1.9256-1.66-2.519a32.156,32.156,0,0,1,1.1156-6.0313c.1979-.6892,1.1565-1.16,1.7677-1.73.4143.8218,1.2156,1.6687,1.1643,2.46a29.8289,29.8289,0,0,1-1.0459,5.321A14.6108,14.6108,0,0,1,360.63,168.1236Z"/><path d="M324.1744,277.7424c-.884,2.52-1.5593,4.7953-2.5386,6.9314-.1884.411-1.5811.388-2.39.3021a2.4856,2.4856,0,0,1-.2875-1.7945,54.9886,54.9886,0,0,1,2.5074-5.591,7.9,7.9,0,0,1,1.5626-1.636Z"/><path d="M348.7583,211.0613c-1.0166,2.5438-1.8561,4.8566-2.903,7.0715-.1923.4067-1.5692.7646-1.802.5362-.51-.5005-1.05-1.5407-.8482-2.0961a53.0242,53.0242,0,0,1,2.8622-6.299c.2208-.4253,1.1653-.8937,1.5058-.7406C348.0917,209.7665,348.3744,210.5245,348.7583,211.0613Z"/><path d="M354.7308,194.2111a56.7192,56.7192,0,0,1-1.9546,6.352c-.2838.6607-1.5488.9-2.3654,1.3316a6.7776,6.7776,0,0,1-.3868-2.58,38.1824,38.1824,0,0,1,2.0533-5.5361,1.7541,1.7541,0,0,1,1.4523-.81C353.9668,193.0321,354.31,193.7444,354.7308,194.2111Z"/><path d="M292.9555,330.8566a7.07,7.07,0,0,1,1.2484.8551,24.86,24.86,0,0,1,3.4811,3.8269c.5021.7882.23,2.07.3074,3.1286a7.2887,7.2887,0,0,1-2.29-.9576,32.097,32.097,0,0,1-3.98-4.3175C290.9518,332.3544,290.9337,331.144,292.9555,330.8566Z"/><path d="M318.3247,294.5593c-.8673,2.3788-1.6058,4.5575-2.4923,6.6741a1.5522,1.5522,0,0,1-1.4328.4718c-.4064-.14-.9654-.91-.8745-1.2472.6358-2.36,1.3784-4.6945,2.2194-6.9887.101-.2756,1.1211-.5044,1.4958-.3168C317.7208,293.3932,317.979,294.0776,318.3247,294.5593Z"/><path d="M365.6827,142.1374c-.4944,2.5429-.7768,4.4067-1.2679,6.2137a1.7144,1.7144,0,0,1-1.4277.8727c-.3746-.0438-.9431-.8627-.9334-1.3279a29.4329,29.4329,0,0,1,.494-5.1638c.1471-.7333.9038-1.3443,1.3837-2.0108Z"/><path d="M127.2245,71.038a33.85,33.85,0,0,1,5.69.6844c.9179.2785,1.5852,1.3829,2.3653,2.1158a7.8818,7.8818,0,0,1-2.5352,1.0938,16.3365,16.3365,0,0,1-4.9611-.4315c-.8662-.2361-1.4993-1.3272-2.2376-2.0328Z"/><path d="M148.0031,76.5236c-.995,0-2.1208.29-2.9473-.0832-.7939-.3585-1.2777-1.4039-1.8978-2.1475.67-.4061,1.3352-1.1449,2.0112-1.1551a26.1919,26.1919,0,0,1,5.6888.4722c.75.1558,1.3243,1.1577,1.9786,1.7745a8.42,8.42,0,0,1-2.1112,1.2961,10.9079,10.9079,0,0,1-2.7224.0518Z"/><path d="M140.0589,130.2144a5.0033,5.0033,0,0,1,1.0151,1.44c.3523,1.2121.36,2.4191-1.4662,2.3126-2.1613-.126-4.337-.1819-6.47-.5055-.68-.1031-1.2451-.9636-1.8628-1.4775.643-.431,1.25-1.146,1.9366-1.2318,1.3063-.1633,2.6616.1165,3.9886.0509A18.8791,18.8791,0,0,0,140.0589,130.2144Z"/><path d="M149.4339,131.7115c3.49.0631,6.8151.0083,9.7341,1.7129l-.0405,1.1255a12.1664,12.1664,0,0,1-2.6429.646c-1.6579.0364-3.3214-.2337-4.981-.2177C149.3548,134.9989,148.977,133.8682,149.4339,131.7115Z"/><path d="M120.4276,131.7913a32.2775,32.2775,0,0,1-5.1752-.6649c-.7194-.2027-1.1716-1.3538-1.7451-2.0741a6.7909,6.7909,0,0,1,2.3859-.9023,26.2109,26.2109,0,0,1,4.61.7392c1.2567.2741,3.2734-.15,2.9536,1.994-.0937.6282-1.7812,1.0187-2.7382,1.5182Z"/><path d="M116.1264,72.8444c-2.7-.6142-4.8785-1.0587-7.0193-1.6426-.4007-.1093-1.0017-.9653-.9022-1.1512.3068-.5729.939-1.4241,1.39-1.392a51.3134,51.3134,0,0,1,7.1433.9808c.5261.1132,1.3288,1.4821,1.1523,1.8C117.5048,72.1323,116.5723,72.5214,116.1264,72.8444Z"/><path d="M178.182,77.77c-1.0344-1.8459-.7093-2.5406,1.93-2.5994,1.9047-.0424,3.8127.0923,5.7192.088,1.1954-.0026,1.9714.2911,1.6952,1.7088-.2538,1.3034-.9343,1.7121-2.3,1.5C183.0244,78.125,180.7868,78.0146,178.182,77.77Z"/><path d="M276.4824,130.8227a9.4577,9.4577,0,0,1-2.4691.0978,6.2522,6.2522,0,0,1-1.8011-1.1229c.4622-.6623.8606-1.8308,1.3975-1.8983a41.0126,41.0126,0,0,1,6.6884-.219c.4861.0189,1.3917.9974,1.3084,1.3409a2.3625,2.3625,0,0,1-1.4162,1.5558,19.0019,19.0019,0,0,1-3.7077.0721Z"/><path d="M223.8537,135.1861a21.817,21.817,0,0,1-3.4557-.0609,1.7262,1.7262,0,0,1-1.0664-1.2749c-.0257-.4936.4825-1.4041.8645-1.4653a37.4326,37.4326,0,0,1,6.321-.579c.6246.0073,1.2374,1.0383,1.8556,1.6-.5985.579-1.1054,1.41-1.82,1.67a8.3076,8.3076,0,0,1-2.6992.0671Z"/><path d="M235.2022,76.7158a13.794,13.794,0,0,1-2.7284-.0431,7.9888,7.9888,0,0,1-1.9851-1.03c.5613-.63,1.0655-1.7307,1.6944-1.8074a47.7183,47.7183,0,0,1,6.9474-.2254c.43.0107,1.2676.9591,1.1793,1.1794-.2618.6543-.814,1.5254-1.3942,1.6494a18.0747,18.0747,0,0,1-3.7134.0762Z"/><path d="M170.5813,132.68a34.1952,34.1952,0,0,1,4.1994.4551c.5555.1236.9727.8688,1.4529,1.3311-.5552.3807-1.098,1.0646-1.6678,1.088a43.3244,43.3244,0,0,1-6.4666-.1549c-.658-.072-1.2247-.9785-1.8333-1.5029a10.0389,10.0389,0,0,1,2.0705-1.1013,8.806,8.806,0,0,1,2.2352-.0407Z"/><path d="M254.7763,133.1447c-.681-2.3227-.2478-3.3579,1.8779-3.424,1.8286-.0569,3.65-.4328,5.476-.4435.6026-.0036,1.2093.6918,1.8142,1.0675-.492.5076-.9124,1.3393-1.4884,1.4666C259.975,132.36,257.4484,132.701,254.7763,133.1447Z"/><path d="M206.123,132.7942a27.3934,27.3934,0,0,1,3.669.05c.5119.0725.9475.6839,1.4178,1.0508-.3889.4429-.7441,1.23-1.1723,1.2715a64.3111,64.3111,0,0,1-7.1437.3279c-.44-.0061-.8684-.912-1.3021-1.4026.5088-.385.9718-.989,1.5366-1.1076A18.1449,18.1449,0,0,1,206.123,132.7942Z"/><path d="M291.0731,67.3582l2.15,1.0832c-.7476.7215-1.3915,1.8625-2.2643,2.0786a27.8344,27.8344,0,0,1-5.9241.6158c-.5062.0135-1.0317-.697-1.5484-1.0749.374-.4562.6722-1.1958,1.1351-1.32C286.6059,68.21,288.6393,67.86,291.0731,67.3582Z"/><path d="M252.3551,75.244a17.0679,17.0679,0,0,1-2.9868-.05c-.517-.093-.9416-.7-1.4078-1.0751.3927-.4316.7275-1.1538,1.1881-1.2457,2.3481-.4685,4.7217-.8453,7.1035-1.08.5081-.05,1.0875.6243,1.6341.965-.4326.6754-.7417,1.77-1.3227,1.9413a21.7406,21.7406,0,0,1-4.2044.4555Z"/><path d="M267.6177,73.376l-1.7787-1.1637a7.6186,7.6186,0,0,1,2.1079-1.4712,30.6046,30.6046,0,0,1,5.5912-.9732c.5633-.0421,1.1913.78,1.79,1.2066-.55.5668-1.0188,1.4852-1.6644,1.6331A59.58,59.58,0,0,1,267.6177,73.376Z"/><path d="M165.2315,74.7224a13.8867,13.8867,0,0,1,3.2133.0705c.5545.135.9338.9895,1.3921,1.5195-.5526.4344-1.0917,1.2186-1.66,1.24a37.2361,37.2361,0,0,1-6.1846-.2443c-.6705-.0867-1.24-.9533-1.8559-1.4633a6.25,6.25,0,0,1,1.8732-1.1312,18.0043,18.0043,0,0,1,3.2221-.0508Z"/><path d="M188.7069,135.7974a13.8582,13.8582,0,0,1-3.2046-.0679c-.596-.145-1.0275-.9662-1.533-1.4832.525-.3788,1.0263-1.04,1.579-1.0866a57.8871,57.8871,0,0,1,6.6786-.1859c.5028.0162,1.38.7878,1.3711,1.1959a1.9413,1.9413,0,0,1-1.1878,1.4619,21.1488,21.1488,0,0,1-3.7029.07Z"/><path d="M222.9446,77.1941c-2.8639.133-5.7273.3067-8.5925.3459-.3456.0047-.8771-.6719-.9951-1.1191-.091-.3448.326-1.1873.5266-1.19,2.7859-.0428,5.5751-.0132,8.3587.1076.31.0134.591.694.8855,1.0651Z"/><path d="M200.07,77.7369a16.3421,16.3421,0,0,1-2.965-.0484c-.5878-.11-1.0869-.6946-1.6258-1.066.4718-.4492.9222-1.2562,1.419-1.2858a51.153,51.153,0,0,1,6.6813.0293c.5163.0368.9755.8739,1.4609,1.3427-.5.3386-.9713.8989-1.507.97a26.5733,26.5733,0,0,1-3.4634.0459Z"/><path d="M241.3118,133.8429a11.2882,11.2882,0,0,1-2.7288-.0586c-.5408-.1384-.936-.8465-1.3965-1.2991.4168-.4182.7992-1.1508,1.2565-1.201a53.3624,53.3624,0,0,1,6.4651-.3372c.5027.0062.996.7665,1.4936,1.18-.4505.5037-.8305,1.3282-1.3657,1.4458a22.0387,22.0387,0,0,1-3.7231.2309Z"/></svg>