<svg id="Layer_1" data-name="Layer 1" xmlns="http://www.w3.org/2000/svg" viewBox="0 0 400 400"><defs><style>.cls-1{fill:#7d7e84;}.cls-2{fill:#c3c3c3;}</style></defs><title>wing</title><path d="M368.1824,128.4178a22.8434,22.8434,0,0,0-.4823,2.6959c-.2873,5.7081-.3812,11.43-.8357,17.1243-.44,5.5151-1.07,11.0277-1.9215,16.4938-.9805,6.2937-2.0326,12.5989-3.5305,18.7836-1.9669,8.121-4.341,16.1459-6.6539,24.1794-1.3915,4.8335-2.8087,9.6757-4.5613,14.3848-1.965,5.28-4.3,10.423-6.515,15.608-1.4612,3.42-2.8379,6.89-4.5321,10.1942-2.7136,5.2921-5.6424,10.4743-8.5135,15.6848a93.7,93.7,0,0,1-4.7165,8.2113c-4.7089,6.808-9.6657,13.4449-14.3655,20.2591a11.8759,11.8759,0,0,0-1.963,5.1329c-1.09,9.1574-1.9037,18.3473-2.9447,27.5111-.5342,4.7021-1.3416,9.3733-2.1027,14.5865a26.9,26.9,0,0,1-2.4222-1.7867c-5.9688-5.5839-11.8911-11.2178-17.907-16.75a2.4915,2.4915,0,0,0-2.27-.1612c-7.3484,3.9149-14.495,8.242-22.0023,11.8142a146.68,146.68,0,0,1-17.6345,6.5467c-5.5808,1.82-11.2876,3.26-16.9594,4.7914a32.2908,32.2908,0,0,1-4.399.703c-6.509.8166-13.07,1.3311-19.52,2.4771-9.5684,1.7-19.1833,1.1137-28.7887,1.223a6.3864,6.3864,0,0,1-6.53-4.9008,3.2619,3.2619,0,0,0-2.6324-2.4906c-5.897-1.8523-11.8416-3.6391-17.5511-5.98a75.79,75.79,0,0,1-18.4169-10.637c-1.5619-1.2379-2.761-.6857-3.8889.4536q-8.2817,8.3649-16.5154,16.7776a7.6066,7.6066,0,0,1-.8846.603,7.6718,7.6718,0,0,1-.8973-1.9692c-.6714-5.173-1.2364-10.36-1.8954-15.5343-.9647-7.5743-1.7646-15.1808-3.1106-22.6883-.3855-2.15-2.3085-4.0838-3.7108-5.9805-3.0777-4.1625-6.3595-8.1754-9.3939-12.3682a130.8194,130.8194,0,0,1-7.33-10.98c-2.7582-4.7583-5.2085-9.6995-7.6834-14.6163-2.5076-4.9819-5.0407-9.9613-7.2727-15.0685-2.3024-5.2685-4.3721-10.6474-6.3317-16.0549-2.4313-6.7091-4.7165-13.4738-6.9209-20.2613-1.0322-3.178-1.7556-6.4585-2.5684-9.7051-1.623-6.4826-3.321-12.9494-4.7776-19.47-1.09-4.8772-1.89-9.821-2.7455-14.7479-.9989-5.7514-2.008-11.5037-2.8383-17.2807-.5118-3.5607-.7245-7.166-1.0213-10.7554-.2082-2.5167-.7219-2.7336-3.08-1.6456-3.3037,1.5242-6.6817,2.889-10.0384,4.2968-5.2862,2.2171-10.584,4.4062-15.8712,6.6208-3.8574,1.6158-7.72,3.2211-11.5544,4.8894-5.243,2.281-10.4413,4.6656-15.6983,6.9132-3.7,1.5819-7.4818,2.9706-11.1972,4.5175-3.6356,1.5137-7.2189,3.1534-10.8562,4.6629a13.11,13.11,0,0,1-3.5453.9852c-1.4649.1586-4.0034-2.4438-3.75-3.862.1011-.5658.8812-1.1953,1.4962-1.4554,5.9231-2.5039,11.8718-4.9476,17.8234-7.3835,5.4-2.21,10.8189-4.3723,16.2168-6.5866q7.0973-2.9115,14.1643-5.8963c5.2863-2.2388,10.53-4.5786,15.8335-6.7756,5.3821-2.23,10.8248-4.3126,16.2171-6.5181a6.0785,6.0785,0,0,0,3.0294-3.0713c3.6728-6.6173,7.8117-12.9744,11.7271-19.4588,2.8755-4.7621,5.6841-9.565,8.488-14.37q3.2792-5.6192,6.47-11.29C67.1234,72.7594,70.583,66.4389,74.12,60.1618A60.45,60.45,0,0,1,87.1251,44.2375c1.9808-1.7309,5.8047-1.836,8.46-.658a57.0874,57.0874,0,0,0,8.429,3.0858A118.9338,118.9338,0,0,0,115.8824,49.16c9.0794,1.44,18.1637,2.8954,27.2887,3.9876,7.6647.9175,15.405,1.1859,23.0851,1.996,17.0307,1.7963,34.0964,1.3582,51.1487.8249,10.1594-.3178,20.3034-1.2313,30.4436-2.0165,5.604-.434,11.1877-1.137,16.7768-1.7529,5.6546-.6231,11.3231-1.1582,16.9519-1.9664,8.0177-1.1513,16.0252-2.405,23.9916-3.8634a23.8138,23.8138,0,0,0,6.3467-2.5988c3.1169-1.6082,7.1584-.7443,10.2742,2.2007,5.42,5.1232,9.5672,11.1805,13.3275,17.5581,4.1889,7.1045,8.5507,14.1084,12.6629,21.2563,2.2341,3.8834,4.1088,7.9738,6.1406,11.9733,2.1615,4.2547,4.3419,8.5,6.4668,12.7729,1.52,3.0561,3.0189,6.1254,4.4163,9.2386.8115,1.808,1.6557,3.2685,3.72,4.132,5.4067,2.2616,10.6787,4.8465,15.9945,7.3238,4.6057,2.1463,9.1861,4.3469,13.8,6.4758,3.0887,1.4251,6.2209,2.7558,9.3249,4.1481,5.2185,2.3407,10.4243,4.71,15.6464,7.0425,4.7248,2.1105,9.4828,4.1475,14.1925,6.2909,5.056,2.3009,10.0717,4.69,15.1083,7.0336.4251.1978.8715.3522,1.3139.51,1.4322.5112,2.489,3.9685,1.4308,5.0946a2.0818,2.0818,0,0,1-1.8328.0625c-5.2324-2.3326-10.4372-4.7278-15.6369-7.133-4.7657-2.2043-9.5-4.476-14.2777-6.6546-3.3051-1.5073-6.6615-2.9018-9.991-4.3562-3.4707-1.5161-6.9524-3.0084-10.4-4.5759-3.5113-1.5965-6.9674-3.315-10.4825-4.9027q-7.72-3.4869-15.4921-6.8582C374.6422,131.1024,371.6319,129.8712,368.1824,128.4178Zm-49.51-13.28c-2.373.7356-4.5368,1.4117-6.7039,2.0772-5.8346,1.7915-11.6192,3.775-17.5193,5.3162-6.8992,1.8021-13.8635,3.4065-20.8677,4.7378-5.1974.9878-10.4954,1.4792-15.7636,2.0537-6.2924.6863-12.591,1.38-18.9052,1.784-6.0969.39-12.2193.6243-18.3265.5583-14.4568-.156-28.9335.6586-43.36-1.2376-7.3313-.9637-14.75-1.2446-22.1191-1.9444-5.6589-.5374-11.3079-1.1945-16.9494-1.8945-6.4262-.7973-12.8391-1.701-19.2577-2.559-1.2409-.1659-2.4931-.2742-3.72-.5126-4.347-.8445-8.687-1.7251-13.0261-2.6095-2.7323-.5568-5.5148-.9574-8.1743-1.7608-4.4328-1.339-5.426-.6621-4.701,3.8266.9063,5.611,1.8473,11.2185,2.9074,16.802,1.3771,7.2534,2.8751,14.484,4.3538,21.7177a6.1783,6.1783,0,0,0,.8593,2.4012c3.1493,4.269,6.3214,8.5241,9.6016,12.6928,3.333,4.236,6.8035,8.3637,10.2055,12.5454,2.77,3.4045,5.4859,6.8535,8.3,10.2205,3.9463,4.7217,8.0381,9.3233,11.929,14.0894,5.4694,6.7,10.7729,13.5343,16.22,20.2524,4.7692,5.882,9.6334,11.6871,14.4657,17.5178,2.8963,3.4947,5.8376,6.9523,8.712,10.4648,3.3693,4.1174,6.6473,8.31,10.0446,12.4039,1.9131,2.3054,3.63,5.0528,6.0746,6.57,3.3594,2.0854,7.32,3.2075,11.0407,4.697a1.663,1.663,0,0,0,1.1068-.1912c2.4683-1.1033,4.9253-2.2321,7.3809-3.3636,1.7451-.804,3.786-1.2852,5.1575-2.5115a61.2586,61.2586,0,0,0,6.8067-7.4072c4.6217-5.7613,9.0329-11.6915,13.6483-17.458,5.3705-6.71,10.87-13.3163,16.3086-19.972q8.3694-10.2429,16.7233-20.4986,8.4217-10.3941,16.773-20.8453,8.2862-10.3454,16.5165-20.7351c1.7045-2.1609,3.86-4.2335,4.7364-6.724a154.9335,154.9335,0,0,0,4.1162-15.4948c.8122-3.3981,1.2924-6.8751,2.0861-10.2784A109.6494,109.6494,0,0,0,318.6728,115.138ZM93.2,54.51a32.7412,32.7412,0,0,1,3.7649,1.7688A2.1774,2.1774,0,0,1,97.7,57.98c-.01.2725-.9459.7276-1.4564.72a12.8349,12.8349,0,0,1-3.2388-.4733c-1.2852-.3608-2.1268-.1946-2.48,1.2408-.96,3.9059-2.6092,7.77-2.81,11.71-.5313,10.3972-.4483,20.826-.5894,31.2425a2.5693,2.5693,0,0,0,2.4876,2.8507,8.8052,8.8052,0,0,1,3.188.667c.7774.4569,1.18,1.5521,1.7476,2.3654a8.3986,8.3986,0,0,1-2.3212.7757c-1.0757.0356-2.1844-.4628-3.2354-.3449-.52.0584-1.4373,1.2856-1.3267,1.4671.5991.9831,1.3123,2.3127,2.2619,2.5948a127.9579,127.9579,0,0,0,13.0851,3.2818c7.7243,1.43,15.491,2.6468,23.2618,3.8059,8.8,1.3125,17.6072,2.6031,26.4421,3.6409,7.3709.8659,14.7755,1.5487,22.1847,1.9579,8.9949.4968,18.0112.8782,27.0167.8478,14.259-.0482,28.5306-.1866,42.77-.8629,8.147-.3869,16.249-1.8463,24.3542-2.9487,5.6362-.7666,11.312-1.4464,16.8458-2.71,6.7272-1.5354,13.3462-3.5675,19.9677-5.5336,3.5489-1.0538,7.0034-2.4249,10.5036-3.6438a4.6076,4.6076,0,0,0,3.2716-4.3485,77.3178,77.3178,0,0,0,.1348-8.0129c-.1139-2.7079-.69-5.4005-.7447-8.1062a113.3409,113.3409,0,0,0-3.99-27.7426c-1.4758-5.3991-2.3343-5.8378-7.47-3.3591-.1366.0659-.2621.3022-.3573.2831-.7665-.1541-1.5245-.3506-2.2851-.5341.3959-.69.6261-1.68,1.2214-2.0085a35.6589,35.6589,0,0,1,4.316-1.7048c1.89-.7384,1.1522-2.2611.7313-3.38a2.4713,2.4713,0,0,0-2.0918-1.0291c-2.8475.3666-5.6573,1.0145-8.4928,1.4886-7.5428,1.2609-15.074,2.61-22.6438,3.6841-5.8657.8326-11.778,1.3512-17.6778,1.9245-6.92.6724-13.8392,1.4185-20.7766,1.837-12.4945.7538-24.9971,1.4675-37.5069,1.8386-6.4666.1918-12.9557-.3991-19.4353-.6163-11.876-.3983-23.7841.0241-35.5939-1.9068-5.92-.9679-11.9312-1.36-17.8858-2.1307q-5.3241-.69-10.5975-1.7576c-6.9369-1.3953-13.85-2.9072-20.7719-4.379C94.9,50.0736,93.2551,51.5232,93.2,54.51ZM300.8438,328.9956a13.0733,13.0733,0,0,0,.5609-1.8353c.5184-4.0053,1.0252-8.0124,1.4951-12.0237.654-5.582,1.2753-11.1679,1.9061-16.7526.6132-5.4293,1.2773-10.8536,1.8168-16.29q1.0639-10.72,1.9575-21.4572,1.0224-12.4416,1.8734-24.897c.6878-10.2085,1.3556-20.4195,1.878-30.6373.264-5.1627.37-10.3481.2172-15.5136-.1637-5.5439-.7144-11.0765-1.0962-16.614l-.9258-.3536c-25.6743,32.5442-52.422,64.2317-77.5825,97.1847.6108.4932.7221.66.8508.6749,1.0056.1139,2.1516.011,1.9673,1.6014-.184,1.5878-1.3215,1.2294-2.31,1.1449a11.0294,11.0294,0,0,0-1.8564-.2285,2.883,2.883,0,0,0-1.7554.5968c-1.6457,1.8-3.1871,3.6962-4.7364,5.5821-1.014,1.2341-.5708,2.36,1.0139,2.6327,8.2207,1.4164,15.7166,4.9351,23.062,8.5755a131.5841,131.5841,0,0,1,17.1547,10.5c7.35,5.1784,14.4773,10.6937,21.4827,16.3344C292.2647,320.8006,296.3166,324.8725,300.8438,328.9956ZM104.843,182.8241c-2-2.5561-3.8091-4.9492-5.7278-7.2512a2.8215,2.8215,0,0,0-1.7741-.7015c-.1671-.0176-.5928.8473-.6191,1.3227-.1334,2.4178-.3069,4.8452-.2253,7.2611.3532,10.4643.6567,20.9331,1.2362,31.386.5315,9.5861,1.3429,19.158,2.1289,28.7281.4786,5.8268,1.1258,11.64,1.728,17.4563q.9029,8.72,1.8719,17.4324c.5827,5.1889,1.2063,10.3732,1.84,15.556.6335,5.1788,1.345,10.3484,1.9446,15.531.708,6.1185,1.3207,12.2482,2.0135,18.3685a6.8974,6.8974,0,0,0,.6225,1.6268,7.014,7.014,0,0,0,1.5139-.8809c1.581-1.55,3.0033-3.2721,4.66-4.73,4.7945-4.2185,9.576-8.4619,14.5475-12.4662,5.1434-4.1426,10.3371-8.265,15.82-11.9316,4.7321-3.1647,9.8982-5.681,14.8768-8.4763a80.3856,80.3856,0,0,1,22.6064-8.8376c1.4585-.3111,1.8236-.9128,1.1421-2.29-1.2534-2.5329-2.8632-3.4251-5.7015-3.001a2.4979,2.4979,0,0,1-1.1586.0681,21.6242,21.6242,0,0,1-2.1515-1.1013c.5163-.5719.9437-1.4939,1.565-1.6515,2.0389-.5173,1.6843-1.5153.7157-2.6617-3.5909-4.25-7.2668-8.43-10.8192-12.7115-3.8869-4.6853-7.6432-9.4787-11.51-14.1811-4.1633-5.0632-8.4154-10.0534-12.5792-15.1161-4.0762-4.9564-8.0629-9.9863-12.14-14.9421-3.3277-4.0453-6.7652-8-10.0909-12.0471-4.7962-5.8363-9.5228-11.73-14.3251-17.5612a1.9865,1.9865,0,0,0-1.58-.6693c-.3332.0673-.7522.9668-.7014,1.4493.17,1.61.7657,3.2048.7293,4.7947-.0191.8322-1.0174,1.642-1.5734,2.4619-.6527-.6489-1.61-1.1894-1.8882-1.9716-.4358-1.2245-.2786-2.6472-.61-3.9243C100.3043,183.5907,100.8628,182.7946,104.843,182.8241Zm211.904-134.43-.6363.5424c.211.7169.3934,1.4438.6382,2.1491A86.2537,86.2537,0,0,1,319.763,59.85c1.461,6.3617,3.19,12.7456,3.7566,19.2127,1.4377,16.3965,1.6581,32.8356-1.056,49.1642-1.3153,7.9137-2.8307,15.7943-4.2846,23.6846-.1807.9812-.56,1.9241-.8132,2.8937a82.5192,82.5192,0,0,0-2.0557,8.35c-.2039,1.3468.6657,2.82.7845,4.2583q.5806,7.0238.9336,14.0653c.0684,1.3874.2845,2.4825,1.7995,2.8481,1.3177.318,1.1449,1.0035.8,2.095-.9764,3.0944-2.3041,6.2158-2.5116,9.3907-.8267,12.6423-1.1712,25.3153-1.9048,37.9647-.6018,10.3773-1.5058,20.7369-2.2623,31.1054-.0578.7912-.0076,1.59-.0076,2.7313.7434-.4018,1.0513-.5919,1.3782-.74.7289-.33,1.4674-.6395,2.2019-.9572a26.1709,26.1709,0,0,1-.0333,2.8276c-.0331.3074-.4994.5661-.7635.8509-3.1383,3.3853-3.9625,7.6066-4.2843,11.9924a8.33,8.33,0,0,0,.4171,1.9577,20.2127,20.2127,0,0,0,2.041-2.17c3.3144-4.9364,6.764-9.795,9.8181-14.89,3.3243-5.5452,6.4875-11.2115,9.3214-17.02q5.2365-10.7327,9.7656-21.8057c2.3669-5.8043,4.23-11.8167,6.2364-17.7638.79-2.3423,1.36-4.7589,2.0328-7.141,1.6229-5.7475,3.3963-11.458,4.8218-17.2539,1.0758-4.374,1.7251-8.854,2.5314-13.2928.9445-5.2,2.1826-10.3735,2.7051-15.6171.9216-9.2492,1.3994-18.5426,2.057-27.818.1012-1.4289.2065-2.832-1.614-3.4272-.3756-.1228-.8933-1.078-.7911-1.2059,1.6032-2.0041-.094-3.2155-.91-4.6339-2.72.5442-3.138.1187-3.2994-2.4022-.1427-2.2276-.1056-4.6684-1.0146-6.609-3.2982-7.0417-6.8289-13.9839-10.5224-20.8285-3.82-7.0785-7.8959-14.02-11.9689-20.9579a3.0861,3.0861,0,0,0-2.38-1.3381c-2.0984.2145-2.6672-.7279-2.6381-2.5376a8.9668,8.9668,0,0,0-1.9907-6.5068c-2.0838-2.3666-3.8806-4.9857-5.9617-7.3549A21.1152,21.1152,0,0,0,316.747,48.3942ZM98.7127,288.3435c-.8827-4.6377.1337-8.8336-2.49-12.39-.6808-.9227-1.34-1.8613-2.0317-2.7761-.7987-1.057-.7016-2.0024.61-2.3428,1.8073-.4691,1.7962-1.721,1.6272-3.0993-.4175-3.4053-.9754-6.7967-1.2883-10.2111-.82-8.95-1.6178-17.9026-2.2765-26.8651-.6248-8.5-.9879-17.0184-1.6033-25.5189-.5764-7.9629.934-16.1571-2.6014-23.81-.6094-1.3191-.1948-2.3616,1.2347-3.0729a2.7657,2.7657,0,0,0,1.2328-1.7644,61.4434,61.4434,0,0,0,.9263-6.6889,16.64,16.64,0,0,0-.1189-4.9068c-1.3584-5.9945-3.1234-11.9024-4.3307-17.924-1.4828-7.3953-2.7615-14.8451-3.7546-22.321-.9853-7.4164-1.7162-14.8813-2.1849-22.3483-.8349-13.3026-.6885-26.5949,2.1-39.7079.4745-2.2308,1.6774-4.3038,2.5069-6.4639a14.2018,14.2018,0,0,0,.4412-1.7852l-.7644-.3383A63.9836,63.9836,0,0,0,75.1428,70.7456c2.4521.1607,2.7453,1.3337,2.5393,3.09-.18,1.538.1885,3.1368.0495,4.6848a7.9986,7.9986,0,0,1-1.0911,2.4014c-.8653-.7354-2.0735-1.3157-2.497-2.2512-.4012-.8864.1109-2.1507.0449-3.2381a6.87,6.87,0,0,0-.6581-1.8379,8.0785,8.0785,0,0,0-1.4016,1.48c-2.9253,5.2812-5.7269,10.6321-8.7115,15.879-2.7966,4.9163-5.7533,9.7421-8.6736,14.5873-2.316,3.8425-4.7026,7.6426-7.0178,11.4856-.7972,1.3235-1.8593,2.4164-.9364,4.399.5955,1.2794-.0483,3.1356-.1367,4.7333-1.1815-.139-2.3623-.2843-3.5453-.4084a4.3693,4.3693,0,0,0-.9406.2925c.3427,1.7914.7966,3.6342,1.0346,5.5045C44.01,137.898,44.6,144.28,45.54,150.6109c1.0948,7.38,2.2508,14.7636,3.78,22.062,1.7338,8.2773,3.8928,16.466,5.9028,24.6844.74,3.0245,1.4,6.0866,2.412,9.023,2.8062,8.1437,5.7282,16.2488,8.7064,24.3316,1.4241,3.8651,2.9456,7.7065,4.6647,11.4475,2.0265,4.41,4.3089,8.702,6.4912,13.04,2.119,4.2121,3.9806,8.5836,6.44,12.5875,4.0006,6.513,8.3837,12.7919,12.6511,19.1388C96.9,287.3908,97.5828,287.6078,98.7127,288.3435Zm179.81,28.9444q.1242-.5415.2485-1.0828-2.8566-1.9529-5.7135-3.9053a12.0377,12.0377,0,0,1-1.1314-.7649c-1.8387-1.5924-3.5473-3.3612-5.5122-4.7755-3.4319-2.47-6.9456-4.8451-10.56-7.0381a105.823,105.823,0,0,0-10.8-5.8833c-3.9265-1.7954-8.0582-3.1435-12.1064-4.6708-4.9614-1.8717-10.0021-3.3058-15.3889-3.2609a14.6243,14.6243,0,0,0-8.3265,3.142c-1.5531,1.0892-2.4187,3.1431-4.9251,2.4922-.5515-.1433-1.4041.5779-2.0215,1.0322-3.0382,2.2359-6.3165,4.2362-8.9954,6.8476a92.16,92.16,0,0,0-10.466,11.8036c-2.5525,3.5306-4.2431,7.6913-6.2556,11.6036-2.8192,5.4806-5.4969,10.9787-5.0271,17.4584.13,1.7867.5372,2.6146,2.38,2.5926,11.25-.1343,22.4875.075,33.6911-1.6981,7.64-1.2091,15.3238-1.9683,22.7658-4.274,5.2494-1.6263,10.622-2.8508,15.9144-4.3441a41.0793,41.0793,0,0,0,5.92-2.1169q7.08-3.2367,14.05-6.7126C270.3914,321.6677,274.4392,319.4424,278.5224,317.2879ZM167.5543,327.7326c4.1512-7.3958,7.8775-14.7707,12.2978-21.703,4.434-6.9537,11.1836-11.801,17.7947-16.8-5.2188-3.7285-13.3615-3.6137-18.0975.2935,2.0692.8075,3.9615,1.4143,5.7138,2.2984a3.4669,3.4669,0,0,1,1.3685,2.0145c.0871.2852-.7072,1.1653-1.188,1.2456-3.0151.5036-7.5959-2.2378-8.825-5.4016-1.7548.715-3.546,1.3531-5.2565,2.1617-3.1929,1.51-6.4032,3.0025-9.4884,4.7148-3.8345,2.128-7.6608,4.3072-11.2859,6.7661-3.9359,2.67-7.66,5.6558-11.4,8.6013a2.1252,2.1252,0,0,0-.1677,1.8257c1.68.849,1.242,1.9159.5338,3.1-1.0342,1.7285-1.8846.1669-2.66-.2364-2.2276-1.1588-5.6575-.0323-6.3583,2.2977-.1054.3505.3638,1.1082.7633,1.3407,5.0444,2.9354,9.97,6.1384,15.2376,8.6094,5.7271,2.6866,11.7768,4.6871,17.6991,6.9521a1.5751,1.5751,0,0,0,1.2577-.07c1.5608-1.0758,1.0827-4.071-.5055-5.0937-.699-.45-.8813-1.7027-1.2982-2.591a9.9253,9.9253,0,0,1,2.1869-.6553A5.31,5.31,0,0,1,167.5543,327.7326Z"/><path class="cls-1" d="M93.2,54.51c.0555-2.9871,1.7-4.4367,4.5116-3.8389,6.9214,1.4718,13.835,2.9837,20.7719,4.379q5.2634,1.0588,10.5975,1.7576c5.9546.7711,11.9662,1.1628,17.8858,2.1307,11.81,1.9309,23.7179,1.5085,35.5939,1.9068,6.48.2172,12.9687.8081,19.4353.6163,12.51-.3711,25.0124-1.0848,37.5069-1.8386,6.9374-.4185,13.8565-1.1646,20.7766-1.837,5.9-.5733,11.8121-1.0919,17.6778-1.9245,7.57-1.0746,15.101-2.4232,22.6438-3.6841,2.8355-.4741,5.6453-1.122,8.4928-1.4886a2.4713,2.4713,0,0,1,2.0918,1.0291c.4209,1.1188,1.1589,2.6415-.7313,3.38a35.6589,35.6589,0,0,0-4.316,1.7048c-.5953.3284-.8255,1.3187-1.2214,2.0085.7606.1835,1.5186.38,2.2851.5341.0952.0191.2207-.2172.3573-.2831,5.136-2.4787,5.9945-2.04,7.47,3.3591a113.3409,113.3409,0,0,1,3.99,27.7426c.0542,2.7057.6308,5.3983.7447,8.1062a77.3178,77.3178,0,0,1-.1348,8.0129,4.6076,4.6076,0,0,1-3.2716,4.3485c-3.5,1.2189-6.9547,2.59-10.5036,3.6438-6.6215,1.9661-13.24,3.9982-19.9677,5.5336-5.5338,1.2631-11.21,1.9429-16.8458,2.71-8.1052,1.1024-16.2072,2.5618-24.3542,2.9487-14.239.6763-28.5106.8147-42.77.8629-9.0055.03-18.0218-.351-27.0167-.8478-7.4092-.4092-14.8138-1.092-22.1847-1.9579-8.8349-1.0378-17.6423-2.3284-26.4421-3.6409-7.7708-1.1591-15.5375-2.3754-23.2618-3.8059a127.9579,127.9579,0,0,1-13.0851-3.2818c-.95-.2821-1.6628-1.6117-2.2619-2.5948-.1106-.1815.8067-1.4087,1.3267-1.4671,1.051-.1179,2.16.38,3.2354.3449a8.3956,8.3956,0,0,0,2.3212-.7758c-.568-.8132-.97-1.9084-1.7476-2.3653a8.8052,8.8052,0,0,0-3.188-.667,2.5693,2.5693,0,0,1-2.4876-2.8507c.1411-10.4165.0581-20.8453.5894-31.2425.2013-3.94,1.85-7.8043,2.81-11.71.3529-1.4354,1.1945-1.6016,2.48-1.2408a12.8349,12.8349,0,0,0,3.2388.4733c.51.008,1.4463-.4471,1.4564-.72a2.1774,2.1774,0,0,0-.7351-1.7011A32.7412,32.7412,0,0,0,93.2,54.51ZM105.6859,57.76c-.7488,2.4645.28,3.4273,2.0665,3.71a43.1765,43.1765,0,0,0,5.8318.5629c.6715.0141,1.3565-.6173,2.0352-.9538-.4212-.67-.7416-1.8164-1.2807-1.9308C111.4775,58.5417,108.5614,58.1939,105.6859,57.76Zm39.81,60.5313.0551-.2255a5.002,5.002,0,0,0,1.6251-.0342,11.1668,11.1668,0,0,0,1.8779-1.1081c-.4824-.5915-.8892-1.5989-1.46-1.7027a68.9275,68.9275,0,0,0-7.6382-.8924c-.5057-.0344-1.0589.6277-1.59.9686.427.5557.7521,1.4368,1.2994,1.608C141.567,117.5,143.5461,117.8485,145.496,118.291Zm17.9911,1.6875a6.2693,6.2693,0,0,0,1.7873-.0247,23.1432,23.1432,0,0,0,2.1129-1.2141c-.6246-.6293-1.1717-1.6789-1.8881-1.811a49.6183,49.6183,0,0,0-7.194-.7093c-.53-.0192-1.0893.7637-1.6351,1.1773.4266.5347.7667,1.41,1.2951,1.5439C159.9748,119.4519,162.0453,119.7239,163.4871,119.9785ZM159.0953,66.76l-.0206,1.0413a25.3482,25.3482,0,0,0,3.868,1.2636,26.9118,26.9118,0,0,0,5.1393.2842c.5731-.0168,1.128-.653,1.6911-1.0061-.4548-.6953-.8262-1.9079-1.3787-1.9969a55.2134,55.2134,0,0,0-7.4659-.6068C160.3258,65.7249,159.7068,66.4011,159.0953,66.76Zm-26.876-1.6377c.1468-.1481,1.0595-.6682,1.2013-1.3489.1-.4778-.7515-1.5453-1.3516-1.7075a49.478,49.478,0,0,0-7.0236-1.3673c-.5361-.064-1.6741.836-1.6717,1.2877.0036.6857.6528,1.8358,1.22,1.9684C126.8454,64.4811,129.1719,64.6895,132.2193,65.1221ZM151.23,67.7785l.5755-.71c-.5091-.88-.8756-2.3748-1.5521-2.5315-2.763-.64-5.6207-.8708-8.4434-1.2523l-.5931.6516c.3827.8188.628,2.2315,1.171,2.3571C145.2941,66.9655,148.2748,67.3165,151.23,67.7785Zm-20.0871,47.8691c-.5513-1.2415-.7353-2.55-1.2777-2.7206a38.0556,38.0556,0,0,0-6.768-1.4346c-.7757-.0954-2.2428.4481-2.3644.9494-.3681,1.5178.8089,2.1645,2.1891,2.323C125.3852,115.0478,127.8526,115.2966,131.1427,115.6476ZM232.6844,67.7535c-.4816,2.693.3,3.5518,2.2936,3.26,2.1421-.3135,4.2993-.5506,6.417-.9824.4988-.1017.8658-.85,1.2935-1.3009-.4573-.3255-.9064-.9186-1.3733-.9328C238.4559,67.71,235.5926,67.7535,232.6844,67.7535Zm-13.1733,3.6278v-.2051a13.3848,13.3848,0,0,0,3.0211-.0568c.6959-.1651,1.2673-.8554,1.8942-1.3115-.5907-.5516-1.1468-1.5264-1.7782-1.5778a35.1631,35.1631,0,0,0-6.5226.0767c-.58.0613-1.0548,1.1152-1.5779,1.7135.5658.4536,1.0768,1.1693,1.71,1.3018A16.1578,16.1578,0,0,0,219.5111,71.3813Zm-115.33,37.0828a4.8768,4.8768,0,0,0-1.561,1.22c-.1468.23.6076,1.4688,1.129,1.6157a43.0208,43.0208,0,0,0,6.784,1.4117c.74.0838,1.5857-.7615,2.383-1.1819-.6514-.6474-1.2025-1.6594-1.9735-1.8713C108.9281,109.1047,106.817,108.9008,104.1815,108.4641Zm94.4163,13.4114a17.78,17.78,0,0,0,3.4854-.0689,2.2008,2.2008,0,0,0,1.29-1.4791c.0743-.3232-.7345-1.1843-1.2137-1.2428a50.8452,50.8452,0,0,0-6.7424-.4251c-.5467.0064-1.5766.9969-1.5127,1.3952a2.54,2.54,0,0,0,1.45,1.7474A11.7874,11.7874,0,0,0,198.5978,121.8755Zm53.45-52.24c2.7357-.248,4.9334-.33,7.0761-.7172.596-.1077,1.1543-1.0605,1.4673-1.7455.1059-.2316-.6444-1.2355-.9255-1.2034-2.5982.2963-5.1915.6822-7.7538,1.2022-.4422.09-1.1229,1.0785-1.0048,1.3962C251.112,69.12,251.8542,69.4724,252.0476,69.6355ZM205.8234,71.219c.395-1.93.1044-3.0944-2.1619-3.0406-1.8609.0442-3.7307-.2-5.5876-.1159-.7206.0325-1.97.5481-2.02.96a1.7906,1.7906,0,0,0,1.9984,2.208C200.5978,71.1889,203.1441,71.219,205.8234,71.219ZM216.2173,121.94v-.0365a17.2046,17.2046,0,0,0,3.9534-.0858c.69-.1666,1.1687-1.2054,1.7426-1.8509-.6081-.3524-1.1983-.9674-1.8274-1.01a48.8521,48.8521,0,0,0-6.77-.0664c-.6074.0434-1.1479,1.021-1.7192,1.57.5267.4933.9839,1.2619,1.596,1.4163A12.6673,12.6673,0,0,0,216.2173,121.94Zm40.3644-5.3269a67.93,67.93,0,0,0-6.8413.5482c-.5293.0944-1.0467,1.21-1.2035,1.9365-.0569.2635.9938,1.1317,1.472,1.0818a45.7433,45.7433,0,0,0,6.1447-1.0816,6.78,6.78,0,0,0,1.9348-1.326Zm-16.9039,3.9625c.4813-1.7212-.0376-2.4879-1.92-2.3228-1.94.17-3.9091.068-5.8312.3334a2.4434,2.4434,0,0,0-1.735,1.4454c-.21,1.16.5251,1.8658,1.8606,1.6606C234.57,121.3055,237.0926,120.9523,239.6778,120.5758ZM292.5213,110.34c-2.5528.6144-4.6951,1.02-6.7492,1.6932-.6.1967-.9487,1.1588-1.4125,1.77.6852.3,1.4332.9462,2.0443.8357a43.1873,43.1873,0,0,0,6.0119-1.5879c.65-.2178,1.1263-.9535,1.682-1.4524Zm-112.9722,7.6546a12.36,12.36,0,0,0-2.8492.0576c-.56.1383-.981.8356-1.4644,1.2822.4811.469.9315,1.3011,1.4485,1.3447a61.7848,61.7848,0,0,0,6.9882.1673c.5081-.0148.9967-.7005,1.4943-1.0772-.4239-.4478-.7872-1.1849-1.2831-1.2886A40.5,40.5,0,0,0,179.5491,117.9949Zm132.0746-11.1132q.0147-.4015.03-.8032c-.7061-.22-1.487-.7534-2.1048-.6054a48.52,48.52,0,0,0-6.6249,2.062c-.4646.1848-.804,1.3825-.6954,2.0286.0584.3475,1.3051.8682,1.8176.7015,2.186-.7106,4.3063-1.6288,6.43-2.52A5.7669,5.7669,0,0,0,311.6237,106.8817ZM271.01,67.5518c2.6409-.5265,4.7086-.8421,6.7067-1.405.5-.1409.7766-1.0771,1.1559-1.6478-.5395-.2795-1.0953-.8232-1.6157-.7913-1.9387.1189-3.8616.4727-5.7986.6476-1.3165.1188-2.4859.5268-2.1753,2.0143C269.4045,66.95,270.6183,67.3021,271.01,67.5518Zm-87.9283,2.5245v.1376a13.2075,13.2075,0,0,0,2.79-.0455,9.45,9.45,0,0,0,2.1992-1.123c-.7091-.485-1.37-1.2765-2.1365-1.3958a41.9569,41.9569,0,0,0-6.2727-.4526c-.6133-.0024-1.2291.6429-1.8438.9913.511.6294.9249,1.647,1.5539,1.8041A15.659,15.659,0,0,0,183.0821,70.0763Zm105.33-5.6836c2.5226-.683,4.8657-1.2414,7.1414-2.0014a1.874,1.874,0,0,0,.7623-1.6517,1.7777,1.7777,0,0,0-1.537-.8145,66.5483,66.5483,0,0,0-6.7371,1.8209,1.8327,1.8327,0,0,0-1.0208,1.4355C287.064,63.6105,287.88,63.9615,288.4119,64.3927Zm-12.699,50.0186c-2.7436.1888-5.5828.3149-8.3926.6714-.3242.0411-.8649,1.8662-.665,2.0174,2.5788,1.95,5.0785-.5142,7.6919-.3531.4685.0288,1.0142-1.153,1.514-1.7841C275.89,114.9268,275.8257,114.8173,275.7129,114.4113Z"/><path class="cls-1" d="M300.8438,328.9956c-4.5272-4.1231-8.5791-8.195-13.0262-11.776-7.0054-5.6407-14.1323-11.156-21.4827-16.3344a131.5841,131.5841,0,0,0-17.1547-10.5c-7.3454-3.64-14.8413-7.1591-23.062-8.5755-1.5847-.273-2.0279-1.3986-1.0139-2.6327,1.5493-1.8859,3.0907-3.7824,4.7364-5.5821a2.883,2.883,0,0,1,1.7554-.5968,11.0294,11.0294,0,0,1,1.8564.2285c.9884.0845,2.1259.4429,2.31-1.1449.1843-1.59-.9617-1.4875-1.9673-1.6014-.1287-.0146-.24-.1817-.8508-.6749,25.1605-32.953,51.9082-64.64,77.5825-97.1847l.9258.3536c.3818,5.5375.9325,11.07,1.0962,16.614.1525,5.1655.0468,10.3509-.2172,15.5136-.5224,10.2178-1.19,20.4288-1.878,30.6373q-.8391,12.4551-1.8734,24.897-.8823,10.7367-1.9575,21.4572c-.54,5.4365-1.2036,10.8608-1.8168,16.29-.6308,5.5847-1.2521,11.1706-1.9061,16.7526-.47,4.0113-.9767,8.0184-1.4951,12.0237A13.0733,13.0733,0,0,1,300.8438,328.9956Zm-2.4878-49.92c.9086-.406,2.5114-.6936,2.6039-1.2379a39.395,39.395,0,0,0,.4011-7.1888c-.0062-.401-1.0147-1.0412-1.6026-1.0937a1.7507,1.7507,0,0,0-1.3393,1.1005C298.2943,273.2624,298.356,275.8781,298.356,279.0757Zm-.7417,30.1594.768-.46c-.3289-1.1824-.35-2.6125-1.0571-3.4906a18.1025,18.1025,0,0,0-4.1425-3.5682c-.6766-.4484-1.771-.2664-2.6757-.3706.2191.9145.1575,2.0866.7132,2.6923a43.1878,43.1878,0,0,0,4.4769,3.93A20.79,20.79,0,0,0,297.6143,309.2351Zm5.2761-52.771a9.7019,9.7019,0,0,0,.22-2.8622c-.1573-.6994-.9239-1.2617-1.42-1.8848-.5749.531-1.5572,1-1.6493,1.6043a29.3325,29.3325,0,0,0-.2734,5.8064c.0351.7257.7633,1.4177,1.1755,2.1251.6491-.6914,1.5464-1.2827,1.8767-2.1026A7.47,7.47,0,0,0,302.89,256.4641Zm2.8335-48.5617c.8461-1.3307,1.5851-2.0526,1.786-2.9018a26.7968,26.7968,0,0,0,.6948-5.2514,2.6482,2.6482,0,0,0-.9515-2.1c-1.1165-.5692-1.7864.0343-1.9681,1.38-.3065,2.27-.8918,4.5039-1.1736,6.7761C304.0562,206.2507,304.8458,206.8008,305.7239,207.9024Zm-2.363,12.6921-.2044-.0026a24.37,24.37,0,0,0-.127,3.2508c.04.4907.5814,1.3382.8668,1.3265.5625-.023,1.5-.4457,1.59-.8553a49.0673,49.0673,0,0,0,1.0548-6.83c.0367-.4867-.9441-1.43-1.507-1.4713a2.1668,2.1668,0,0,0-1.6,1.3446A13.1132,13.1132,0,0,0,303.3609,220.5945Zm6.3438-41.8786c-1.2106.6624-2.4318.9391-2.5459,1.4588-.5839,2.6606-.8824,5.3838-1.3123,8.3,1.3776-.18,3.0719,1.0006,3.3688-1.1021C309.58,184.7876,309.5331,182.1446,309.7047,178.7159Zm-40.0008,106.896c-.2-.902-.17-1.38-.347-1.4761-2.498-1.3572-5.0063-2.7-7.5671-3.9312a1.5049,1.5049,0,0,0-1.3373.6058,1.8,1.8,0,0,0,.49,1.5791,71.5837,71.5837,0,0,0,6.6153,3.709C268.068,286.345,268.9608,285.8,269.7039,285.6119Zm-24.485-12.9661c-.4284.3762-1.0875.7263-1.3283,1.2638-.1186.2646.434,1.0947.8586,1.2936a70.9818,70.9818,0,0,0,6.5859,2.7569c.4048.1419,1.6451-.7124,1.6024-.9321a3.1386,3.1386,0,0,0-1.12-2.08,33.8129,33.8129,0,0,0-4.5671-1.6074C246.6618,273.143,246.0751,272.9389,245.2189,272.6458Zm54.38,19.6123.2032,0a23.7605,23.7605,0,0,0-.057-3.4854c-.0661-.4423-.72-.9665-1.2077-1.1123a1.3906,1.3906,0,0,0-1.1387.7632,60.9888,60.9888,0,0,0-.9145,6.87c-.0321.5148.8716,1.0877,1.3444,1.6339.59-.5448,1.4838-.9925,1.6967-1.658A10.2758,10.2758,0,0,0,299.5988,292.2581Zm5.3075-58.2938c-2.2977-.7546-3.4037-.5669-3.2618,1.8789.1122,1.9344-.2681,3.8931-.3057,5.8433-.0093.4848.4614.9788.7115,1.4686.5668-.3,1.5582-.5194,1.6321-.9119C304.1942,239.5254,304.515,236.7717,304.9063,233.9643Zm-29.1671,57.7413c1.9743,1.53,3.7728,3.0677,5.7333,4.36.6406.4223,1.7028.2048,2.5721.28-.2987-.8437-.3677-1.9262-.9444-2.4807-1.1544-1.11-2.8562-1.7119-3.8421-2.9226C277.7139,289.0456,276.9044,289.7968,275.7392,291.7056Z"/><path class="cls-1" d="M104.843,182.8241c-3.98-.0295-4.5387.7666-3.6119,4.3375.3314,1.2771.1742,2.7.61,3.9243.2785.7822,1.2355,1.3227,1.8882,1.9716.556-.82,1.5543-1.63,1.5734-2.4619.0364-1.59-.5594-3.1847-.7293-4.7947-.0508-.4825.3682-1.382.7014-1.4493a1.9865,1.9865,0,0,1,1.58.6693c4.8023,5.8313,9.5289,11.7249,14.3251,17.5612,3.3257,4.0469,6.7632,8.0018,10.0909,12.0471,4.0767,4.9558,8.0634,9.9857,12.14,14.9421,4.1638,5.0627,8.4159,10.0529,12.5792,15.1161,3.8667,4.7024,7.623,9.4958,11.51,14.1811,3.5524,4.2819,7.2283,8.4612,10.8192,12.7115.9686,1.1464,1.3232,2.1444-.7157,2.6617-.6213.1576-1.0487,1.08-1.5649,1.6515a21.6117,21.6117,0,0,0,2.1514,1.1013,2.4979,2.4979,0,0,0,1.1586-.0681c2.8383-.4241,4.4481.4681,5.7015,3.001.6815,1.3772.3164,1.9789-1.1421,2.29a80.3856,80.3856,0,0,0-22.6064,8.8376c-4.9786,2.7953-10.1447,5.3116-14.8768,8.4763-5.4825,3.6666-10.6762,7.789-15.82,11.9316-4.9715,4.0043-9.753,8.2477-14.5475,12.4662-1.6572,1.4582-3.0795,3.1808-4.66,4.73a7.014,7.014,0,0,1-1.5139.8809,6.8974,6.8974,0,0,1-.6225-1.6268c-.6928-6.12-1.3055-12.25-2.0135-18.3685-.6-5.1826-1.3111-10.3522-1.9446-15.531-.634-5.1828-1.2576-10.3671-1.84-15.556q-.9783-8.7116-1.8719-17.4324c-.6022-5.8162-1.2494-11.63-1.728-17.4563-.786-9.57-1.5974-19.142-2.1289-28.7281-.5795-10.4529-.883-20.9217-1.2362-31.386-.0816-2.4159.0919-4.8433.2253-7.2611.0263-.4754.452-1.34.6191-1.3227a2.8215,2.8215,0,0,1,1.7741.7015C101.0339,177.8749,102.8433,180.268,104.843,182.8241Zm8.448,128.6225a12.6685,12.6685,0,0,0,1.0246,2.2316c.1247.1764.9787.1045,1.254-.1349,2.1569-1.8752,4.3228-3.7521,6.3135-5.7963.4113-.4223.1021-1.5463.125-2.3468-.8622.0082-1.9753-.3257-2.54.0884a56.4659,56.4659,0,0,0-4.99,4.3766A11.0542,11.0542,0,0,0,113.291,311.4466Zm-6.79-72.0788c.2482,2.14.3672,4.3076.8169,6.4045.1508.7028,1.4047,1.844,1.7056,1.7175,1.0477-.4405,2.2751-.9956,1.88-2.7124a42.0725,42.0725,0,0,1-.82-5.6636c-.0951-1.0594.0555-2.1318-1.4969-2C107.21,237.23,106.123,237.6754,106.5015,239.3678Zm20.3851,60.1377c1.26,2.0416,2.4424,2.3222,3.9369,1.1245a53.8057,53.8057,0,0,0,4.6648-3.7591c.5553-.558.4607-1.7627.6619-2.673-.9414-.0032-2.1481-.3836-2.7765.0583C131.1322,295.8325,129.0872,297.6884,126.8866,299.5055Zm-19.6921-89.6611c-.33-2.8109-.6505-4.9433-.8064-7.0875-.09-1.2406-.4869-1.9318-1.8183-1.7591-1.219.1581-2.0832.658-1.8815,2.0983a57.15,57.15,0,0,0,.9932,6.3829c.1533.5928,1.3745,1.1451,2.168,1.2512C106.3525,210.7973,106.97,210.0054,107.1945,209.8444Zm8.562,90.2475c-.1879-2.7693-.2063-4.7307-.5108-6.6466-.1123-.706-.9-1.3048-1.3788-1.9525-.6773.6753-1.8444,1.2905-1.936,2.0376a50.0649,50.0649,0,0,0,.0465,5.8366c-.0055,1.4615.6411,2.3784,2.0728,2.0585C114.8368,301.25,115.4593,300.3391,115.7565,300.0919Zm35.1815-17.1036c-3.2894,2.0369-5.6149,3.37-7.7964,4.9082a2.2575,2.2575,0,0,0-.6516,2.0874c.5063.8377,1.29,1.6374,2.6372.6031,1.6357-1.2551,3.6321-2.0353,5.2987-3.2578a4,4,0,0,0,1.0333-2.4037C151.557,284.3737,151.1573,283.7336,150.938,282.9883Zm-44.259-65.0371c-1.0165,1.637-2.1037,2.5949-2.107,3.5565a24.2634,24.2634,0,0,0,.9444,6.1918c.1635.6191,1.26.9919,1.9293,1.4775.5189-.8287,1.4705-1.6578,1.47-2.4859a28.9605,28.9605,0,0,0-.7788-5.7237A16.5275,16.5275,0,0,0,106.679,217.9512Zm5.3859,43.5959c-.0771-.8769-.2461-2.3444-.3218-3.8166-.0539-1.0475.3982-2.3524-1.3913-2.2919-1.6257.0549-2.4221.87-2.1847,2.55.3018,2.1357.54,4.2834.9488,6.3983.0815.4216.89,1.0744,1.2169.9976a2.7261,2.7261,0,0,0,1.67-1.1813C112.2879,263.653,112.0649,262.839,112.0649,261.5471Zm1.924,18.9869a58.7188,58.7188,0,0,0-.5992-5.9438c-.1021-.5273-1.2873-1.3322-1.7185-1.196-.6767.2139-1.587,1.1093-1.6,1.7331a38.4476,38.4476,0,0,0,.5339,5.38,5.86,5.86,0,0,0,.3344,1.81c.2541.528.8563,1.3376,1.1839,1.2836a2.5971,2.5971,0,0,0,1.629-1.184A4.7442,4.7442,0,0,0,113.9889,280.534Zm54.165-1.9542c-.01-1.8681-.4851-2.633-2.0026-2.0691a62.91,62.91,0,0,1-6.0638,2.191,1.75,1.75,0,0,0-1.36,2.6056c.1635.4384,1.5421.777,2.2247.6021a46.2776,46.2776,0,0,0,6.0889-2.0783C167.6113,279.5966,167.9561,278.8143,168.1539,278.58Z"/><path class="cls-1" d="M316.747,48.3942a21.1152,21.1152,0,0,1,3.35,2.5774c2.0811,2.3692,3.8779,4.9883,5.9617,7.3549a8.9668,8.9668,0,0,1,1.9907,6.5068c-.0291,1.81.54,2.7521,2.6381,2.5376a3.0861,3.0861,0,0,1,2.38,1.3381c4.073,6.9376,8.1492,13.8794,11.9689,20.9579,3.6935,6.8446,7.2242,13.7868,10.5224,20.8285.909,1.9406.8719,4.3814,1.0146,6.609.1614,2.5209.5794,2.9464,3.2994,2.4022.8163,1.4184,2.5135,2.63.91,4.6339-.1022.1279.4155,1.0831.7911,1.2059,1.8205.5952,1.7152,1.9983,1.614,3.4272-.6576,9.2754-1.1354,18.5688-2.057,27.818-.5225,5.2436-1.7606,10.4172-2.7051,15.6171-.8063,4.4388-1.4556,8.9188-2.5314,13.2928-1.4255,5.7959-3.1989,11.5064-4.8218,17.2539-.6726,2.3821-1.2426,4.7987-2.0328,7.141-2.0063,5.9471-3.87,11.9595-6.2364,17.7638q-4.5093,11.0574-9.7656,21.8057c-2.8339,5.8084-5.9971,11.4747-9.3214,17.02-3.0541,5.0946-6.5037,9.9532-9.8181,14.89a20.2127,20.2127,0,0,1-2.041,2.17,8.33,8.33,0,0,1-.4171-1.9577c.3218-4.3858,1.146-8.6071,4.2843-11.9924.2641-.2848.73-.5435.7635-.8509a26.1709,26.1709,0,0,0,.0333-2.8276c-.7345.3177-1.473.627-2.2019.9572-.3269.1481-.6348.3382-1.3782.74,0-1.1409-.05-1.94.0076-2.7313.7565-10.3685,1.6605-20.7281,2.2623-31.1054.7336-12.6494,1.0781-25.3224,1.9048-37.9647.2075-3.1749,1.5352-6.2963,2.5116-9.3907.3444-1.0915.5172-1.777-.8-2.095-1.515-.3656-1.7311-1.4607-1.7995-2.8481q-.3473-7.0391-.9336-14.0653c-.1188-1.438-.9884-2.9115-.7845-4.2583a82.5192,82.5192,0,0,1,2.0557-8.35c.2528-.97.6325-1.9125.8132-2.8937,1.4539-7.89,2.9693-15.7709,4.2846-23.6846,2.7141-16.3286,2.4937-32.7677,1.056-49.1642-.567-6.4671-2.2956-12.851-3.7566-19.2127a86.2537,86.2537,0,0,0-3.0141-8.7646c-.2448-.7053-.4272-1.4322-.6382-2.1491ZM352.5563,182.978a2.089,2.089,0,0,0-1.2983-.3385c-.77.1823-1.8469.6761-2.0642,1.2928a55.2533,55.2533,0,0,0-1.7461,6.6935c-.0762.3515.3885,1.1619.6417,1.1787.7535.05,2.0877-.0036,2.2015-.3463C351.0935,189.0384,351.6469,186.5359,352.5563,182.978ZM326.6087,252.02c-.3127-.6111-.5061-1.4846-.8513-1.5493a2.0951,2.0951,0,0,0-1.746.586,39.3274,39.3274,0,0,0-3.625,5.4415c-.304.5792.3488,1.6608.5633,2.5123.6474-.1784,1.6115-.149,1.8883-.5707C324.1756,256.4021,325.3283,254.2434,326.6087,252.02ZM329.4,98.9542h-.0253a23.5844,23.5844,0,0,0,.0544,3.5068c.0776.5113.8538,1.3723,1.1214,1.3056.5885-.1465,1.4694-.7544,1.5012-1.2236a54.7107,54.7107,0,0,0,.02-7.0205c-.03-.4991-.8913-.9476-1.37-1.4194-.4342.5235-1.1316.9962-1.2449,1.5818A17.4593,17.4593,0,0,0,329.4,98.9542Zm2.5494,14.59c-.1679-.13-.715-.8759-1.1858-.8306a2.0266,2.0266,0,0,0-1.4029,1.2925,39.5366,39.5366,0,0,0-.8227,6.151,2.5305,2.5305,0,0,0,1.1385,2.0112c1.1285.4876,1.9178-.1432,1.9657-1.4833C331.72,118.504,331.8277,116.3237,331.9491,113.5445Zm3.6261,112.2212c2.2119.9479,3.5509.8244,3.8853-1.6552a7.24,7.24,0,0,1,.9866-2.0546c1.1955-2.35.86-4.17-1.0859-5.0555C338.1068,219.9045,336.8543,222.8042,335.5752,225.7657Zm-7.01,16.3114c1.8427,1.6249,2.3719,1.473,3.2983-.8236.6661-1.651,1.6322-3.1935,2.1682-4.8785.2251-.7077-.3146-1.6586-.5066-2.4989-.6123.4341-1.483.734-1.7906,1.3264C330.6093,237.3679,329.6723,239.6308,328.5648,242.0771Zm27.0228-75.8417c-.28-.2331-.9178-1.1614-1.453-1.1056a2.3652,2.3652,0,0,0-1.6114,1.578,43.2565,43.2565,0,0,0-.3982,6.0707A6.8426,6.8426,0,0,0,352.7,174.73c.5919-.4642,1.5679-.8354,1.707-1.4094C354.9164,171.2188,355.1471,169.0493,355.5876,166.2354ZM327.35,139.6316c-.0058-.0071.4047.8777.7645.8575.5885-.0328,1.5245-.5592,1.6467-1.0452.502-1.9957.7722-4.0518,1.0818-6.0927.0871-.5738.2527-1.4558-.0343-1.6935a2.3587,2.3587,0,0,0-1.9091-.4138,2.0134,2.0134,0,0,0-1.0851,1.4421C327.5748,134.7665,327.5165,136.868,327.35,139.6316Zm20.0915,62.0954a7.2321,7.2321,0,0,0-1.2994-1.6172c-.181-.126-1.0731.3039-1.2027.646-.872,2.3031-1.6779,4.6357-2.3693,6.9985a1.6115,1.6115,0,0,0,.6614,1.4421c.4555.1559,1.4692-.1052,1.6132-.4494C345.79,206.4881,346.5657,204.1584,347.4417,201.727Zm-27.2-26.9584c.2457.4638.578,1.0905.91,1.7173.6071-.428,1.5808-.7412,1.7569-1.304a67.1621,67.1621,0,0,0,1.6855-6.9581c.0648-.326-.5166-1.1-.8143-1.108-.5132-.0143-1.3763.2955-1.5032.6692C321.5339,169.9737,320.9619,172.2205,320.2416,174.7686Zm8.1429-24.6312-1.0251-1.2557c-.5313.455-1.3752.82-1.5372,1.3816a35.7235,35.7235,0,0,0-1.22,5.9154c-.0784.7051.5994,1.4944.932,2.2452.6648-.57,1.7436-1.0367,1.9157-1.729A61.5085,61.5085,0,0,0,328.3845,150.1374Zm30.1644-20.1853c-.1548-.1919-.6489-1.3976-1.286-1.4787-1.6564-.2107-1.286,1.3258-1.4278,2.3263-.2376,1.6767-.545,3.3528-.62,5.0382-.0269.604.5335,1.2342.8259,1.8524.6391-.43,1.7217-.767,1.8362-1.3082A60.503,60.503,0,0,0,358.5489,129.9521ZM331.84,80.7874l-.0878-.0016a8.7483,8.7483,0,0,0,.0633-2.5607,10.34,10.34,0,0,0-1.3515-2.3638c-.44.7305-1.2143,1.4429-1.2551,2.1951a46.116,46.116,0,0,0,.1886,6.3225c.0469.562.61,1.0808.9363,1.6194.5021-.487,1.3354-.9134,1.438-1.4736A20.9908,20.9908,0,0,0,331.84,80.7874Zm22.055,74.1736c.05.0586.5172.6038.9842,1.1491.4916-.5547,1.2963-1.05,1.4155-1.6753.3459-1.8162.4191-3.6846.5947-5.5329.0581-.6121.3537-1.4079.08-1.7847a1.77,1.77,0,0,0-1.69-.2707,2.1736,2.1736,0,0,0-.9851,1.5166C354.0821,150.29,354.0429,152.2363,353.8953,154.961Z"/><path class="cls-1" d="M98.7127,288.3435c-1.13-.7357-1.8124-.9527-2.1254-1.4181-4.2674-6.3469-8.65-12.6258-12.6511-19.1388-2.46-4.0039-4.3211-8.3754-6.44-12.5875-2.1823-4.3377-4.4647-8.63-6.4912-13.04-1.7191-3.741-3.2406-7.5824-4.6647-11.4475-2.9782-8.0828-5.9-16.1879-8.7064-24.3316-1.0118-2.9364-1.6722-5.9985-2.412-9.023-2.01-8.2184-4.169-16.4071-5.9028-24.6844-1.5287-7.2984-2.6847-14.6823-3.78-22.062-.9392-6.3309-1.53-12.7129-2.3381-19.0642-.238-1.87-.6919-3.7131-1.0346-5.5045a4.3693,4.3693,0,0,1,.9406-.2925c1.183.1241,2.3638.2694,3.5453.4084.0884-1.5977.7322-3.4539.1367-4.7333-.9229-1.9826.1392-3.0755.9364-4.399,2.3152-3.843,4.7018-7.6431,7.0178-11.4856,2.92-4.8452,5.877-9.671,8.6736-14.5873,2.9846-5.2469,5.7862-10.5978,8.7115-15.879a8.0785,8.0785,0,0,1,1.4016-1.48,6.87,6.87,0,0,1,.6581,1.8379c.066,1.0874-.4461,2.3517-.0449,3.2381.4235.9355,1.6317,1.5158,2.497,2.2512A7.9986,7.9986,0,0,0,77.7316,78.52c.139-1.548-.23-3.1468-.0495-4.6848.206-1.756-.0872-2.929-2.5393-3.09A63.9836,63.9836,0,0,1,85.9481,54.0089l.7644.3383a14.2018,14.2018,0,0,1-.4412,1.7852c-.8295,2.16-2.0324,4.2331-2.5069,6.4639-2.7889,13.113-2.9353,26.4053-2.1,39.7079.4687,7.467,1.2,14.9319,2.1849,22.3483.9931,7.4759,2.2718,14.9257,3.7546,22.321,1.2073,6.0216,2.9723,11.9295,4.3307,17.924a16.64,16.64,0,0,1,.1189,4.9068,61.4434,61.4434,0,0,1-.9263,6.6889,2.7657,2.7657,0,0,1-1.2328,1.7644c-1.43.7113-1.8441,1.7538-1.2347,3.0729,3.5354,7.653,2.025,15.8472,2.6014,23.81.6154,8.5.9785,17.0193,1.6033,25.5189.6587,8.9625,1.4563,17.9156,2.2765,26.8651.3129,3.4144.8708,6.8058,1.2883,10.2111.169,1.3783.18,2.63-1.6272,3.0993-1.3121.34-1.4092,1.2858-.61,2.3428.6913.9148,1.3509,1.8534,2.0317,2.7761C98.8464,279.51,97.83,283.7058,98.7127,288.3435ZM62.3049,196.3119a65.6836,65.6836,0,0,0-2.2072-7.4046c-.2582-.6137-1.8059-.8423-2.78-.8909-.2566-.0128-.9436,1.3868-.807,1.9978a42.099,42.099,0,0,0,2.0328,6.6881c.22.54,1.5082.926,2.2691.8718C61.3868,197.5332,61.9029,196.6775,62.3049,196.3119Zm-1.0212,9.9849c1.068,2.6807,2.0824,4.8574,2.79,7.13.502,1.6114,1.2752,1.9209,2.7548,1.4,1.7527-.617,1.0954-1.7342.7019-2.8263-.5232-1.4518-.9562-2.9476-1.6169-4.3344-.4507-.9459-1.0852-2.2286-1.8937-2.4582C63.24,204.9859,62.1306,205.9216,61.2837,206.2968Zm15.5826,32.3089c-.38.7387-1.3065,1.7284-1.0934,2.2672a49.81,49.81,0,0,0,3.4835,7.01c.234.3955,1.7434.5085,2.221.1545a2.7563,2.7563,0,0,0,.5113-2.2242,9.8534,9.8534,0,0,0-1.0555-3.0664C80.12,241.1922,79.6405,239.2787,76.8663,238.6057ZM57.2455,178.6476c-.6523-2.45-1.0478-4.5156-1.7866-6.45-.3351-.8774-1.32-2.0648-2.0645-2.1048-1.3088-.07-1.9564,1.1653-1.6519,2.493a51.021,51.021,0,0,0,1.8431,6.6493c.2032.538,1.5571.9577,2.3131.8655C56.4574,180.0325,56.9039,179.0452,57.2455,178.6476Zm21.9512-34.4457c.5862,2.5192,1.1036,4.55,1.5212,6.6011.3173,1.5582,1.0278,2.47,2.7357,1.9485,1.8772-.5732,1.3045-2.0421,1.0639-3.3a22.9525,22.9525,0,0,0-1.2119-4.8925,3.6522,3.6522,0,0,0-2.3841-1.4706C80.4623,142.9822,79.7918,143.7919,79.1967,144.2019Zm3.9469,17.7854c.668,2.4643,1.3723,4.6014,1.8,6.7924.3136,1.607,1.243,2.1967,2.62,1.904,1.6657-.354,1.5258-1.6945,1.1577-2.9749a27.123,27.123,0,0,0-1.658-5.2465c-.459-.8664-1.8238-1.3074-2.86-1.7545C84.05,160.6417,83.4528,161.6033,83.1436,161.9873ZM81.88,132.5626l-.4961-.3375a26.3474,26.3474,0,0,0-.5957-5.3206c-.2487-.8067-1.63-1.2642-2.4982-1.88-.3752.68-1.0594,1.3574-1.0656,2.0409-.0163,1.7852.2746,3.5722.4229,5.36.1232,1.4868.3717,3.1147,2.3222,2.604C80.7672,134.821,81.2528,133.4207,81.88,132.5626Zm-7.27,97.6955c-.9353-2.2584-1.9147-4.1919-2.5221-6.2359-.43-1.4474-.8791-2.2034-2.5338-1.7795-1.8847.4829-1.4684,1.8115-1.1,2.9523a26.0672,26.0672,0,0,0,2.1884,5.3,3.9891,3.9891,0,0,0,2.6169,1.249C73.6132,231.8022,74.1432,230.7976,74.61,230.2581ZM77.8051,94.6942c0-1.7976.2564-3.1223-.0953-4.2589-.214-.6914-1.3081-1.2566-2.1246-1.5458-.3436-.1218-1.42.6009-1.4317.9636a45.4481,45.4481,0,0,0,.1871,7.4515c.0976.7331,1.4453,1.3,2.22,1.9429a9.08,9.08,0,0,0,1.32-2.32A6.7708,6.7708,0,0,0,77.8051,94.6942Zm1.5922,21.0421c-.1546-2.7565-.257-4.7-.3748-6.6429-.094-1.5508-1.1528-1.8516-2.439-1.8673-1.5865-.0194-1.445,1.0761-1.3592,2.1088.1614,1.9412.3788,3.878.5192,5.8206.1076,1.49.9515,2.2275,2.3016,1.8547C78.7411,116.8181,79.2363,115.8987,79.3973,115.7363Zm9.6337,149.321,1.1034-.1919c.2867-1.0531,1.1085-2.3546.7572-3.1118a30.6276,30.6276,0,0,0-3.7431-5.8051c-.3439-.441-1.5621-.4808-2.2482-.2737-.44.1328-1.056,1.302-.887,1.5845C85.5989,259.9106,87.337,262.4708,89.031,265.0573Zm-39.5747-123a30.8592,30.8592,0,0,0-.61-5.5885c-.2464-.8463-1.51-1.3964-2.3131-2.0805-.46.788-1.3263,1.589-1.3014,2.3614a41.0723,41.0723,0,0,0,.8517,6.4595,1.9917,1.9917,0,0,0,1.2946,1.2524C49.6971,144.9139,49.7378,143.4445,49.4563,142.0576Zm.8332,10.3912c-2.0517-.0808-2.621.5839-2.3238,2,.4267,2.0322.8738,4.0611,1.2407,6.1044.2346,1.3059.8625,1.9074,2.2365,1.7294,1.4167-.1835,1.8552-.9726,1.573-2.273-.4554-2.098-.8387-4.22-1.4581-6.2692C51.3641,153.0993,50.5076,152.6587,50.29,152.4488Z"/><path class="cls-1" d="M278.5224,317.2879c-4.0832,2.1545-8.131,4.38-12.2589,6.4449q-6.9623,3.483-14.05,6.7126a41.0793,41.0793,0,0,1-5.92,2.1169c-5.2924,1.4933-10.665,2.7178-15.9144,4.3441-7.442,2.3057-15.1258,3.0649-22.7658,4.274-11.2036,1.7731-22.4406,1.5638-33.6911,1.6981-1.8431.022-2.2508-.8059-2.38-2.5926-.47-6.48,2.2079-11.9778,5.0271-17.4584,2.0125-3.9123,3.7031-8.073,6.2556-11.6036a92.16,92.16,0,0,1,10.466-11.8036c2.6789-2.6114,5.9572-4.6117,8.9954-6.8476.6174-.4543,1.47-1.1755,2.0215-1.0322,2.5064.6509,3.372-1.403,4.9251-2.4922a14.6243,14.6243,0,0,1,8.3265-3.142c5.3868-.0449,10.4275,1.3892,15.3889,3.2609,4.0482,1.5273,8.18,2.8754,12.1064,4.6708a105.823,105.823,0,0,1,10.8,5.8833c3.614,2.193,7.1277,4.568,10.56,7.0381,1.9649,1.4143,3.6735,3.1831,5.5122,4.7755a12.0377,12.0377,0,0,0,1.1314.7649q2.858,1.9511,5.7135,3.9053Q278.6466,316.7465,278.5224,317.2879Zm-68.8333,14.1532a5.007,5.007,0,0,1,.4868-.6934c3.99-3.2173,7.185-6.9725,6.8973-12.4471-.188-3.5768,1.2185-5.416,4.6233-6.3253,2.6129-.6977,2.8546-1.8318,1.4234-4.065-1.2958-2.0218-1.7845-2.0006-4.2773-.37-1.6711,1.0935-3.3752,2.2278-5.543.7987-2.0405-1.3452-4.2343-2.4565-6.3434-3.7a13.2894,13.2894,0,0,1-1.3585-1.0481,7.4912,7.4912,0,0,1,1.0967-1.3341c1.1515-.8872,2.47-1.5816,3.5179-2.5689.4745-.4468.4665-1.4061.6773-2.133-.779-.08-1.7254-.4813-2.3055-.1793a29.5334,29.5334,0,0,0-4.7953,3.1293c-.7718.6179-1.1314,1.7249-1.8142,2.4885a3.6345,3.6345,0,0,1-1.8588,1.3194,11,11,0,0,0-6.3384,3.1069c-3.9407,3.7027-6.2107,7.9186-4.779,13.5722.8365,3.3035,1.8721,6.5294,4.9012,8.31a92.2329,92.2329,0,0,0,9.2025,4.1767c-.1182,1.943,1.3387,2.1184,3.3669,1.7009,1.68-.3459,3.4376-.333,5.1018-.728.5882-.1395,1.0018-1.0149,1.4952-1.5543a11.3508,11.3508,0,0,0-1.673-1.4208C211.0506,331.2784,210.4993,331.4411,209.6891,331.4411Zm-20.2653,5.535-.0007-.0709c1.1628-.0643,2.3275-.2032,3.4877-.1724,1.228.0325,1.8908-.2927,1.8548-1.6837-.0383-1.4761-.9114-1.5668-2.0265-1.5158-1.7068.0783-3.4229.0351-5.12.1964a3.5055,3.5055,0,0,0-2.0373.8557,2.4807,2.4807,0,0,0-.4417,1.8712c.0309.2345.9579.4506,1.492.4971C187.556,337.0343,188.4924,336.9761,189.4238,336.9761Zm-9.6721-5.9595.5236.8432c.8414-.2031,2.2251-.1707,2.4328-.6491a58.186,58.186,0,0,0,2.55-7.4278c.1223-.4347-.601-1.1073-.9336-1.67-.5222.3182-1.3275.5173-1.52.9743C181.7066,325.6963,180.7539,328.3669,179.7517,331.0166Zm37.6291-38.7977.05,1.2022c.9873.1385,2.0744.6092,2.9418.3486a32.3922,32.3922,0,0,0,5.7378-2.4163c.5391-.2843.6936-1.2976,1.0243-1.9769-.747-.3333-1.697-1.1392-2.2067-.92C222.3493,289.564,219.8851,290.9382,217.3808,292.2189Zm22.7807,35.37c2.7632-.9322,5.2841-1.6982,7.7113-2.6929.3623-.1485.4648-1.4062.3337-2.0822a1.6266,1.6266,0,0,0-1.421-.7162,65.4526,65.4526,0,0,0-6.9979,2.4588c-.483.2066-.77,1.3035-.783,1.9968C238.9982,326.91,239.7955,327.2817,240.1615,327.5893Zm25.69-12.352c-1.5952-.1-2.6581-.4559-3.4853-.1579a28.1316,28.1316,0,0,0-5.144,2.52c-.5973.3668-.8234,1.3381-1.2187,2.0336.7288.2259,1.588.8168,2.1628.6115a41.65,41.65,0,0,0,5.6661-2.5864C264.4423,317.33,264.8,316.5323,265.8511,315.2373Zm-35.5283,12.2659c-2.9269.6726-5.7188,1.23-8.4392,2.0311-.4018.1182-.6007,1.3861-.5986,2.1212.0006.2068,1.0915.6579,1.6115.5713,1.8255-.3036,3.6013-.9833,5.4311-1.1635C230.6545,330.8343,230.9847,329.6782,230.3228,327.5032Z"/><path class="cls-1" d="M167.5543,327.7326a5.31,5.31,0,0,0-1.6781-.3294,9.9253,9.9253,0,0,0-2.1869.6553c.4169.8883.5992,2.1408,1.2982,2.591,1.5882,1.0227,2.0663,4.0179.5055,5.0937a1.5751,1.5751,0,0,1-1.2577.07c-5.9223-2.265-11.972-4.2655-17.6991-6.9521-5.2674-2.471-10.1932-5.674-15.2376-8.6094-.3995-.2325-.8687-.99-.7633-1.3407.7008-2.33,4.1307-3.4565,6.3583-2.2977.7752.4033,1.6256,1.9649,2.66.2364.7082-1.1837,1.1465-2.2506-.5338-3.1a2.1252,2.1252,0,0,1,.1677-1.8257c3.74-2.9455,7.4646-5.9316,11.4-8.6013,3.6251-2.4589,7.4514-4.6381,11.2859-6.7661,3.0852-1.7123,6.2955-3.2053,9.4884-4.7148,1.71-.8086,3.5017-1.4467,5.2565-2.1617,1.2291,3.1638,5.81,5.9052,8.825,5.4016.4808-.08,1.2751-.96,1.188-1.2456a3.4669,3.4669,0,0,0-1.3685-2.0145c-1.7523-.8841-3.6446-1.4909-5.7138-2.2984,4.736-3.9072,12.8787-4.022,18.0975-.2935-6.6111,4.9987-13.3607,9.846-17.7947,16.8C175.4318,312.9619,171.7055,320.3368,167.5543,327.7326Zm-19.4893-8.3715c-.436.6114-1.1777,1.21-1.2472,1.8776a2.52,2.52,0,0,0,.9571,1.9325,21.9968,21.9968,0,0,0,3.6422,1.9019,6.6958,6.6958,0,0,0,2.6185.867c.6878-.0077,1.3678-.7075,2.0513-1.1-.3422-.5779-.549-1.3542-1.0516-1.6969-1.5736-1.0731-3.2477-2.0023-4.9072-2.9442A19.1293,19.1293,0,0,0,148.065,319.3611Z"/><path d="M105.6859,57.76c2.8755.4342,5.7916.782,8.6528,1.3887.5391.1144.8595,1.2607,1.2807,1.9308-.6787.3365-1.3637.9679-2.0352.9538a43.1765,43.1765,0,0,1-5.8318-.5629C105.966,61.187,104.9371,60.2242,105.6859,57.76Z"/><path d="M145.496,118.291c-1.95-.4425-3.929-.7913-5.8311-1.3863-.5473-.1712-.8724-1.0523-1.2994-1.608.5313-.3409,1.0845-1.003,1.59-.9686a68.9275,68.9275,0,0,1,7.6382.8924c.571.1038.9778,1.1112,1.46,1.7027a11.1668,11.1668,0,0,1-1.8779,1.1081,5.002,5.002,0,0,1-1.6251.0342Z"/><path d="M163.4871,119.9785c-1.4418-.2546-3.5123-.5266-5.5219-1.0379-.5284-.1344-.8685-1.0092-1.2951-1.5439.5458-.4136,1.105-1.1965,1.6351-1.1773a49.6183,49.6183,0,0,1,7.194.7093c.7164.1321,1.2635,1.1817,1.8881,1.811a23.1432,23.1432,0,0,1-2.1129,1.2141A6.2693,6.2693,0,0,1,163.4871,119.9785Z"/><path d="M159.0953,66.76c.6115-.3587,1.23-1.0349,1.8332-1.0207a55.2134,55.2134,0,0,1,7.4659.6068c.5525.089.9239,1.3016,1.3787,1.9969-.5631.3531-1.118.9893-1.6911,1.0061a26.9118,26.9118,0,0,1-5.1393-.2842,25.3482,25.3482,0,0,1-3.868-1.2636Z"/><path d="M132.2193,65.1221c-3.0474-.4326-5.3739-.641-7.626-1.1676-.5668-.1326-1.216-1.2827-1.22-1.9684-.0024-.4517,1.1356-1.3517,1.6717-1.2877a49.478,49.478,0,0,1,7.0236,1.3673c.6.1622,1.4511,1.23,1.3516,1.7075C133.2788,64.4539,132.3661,64.974,132.2193,65.1221Z"/><path d="M151.23,67.7785c-2.955-.462-5.9357-.813-8.8421-1.4852-.543-.1256-.7883-1.5383-1.171-2.3571l.5931-.6516c2.8227.3815,5.68.6125,8.4434,1.2523.6765.1567,1.043,1.6518,1.5521,2.5315Z"/><path d="M131.1427,115.6476c-3.29-.351-5.7575-.6-8.221-.8828-1.38-.1585-2.5572-.8052-2.1891-2.323.1216-.5013,1.5887-1.0448,2.3644-.9494a38.0556,38.0556,0,0,1,6.768,1.4346C130.4074,113.0979,130.5914,114.4061,131.1427,115.6476Z"/><path d="M232.6844,67.7535c2.9082,0,5.7715-.0436,8.6308.0438.4669.0142.916.6073,1.3733.9328-.4277.4509-.7947,1.1992-1.2935,1.3009-2.1177.4318-4.2749.6689-6.417.9824C232.9841,71.3053,232.2028,70.4465,232.6844,67.7535Z"/><path d="M219.5111,71.3813a16.1578,16.1578,0,0,1-3.2536-.0592c-.6329-.1325-1.1439-.8482-1.71-1.3018.5231-.5983.9981-1.6522,1.5779-1.7135a35.1631,35.1631,0,0,1,6.5226-.0767c.6314.0514,1.1875,1.0262,1.7782,1.5778-.6269.4561-1.1983,1.1464-1.8942,1.3115a13.3848,13.3848,0,0,1-3.0211.0568Z"/><path d="M104.1815,108.4641c2.6355.4367,4.7466.6406,6.7615,1.1945.771.2119,1.3221,1.2239,1.9735,1.8713-.7973.42-1.6428,1.2657-2.383,1.1819A43.0208,43.0208,0,0,1,103.75,111.3c-.5214-.1469-1.2758-1.3853-1.129-1.6157A4.8768,4.8768,0,0,1,104.1815,108.4641Z"/><path d="M198.5978,121.8778a11.8761,11.8761,0,0,1-3.2439-.0756,2.54,2.54,0,0,1-1.45-1.7474c-.0639-.3983.966-1.3888,1.5127-1.3952a50.8452,50.8452,0,0,1,6.7424.4251c.4792.0585,1.288.92,1.2137,1.2428a2.2008,2.2008,0,0,1-1.29,1.4791A17.958,17.958,0,0,1,198.5978,121.8778Z"/><path d="M252.0476,69.6355c-.1934-.1631-.9356-.5156-1.1407-1.0677-.1181-.3177.5626-1.3065,1.0048-1.3962,2.5623-.52,5.1556-.9059,7.7538-1.2022.2811-.0321,1.0314.9718.9255,1.2034-.313.685-.8713,1.6378-1.4673,1.7455C256.981,69.3053,254.7833,69.3875,252.0476,69.6355Z"/><path d="M205.8234,71.219c-2.6793,0-5.2256-.03-7.7708.0111a1.7906,1.7906,0,0,1-1.9984-2.208c.05-.4115,1.2991-.9271,2.02-.96,1.8569-.084,3.7267.16,5.5876.1159C205.9278,68.1246,206.2184,69.2888,205.8234,71.219Z"/><path d="M216.2173,121.94a12.6673,12.6673,0,0,1-3.0244-.0636c-.6121-.1544-1.0693-.923-1.5959-1.4163.5712-.5487,1.1117-1.5263,1.7191-1.57a48.8521,48.8521,0,0,1,6.77.0664c.6291.0426,1.2193.6576,1.8274,1.01-.5739.6455-1.0529,1.6843-1.7426,1.8509a17.2046,17.2046,0,0,1-3.9534.0858Z"/><path d="M256.5817,116.6133l1.5067,1.1589a6.78,6.78,0,0,1-1.9348,1.326,45.7433,45.7433,0,0,1-6.1447,1.0816c-.4782.05-1.5289-.8183-1.472-1.0818.1568-.726.6742-1.8421,1.2035-1.9365A67.93,67.93,0,0,1,256.5817,116.6133Z"/><path d="M239.6778,120.5758c-2.5852.3765-5.108.73-7.6255,1.1166-1.3355.2052-2.07-.501-1.8606-1.6606a2.4434,2.4434,0,0,1,1.735-1.4454c1.9221-.2654,3.8916-.1633,5.8312-.3334C239.64,118.0879,240.1591,118.8546,239.6778,120.5758Z"/><path d="M292.5213,110.34l1.5765,1.2587c-.5557.4989-1.0321,1.2346-1.682,1.4524a43.1873,43.1873,0,0,1-6.0119,1.5879c-.6111.11-1.3591-.536-2.0443-.8357.4638-.6113.8126-1.5734,1.4125-1.77C287.8262,111.36,289.9685,110.9547,292.5213,110.34Z"/><path d="M179.5491,117.9949a40.5,40.5,0,0,1,4.3343.486c.4959.1037.8592.8408,1.2831,1.2886-.4976.3767-.9862,1.0624-1.4943,1.0772a61.7848,61.7848,0,0,1-6.9882-.1673c-.517-.0436-.9674-.8757-1.4485-1.3447.4834-.4466.9048-1.1439,1.4644-1.2822A12.36,12.36,0,0,1,179.5491,117.9949Z"/><path d="M311.6237,106.8817a5.7669,5.7669,0,0,1-1.1477.8637c-2.1239.891-4.2442,1.8092-6.43,2.52-.5125.1667-1.7592-.354-1.8176-.7015-.1086-.6461.2308-1.8438.6954-2.0286a48.52,48.52,0,0,1,6.6249-2.062c.6178-.148,1.3987.385,2.1048.6054Q311.6385,106.48,311.6237,106.8817Z"/><path d="M271.01,67.5518c-.3921-.25-1.6059-.6019-1.727-1.1822-.3106-1.4875.8588-1.8955,2.1753-2.0143,1.937-.1749,3.86-.5287,5.7986-.6476.52-.0319,1.0762.5118,1.6157.7913-.3793.5707-.6555,1.5069-1.1559,1.6478C275.719,66.71,273.6513,67.0253,271.01,67.5518Z"/><path d="M183.0821,70.0763a15.659,15.659,0,0,1-3.71-.0839c-.629-.1571-1.0429-1.1747-1.5539-1.8041.6147-.3484,1.23-.9937,1.8438-.9913a41.9569,41.9569,0,0,1,6.2727.4526c.7661.1193,1.4274.9108,2.1365,1.3958a9.45,9.45,0,0,1-2.1992,1.123,13.2075,13.2075,0,0,1-2.79.0455Z"/><path d="M288.4119,64.3927c-.5323-.4312-1.3479-.7822-1.3912-1.2112a1.8327,1.8327,0,0,1,1.0208-1.4355,66.5483,66.5483,0,0,1,6.7371-1.8209,1.7777,1.7777,0,0,1,1.537.8145,1.874,1.874,0,0,1-.7623,1.6517C293.2776,63.1513,290.9345,63.71,288.4119,64.3927Z"/><path d="M275.7129,114.4113c.1128.406.1769.5155.1483.5516-.5.6311-1.0455,1.8129-1.514,1.7841-2.6134-.1611-5.1131,2.3029-7.6919.3531-.2-.1512.3408-1.9763.665-2.0174C270.13,114.7262,272.9693,114.6,275.7129,114.4113Z"/><path d="M298.356,279.0757c0-3.1976-.0617-5.8133.0631-8.42a1.7507,1.7507,0,0,1,1.3393-1.1005c.5879.0525,1.5964.6927,1.6026,1.0937a39.395,39.395,0,0,1-.4011,7.1888C300.8674,278.3821,299.2646,278.67,298.356,279.0757Z"/><path d="M297.6143,309.2351a20.79,20.79,0,0,1-1.9172-1.2674,43.1878,43.1878,0,0,1-4.4769-3.93c-.5557-.6057-.4941-1.7778-.7132-2.6922.9047.1041,1.9991-.0779,2.6757.37a18.1025,18.1025,0,0,1,4.1425,3.5682c.7069.8781.7282,2.3082,1.0571,3.4906Z"/><path d="M302.89,256.4641a7.47,7.47,0,0,1-.07,2.6862c-.33.82-1.2276,1.4112-1.8767,2.1026-.4122-.7074-1.14-1.3994-1.1755-2.1251a29.3325,29.3325,0,0,1,.2734-5.8064c.0921-.6044,1.0744-1.0733,1.6493-1.6043.4963.6231,1.2629,1.1854,1.42,1.8848A9.7019,9.7019,0,0,1,302.89,256.4641Z"/><path d="M305.7239,207.9024c-.8781-1.1016-1.6677-1.6517-1.6124-2.0969.2818-2.2722.8671-4.5057,1.1736-6.7761.1817-1.3454.8516-1.9489,1.9681-1.38a2.6482,2.6482,0,0,1,.9515,2.1,26.7968,26.7968,0,0,1-.6948,5.2514C307.309,205.85,306.57,206.5717,305.7239,207.9024Z"/><path d="M303.3609,220.5945a13.1132,13.1132,0,0,1,.0739-3.2374,2.1668,2.1668,0,0,1,1.6-1.3446c.5629.0414,1.5437.9846,1.507,1.4713a49.0673,49.0673,0,0,1-1.0548,6.83c-.09.41-1.0279.8323-1.59.8553-.2854.0117-.8265-.8358-.8668-1.3265a24.37,24.37,0,0,1,.127-3.2508Z"/><path d="M309.7047,178.7159c-.1716,3.4287-.1245,6.0717-.4894,8.6564-.2969,2.1027-1.9912.9224-3.3688,1.1021.43-2.9159.7284-5.6391,1.3123-8.3C307.2729,179.655,308.4941,179.3783,309.7047,178.7159Z"/><path d="M269.7039,285.6119c-.7431.1876-1.6359.7331-2.1464.4866a71.5837,71.5837,0,0,1-6.6153-3.709,1.8,1.8,0,0,1-.49-1.5791,1.5049,1.5049,0,0,1,1.3373-.6058c2.5608,1.2317,5.0691,2.574,7.5671,3.9312C269.5342,284.2321,269.5044,284.71,269.7039,285.6119Z"/><path d="M245.2189,272.6458c.8562.2931,1.4429.4972,2.0317.6948a33.8129,33.8129,0,0,1,4.5671,1.6074,3.1386,3.1386,0,0,1,1.12,2.08c.0427.22-1.1976,1.074-1.6024.9321a70.9818,70.9818,0,0,1-6.5859-2.7569c-.4246-.1989-.9772-1.029-.8586-1.2936C244.1314,273.3721,244.7905,273.022,245.2189,272.6458Z"/><path d="M299.5988,292.2581a10.2758,10.2758,0,0,1-.0736,3.0119c-.2129.6655-1.1066,1.1132-1.6967,1.658-.4728-.5462-1.3765-1.1191-1.3444-1.6339a60.9888,60.9888,0,0,1,.9145-6.87,1.3906,1.3906,0,0,1,1.1387-.7632c.4879.1458,1.1416.67,1.2077,1.1123a23.7605,23.7605,0,0,1,.057,3.4854Z"/><path d="M304.9063,233.9643c-.3913,2.8074-.7121,5.5611-1.2239,8.2789-.0739.3925-1.0653.6122-1.6321.9119-.25-.49-.7208-.9838-.7115-1.4686.0376-1.95.4179-3.9089.3057-5.8433C301.5026,233.3974,302.6086,233.21,304.9063,233.9643Z"/><path d="M275.7392,291.7056c1.1652-1.9088,1.9747-2.66,3.5189-.7636.9859,1.2107,2.6877,1.8124,3.8421,2.9226.5767.5545.6457,1.637.9444,2.4807-.8693-.075-1.9315.1425-2.5721-.28C279.512,294.7733,277.7135,293.2354,275.7392,291.7056Z"/><path d="M113.291,311.4466a11.0542,11.0542,0,0,1,1.1873-1.5814,56.4659,56.4659,0,0,1,4.99-4.3766c.5649-.4141,1.678-.08,2.54-.0884-.0229.8.2863,1.9245-.125,2.3468-1.9907,2.0442-4.1566,3.9211-6.3135,5.7963-.2753.2394-1.1293.3113-1.254.1349A12.6685,12.6685,0,0,1,113.291,311.4466Z"/><path d="M106.5015,239.3678c-.3785-1.6924.7082-2.1378,2.0859-2.2543,1.5524-.1315,1.4018.9409,1.4969,2a42.0725,42.0725,0,0,0,.82,5.6636c.3948,1.7168-.8326,2.2719-1.88,2.7124-.3009.1265-1.5548-1.0147-1.7056-1.7175C106.8687,243.6754,106.75,241.5078,106.5015,239.3678Z"/><path d="M126.8866,299.5055c2.2006-1.8171,4.2456-3.673,6.4871-5.2493.6284-.4419,1.8351-.0615,2.7765-.0583-.2012.91-.1066,2.115-.6619,2.673a53.8057,53.8057,0,0,1-4.6648,3.7591C129.329,301.8277,128.1462,301.5471,126.8866,299.5055Z"/><path d="M107.1945,209.8444c-.2243.161-.842.9529-1.345.8858-.7935-.1061-2.0147-.6584-2.168-1.2512a57.15,57.15,0,0,1-.9932-6.3829c-.2017-1.44.6625-1.94,1.8815-2.0983,1.3314-.1727,1.728.5185,1.8183,1.7591C106.544,204.9011,106.8641,207.0335,107.1945,209.8444Z"/><path d="M115.7565,300.0919c-.2972.2472-.92,1.1578-1.7063,1.3336-1.4317.32-2.0783-.597-2.0728-2.0585a50.0649,50.0649,0,0,1-.0465-5.8366c.0916-.7471,1.2587-1.3623,1.936-2.0376.4793.6477,1.2665,1.2465,1.3788,1.9525C115.55,295.3612,115.5686,297.3226,115.7565,300.0919Z"/><path d="M150.938,282.9883c.2193.7453.619,1.3854.5212,1.9372a4,4,0,0,1-1.0333,2.4037c-1.6666,1.2225-3.663,2.0027-5.2987,3.2578-1.3477,1.0343-2.1309.2346-2.6372-.6031a2.2575,2.2575,0,0,1,.6516-2.0874C145.3231,286.3587,147.6486,285.0252,150.938,282.9883Z"/><path d="M106.679,217.9512a16.5275,16.5275,0,0,1,1.4575,3.0162,28.9605,28.9605,0,0,1,.7788,5.7237c.0009.8281-.9507,1.6572-1.47,2.4859-.6693-.4856-1.7658-.8584-1.9293-1.4775a24.2634,24.2634,0,0,1-.9444-6.1918C104.5753,220.5461,105.6625,219.5882,106.679,217.9512Z"/><path d="M112.0649,261.5471c0,1.2919.223,2.1059-.0624,2.6562a2.7261,2.7261,0,0,1-1.67,1.1813c-.3269.0768-1.1354-.576-1.2169-.9976-.4086-2.1149-.647-4.2626-.9488-6.3983-.2374-1.68.559-2.4952,2.1847-2.55,1.79-.0605,1.3374,1.2444,1.3913,2.2919C111.8188,259.2027,111.9878,260.67,112.0649,261.5471Z"/><path d="M113.9889,280.534a4.7442,4.7442,0,0,1-.2368,1.8829,2.5971,2.5971,0,0,1-1.629,1.184c-.3276.054-.93-.7556-1.1839-1.2836a5.86,5.86,0,0,1-.3344-1.81,38.4476,38.4476,0,0,1-.5339-5.38c.0133-.6238.9236-1.5192,1.6-1.7331.4312-.1362,1.6164.6687,1.7185,1.196A58.7188,58.7188,0,0,1,113.9889,280.534Z"/><path d="M168.1539,278.58c-.1978.2345-.5426,1.0168-1.1129,1.2513a46.2776,46.2776,0,0,1-6.0889,2.0783c-.6826.1749-2.0612-.1637-2.2247-.6021a1.75,1.75,0,0,1,1.36-2.6056,62.91,62.91,0,0,0,6.0638-2.191C167.6688,275.9468,168.1437,276.7117,168.1539,278.58Z"/><path d="M352.5563,182.978c-.9094,3.5579-1.4628,6.06-2.2654,8.48-.1138.3427-1.448.3963-2.2015.3463-.2532-.0168-.7179-.8272-.6417-1.1787a55.2533,55.2533,0,0,1,1.7461-6.6935c.2173-.6167,1.2943-1.1105,2.0642-1.2928A2.089,2.089,0,0,1,352.5563,182.978Z"/><path d="M326.6087,252.02c-1.28,2.2237-2.4331,4.3824-3.7707,6.42-.2768.4217-1.2409.3923-1.8883.5707-.2145-.8515-.8673-1.9331-.5633-2.5123a39.3274,39.3274,0,0,1,3.625-5.4415,2.0951,2.0951,0,0,1,1.746-.586C326.1026,250.5351,326.296,251.4086,326.6087,252.02Z"/><path d="M329.4,98.9542a17.4593,17.4593,0,0,1,.0576-3.2693c.1133-.5856.8107-1.0583,1.2449-1.5818.4782.4718,1.3391.92,1.37,1.4194a54.7107,54.7107,0,0,1-.02,7.0205c-.0318.4692-.9127,1.0771-1.5012,1.2236-.2676.0667-1.0438-.7943-1.1214-1.3056a23.5844,23.5844,0,0,1-.0544-3.5068Z"/><path d="M331.9491,113.5445c-.1214,2.7792-.2293,4.96-.3072,7.1408-.0479,1.34-.8372,1.9709-1.9657,1.4833a2.5305,2.5305,0,0,1-1.1385-2.0112,39.5366,39.5366,0,0,1,.8227-6.151,2.0266,2.0266,0,0,1,1.4029-1.2925C331.2341,112.6686,331.7812,113.4147,331.9491,113.5445Z"/><path d="M335.5752,225.7657c1.2791-2.9615,2.5316-5.8612,3.786-8.7653,1.9457.8851,2.2814,2.7055,1.0859,5.0555a7.24,7.24,0,0,0-.9866,2.0546C339.1261,226.59,337.7871,226.7136,335.5752,225.7657Z"/><path d="M328.5648,242.0771c1.1075-2.4463,2.0445-4.7092,3.1693-6.8746.3076-.5924,1.1783-.8923,1.7906-1.3264.192.84.7317,1.7912.5066,2.4989-.536,1.685-1.5021,3.2275-2.1682,4.8785C330.9367,243.55,330.4075,243.702,328.5648,242.0771Z"/><path d="M355.5876,166.2354c-.44,2.8139-.6712,4.9834-1.18,7.0854-.1391.574-1.1151.9452-1.707,1.4094a6.8426,6.8426,0,0,1-.5752-1.9517,43.2565,43.2565,0,0,1,.3982-6.0707,2.3652,2.3652,0,0,1,1.6114-1.578C354.67,165.074,355.3079,166.0023,355.5876,166.2354Z"/><path d="M327.35,139.6316c.1663-2.7636.2246-4.8651.4645-6.9456a2.0134,2.0134,0,0,1,1.0851-1.4421,2.3587,2.3587,0,0,1,1.9091.4138c.287.2377.1214,1.12.0343,1.6935-.31,2.0409-.58,4.097-1.0818,6.0927-.1222.486-1.0582,1.0124-1.6467,1.0452C327.7549,140.5093,327.3444,139.6245,327.35,139.6316Z"/><path d="M347.4417,201.727c-.876,2.4314-1.6516,4.7611-2.5968,7.02-.144.3442-1.1577.6053-1.6132.4494a1.6115,1.6115,0,0,1-.6614-1.4421c.6914-2.3628,1.4973-4.6954,2.3693-6.9985.13-.3421,1.0217-.772,1.2027-.646A7.2321,7.2321,0,0,1,347.4417,201.727Z"/><path d="M320.2416,174.7686c.72-2.5481,1.2923-4.7949,2.0352-6.9836.1269-.3737.99-.6835,1.5032-.6692.2977.0082.8791.782.8143,1.108a67.1621,67.1621,0,0,1-1.6855,6.9581c-.1761.5628-1.15.876-1.7569,1.304C320.82,175.8591,320.4873,175.2324,320.2416,174.7686Z"/><path d="M328.3845,150.1374a61.5085,61.5085,0,0,1-.9343,6.5575c-.1721.6923-1.2509,1.1592-1.9157,1.729-.3326-.7508-1.01-1.54-.932-2.2452a35.7235,35.7235,0,0,1,1.22-5.9154c.162-.5616,1.0059-.9266,1.5372-1.3816Z"/><path d="M358.5489,129.9521a60.503,60.503,0,0,1-.6718,6.43c-.1145.5412-1.1971.8778-1.8362,1.3082-.2924-.6182-.8528-1.2484-.8259-1.8524.0751-1.6854.3825-3.3615.62-5.0382.1418-1-.2286-2.537,1.4278-2.3263C357.9,128.5545,358.3941,129.76,358.5489,129.9521Z"/><path d="M331.84,80.7874a20.9908,20.9908,0,0,1-.0682,3.7373c-.1026.56-.9359.9866-1.438,1.4736-.3262-.5386-.8894-1.0574-.9363-1.6194a46.116,46.116,0,0,1-.1886-6.3225c.0408-.7522.8154-1.4646,1.2551-2.1951a10.34,10.34,0,0,1,1.3515,2.3638,8.7483,8.7483,0,0,1-.0633,2.5607Z"/><path d="M353.8953,154.961c.1476-2.7247.1868-4.6709.3994-6.5979a2.1736,2.1736,0,0,1,.9851-1.5166,1.77,1.77,0,0,1,1.69.2707c.2739.3768-.0217,1.1726-.08,1.7847-.1756,1.8483-.2488,3.7167-.5947,5.5329-.1192.6256-.9239,1.1206-1.4155,1.6753C354.4125,155.5648,353.9454,155.02,353.8953,154.961Z"/><path d="M62.3049,196.3119c-.402.3656-.9181,1.2213-1.4922,1.2622-.7609.0542-2.0492-.332-2.2691-.8718a42.099,42.099,0,0,1-2.0328-6.6881c-.1366-.611.55-2.0106.807-1.9978.974.0486,2.5217.2772,2.78.8909A65.6836,65.6836,0,0,1,62.3049,196.3119Z"/><path d="M61.2837,206.2968c.8469-.3752,1.9559-1.3109,2.7364-1.0893.8085.23,1.443,1.5123,1.8937,2.4582.6607,1.3868,1.0937,2.8826,1.6169,4.3344.3935,1.0921,1.0508,2.2093-.7019,2.8263-1.48.5208-2.2528.2113-2.7548-1.4C63.3661,211.1542,62.3517,208.9775,61.2837,206.2968Z"/><path d="M76.8663,238.6057c2.7742.673,3.2534,2.5865,4.0669,4.1406a9.8534,9.8534,0,0,1,1.0555,3.0664,2.7563,2.7563,0,0,1-.5113,2.2242c-.4776.354-1.987.241-2.221-.1545a49.81,49.81,0,0,1-3.4835-7.01C75.56,240.3341,76.4866,239.3444,76.8663,238.6057Z"/><path d="M57.2455,178.6476c-.3416.3976-.7881,1.3849-1.3468,1.4531-.756.0922-2.11-.3275-2.3131-.8655a51.021,51.021,0,0,1-1.8431-6.6493c-.3045-1.3277.3431-2.5632,1.6519-2.493.7443.04,1.7294,1.2274,2.0645,2.1048C56.1977,174.132,56.5932,176.1973,57.2455,178.6476Z"/><path d="M79.1967,144.2019c.5951-.41,1.2656-1.22,1.7248-1.1137a3.6522,3.6522,0,0,1,2.3841,1.4706,22.9525,22.9525,0,0,1,1.2119,4.8925c.2406,1.2581.8133,2.727-1.0639,3.3-1.7079.5214-2.4184-.39-2.7357-1.9485C80.3,148.7519,79.7829,146.7211,79.1967,144.2019Z"/><path d="M83.1436,161.9873c.3092-.384.9059-1.3456,1.0591-1.28,1.0364.4471,2.4012.8881,2.86,1.7545a27.123,27.123,0,0,1,1.658,5.2465c.3681,1.28.508,2.6209-1.1577,2.9749-1.3769.2927-2.3063-.297-2.62-1.904C84.5159,166.5887,83.8116,164.4516,83.1436,161.9873Z"/><path d="M81.88,132.5626c-.6274.8581-1.113,2.2584-1.91,2.4672-1.9505.5107-2.199-1.1172-2.3222-2.604-.1483-1.788-.4392-3.575-.4229-5.36.0062-.6835.69-1.3608,1.0656-2.0409.8684.6156,2.2495,1.0731,2.4982,1.88a26.3474,26.3474,0,0,1,.5957,5.3206Z"/><path d="M74.61,230.2581c-.4667.5395-.9967,1.5441-1.3507,1.4855a3.9891,3.9891,0,0,1-2.6169-1.249,26.0672,26.0672,0,0,1-2.1884-5.3c-.3683-1.1408-.7846-2.4694,1.1-2.9523,1.6547-.4239,2.1037.3321,2.5338,1.7795C72.6952,226.0662,73.6746,228,74.61,230.2581Z"/><path d="M77.8051,94.6942a6.7708,6.7708,0,0,1,.0759,2.2329,9.08,9.08,0,0,1-1.32,2.32c-.775-.643-2.1227-1.21-2.22-1.9429a45.4481,45.4481,0,0,1-.1871-7.4515c.0118-.3627,1.0881-1.0854,1.4317-.9636.8165.2892,1.9106.8544,2.1246,1.5458C78.0615,91.5719,77.8051,92.8966,77.8051,94.6942Z"/><path d="M79.3973,115.7363c-.161.1624-.6562,1.0818-1.3522,1.2739-1.35.3728-2.194-.3651-2.3016-1.8547-.14-1.9426-.3578-3.8794-.5192-5.8206-.0858-1.0327-.2273-2.1282,1.3592-2.1088,1.2862.0157,2.345.3165,2.439,1.8673C79.14,111.0361,79.2427,112.98,79.3973,115.7363Z"/><path d="M89.031,265.0573c-1.694-2.5865-3.4321-5.1467-5.0177-7.798-.169-.2825.4467-1.4517.887-1.5845.6861-.2071,1.9043-.1673,2.2482.2737a30.6276,30.6276,0,0,1,3.7431,5.8051c.3513.7572-.4705,2.0587-.7572,3.1118Z"/><path d="M49.4563,142.0576c.2815,1.3869.2408,2.8563-2.0782,2.4043a1.9917,1.9917,0,0,1-1.2946-1.2524,41.0723,41.0723,0,0,1-.8517-6.4595c-.0249-.7724.8417-1.5734,1.3014-2.3614.8034.6841,2.0667,1.2342,2.3131,2.0805A30.8592,30.8592,0,0,1,49.4563,142.0576Z"/><path d="M50.29,152.4488c.2181.21,1.0746.65,1.2683,1.2914.6194,2.05,1.0027,4.1712,1.4581,6.2692.2822,1.3-.1563,2.0895-1.573,2.273-1.374.178-2.0019-.4235-2.2365-1.7294-.3669-2.0433-.814-4.0722-1.2407-6.1044C47.6685,153.0327,48.2378,152.368,50.29,152.4488Z"/><path d="M209.6891,331.4411c.81,0,1.3615-.1627,1.7039.0355a11.3508,11.3508,0,0,1,1.673,1.4208c-.4934.5394-.907,1.4148-1.4952,1.5543-1.6642.395-3.4218.3821-5.1018.728-2.0282.4175-3.4851.2421-3.3669-1.7009a92.2329,92.2329,0,0,1-9.2025-4.1767c-3.0291-1.7805-4.0647-5.0064-4.9012-8.31-1.4317-5.6536.8383-9.87,4.779-13.5722a11,11,0,0,1,6.3384-3.1069,3.6345,3.6345,0,0,0,1.8588-1.3194c.6828-.7636,1.0424-1.8706,1.8142-2.4885a29.5334,29.5334,0,0,1,4.7953-3.1293c.58-.302,1.5265.0993,2.3056.1793-.2109.7269-.2029,1.6862-.6774,2.133-1.0483.9873-2.3664,1.6817-3.5179,2.5689a7.4912,7.4912,0,0,0-1.0967,1.3341,13.2894,13.2894,0,0,0,1.3585,1.0481c2.1091,1.2435,4.3029,2.3548,6.3434,3.7,2.1678,1.4291,3.8719.2948,5.543-.7987,2.4928-1.6309,2.9815-1.6521,4.2773.37,1.4312,2.2332,1.19,3.3673-1.4234,4.065-3.4048.9093-4.8113,2.7485-4.6233,6.3253.2877,5.4746-2.9075,9.23-6.8973,12.4471A5.007,5.007,0,0,0,209.6891,331.4411Zm2.0332-13.7211a8.8771,8.8771,0,0,0-8.6287-8.9579c-3.9965-.03-8.9542,4.6619-8.7931,9.1741.2,5.605,3.8313,9.4564,8.9865,9.55C207.1665,327.5571,212.4338,323.1215,211.7223,317.72Z"/><path d="M189.4238,336.9761c-.9314,0-1.8678.0582-2.7921-.0224-.5341-.0465-1.4611-.2626-1.492-.4971a2.4807,2.4807,0,0,1,.4417-1.8712,3.5055,3.5055,0,0,1,2.0373-.8557c1.6975-.1613,3.4136-.1181,5.12-.1964,1.1151-.051,1.9882.04,2.0265,1.5158.036,1.391-.6268,1.7162-1.8548,1.6837-1.16-.0308-2.3249.1081-3.4877.1724Z"/><path d="M179.7517,331.0166c1.0022-2.65,1.9549-5.32,3.0534-7.9294.1924-.457.9977-.6561,1.52-.9744.3327.5628,1.056,1.2354.9337,1.67a58.186,58.186,0,0,1-2.55,7.4278c-.2077.4784-1.5914.446-2.4328.6491Z"/><path d="M217.3808,292.2189c2.5043-1.2807,4.9685-2.6549,7.5471-3.7627.51-.2189,1.46.587,2.2067.92-.3307.6793-.4852,1.6926-1.0243,1.9769a32.3922,32.3922,0,0,1-5.7378,2.4163c-.8674.2606-1.9545-.21-2.9418-.3486Z"/><path d="M240.1615,327.5893c-.366-.3076-1.1633-.6789-1.1569-1.0357.0125-.6933.3-1.79.783-1.9968a65.4526,65.4526,0,0,1,6.9979-2.4588,1.6266,1.6266,0,0,1,1.421.7162c.1311.676.0286,1.9337-.3337,2.0822C245.4456,325.8911,242.9247,326.6571,240.1615,327.5893Z"/><path d="M265.8511,315.2373c-1.051,1.295-1.4088,2.0928-2.0191,2.421a41.65,41.65,0,0,1-5.6661,2.5864c-.5748.2053-1.434-.3856-2.1628-.6115.3953-.6955.6214-1.6668,1.2187-2.0336a28.1316,28.1316,0,0,1,5.144-2.52C263.193,314.7814,264.2559,315.1377,265.8511,315.2373Z"/><path d="M230.3228,327.5032c.6619,2.175.3317,3.3311-1.9952,3.56-1.83.18-3.6056.86-5.4311,1.1635-.52.0866-1.6109-.3645-1.6115-.5713-.0021-.7351.1968-2.003.5986-2.1212C224.604,328.7336,227.3959,328.1758,230.3228,327.5032Z"/><path d="M148.065,319.3611a19.1293,19.1293,0,0,1,2.0631.8381c1.66.9419,3.3336,1.8711,4.9072,2.9442.5026.3427.7094,1.119,1.0516,1.6969-.6835.3923-1.3635,1.0921-2.0513,1.1a6.6958,6.6958,0,0,1-2.6185-.867,21.9968,21.9968,0,0,1-3.6422-1.9019,2.52,2.52,0,0,1-.9571-1.9325C146.8873,320.5707,147.629,319.9725,148.065,319.3611Z"/><path class="cls-2" d="M211.7223,317.72c.7115,5.4015-4.5558,9.8371-8.4353,9.7665-5.1552-.0939-8.7865-3.9453-8.9865-9.55-.1611-4.5122,4.7966-9.2044,8.7931-9.1741A8.8771,8.8771,0,0,1,211.7223,317.72Zm-15.5867.5123c-.0512,4.4513,2.879,7.4106,7.3412,7.414,3.4705.0026,7.1953-4.2373,7.0407-8.0145-.1463-3.5755-3.7431-6.8119-7.5119-7.0243C199.9563,310.4355,195.7223,314.39,196.1356,318.2323Z"/><path d="M196.1356,318.2323c-.4133-3.8426,3.8207-7.7968,6.87-7.6248,3.7688.2124,7.3656,3.4488,7.5119,7.0243.1546,3.7772-3.57,8.0171-7.0407,8.0145C199.0146,325.6429,196.0844,322.6836,196.1356,318.2323Zm3.1523-.1231c-.1278,2.4258,1.6214,4.8092,3.5733,5.045,1.3288.1606,4.5071-3.49,4.5011-5.0664a4.4058,4.4058,0,0,0-4.3475-4.2548C201.0109,313.7839,199.42,315.61,199.2879,318.1092Z"/><path class="cls-2" d="M199.2879,318.1092c.1316-2.4994,1.723-4.3253,3.7269-4.2762a4.4058,4.4058,0,0,1,4.3475,4.2548c.006,1.5761-3.1723,5.227-4.5011,5.0664C200.9093,322.9184,199.16,320.535,199.2879,318.1092Z"/></svg>