<svg id="Layer_1" data-name="Layer 1" xmlns="http://www.w3.org/2000/svg" viewBox="0 0 400 400"><defs><style>.cls-1{fill:#7d7e84;}.cls-2{fill:#c3c3c3;}</style></defs><title>long buttondown_tp</title><path d="M355.9854,125.4424c-.5122,5.1851-.7628,10.0807-1.5229,14.896q-1.9617,12.4275-4.4678,24.7673c-1.23,6.0772-2.716,12.1123-4.3382,18.0983-1.8529,6.8372-4.094,13.5688-5.9654,20.4014-2.47,9.0166-4.7555,18.0839-7.0976,27.1353q-2.13,8.2311-4.1884,16.4809c-2.2557,9.0738-4.4687,18.1581-6.7168,27.2339-1.4052,5.6733-2.8725,11.3316-4.2559,17.01-1.4877,6.1064-2.9044,12.23-4.362,18.3438-1.4839,6.2243-3.0115,12.4385-4.462,18.6705-1.51,6.4856-2.8846,13.003-4.4362,19.4782-2.0782,8.6728-4.2724,17.3177-6.4111,25.9761-1.121,4.5378-2.2077,9.0843-3.3742,13.61-.1325.514-.6827.92-1.0392,1.3767a6.5845,6.5845,0,0,1-1.3025-1.4365c-4.3043-9.25-8.5181-18.5417-12.8532-27.7768-3.0893-6.5811-6.2215-13.1465-9.532-19.6179-3.1647-6.1863-6.5711-12.2495-9.8968-18.3529q-3.6555-6.7086-7.38-13.3792a22.5273,22.5273,0,0,0-2.3634-3.8522,2.7341,2.7341,0,0,0-2.3446-.5434c-3.1071.8772-6.1174,2.1081-9.2373,2.9272-5.119,1.3441-10.2385,3.0492-15.46,3.564-10.9048,1.0752-21.8748,1.9578-32.8212,1.9965a168.1908,168.1908,0,0,1-26.468-2.1913c-5.1724-.8091-10.0708-3.37-15.3466-5.2331-.6281,1.3714-1.4739,3.1046-2.2248,4.8778-3.2837,7.7542-6.4576,15.556-9.8338,23.27-2.4434,5.5824-5.225,11.0163-7.704,16.584-2.595,5.828-4.972,11.7528-7.514,17.6049-1.7132,3.9438-3.6026,7.8114-5.2981,11.7624-.6019,1.4028-.753,2.9959-1.3212,4.4175a12.7385,12.7385,0,0,1-1.6786,2.4244,9.3383,9.3383,0,0,1-1.9139-2.3792c-.84-2.3618-1.3963-4.8232-2.0915-7.2375-2.3407-8.1289-4.612-16.279-7.0649-24.374-2.0866-6.8859-4.4087-13.7-6.5878-20.5583-2.6977-8.4906-5.4184-16.9749-8.01-25.4984-1.9369-6.3712-3.5988-12.8261-5.5377-19.1968-2.46-8.0842-5.0942-16.1157-7.6169-24.1812-.8038-2.57-1.4768-5.1806-2.2356-7.7651q-3.8054-12.9612-7.6289-25.9173c-2.9186-9.9267-5.8682-19.8445-8.7339-29.7865Q51.9829,187.4033,48.8,175.6831c-2.1686-7.9763-4.6036-15.9062-6.23-23.9955-1.3276-6.6026-1.6358-13.41-2.4288-20.4175a6.1846,6.1846,0,0,0-1.6783.1881c-5.5055,1.9584-10.9873,3.9836-16.49,5.9511-2.2844.8168-4.6084,1.5219-6.9028,2.3116-4.32,1.4872-8.6274,3.0126-12.9507,4.491-1.1752.4019-2.5495,1.099-3.0562-.8376-.3867-1.4778-1.3874-2.9614,1.2773-3.7837,6.07-1.8732,12.0333-4.094,18.022-6.2242,4.9927-1.7759,9.958-3.6287,14.9388-5.4383a67.94,67.94,0,0,0,6.8085-2.5229,6.2248,6.2248,0,0,0,2.5026-2.7706c2.8286-5.7381,5.4068-11.601,8.29-17.31,2.1317-4.2209,4.4693-8.3519,6.9463-12.3809C61.2065,87.4827,64.854,82.2008,68.2452,76.76c2.5008-4.0123,4.8038-8.1485,7.1717-12.2429,4.1056-7.0991,8.1659-14.2246,12.2988-21.3077,2.4763-4.2439,4.9232-8.5152,7.6338-12.6084,1.7533-2.6477,3.6115-5.45,6.0733-7.3326a12.1481,12.1481,0,0,1,7.3314-2.2607c9.2179.3771,18.4564.93,27.6074,2.0617,8.0286.9928,15.9149,3.0932,23.9295,4.2528A220.8925,220.8925,0,0,0,182.7357,29.54c13.1366.5437,26.3185,1.2187,39.4332.6748,10.3426-.4288,20.6342-2.47,30.9013-4.0936,2.9435-.4654,5.6949-2.0582,8.5894-2.9568a15.09,15.09,0,0,1,4.559-.7035c6.0836.066,12.28-.4,18.22.6032,7.55,1.2755,14.6732,4.4582,19.5765,10.6758,3.56,4.5145,6.3383,9.6527,9.3935,14.5574,4.1551,6.6709,8.3141,13.3413,12.3359,20.0927,3.3792,5.6727,6.5742,11.4554,9.8328,17.2,3.3416,5.89,6.7764,11.7319,9.9542,17.71,2.5125,4.7263,4.6511,9.65,7.0662,14.43a4.9081,4.9081,0,0,0,2.2473,2.4221c4.8546,1.6531,9.81,3.0064,14.6936,4.5783,6.236,2.007,12.43,4.1431,18.6559,6.1822,2.5547.8368,5.1276,1.63,7.724,2.3231,2.0388.5444,1.3059,2.0127.9047,3.0266a2.4234,2.4234,0,0,1-2.1726.9179c-3.44-.9772-6.7968-2.24-10.2178-3.2881-5.7822-1.7719-11.6057-3.41-17.3829-5.1976-2.9824-.9231-5.8923-2.0787-8.8585-3.0578A9.7734,9.7734,0,0,0,355.9854,125.4424ZM189.3483,254.5605c-1.9077-1.4949-3.25-2.3715-4.38-3.4665-2.8858-2.7955-3.7191-3.0107-6.6448-.9807-.9154.6351-1.8338,1.7711-2.4625.1331-.2578-.6717.4968-2.1872,1.2255-2.6944,1.952-1.3589,2.2378-2.2391.59-3.9672-2.9237-3.066-6.0742-5.9365-8.7969-9.1692-6.4463-7.6534-12.85-15.3532-18.9686-23.2679a150.3454,150.3454,0,0,1-9.604-14.3917c-4.1874-6.9433-8.2912-13.9545-12.0322-21.144-2.8454-5.4683-5.1131-11.241-7.5591-16.9123-2.5468-5.9052-5.2607-11.7576-7.4186-17.8056-2.1122-5.92-3.6407-12.0493-5.3759-18.101-.89-3.1046-1.7487-6.2222-2.488-9.3652-1.814-7.7121-3.9225-15.3809-5.2138-23.1827a121.2561,121.2561,0,0,1-1.4-23.7395c.2371-7.3426,1.3884-14.3,5.4493-20.5729,1.4541-2.2461,3.1827-3.9286,6.1232-3.3758,1.3941.262,2.744.7811,4.1428.9929,9.9816,1.5116,19.9718,2.9666,29.9572,4.4541,9.6319,1.4349,19.2271,3.2118,28.9025,4.2288a179.7258,179.7258,0,0,0,23.1249.8818c9.4981-.2321,18.9871-1.0791,28.4637-1.859,6.21-.511,12.3916-1.3772,18.5866-2.078q10.5326-1.1913,21.0659-2.3745c3.871-.4417,7.7357-.9372,11.6078-1.368,3.7537-.4176,7.5087-.8473,11.2744-1.11.6367-.0443,1.42.6306,1.9837,1.1412,4.9831,4.5142,6.8322,10.3932,7.1234,16.8772a126.4739,126.4739,0,0,1-2.31,31.9108c-1.1743,5.5721-1.9655,11.2345-3.3509,16.75-1.6583,6.6025-3.7606,13.0937-5.6813,19.63q-2.5833,8.7909-5.1906,17.5745a62.038,62.038,0,0,1-2.1292,6.9584c-2.71,6.3035-5.5008,12.5783-8.478,18.7593-2.0467,4.249-4.326,8.4008-6.7375,12.4558-3.2655,5.4912-6.74,10.8585-10.1572,16.2589-2.4811,3.9213-4.8733,7.91-7.5572,11.6894-4.0033,5.6377-8.1916,11.146-12.37,16.6568-4.0833,5.3851-8.2781,10.6856-12.375,16.0605-2.1228,2.7851-4.14,5.6508-6.1369,8.3873,3.0007,1.93,5.6784,3.3934,8.05,5.2485a51.1823,51.1823,0,0,1,6.7628,6.3206c3.7117,4.19,7.3194,8.4866,10.7279,12.925,2.93,3.8148,5.4872,7.9136,8.3055,11.8175a2.1729,2.1729,0,0,0,1.9172.677,32.1641,32.1641,0,0,0,3.9909-2.0136c-.0776-.44-.1237-.7-.1695-.9612-.1619-.9213-.6642-2.5358-.43-2.651,1.4625-.7185,2.51-.0723,3.157,1.4643a22.2275,22.2275,0,0,0,1.76,2.9977c1.6236,2.6083.655,7.3466-1.7149,8.3341-2.3966.9986-2.58,2.032-1.2527,4.3006,4.0906,6.99,8.1889,13.9811,12.0546,21.0964,3.4577,6.3643,6.622,12.8883,9.8951,19.3524q5.2308,10.33,10.4225,20.68,2.1408,4.2538,4.2621,8.5174l.7763-.0209c.3517-1.24.7732-2.4659,1.0378-3.7245.3548-1.6877.4918-3.4239.89-5.0992,2.0424-8.5881,4.1445-17.162,6.2132-25.7438.8018-3.3263,1.5217-6.673,2.365-9.9884,1.7719-6.9661,3.638-13.9082,5.3947-20.878,1.4954-5.9327,2.8872-11.8914,4.3328-17.8368,2.3184-9.5351,4.6669-19.0629,6.9551-28.6053,1.05-4.38,1.9691-8.792,2.9825-13.1813.7276-3.1512,1.4451-6.3074,2.2859-9.4293,2.5713-9.5477,5.2162-19.0756,7.7989-28.62,1.107-4.091,2.09-8.2154,3.2008-12.3055,2.7086-9.9773,5.6582-19.8942,8.1259-29.93,1.8287-7.4366,3.0649-15.0194,4.5353-22.543.2774-1.4192.2573-2.91.6452-4.292,1.5106-5.3832,2.3938-10.8245,1.078-16.3411a36.6563,36.6563,0,0,0-2.8423-7.8126c-.5848-1.1708-2.1334-1.86-3.7609-3.1887-.2958-1.44-.3627-3.97-1.34-6.0773-2.22-4.7845-4.8642-9.3742-7.3816-14.0183-2.3-4.2426-4.5771-8.5008-7.0147-12.664-2.7023-4.6152-5.5907-9.1211-8.369-13.6922-2.4471-4.0261-4.7737-8.1276-7.2994-12.103-3.109-4.8937-6.8019-9.4662-9.4651-14.5821-4.2081-8.0831-11.1488-12.0764-19.5061-13.4266-7.5374-1.2177-15.1953-1.6158-22.7821,1.1575a80.3023,80.3023,0,0,1-16.5434,3.9473,204.4887,204.4887,0,0,1-25.4669,2.2814c-13.1278.1473-26.2811-.2462-39.3926-.9711-9.5685-.5289-19.1206-1.7242-28.6175-3.0651-7.5836-1.0707-15.0291-3.1352-22.6171-4.1554a82.2333,82.2333,0,0,0-21.3642-.3425,5.1654,5.1654,0,0,0-3.1726,1.6566,104.6409,104.6409,0,0,0-6.7234,9.5991c-4.2568,6.9949-8.3431,14.0943-12.449,21.18-2.5625,4.4222-4.9315,8.9589-7.57,13.3339C73.5605,77.4762,70.05,82.747,66.7418,88.1415q-6.2242,10.1508-12.2669,20.4122c-1.3868,2.36-2.4787,4.894-3.6735,7.2847,4.2289,2.5481,1.9085,6.3159,2.8817,9.31-3.1839.64-3.6145.3-3.62-2.3521-.0027-1.2385-.1391-2.4767-.2149-3.715-3.2578,6.7395-5.0149,13.6522-4.0971,20.8743A154.8643,154.8643,0,0,0,48.99,156.8259c2.0763,8.5729,4.45,17.0746,6.7436,25.5939,1.6622,6.1727,3.3894,12.328,5.1091,18.4851.7526,2.6947,1.5137,5.3887,2.3492,8.0584,2.5173,8.0447,5.1056,16.0671,7.6016,24.1183,1.5169,4.893,2.9275,9.8192,4.3626,14.7371,2.4955,8.5524,4.9628,17.113,7.4643,25.6636.7826,2.6751,1.5988,5.3419,2.4668,7.99,1.7571,5.3619,3.685,10.6711,5.312,16.0714,1.9177,6.3652,3.4274,12.8554,5.4128,19.1978,2.3882,7.6293,5.2414,15.1132,7.6168,22.746,2.5984,8.3489,4.84,16.8083,7.33,25.192.642,2.1616,1.6327,4.22,2.6678,6.8437.5038-.9677.7275-1.3327.8917-1.723,1.805-4.2888,3.5334-8.6113,5.414-12.8666,3.1893-7.2167,6.49-14.3841,9.7125-21.5862q5.5407-12.3831,11.0209-24.7931c1.0117-2.2885,2.5956-4.5759,2.7339-6.9331.1619-2.76,1.4327-4.63,2.7878-6.6963a18.7848,18.7848,0,0,0,1.9377-3.8348,51.2463,51.2463,0,0,1,9.5386-15.9936A165.7133,165.7133,0,0,1,169.743,263.858c4.6766-4.3494,10.0593-7.7722,16.7-8.5076A23.61,23.61,0,0,0,189.3483,254.5605Zm-76.5776-132.44c.7077,2.3277,1.2215,3.9947,1.7212,5.666,1.14,3.8123,2.05,7.7117,3.4591,11.4213,2.4068,6.3342,5.0573,12.5791,7.7334,18.8066,2.3651,5.5036,4.6769,11.05,7.4267,16.3629,3.1953,6.1735,6.7707,12.1557,10.3187,18.1393q3.399,5.7327,7.2108,11.2177c3.3412,4.8125,6.8732,9.4922,10.3106,14.2381,2.1019,2.9021,4.2649,5.3349,8.5143,4.7138a104.8883,104.8883,0,0,1,13.2428-.9733c16.5411-.3,33.0851-.4351,49.6261-.736a3.9221,3.9221,0,0,0,2.656-1.5273c3.1751-4.414,6.22-8.9229,9.2639-13.43,2.7879-4.128,5.6211-8.2308,8.249-12.46,3.2485-5.2278,6.4541-10.4935,9.4064-15.8913a189.9635,189.9635,0,0,0,9.5371-18.8122c2.7732-6.7646,4.6166-13.9114,6.847-20.8972,1.4178-4.4405,2.8335-8.8823,4.1709-13.3474a15.6142,15.6142,0,0,0,.287-3.0146c-6.64,1.0106-12.7624,2.0684-18.9205,2.8461-6.7283.85-13.4775,1.5953-20.2387,2.1085-10.9313.83-21.8729,1.5833-32.8234,2.0764-6.9025.3108-13.8313.2025-20.744.0673-4.9585-.097-9.9089-.7786-14.8647-.8009a361.4626,361.4626,0,0,1-43.3717-3.19C125.7151,123.9431,119.6567,123.06,112.7707,122.1206Zm-1.8525-9.7743-.86.7155c.5468,1.1789.7891,2.836,1.7122,3.4237a13.2336,13.2336,0,0,0,4.8564,1.3823c4.4559.75,8.9208,1.4678,13.4022,2.04,6.549.8365,13.0984,1.9225,19.6781,2.2146,15.256.6777,30.5311.92,45.7967,1.3944,3.3343.1036,6.6622.6292,9.9916.6161,2.8747-.0113,5.7423-.5881,8.6219-.7831,10.396-.7044,20.8057-1.2287,31.1907-2.0639,7.658-.6158,15.2835-1.63,22.9276-2.4273,3.7949-.3959,7.6519-.4344,11.3761-1.1667,1.8565-.3651,4.5776.1962,5.3794-2.5768.67-2.3177,1.3327-4.6476,1.8052-7.0108,1.5893-7.9487,3.4394-15.8671,4.5371-23.8865,1.27-9.28,1.7037-18.6576-.2446-27.9493-.1542-.7355-.9888-1.9806-1.3176-1.9222-2.2661.4028-4.4654,1.1688-6.7236,1.6374a6.317,6.317,0,0,1-2.2821-.4257c.5731-.6981,1.041-1.8479,1.7387-2.01,2.1711-.5054,4.4293-.6365,7.1621-.9759-1.4413-2.12-2.5286-4.1034-5.16-3.8049-2.8542.3237-5.6656,1.007-8.51,1.4414-4.8131.7352-9.6262,1.4893-14.4592,2.07q-10.5137,1.2627-21.0567,2.2773-13.9355,1.3386-27.89,2.472c-4.1659.3376-8.3541.6412-12.5277.591-8.8968-.1067-17.82-.097-26.6762-.818-6.9727-.5678-13.8509-2.2329-20.7916-3.2744-7.3342-1.1-14.6887-2.0694-22.0418-3.04-6.64-.8765-13.2925-1.6621-19.9352-2.5214-2.1619-.28-2.5617,1.2153-2.9712,2.7636-.5054,1.9112,1.0036,1.7332,2.0759,2.0179a3.1265,3.1265,0,0,1,1.28.4137,8.379,8.379,0,0,1,1.0858,1.5411c-.4836.3025-.9781.8771-1.4486.8581-1.6044-.0649-3.2-.3388-5-.5572-.5438,1.7641-1.4336,3.43-1.5141,5.1348-.2739,5.8-.4942,11.62-.3041,17.4187a107.1593,107.1593,0,0,0,3.8644,24.3058c.6083,2.2651.0154,5.3306,1.3394,6.7882,1.2648,1.3923,4.3541,1.027,6.5438,1.7358a2.9386,2.9386,0,0,1,1.623,2.1528c.0654,1.4424-1.01,1.7094-2.2945,1.2165C113.5841,113.2508,112.2456,112.813,110.9182,112.3463Zm64.1426,194.133c3.546.5222,6.301,1.31,9.0407,1.26,8.5835-.1563,17.1739-.4476,25.737-1.0415,5.8272-.4041,11.6062-1.4652,17.42-2.1182a66.106,66.106,0,0,0,16.6478-4.505c2.2751-.8865,2.3729-1.8036,1.1807-3.5225-2.535-3.6552-5.0806-7.3035-7.5847-10.98a97.7624,97.7624,0,0,0-16.52-19.294c-2.2589-1.956-4.32-4.0774-7.5985-2.0533a1.0051,1.0051,0,0,1-.7926.0925c-.5263-.22-1.269-.4455-1.4305-.8609-.1458-.375.3118-1.0367.6024-1.5112a5.84,5.84,0,0,1,1.02-.9535c-2.7014-1.8638-5.1877-.92-7.2874.2955a114.1941,114.1941,0,0,0-11.0811,7.3311c-6.5639,4.9019-10.7,11.7087-14.0176,19.0226a62.27,62.27,0,0,0-3.1282,8.9063C176.379,299.7191,175.8222,302.9836,175.0608,306.4793Zm-5.6022-79.58c.359,1.0122.3952,1.5228.6662,1.8171,3.6478,3.9613,7.1462,8.0841,11.0443,11.7848,5.4436,5.1681,11.1075,10.1169,16.882,14.9128,1.1289.9375,2.1426,2.7384,4.5789,1.9094,4.8327-1.6444,7.5017-5.4928,10.419-9.1459,4.1546-5.2023,8.2328-10.4656,12.3389-15.7066q2.4543-3.1326,4.8889-6.2808l-.4482-.78Zm.1,79.2134q.3676-.4631.7355-.926a9.5085,9.5085,0,0,0-2.0718-1.65c-1.3155-.55-2.793-.7149-4.1026-1.2751a1.963,1.963,0,0,1-.9414-1.6221,1.8759,1.8759,0,0,1,1.4852-1.05,32.1126,32.1126,0,0,1,4.3074.5532c1.5724.2474,2.2509-.364,2.5215-1.9805.9974-5.9573,3.4214-11.3664,6.158-16.7421a49.265,49.265,0,0,1,17.1687-19.3412,1.3973,1.3973,0,0,0,.64-1.0133,1.3577,1.3577,0,0,0-.8583-.8528,12.6185,12.6185,0,0,0-2.1506-.2994c-9.64-1.0881-16.35,4.4582-22.5964,10.4615a94.61,94.61,0,0,0-10.476,12.4633,64.493,64.493,0,0,0-5.3989,9.8018,2.5365,2.5365,0,0,0,.7079,2.3783c1.7377.7361,2.2132,1.8382,1.4619,3.3889-.0934.193-1.6356-.447-2.5116-.4661a16.5194,16.5194,0,0,0-2.7643.3825c.2688.7283.3257,1.7955.8463,2.1212a21.4884,21.4884,0,0,0,4.9934,2.4225C160.9361,304.1592,164.907,306.59,169.5583,306.1125ZM254.89,294.4649l-.29-.8053c-1.2409.5479-2.5154,1.0359-3.6946,1.6944-.236.1318-.1088.9137-.1824,1.7948Z"/><path class="cls-1" d="M189.3483,254.5605a23.61,23.61,0,0,1-2.9058.79c-6.64.7354-12.0229,4.1582-16.6995,8.5076a165.7133,165.7133,0,0,0-12.2794,13.2389,51.2463,51.2463,0,0,0-9.5386,15.9936,18.7848,18.7848,0,0,1-1.9377,3.8348c-1.3551,2.066-2.6259,3.9365-2.7878,6.6963-.1383,2.3572-1.7222,4.6446-2.7339,6.9331q-5.4852,12.4077-11.0209,24.7931c-3.2226,7.2021-6.5232,14.37-9.7125,21.5862-1.8806,4.2553-3.609,8.5778-5.414,12.8666-.1642.39-.3879.7553-.8917,1.723-1.0351-2.6242-2.0258-4.6821-2.6678-6.8437-2.49-8.3837-4.7311-16.8431-7.33-25.192-2.3754-7.6328-5.2286-15.1167-7.6168-22.746C93.827,310.4,92.3173,303.9093,90.4,297.5441c-1.627-5.4-3.5549-10.7095-5.312-16.0714-.868-2.6485-1.6842-5.3153-2.4668-7.99-2.5015-8.5506-4.9688-17.1112-7.4643-25.6636-1.4351-4.9179-2.8457-9.8441-4.3626-14.7371-2.496-8.0512-5.0843-16.0736-7.6016-24.1183-.8355-2.67-1.5966-5.3637-2.3492-8.0584-1.72-6.1571-3.4469-12.3124-5.1091-18.4851-2.294-8.5193-4.6673-17.021-6.7436-25.5939a154.8643,154.8643,0,0,1-3.2395-16.8706c-.9178-7.2221.8393-14.1348,4.0971-20.8743.0758,1.2383.2122,2.4765.2149,3.715.0057,2.6521.4363,2.9917,3.62,2.3521-.9732-2.9938,1.3472-6.7616-2.8817-9.31,1.1948-2.3907,2.2867-4.9243,3.6735-7.2847q6.0314-10.2662,12.2669-20.4122C70.05,82.747,73.5605,77.4762,76.8282,72.0582c2.6387-4.375,5.0077-8.9117,7.57-13.3339,4.1059-7.0857,8.1922-14.1851,12.449-21.18a104.6409,104.6409,0,0,1,6.7234-9.5991,5.1654,5.1654,0,0,1,3.1726-1.6566,82.2333,82.2333,0,0,1,21.3642.3425c7.588,1.02,15.0335,3.0847,22.6171,4.1554,9.4969,1.3409,19.049,2.5362,28.6175,3.0651,13.1115.7249,26.2648,1.1184,39.3926.9711a204.4887,204.4887,0,0,0,25.4669-2.2814,80.3023,80.3023,0,0,0,16.5434-3.9473c7.5868-2.7733,15.2447-2.3752,22.7821-1.1575,8.3573,1.35,15.298,5.3435,19.5061,13.4266,2.6632,5.1159,6.3561,9.6884,9.4651,14.5821,2.5257,3.9754,4.8523,8.0769,7.2994,12.103,2.7783,4.5711,5.6667,9.077,8.369,13.6922,2.4376,4.1632,4.7151,8.4214,7.0147,12.664,2.5174,4.6441,5.1615,9.2338,7.3816,14.0183.9778,2.1072,1.0447,4.6372,1.34,6.0773,1.6275,1.3284,3.1761,2.0179,3.7609,3.1887a36.6563,36.6563,0,0,1,2.8423,7.8126c1.3158,5.5166.4326,10.9579-1.078,16.3411-.3879,1.382-.3678,2.8728-.6452,4.292-1.47,7.5236-2.7066,15.1064-4.5353,22.543-2.4677,10.0359-5.4173,19.9528-8.1259,29.93-1.11,4.09-2.0938,8.2145-3.2008,12.3055-2.5827,9.5448-5.2276,19.0727-7.7989,28.62-.8408,3.1219-1.5583,6.2781-2.2859,9.4293-1.0134,4.3893-1.9322,8.801-2.9825,13.1813-2.2882,9.5424-4.6367,19.07-6.9551,28.6053-1.4456,5.9454-2.8374,11.9041-4.3328,17.8368-1.7567,6.97-3.6228,13.9119-5.3947,20.878-.8433,3.3154-1.5632,6.6621-2.365,9.9884-2.0687,8.5818-4.1708,17.1557-6.2132,25.7438-.3984,1.6753-.5354,3.4115-.89,5.0992-.2646,1.2586-.6861,2.4841-1.0378,3.7245l-.7763.0209q-2.13-4.259-4.2621-8.5174-5.2052-10.343-10.4225-20.68c-3.2731-6.4641-6.4374-12.9881-9.8951-19.3524-3.8657-7.1153-7.964-14.1061-12.0546-21.0964-1.3276-2.2686-1.1439-3.302,1.2527-4.3006,2.37-.9875,3.3385-5.7258,1.7149-8.3341a22.2275,22.2275,0,0,1-1.76-2.9977c-.647-1.5366-1.6945-2.1828-3.157-1.4643-.2342.1152.2681,1.73.43,2.651.0458.2608.0919.5216.1695.9612a32.1641,32.1641,0,0,1-3.9909,2.0136,2.1729,2.1729,0,0,1-1.9172-.677c-2.8183-3.9039-5.3759-8.0027-8.3055-11.8175-3.4085-4.4384-7.0162-8.7354-10.7279-12.925a51.1823,51.1823,0,0,0-6.7628-6.3206c-2.3717-1.8551-5.0494-3.3188-8.05-5.2485,1.9971-2.7365,4.0141-5.6022,6.1369-8.3873,4.0969-5.3749,8.2917-10.6754,12.375-16.0605,4.1786-5.5108,8.3669-11.0191,12.37-16.6568,2.6839-3.78,5.0761-7.7681,7.5572-11.6894,3.417-5.4,6.8917-10.7677,10.1572-16.2589,2.4115-4.055,4.6908-8.2068,6.7375-12.4558,2.9772-6.181,5.7677-12.4558,8.478-18.7593a62.038,62.038,0,0,0,2.1292-6.9584q2.6012-8.7855,5.1906-17.5745c1.9207-6.5362,4.023-13.0274,5.6813-19.63,1.3854-5.5158,2.1766-11.1782,3.3509-16.75a126.4739,126.4739,0,0,0,2.31-31.9108c-.2912-6.484-2.14-12.363-7.1234-16.8772-.5635-.5106-1.347-1.1855-1.9837-1.1412-3.7657.2625-7.5207.6922-11.2744,1.11-3.8721.4308-7.7368.9263-11.6078,1.368q-10.5312,1.2018-21.0659,2.3745c-6.195.7008-12.3762,1.567-18.5866,2.078-9.4766.78-18.9656,1.6269-28.4637,1.859a179.7258,179.7258,0,0,1-23.1249-.8818c-9.6754-1.017-19.2706-2.7939-28.9025-4.2288-9.9854-1.4875-19.9756-2.9425-29.9572-4.4541-1.3988-.2118-2.7487-.7309-4.1428-.9929-2.94-.5528-4.6691,1.13-6.1232,3.3758-4.0609,6.2727-5.2122,13.23-5.4493,20.5729a121.2561,121.2561,0,0,0,1.4,23.7395c1.2913,7.8018,3.4,15.4706,5.2138,23.1827.7393,3.143,1.5979,6.2606,2.488,9.3652,1.7352,6.0517,3.2637,12.1814,5.3759,18.101,2.1579,6.048,4.8718,11.9,7.4186,17.8056,2.446,5.6713,4.7137,11.444,7.5591,16.9123,3.741,7.19,7.8448,14.2007,12.0322,21.144a150.3454,150.3454,0,0,0,9.604,14.3917c6.1186,7.9147,12.5223,15.6145,18.9686,23.2679,2.7227,3.2327,5.8732,6.1032,8.7969,9.1692,1.6479,1.7281,1.3621,2.6083-.59,3.9672-.7287.5072-1.4833,2.0227-1.2255,2.6944.6287,1.638,1.5471.502,2.4625-.1331,2.9257-2.03,3.759-1.8148,6.6448.9807C186.0987,252.189,187.4406,253.0656,189.3483,254.5605Zm102.4448,94.46c-.3838-1.2632-.5188-1.853-.739-2.409-1.4982-3.7828-.3835-7.2184,3.0137-9.0548a1.4812,1.4812,0,0,1,1.2617.016c1.8558,1.1876,2.4348-.3284,2.8075-1.4863a25.7806,25.7806,0,0,0,.75-4.5615c.2484-1.9041-.8454-2.1879-2.3413-1.7926a8.3623,8.3623,0,0,0-1.5674.7859c-2.655-6.3453-6.5087-9.0922-11.68-8.46-3.3983.4154-8.0229,4.8221-8.5382,8.0826-.46,2.9093-.1648,5.9519,1.7439,7.9869,2.1646,2.3077,5.17,3.8267,7.302,5.33,1.1635,2.8907,2.1469,5.5891,3.3836,8.1659.2174.4531,1.5174.5961,2.2771.513.6071-.0664,1.1528-.694,1.9233-1.2031.2068,1.25.36,2.1771.6593,3.9856,1.1233-1.01,2.0831-1.48,2.3724-2.2149a20.6873,20.6873,0,0,0,1.2382-4.9293c.0946-.7419-.49-1.57-.7658-2.36-.8934.5711-1.8267,1.0915-2.6554,1.7446C291.9915,347.3549,292.0377,347.9219,291.7931,349.02ZM115.2623,337.36h-3.8464c.1819,1.1341.3341,2.2743.5589,3.4.1049.5252.3837,1.0133.5267,1.5338,1.001,3.6432,1.093,3.5857,4.8188,2.9546,1.6982-.2877,2.0119-1.238,2.16-2.5678.3574-3.2112,1.2615-5.7355,5.06-6.6026,1.5442-.3525,2.93-2.2022,4.0036-3.6549,2.6644-3.6061,2.0945-9.994-.9487-13.0084a10.3183,10.3183,0,0,0-13.2743-.63,50.9349,50.9349,0,0,0-4.518,4.9013,6.1235,6.1235,0,0,0-.9743-1.6762,2.25,2.25,0,0,0-1.6276-.4748,1.68,1.68,0,0,0-1.0867.96c-.529,1.4011,1.6671,6.711,2.7816,7.6259a78.6144,78.6144,0,0,1,6.0992,5.565C115.4212,336.1182,115.2359,337.1526,115.2623,337.36ZM91.2334,266.7348c-.8156-2.2328-1.5106-4.3484-2.3813-6.3891-.2619-.614-1.0127-1.02-1.54-1.5205-.4074.6974-1.2767,1.5056-1.1407,2.0727a44.1224,44.1224,0,0,0,2.1881,6.5768,2.3011,2.3011,0,0,0,1.8359.9528C90.528,268.4256,90.8544,267.39,91.2334,266.7348Zm48.333,26.07c-.3879-.4952-.694-1.2585-1.1013-1.3171a2.1711,2.1711,0,0,0-1.8055.5974,62.3316,62.3316,0,0,0-3.4524,5.9889,1.6214,1.6214,0,0,0,.6474,1.4584c.6536.25,1.9394.3687,2.1364.0433C137.2736,297.4571,138.3345,295.2047,139.5664,292.8043Zm-42.9688-9.5206c-.9243-2.4956-1.6616-4.8066-2.6667-6.9946-.2819-.6139-1.3511-.8662-2.0592-1.2844-.2815.7494-.902,1.5621-.7761,2.2353a39.9867,39.9867,0,0,0,1.4456,4.5712C93.21,283.9266,94.4661,284.4564,96.5976,283.2837Zm3.7891,17.199c.4859-1.5269,1.0666-2.36.8888-2.9742a41.1293,41.1293,0,0,0-2.28-5.9954,2.0164,2.0164,0,0,0-1.7788-.8361c-.6206.3091-1.4161,1.2877-1.317,1.8349a23.0853,23.0853,0,0,0,1.6379,5.2928C97.899,298.6094,98.8993,299.1273,100.3867,300.4827ZM77.0527,221.331c-.72-2.6356-1.2751-5.078-2.101-7.4252-.2328-.6619-1.2594-1.0445-1.9219-1.5552-.4188.7339-1.2537,1.52-1.17,2.1908.1751,1.4,1.01,2.7094,1.2557,4.1118C73.4875,220.7711,74.6625,221.5261,77.0527,221.331Zm48.9491,91.861c.3951.4035.929,1.3874,1.46,1.3859a2.932,2.932,0,0,0,2.2129-1.1758,25.18,25.18,0,0,0,2.0327-4.9546,3.1958,3.1958,0,0,0-.25-2.1064c-.891-.12-2.3857-.1844-2.6565.2977A60.5935,60.5935,0,0,0,126.0018,313.192Zm-19.5073-.0391c-.847-2.06-1.5306-4.0014-2.4575-5.8183-.3-.5884-1.2379-.8515-1.884-1.2635-.322.6545-1.0362,1.4125-.8957,1.9451a36.2409,36.2409,0,0,0,2.084,5.7935,2.27,2.27,0,0,0,1.8346.9367C105.5957,314.7265,105.9736,313.8215,106.4945,313.1529Zm-34.0074-108.39a47.854,47.854,0,0,0-1.8206-5.7908c-.4211-.93-1.5283-1.55-2.3259-2.3094a13.937,13.937,0,0,0-.5366,3.1574,25.3846,25.3846,0,0,0,.8222,3.3648C69.1837,206.0213,69.9294,206.3162,72.4871,204.7626ZM302.8816,315.0863l-1.4669-2.1483c-.5663.54-1.417.9819-1.6446,1.6393a36.6076,36.6076,0,0,0-1.4388,5.6756,1.8667,1.8667,0,0,0,.8821,1.5958,1.9478,1.9478,0,0,0,1.6726-.8694C301.6376,319.1854,302.1584,317.2948,302.8816,315.0863Zm-33.8714-.1139-.3363.9125c.9609,2.2,1.8238,4.4514,2.9527,6.561.277.5175,1.4459.8,2.1591.7293.3095-.0306.88-1.3783.6837-1.8694a31.4281,31.4281,0,0,0-2.8632-5.7157C271.2479,315.0486,269.9032,315.16,269.01,314.9724ZM64.0214,172.3839a25.09,25.09,0,0,1-1.2821-2.7961,18.6329,18.6329,0,0,1-.6631-3.1687c-.2186-1.6288-1.3589-1.9834-2.4978-1.4235-.5287.26-.8438,1.6116-.7238,2.3858.201,1.2966.9344,2.501,1.2537,3.7912C60.7658,173.83,61.517,174.1235,64.0214,172.3839ZM242.28,265.9017c-2.0708-2.6493-3.4686-4.581-5.0444-6.3547-.4036-.4541-1.3693-.4088-2.0768-.5929-.0987.7257-.5411,1.6812-.2363,2.1372a40,40,0,0,0,4.243,5.37C239.4753,266.7864,240.7342,266.2071,242.28,265.9017Zm67.1737,16.0517-1.0159-.7649c-.6856.3514-1.8092.5586-1.9806,1.0793a54.8587,54.8587,0,0,0-1.6352,6.6985c-.0712.3669.5187,1.2259.7782,1.2158a1.8408,1.8408,0,0,0,1.4375-.7975C307.9253,286.9374,308.6647,284.4364,309.4537,281.9534Zm-4.099,17.0283c-.2138-.268-.7945-.9953-1.3751-1.7228a11.53,11.53,0,0,0-1.4052,2.2034,32.9174,32.9174,0,0,0-1.1,4.1734c-.1445.66-.4056,1.6053-.0905,1.9739a2.13,2.13,0,0,0,1.96.403,2.6507,2.6507,0,0,0,1.3361-1.6674C305.0183,302.8513,305.086,301.2959,305.3547,298.9817ZM158.7972,266.7738c-.5456-.7592-.8017-1.4864-1.2557-1.6442a1.9922,1.9922,0,0,0-1.6637.4231,24.8134,24.8134,0,0,0-3.8232,4.0022c-.4675.6776-.0772,1.947-.0761,2.948a18.1368,18.1368,0,0,0,2.1644-.7,3.9149,3.9149,0,0,0,1.2579-.9849C156.5339,269.5238,157.618,268.1863,158.7972,266.7738Zm101.9,35.0563c1.2179,2.3372,2.2223,4.5182,3.51,6.5169.2507.3894,1.6389.211,2.4246.002.2774-.0738.6164-1.1738.4242-1.5444a61.41,61.41,0,0,0-3.3433-5.6938,2.0063,2.0063,0,0,0-1.67-.7634C261.5437,300.459,261.1949,301.2429,260.6975,301.83ZM169.97,254.3532c-.6988-.0695-1.7663-.5176-2.2723-.1635a45.788,45.788,0,0,0-4.8657,4.13,1.5623,1.5623,0,0,0-.3631,1.4161,2.197,2.197,0,0,0,1.3807,1.0434C165.5514,261.066,170.0793,256.8315,169.97,254.3532ZM55.2554,150.0362a54.8715,54.8715,0,0,0,1.2077,6.1985c.1943.6288,1.3389.964,2.0491,1.4334.4032-.75,1.2335-1.567,1.1274-2.2358a27.3116,27.3116,0,0,0-1.5533-5.3561,2.0219,2.0219,0,0,0-1.5174-1.0621C56.1,149.0083,55.6224,149.7272,55.2554,150.0362Zm93.2518,129.47c-.6113-.85-.844-1.5158-1.2033-1.593a2.0343,2.0343,0,0,0-1.6992.3455,64.3456,64.3456,0,0,0-3.8678,5.4132,1.8559,1.8559,0,0,0,.0067,1.7043c.2728.3678,1.4121.6466,1.5843.45C145.1173,283.7858,146.7881,281.6411,148.5072,279.5063ZM76.2833,228.2556a55.427,55.427,0,0,0,1.8891,6.9709c.3093.7623,1.7619,1.0608,2.6927,1.571a8.103,8.103,0,0,0,.29-2.5828c-.3394-1.5574-1.0422-3.0317-1.47-4.5749C79.121,227.6013,77.98,227.3563,76.2833,228.2556ZM51.5318,133.48c.6265,2.7054,1.17,5.2918,1.8782,7.8325.0965.3463,1.0751.7241,1.5291.6129a1.6786,1.6786,0,0,0,.98-1.2929c-.07-1.7147-.3914-3.4171-.54-5.1309C55.1841,133.2613,53.9349,132.8858,51.5318,133.48Zm12.7758,46.179c-.55,1.1223-1.3711,1.9921-1.23,2.6571a46.8869,46.8869,0,0,0,2.0845,6.81,1.8875,1.8875,0,0,0,1.7646.595,2.1977,2.1977,0,0,0,.9033-1.8223,43.4575,43.4575,0,0,0-1.5072-5.6731C66.1326,181.64,65.5338,181.1873,64.3076,179.6585ZM323.1493,218.66c-.1513-.24-.4922-.78-.8332-1.3207-.6533.4757-1.6631.8234-1.8886,1.4522-.5407,1.5079-.5111,3.2281-1.0987,4.7089-.4522,1.1393-.6711,2.0763.6633,2.19a2.7512,2.7512,0,0,0,2.1277-1.5149A36.6748,36.6748,0,0,0,323.1493,218.66ZM86.3682,251.8836c-.7067-2.3882-1.3179-4.6893-2.0975-6.9319-.2105-.6058-.9317-1.0339-1.4185-1.5436-.4488.6408-1.3085,1.31-1.2666,1.9169a36.1029,36.1029,0,0,0,.9555,4.7611C82.98,252.1961,84.28,252.524,86.3682,251.8836Zm257.5616-110.8c-.3561-.7578-.7074-1.5054-1.0587-2.2532-.6883.4364-1.8393.7577-1.9817,1.33a43.3445,43.3445,0,0,0-.9345,6.3377c-.0246.2571.7607.8692,1.0942.8182a1.9336,1.9336,0,0,0,1.3672-.9374C343.0053,144.7107,343.407,142.9769,343.93,141.0832ZM246.3856,271.784l-1.3356.14c-.1664,1.0489-.76,2.2805-.4061,3.1069a15.6194,15.6194,0,0,0,2.8661,4.093c.4738.5277,1.4415.6117,2.1847.8973.1451-.7306.6427-1.6465.3732-2.1593C248.9681,275.7688,247.6336,273.7991,246.3856,271.784Zm69.6857-21.0022c-.4912-.63-.7968-1.376-1.3014-1.5521a1.6829,1.6829,0,0,0-1.4776.7664,52.2689,52.2689,0,0,0-1.808,6.1748c-.1158.5176.4631,1.1906.7226,1.7922.5948-.3094,1.5289-.4783,1.7253-.9525C314.7474,255.0416,315.34,252.9805,316.0713,250.7818Zm11.6354-48.1537c-.0444-.05-.5246-.9036-.7963-.8418-.7432.1695-1.7769.57-2.0161,1.1561a27.65,27.65,0,0,0-1.3221,4.9447,9.3367,9.3367,0,0,0,.0567,2.1589c.8412-.4129,2.1618-.6267,2.4317-1.2767A45.9473,45.9473,0,0,0,327.7067,202.6281ZM225.0672,247c-.8162.4925-1.505.6754-1.5934,1.0146a2.1,2.1,0,0,0,.25,1.74,42.522,42.522,0,0,0,4.728,3.8995c.4144.29,1.3559-.0228,1.9765-.2622a1.3013,1.3013,0,0,0,.2217-1.179C228.8419,250.4412,226.96,248.7452,225.0672,247Zm102.7941-53.9857c.4377.7788.6148,1.5449,1.0348,1.7164.4337.1771,1.4788-.0726,1.609-.396.8578-2.131,1.5845-4.3194,2.2378-6.5234.1088-.3669-.3117-1.2591-.5555-1.2857-.513-.056-1.3694.1462-1.5611.5149C329.6141,188.9868,328.7647,191.0179,327.8613,193.0142Zm-19.8419,80.0222c2.2018,1.2206,3.025.8573,3.357-1.6553a27.8028,27.8028,0,0,0,.5117-4.0239c-.012-.7144-.6571-1.4183-1.0165-2.1269-.5358.59-1.35,1.0973-1.5539,1.7854C308.7679,268.8752,308.4781,270.8117,308.0194,273.0364Zm9.1668-30.356c.8574-2.8022,1.6617-5.2069,2.2423-7.6644.06-.2552-1.3961-1.325-1.8293-1.1629C315.51,234.6349,314.92,240.6078,317.1862,242.68ZM342.1133,130.17a3.8771,3.8771,0,0,0,1.0577,1.2055c.2078.1328,1.3012-.5178,1.4293-.9694a25.0911,25.0911,0,0,0,.9944-5.2009c.0461-.7242-.7158-1.5-1.11-2.2521-.6848.6154-1.7723,1.1245-1.9689,1.8689A30.5121,30.5121,0,0,0,342.1133,130.17Zm-4.5072,42.2022a4.1048,4.1048,0,0,0-.8618-1.39,1.5193,1.5193,0,0,0-1.4.3014c-.7776,2.2775-1.471,4.5887-2.0394,6.9264-.0751.3091.6259,1.0213,1.09,1.1727a1.4527,1.4527,0,0,0,1.2427-.7037C336.3306,176.74,336.8818,174.751,337.6061,172.3718Zm-.2187-10.9333c.1412.345.5415,1.3239.9418,2.3029a15.7944,15.7944,0,0,0,1.7609-2.8276c.3952-1.0651.093-2.4677.6573-3.3724.7961-1.276.4267-2.0079-.6925-2.17a2.4619,2.4619,0,0,0-1.9958,1.2829A25.177,25.177,0,0,0,337.3874,161.4385Z"/><path class="cls-1" d="M110.9182,112.3463c1.3274.4667,2.6659.9045,3.979,1.4083,1.2848.4929,2.36.2259,2.2945-1.2165a2.9386,2.9386,0,0,0-1.623-2.1528c-2.19-.7088-5.279-.3435-6.5438-1.7358-1.324-1.4576-.7311-4.5231-1.3394-6.7882a107.1593,107.1593,0,0,1-3.8644-24.3058c-.19-5.7985.03-11.6191.3041-17.4187.08-1.7045.97-3.3707,1.5141-5.1348,1.7993.2184,3.3952.4923,5,.5572.47.019.965-.5556,1.4486-.8581a8.379,8.379,0,0,0-1.0858-1.5411,3.1265,3.1265,0,0,0-1.28-.4137c-1.0723-.2847-2.5813-.1067-2.0759-2.0179.41-1.5483.8093-3.0432,2.9712-2.7636,6.6427.8593,13.2949,1.6449,19.9352,2.5214,7.3531.9707,14.7076,1.94,22.0418,3.04,6.9407,1.0415,13.8189,2.7066,20.7916,3.2744,8.8565.721,17.7794.7113,26.6762.818,4.1736.05,8.3618-.2534,12.5277-.591q13.9538-1.1307,27.89-2.472,10.5408-1.0125,21.0567-2.2773c4.833-.5805,9.6461-1.3346,14.4592-2.07,2.8442-.4344,5.6556-1.1177,8.51-1.4414,2.6318-.2985,3.7191,1.6846,5.16,3.8049-2.7328.3394-4.991.4705-7.1621.9759-.6977.1624-1.1656,1.3122-1.7387,2.01a6.317,6.317,0,0,0,2.2821.4257c2.2582-.4686,4.4575-1.2346,6.7236-1.6374.3288-.0584,1.1634,1.1867,1.3176,1.9222,1.9483,9.2917,1.5148,18.6691.2446,27.9493-1.0977,8.0194-2.9478,15.9378-4.5371,23.8865-.4725,2.3632-1.1351,4.6931-1.8052,7.0108-.8018,2.773-3.5229,2.2117-5.3794,2.5768-3.7242.7323-7.5812.7708-11.3761,1.1667-7.6441.7977-15.27,1.8115-22.9276,2.4273-10.385.8352-20.7947,1.36-31.1907,2.0639-2.88.195-5.7472.7718-8.6219.7831-3.3294.0131-6.6573-.5125-9.9916-.6161-15.2656-.4748-30.5407-.7167-45.7967-1.3944-6.58-.2921-13.1291-1.3781-19.6781-2.2146-4.4814-.5725-8.9463-1.29-13.4022-2.04a13.2336,13.2336,0,0,1-4.8564-1.3823c-.9231-.5877-1.1654-2.2448-1.7122-3.4237Zm15.2954-.07-1.999,1.171c.4149.6281.7489,1.7168,1.2585,1.8065a69.1674,69.1674,0,0,0,7.4519.7977c.276.0181.894-.7811.8361-1.11a1.8288,1.8288,0,0,0-1.001-1.276C130.7765,113.1455,128.7487,112.7946,126.2136,112.276Zm11.99-54.8636-.1228.38a2.2989,2.2989,0,0,0-.8085-.027c-.7538.2622-1.4844.591-2.2239.894.4782.5482.8737,1.4475,1.449,1.5828a69.08,69.08,0,0,0,7.0667,1.2057c.3509.0448,1.0164-.5161,1.1149-.9038a1.42,1.42,0,0,0-.6526-1.2327C142.1133,58.6026,140.15,58.031,138.2034,57.4124Zm55.86,62.6457v-.0226a8.8986,8.8986,0,0,0,2.69-.0643c.6692-.2225,1.15-1.011,1.7146-1.5487-.581-.5295-1.116-1.437-1.7519-1.5144a16.6692,16.6692,0,0,0-4.857.09c-.7886.1395-1.44,1.0572-2.1526,1.623a11.3405,11.3405,0,0,0,2.2049,1.39A6.7257,6.7257,0,0,0,194.0633,120.0581Zm-16.1125-3.19v-.1342a16.5858,16.5858,0,0,0-2.9913.05c-.5424.1008-.99.7126-1.48,1.0942.3678.4173.6827,1.1242,1.1124,1.2027a48.2023,48.2023,0,0,0,6.37.8057c.54.0253,1.121-.8424,1.6833-1.3-.5646-.5731-1.0384-1.4351-1.7162-1.6482A10.31,10.31,0,0,0,177.9508,116.8677ZM120.7423,55.05a5.3959,5.3959,0,0,0-1.5279,1.0934,1.7166,1.7166,0,0,0,.4772,1.5058,55.8608,55.8608,0,0,0,6.7954,1.2872c.4155.0488,1.3017-.9083,1.3363-1.4422a2.0724,2.0724,0,0,0-1.1006-1.684C124.97,55.4163,123.15,55.3255,120.7423,55.05Zm91.2245,64.6914.099.395a12.5437,12.5437,0,0,0,2.5792-1.2354,2.0156,2.0156,0,0,0,.3623-1.6887,1.4671,1.4671,0,0,0-1.1729-.7639,59.8361,59.8361,0,0,0-6.4378.4532c-.4366.0595-.9859.9457-1.0538,1.5032a1.6163,1.6163,0,0,0,.97,1.2751C208.8514,119.8288,210.4134,119.7409,211.9668,119.7409Zm-66.62-1.8564-.0008.1756A19.1126,19.1126,0,0,0,148.5939,118c.4217-.0736.9142-.7854,1.0145-1.28.0637-.3141-.4792-1.03-.8463-1.1063a41.2817,41.2817,0,0,0-6.0674-.95c-.6775-.0389-1.4058.8063-2.1109,1.2475.6821.6578,1.2616,1.557,2.0762,1.9037A7.3557,7.3557,0,0,0,145.3468,117.8845Zm110.305-1.8141a44.4761,44.4761,0,0,0,5.8267-.4922c.7109-.1552,1.237-1.1565,1.847-1.7734-.73-.4461-1.4821-1.2962-2.1855-1.2575a22.9774,22.9774,0,0,0-4.9579.9873,6.2594,6.2594,0,0,0-1.7051,1.2278ZM240.0155,118.03c2.66-.544,4.6837-.9089,6.672-1.4143.3236-.0822.783-1.0275.6747-1.16-.3907-.4763-.9927-1.078-1.5234-1.0862a28.3954,28.3954,0,0,0-5.4058.36c-.66.1175-1.6568,1.017-1.648,1.5457C238.7961,116.9419,239.68,117.5938,240.0155,118.03Zm-3.3662-55.8464,0-.1056a20.0459,20.0459,0,0,0,3.5172-.0671c.465-.0837,1-.8732,1.1051-1.4181.0564-.2939-.7242-1.0717-1.1359-1.0782a54.7354,54.7354,0,0,0-6.5087.2528c-.4517.0469-.8183.9132-1.2241,1.402.511.3888.98,1.0115,1.5427,1.1122A11.9681,11.9681,0,0,0,236.6493,62.1835Zm-83.6829-2.6167-1.4344,1.18a7.369,7.369,0,0,0,2.05,1.49,21.0868,21.0868,0,0,0,4.714.7538,6.89,6.89,0,0,0,2.33-.7915c-.5772-.7243-1.0385-1.8971-1.755-2.0821A37.796,37.796,0,0,0,152.9664,59.5668Zm95.4772-.6807-.2474,1.3281c.8212.3337,1.6678.9947,2.4582.9332a22.1554,22.1554,0,0,0,4.9388-1.0421c.6408-.2037,1.0992-.9809,1.6406-1.4971-.6067-.349-1.2584-1.0547-1.8123-.9849C253.08,57.9185,250.767,58.4445,248.4436,58.8861Zm25.3182-1.38c-1.4552-2.29-7.79-2.321-8.5715-.3826-.1609.3991.88,1.8459,1.2375,1.8C268.8386,58.6137,271.2146,58.0323,273.7618,57.5058ZM172.3256,63.9033l.0008.0559a9.077,9.077,0,0,0,2.1457-.036,11.0206,11.0206,0,0,0,2.08-.989c-.6483-.5595-1.2418-1.5017-1.9555-1.6039a29.4736,29.4736,0,0,0-5.6431-.1477c-.4772.0242-.9188.75-1.3768,1.154.4169.47.768,1.2395,1.2638,1.348A20.8092,20.8092,0,0,0,172.3256,63.9033Zm43.5174-1.9151c.2843.6646.3821,1.1068.4877,1.1087,2.7965.05,5.5948.0834,8.3888-.0046.1765-.0055.6208-1.2794.4188-1.5141a2.7708,2.7708,0,0,0-1.8382-.979,22.52,22.52,0,0,0-7.4571,1.389Zm-27.0884,2.3243v-.0554a15.3141,15.3141,0,0,0,2.7043-.0416,5.5072,5.5072,0,0,0,1.61-.9335c-.4393-.5411-.8393-1.5046-1.3247-1.55a41.4764,41.4764,0,0,0-6.2336-.07c-.4637.027-1.25.8429-1.2264,1.2584a1.8933,1.8933,0,0,0,1.229,1.33A16.8246,16.8246,0,0,0,188.7546,64.3125Zm83.2068,49.6441a33.17,33.17,0,0,0,5.5681-.4908c.6877-.1828,1.1126-1.3543,1.6568-2.0772-.7716-.3378-1.5657-.9971-2.31-.9451a18.1416,18.1416,0,0,0-4.3426.97,10.23,10.23,0,0,0-2.1424,1.3458Zm-106.7021,5.0926.7349-.8523c-.5688-.63-1.0784-1.7232-1.7173-1.8049a37.9721,37.9721,0,0,0-6.2165-.1326c-.4478.0167-.8727.6478-1.3081.9958.4227.4544.8069,1.2528,1.2746,1.3052C160.4259,118.829,162.8464,118.9056,165.2593,119.0492Zm39.1508-54.95v-.0564a18.0917,18.0917,0,0,0,3.2571-.0574c.54-.1.97-.7957,1.45-1.2222-.5235-.4909-1.0271-1.3748-1.574-1.4024a37.9642,37.9642,0,0,0-5.96.22c-.5263.0567-.9818.7695-1.47,1.1811.5251.4456.9895,1.1247,1.59,1.2808A11.0413,11.0413,0,0,0,204.41,64.0988Zm21.4653,55.0382.226-.6083a17.21,17.21,0,0,0,3.523-.0724c.5453-.116.9276-.9982,1.3837-1.5335-.5093-.35-1.0025-.9651-1.5312-.9975a12.7617,12.7617,0,0,0-3.5094.2865c-1.3022.29-3.3777-1.0267-3.6262,1.3074C222.2978,117.9284,224.6367,118.5913,225.8754,119.137Z"/><path class="cls-1" d="M175.0608,306.4793c.7614-3.4957,1.3182-6.76,2.2076-9.9315a62.27,62.27,0,0,1,3.1282-8.9063c3.3172-7.3139,7.4537-14.1207,14.0176-19.0226a114.1941,114.1941,0,0,1,11.0811-7.3311c2.1-1.2158,4.586-2.1593,7.2874-.2955a5.84,5.84,0,0,0-1.02.9535c-.2906.4745-.7482,1.1362-.6024,1.5112.1615.4154.9042.6408,1.4305.8609a1.0051,1.0051,0,0,0,.7926-.0925c3.2785-2.0241,5.34.0973,7.5985,2.0533a97.7624,97.7624,0,0,1,16.5205,19.294c2.5041,3.6764,5.05,7.3247,7.5847,10.98,1.1922,1.7189,1.0944,2.636-1.1807,3.5225a66.106,66.106,0,0,1-16.6478,4.505c-5.8134.653-11.5924,1.7141-17.42,2.1182-8.5631.5939-17.1535.8852-25.737,1.0415C181.3618,307.79,178.6068,307.0015,175.0608,306.4793Zm43.8448-22.9348c-2.32-4.05-2.29-3.99-6.38-1.9544a2.6312,2.6312,0,0,1-2.3521-.6818c-4.1534-4.7387-9.1878-6.4235-15.2918-4.7406a11.8124,11.8124,0,0,1-2.7247.8646c-2.7456.0232-6.2253,4.141-5.7462,6.8937a26.26,26.26,0,0,1,.4154,4.2676c.0217,2.6527.2979,5.0561,1.952,7.4194,3.565,5.0931,7.0838,6.904,13.8287,5.6814,3.4867-.632,8.223-3.7791,8.94-9.008.48-3.4978,1.8029-6.4283,5.5876-7.5567A7.2012,7.2012,0,0,0,218.9056,283.5445Zm-39.03,14.3c.5686.5953,1.1883,1.7086,1.6762,1.6536.8844-.1,2.2025-.7318,2.427-1.4335a21.1636,21.1636,0,0,0,.7245-5.3269c.03-.5762-.4622-1.6437-.7927-1.6752-.6485-.0617-1.7471.27-1.9607.7494C181.159,293.5883,180.6529,295.4913,179.8754,297.8444Zm20.0812,6.6443.51,1.142c2.52,0,5.0488.1157,7.5526-.0839.6028-.0481,1.1222-1.1417,1.68-1.7546-.63-.51-1.2115-1.3582-1.9018-1.4592a9.87,9.87,0,0,0-4.0594.156A19.9009,19.9009,0,0,0,199.9566,304.4887Zm5.1409-36.6648-.1208-.8954c-.7806-.1574-1.748-.6853-2.3071-.4034a23.0079,23.0079,0,0,0-4.8933,3.2029c-.4765.4215-.1338,1.7689-.1656,2.693a14.1317,14.1317,0,0,0,2.2272-.3691,4.953,4.953,0,0,0,1.6112-.9567C202.6932,270.0377,203.8849,268.9185,205.0975,267.8239Zm28.5566,33.1806a55.6528,55.6528,0,0,0,6.3767-1.9246c.6687-.285.9127-1.5662,1.3507-2.3923a8.4861,8.4861,0,0,0-2.4006-.2761c-1.3951.2383-2.736.7757-4.1188,1.1081C232.1248,298.1776,231.9529,298.6547,233.6541,301.0045Zm-45.061,4.9946a17.1435,17.1435,0,0,0,3.4954-.07c.5754-.122.9978-.9663,1.4893-1.4843-.5216-.3533-1.0068-.926-1.5713-1.0195a31.0926,31.0926,0,0,0-5.31-.5132c-.6959.006-1.3856.7363-2.0782,1.1367.5139.6512.9051,1.5479,1.5767,1.8833A5.8224,5.8224,0,0,0,188.5931,305.9991Zm29.9186-1.6969a50.2678,50.2678,0,0,0,5.889-1.3312c.6-.2086.8771-1.3438,1.3018-2.0556-.7526-.2763-1.5419-.8541-2.25-.7677a21.4947,21.4947,0,0,0-4.6812,1.1526,7.9161,7.9161,0,0,0-1.9761,1.5726Z"/><path class="cls-1" d="M169.5583,306.1125c-4.6513.4772-8.6222-1.9533-12.846-3.246a21.4884,21.4884,0,0,1-4.9934-2.4225c-.5206-.3257-.5775-1.3929-.8463-2.1213a16.53,16.53,0,0,1,2.7643-.3824c.876.0191,2.4182.6591,2.5116.4661.7513-1.5507.2758-2.6528-1.4619-3.3889a2.5365,2.5365,0,0,1-.7079-2.3783,64.493,64.493,0,0,1,5.3989-9.8018,94.61,94.61,0,0,1,10.476-12.4633c6.2467-6.0033,12.9563-11.55,22.5964-10.4615a12.6185,12.6185,0,0,1,2.1506.2994,1.3577,1.3577,0,0,1,.8583.8528,1.3973,1.3973,0,0,1-.64,1.0133A49.265,49.265,0,0,0,177.65,281.4193c-2.7366,5.3757-5.1606,10.7848-6.158,16.7421-.2706,1.6165-.9491,2.2279-2.5215,1.9805a32.1126,32.1126,0,0,0-4.3074-.5532,1.8759,1.8759,0,0,0-1.4852,1.05,1.963,1.963,0,0,0,.9414,1.6221c1.31.56,2.7871.7251,4.1026,1.2751a9.5085,9.5085,0,0,1,2.0718,1.65Q169.926,305.6494,169.5583,306.1125Z"/><path class="cls-1" d="M254.89,294.4649l-4.1667,2.6839c.0736-.8811-.0536-1.663.1824-1.7948,1.1792-.6585,2.4537-1.1465,3.6946-1.6944Z"/><path d="M291.7931,349.02c.2446-1.0985.1984-1.6655.4456-1.86.8287-.6531,1.762-1.1735,2.6554-1.7446.2761.7892.86,1.6177.7658,2.36a20.6873,20.6873,0,0,1-1.2382,4.9293c-.2893.7345-1.2491,1.2047-2.3724,2.2149-.2992-1.8085-.4525-2.7357-.6593-3.9856-.77.5091-1.3162,1.1367-1.9233,1.2031-.76.0831-2.06-.06-2.2771-.513-1.2367-2.5768-2.22-5.2752-3.3836-8.1659-2.1318-1.5034-5.1374-3.0224-7.302-5.33-1.9087-2.035-2.2037-5.0776-1.7439-7.9869.5153-3.26,5.14-7.6672,8.5382-8.0826,5.1715-.6324,9.0252,2.1145,11.68,8.46a8.3623,8.3623,0,0,1,1.5674-.7859c1.4959-.3953,2.59-.1115,2.3413,1.7926a25.7806,25.7806,0,0,1-.75,4.5615c-.3727,1.1579-.9517,2.6739-2.8075,1.4863a1.4812,1.4812,0,0,0-1.2617-.016c-3.3972,1.8364-4.5119,5.272-3.0137,9.0548C291.2743,347.1674,291.4093,347.7572,291.7931,349.02Zm-5.8147-19.1965-1.2252-.1519c-.6.8617-1.6526,1.7168-1.6653,2.587a3.04,3.04,0,0,0,1.7557,2.3,1.7165,1.7165,0,0,0,2.3025-2.0742A10.7762,10.7762,0,0,0,285.9784,329.8239Z"/><path d="M115.2623,337.36c-.0264-.2078.1589-1.2422-.2669-1.6741a78.6144,78.6144,0,0,0-6.0992-5.565c-1.1145-.9149-3.3106-6.2248-2.7816-7.6259a1.68,1.68,0,0,1,1.0867-.96,2.25,2.25,0,0,1,1.6276.4748,6.1235,6.1235,0,0,1,.9743,1.6762,50.9349,50.9349,0,0,1,4.518-4.9013,10.3183,10.3183,0,0,1,13.2743.63c3.0432,3.0144,3.6131,9.4023.9487,13.0084-1.0734,1.4527-2.4594,3.3024-4.0036,3.6549-3.7989.8671-4.703,3.3914-5.06,6.6026-.148,1.33-.4617,2.28-2.16,2.5678-3.7258.6311-3.8178.6886-4.8188-2.9546-.143-.5205-.4218-1.0086-.5267-1.5338-.2248-1.1256-.377-2.2658-.5589-3.4Zm5.3267-7.901c1.6619-1.7029,1.8908-3.7888.4026-4.7681a1.774,1.774,0,0,0-1.67.3437C117.9111,326.6237,118.3763,328.0842,120.589,329.4594Z"/><path d="M91.2334,266.7348c-.379.6552-.7054,1.6908-1.0376,1.6927a2.3011,2.3011,0,0,1-1.8359-.9528,44.1224,44.1224,0,0,1-2.1881-6.5768c-.136-.5671.7333-1.3753,1.1407-2.0727.5269.501,1.2777.9065,1.54,1.5205C89.7228,262.3864,90.4178,264.502,91.2334,266.7348Z"/><path d="M139.5664,292.8043c-1.2319,2.4-2.2928,4.6528-3.5754,6.7709-.197.3254-1.4828.2064-2.1364-.0433a1.6214,1.6214,0,0,1-.6474-1.4584,62.3316,62.3316,0,0,1,3.4524-5.9889,2.1711,2.1711,0,0,1,1.8055-.5974C138.8724,291.5458,139.1785,292.3091,139.5664,292.8043Z"/><path d="M96.5976,283.2837c-2.1315,1.1727-3.3881.6429-4.0564-1.4725a39.9867,39.9867,0,0,1-1.4456-4.5712c-.1259-.6732.4946-1.4859.7761-2.2353.7081.4182,1.7773.6705,2.0592,1.2844C94.936,278.4771,95.6733,280.7881,96.5976,283.2837Z"/><path d="M100.3867,300.4827c-1.4874-1.3554-2.4877-1.8733-2.8489-2.678A23.0853,23.0853,0,0,1,95.9,292.5119c-.0991-.5472.6964-1.5258,1.317-1.8349a2.0164,2.0164,0,0,1,1.7788.8361,41.1293,41.1293,0,0,1,2.28,5.9954C101.4533,298.1224,100.8726,298.9558,100.3867,300.4827Z"/><path d="M77.0527,221.331c-2.39.1951-3.5652-.56-3.9371-2.6778-.2462-1.4024-1.0806-2.7114-1.2557-4.1118-.0838-.671.7511-1.4569,1.17-2.1908.6625.5107,1.6891.8933,1.9219,1.5552C75.7776,216.253,76.3325,218.6954,77.0527,221.331Z"/><path d="M126.0018,313.192a60.5935,60.5935,0,0,1,2.7993-6.5532c.2708-.4821,1.7655-.4175,2.6565-.2977a3.1958,3.1958,0,0,1,.25,2.1064,25.18,25.18,0,0,1-2.0327,4.9546,2.932,2.932,0,0,1-2.2129,1.1758C126.9308,314.5794,126.3969,313.5955,126.0018,313.192Z"/><path d="M106.4945,313.1529c-.5209.6686-.8988,1.5736-1.3186,1.5935a2.27,2.27,0,0,1-1.8346-.9367,36.2409,36.2409,0,0,1-2.084-5.7935c-.1405-.5326.5737-1.2906.8956-1.9451.6462.412,1.5839.6751,1.8841,1.2635C104.9639,309.1515,105.6475,311.0925,106.4945,313.1529Z"/><path d="M72.4871,204.7626c-2.5577,1.5536-3.3034,1.2587-3.8609-1.578a25.3846,25.3846,0,0,1-.8222-3.3648,13.937,13.937,0,0,1,.5366-3.1574c.7976.76,1.9048,1.3792,2.3259,2.3094A47.854,47.854,0,0,1,72.4871,204.7626Z"/><path d="M302.8816,315.0863c-.7232,2.2085-1.244,4.0991-1.9956,5.893a1.9478,1.9478,0,0,1-1.6726.8694,1.8667,1.8667,0,0,1-.8821-1.5958,36.6076,36.6076,0,0,1,1.4388-5.6756c.2276-.6574,1.0783-1.0992,1.6446-1.6393Z"/><path d="M269.01,314.9724c.893.1876,2.2377.0762,2.596.6177a31.4281,31.4281,0,0,1,2.8632,5.7157c.1959.4911-.3742,1.8388-.6837,1.8694-.7132.0707-1.8821-.2118-2.1591-.7293-1.1289-2.11-1.9918-4.3615-2.9527-6.561Z"/><path d="M64.0214,172.3839c-2.5044,1.74-3.2556,1.4464-3.9131-1.2113-.3193-1.29-1.0527-2.4946-1.2537-3.7912-.12-.7742.1951-2.1259.7238-2.3858,1.1389-.56,2.2792-.2053,2.4978,1.4235a18.6329,18.6329,0,0,0,.6631,3.1687A25.09,25.09,0,0,0,64.0214,172.3839Z"/><path d="M242.28,265.9017c-1.5458.3054-2.8047.8847-3.1145.56a40,40,0,0,1-4.243-5.37c-.3048-.456.1376-1.4115.2363-2.1372.7075.1841,1.6732.1388,2.0768.5929C238.8114,261.3207,240.2092,263.2524,242.28,265.9017Z"/><path d="M309.4537,281.9534c-.789,2.483-1.5284,4.984-2.416,7.4312a1.8408,1.8408,0,0,1-1.4375.7975c-.2595.01-.8494-.8489-.7782-1.2158a54.8587,54.8587,0,0,1,1.6352-6.6985c.1714-.5207,1.295-.7279,1.9806-1.0793Z"/><path d="M305.3547,298.9817c-.2687,2.3142-.3364,3.87-.6753,5.3635a2.6507,2.6507,0,0,1-1.3361,1.6674,2.13,2.13,0,0,1-1.96-.403c-.3151-.3686-.054-1.3137.0905-1.9739a32.9174,32.9174,0,0,1,1.1-4.1734,11.53,11.53,0,0,1,1.4052-2.2034C304.56,297.9864,305.1409,298.7137,305.3547,298.9817Z"/><path d="M158.7972,266.7738c-1.1792,1.4125-2.2633,2.75-3.3964,4.0447a3.9149,3.9149,0,0,1-1.2579.9849,18.1325,18.1325,0,0,1-2.1645.7c-.001-1.001-.3913-2.27.0762-2.948a24.8134,24.8134,0,0,1,3.8232-4.0022,1.9922,1.9922,0,0,1,1.6637-.4231C157.9955,265.2874,158.2516,266.0146,158.7972,266.7738Z"/><path d="M260.6975,301.83c.4974-.5872.8462-1.3711,1.3455-1.4827a2.0063,2.0063,0,0,1,1.67.7634,61.41,61.41,0,0,1,3.3433,5.6938c.1922.3706-.1468,1.4706-.4242,1.5444-.7857.209-2.1739.3874-2.4246-.002C262.92,306.3483,261.9154,304.1673,260.6975,301.83Z"/><path d="M169.97,254.3532c.11,2.4783-4.4182,6.7128-6.12,6.4263a2.197,2.197,0,0,1-1.3807-1.0434,1.5623,1.5623,0,0,1,.3631-1.4161,45.788,45.788,0,0,1,4.8657-4.13C168.2033,253.8356,169.2708,254.2837,169.97,254.3532Z"/><path d="M55.2554,150.0362c.367-.309.8447-1.0279,1.3135-1.0221a2.0219,2.0219,0,0,1,1.5174,1.0621,27.3116,27.3116,0,0,1,1.5533,5.3561c.1061.6688-.7242,1.4862-1.1274,2.2358-.71-.4694-1.8548-.8046-2.0491-1.4334A54.8715,54.8715,0,0,1,55.2554,150.0362Z"/><path d="M148.5072,279.5063c-1.7191,2.1348-3.39,4.2795-5.1793,6.32-.1722.1965-1.3115-.0823-1.5843-.45a1.8559,1.8559,0,0,1-.0067-1.7043,64.3456,64.3456,0,0,1,3.8678-5.4132,2.0343,2.0343,0,0,1,1.6992-.3455C147.6632,277.9905,147.8959,278.6561,148.5072,279.5063Z"/><path d="M76.2833,228.2556c1.6968-.8993,2.8377-.6543,3.4023,1.3842.4275,1.5432,1.13,3.0175,1.47,4.5749a8.103,8.103,0,0,1-.29,2.5828c-.9308-.51-2.3834-.8087-2.6927-1.571A55.427,55.427,0,0,1,76.2833,228.2556Z"/><path d="M51.5318,133.48c2.4031-.5937,3.6523-.2182,3.8469,2.0216.149,1.7138.4706,3.4162.54,5.1309a1.6786,1.6786,0,0,1-.98,1.2929c-.454.1112-1.4326-.2666-1.5291-.6129C52.7022,138.7713,52.1583,136.1849,51.5318,133.48Z"/><path d="M64.3076,179.6585c1.2262,1.5288,1.825,1.9815,2.0154,2.567a43.4575,43.4575,0,0,1,1.5072,5.6731,2.1977,2.1977,0,0,1-.9033,1.8223,1.8875,1.8875,0,0,1-1.7646-.595,46.8869,46.8869,0,0,1-2.0845-6.81C62.9365,181.6506,63.7579,180.7808,64.3076,179.6585Z"/><path d="M323.1493,218.66a36.6748,36.6748,0,0,1-1.0295,5.5157,2.7512,2.7512,0,0,1-2.1277,1.5149c-1.3344-.1139-1.1155-1.0509-.6633-2.19.5876-1.4808.558-3.201,1.0987-4.7089.2255-.6288,1.2353-.9765,1.8886-1.4522C322.6571,217.88,322.998,218.4206,323.1493,218.66Z"/><path d="M86.3682,251.8836c-2.088.64-3.3884.3125-3.8271-1.7975a36.1029,36.1029,0,0,1-.9555-4.7611c-.0419-.6069.8178-1.2761,1.2665-1.9169.4869.51,1.2081.9378,1.4186,1.5436C85.05,247.1943,85.6615,249.4954,86.3682,251.8836Z"/><path d="M343.93,141.0832c-.5228,1.8937-.9245,3.6275-1.5135,5.2952a1.9336,1.9336,0,0,1-1.3672.9374c-.3335.051-1.1188-.5611-1.0942-.8182a43.3445,43.3445,0,0,1,.9345-6.3377c.1424-.5722,1.2934-.8935,1.9817-1.33C343.2224,139.5778,343.5737,140.3254,343.93,141.0832Z"/><path d="M246.3856,271.784c1.248,2.0151,2.5825,3.9848,3.6823,6.0778.2695.5128-.2281,1.4287-.3732,2.1593-.7432-.2856-1.7109-.37-2.1847-.8973a15.6194,15.6194,0,0,1-2.8661-4.093c-.3536-.8264.24-2.058.4061-3.1069Z"/><path d="M316.0713,250.7818c-.7313,2.1987-1.3239,4.26-2.1391,6.2288-.1964.4742-1.1305.6431-1.7253.9525-.26-.6016-.8384-1.2746-.7226-1.7922a52.2689,52.2689,0,0,1,1.808-6.1748,1.6829,1.6829,0,0,1,1.4776-.7664C315.2745,249.4058,315.58,250.1522,316.0713,250.7818Z"/><path d="M327.7067,202.6281a45.9473,45.9473,0,0,1-1.6461,6.1412c-.27.65-1.5905.8638-2.4317,1.2767a9.3367,9.3367,0,0,1-.0567-2.1589,27.65,27.65,0,0,1,1.3221-4.9447c.2392-.5862,1.2729-.9866,2.0161-1.1561C327.1821,201.7245,327.6623,202.5777,327.7067,202.6281Z"/><path d="M225.0672,247c1.8926,1.7453,3.7747,3.4413,5.5826,5.2129a1.3013,1.3013,0,0,1-.2217,1.179c-.6206.2394-1.5621.5521-1.9765.2622a42.522,42.522,0,0,1-4.728-3.8995,2.1,2.1,0,0,1-.25-1.74C223.5622,247.6753,224.251,247.4924,225.0672,247Z"/><path d="M327.8613,193.0142c.9034-1.9963,1.7528-4.0274,2.765-5.9738.1917-.3687,1.0481-.5709,1.5611-.5149.2438.0266.6643.9188.5555,1.2857-.6533,2.204-1.38,4.3924-2.2378,6.5234-.13.3234-1.1753.5731-1.609.396C328.4761,194.5591,328.299,193.793,327.8613,193.0142Z"/><path d="M308.0194,273.0364c.4587-2.2247.7485-4.1612,1.2983-6.0207.2035-.6881,1.0181-1.1956,1.5539-1.7854.3594.7086,1.0045,1.4125,1.0165,2.1269a27.8028,27.8028,0,0,1-.5117,4.0239C311.0444,273.8937,310.2212,274.257,308.0194,273.0364Z"/><path d="M317.1862,242.68c-2.2664-2.0726-1.6758-8.0455.413-8.8273.4332-.1621,1.89.9077,1.8293,1.1629C318.8479,237.4735,318.0436,239.8782,317.1862,242.68Z"/><path d="M342.1133,130.17a30.5121,30.5121,0,0,1,.4023-5.348c.1966-.7444,1.2841-1.2535,1.9689-1.8689.3944.7522,1.1563,1.5279,1.11,2.2521a25.0911,25.0911,0,0,1-.9944,5.2009c-.1281.4516-1.2215,1.1022-1.4293.9694A3.8771,3.8771,0,0,1,342.1133,130.17Z"/><path d="M337.6061,172.3718c-.7243,2.3792-1.2755,4.3686-1.9688,6.3071a1.4527,1.4527,0,0,1-1.2427.7037c-.4636-.1514-1.1646-.8636-1.09-1.1727.5684-2.3377,1.2618-4.6489,2.0394-6.9264a1.5193,1.5193,0,0,1,1.4-.3014A4.1048,4.1048,0,0,1,337.6061,172.3718Z"/><path d="M337.3874,161.4385a25.177,25.177,0,0,1,.6717-4.7841,2.4619,2.4619,0,0,1,1.9958-1.2829c1.1192.162,1.4886.8939.6925,2.17-.5643.9047-.2621,2.3073-.6573,3.3724a15.7944,15.7944,0,0,1-1.7609,2.8276C337.9289,162.7624,337.5286,161.7835,337.3874,161.4385Z"/><path d="M126.2136,112.276c2.5351.5186,4.5629.87,6.5465,1.3889a1.8288,1.8288,0,0,1,1.001,1.276c.0579.3292-.56,1.1284-.8361,1.11a69.1674,69.1674,0,0,1-7.4519-.7977c-.51-.09-.8436-1.1784-1.2585-1.8065Z"/><path d="M138.2034,57.4124c1.9462.6186,3.91,1.19,5.8228,1.899a1.42,1.42,0,0,1,.6526,1.2327c-.0985.3877-.764.9486-1.1149.9038a69.08,69.08,0,0,1-7.0667-1.2057c-.5753-.1353-.9708-1.0346-1.449-1.5827.7395-.3031,1.47-.6319,2.2239-.8941a2.2989,2.2989,0,0,1,.8085.027Z"/><path d="M194.0633,120.0581a6.7257,6.7257,0,0,1-2.1523-.0464,11.3405,11.3405,0,0,1-2.2049-1.39c.7131-.5658,1.364-1.4835,2.1526-1.623a16.6692,16.6692,0,0,1,4.857-.09c.6359.0774,1.1709.9849,1.7519,1.5144-.5644.5377-1.0454,1.3262-1.7146,1.5487a8.8986,8.8986,0,0,1-2.69.0643Z"/><path d="M177.9508,116.8677a10.31,10.31,0,0,1,2.9779.071c.6778.2131,1.1516,1.0751,1.7162,1.6482-.5623.4573-1.1438,1.325-1.6833,1.3a48.2023,48.2023,0,0,1-6.37-.8057c-.43-.0785-.7446-.7854-1.1124-1.2027.49-.3816.9377-.9934,1.48-1.0942a16.5858,16.5858,0,0,1,2.9913-.05Z"/><path d="M120.7423,55.05c2.4077.276,4.228.3668,5.98.76a2.0724,2.0724,0,0,1,1.1006,1.684c-.0346.5339-.9208,1.491-1.3363,1.4422a55.8608,55.8608,0,0,1-6.7954-1.2872,1.7166,1.7166,0,0,1-.4772-1.5058A5.3959,5.3959,0,0,1,120.7423,55.05Z"/><path d="M211.9668,119.7409c-1.5534,0-3.1154.0879-4.6543-.0615a1.6163,1.6163,0,0,1-.97-1.2751c.0679-.5575.6172-1.4437,1.0538-1.5032a59.8361,59.8361,0,0,1,6.4378-.4532,1.4671,1.4671,0,0,1,1.1729.7639,2.0156,2.0156,0,0,1-.3623,1.6887,12.5437,12.5437,0,0,1-2.5792,1.2354Z"/><path d="M145.3468,117.8845a7.3557,7.3557,0,0,1-2.6868-.07c-.8146-.3467-1.3941-1.2459-2.0762-1.9037.7051-.4412,1.4334-1.2864,2.1109-1.2475a41.2817,41.2817,0,0,1,6.0674.95c.3671.0768.91.7922.8463,1.1063-.1.4943-.5928,1.2061-1.0145,1.28a19.1126,19.1126,0,0,1-3.2479.0606Z"/><path d="M255.6518,116.07l-1.1749-1.308a6.2614,6.2614,0,0,1,1.7052-1.2278,22.9774,22.9774,0,0,1,4.9579-.9873c.7034-.0387,1.4556.8114,2.1855,1.2575-.61.6169-1.1361,1.6182-1.847,1.7734A44.4761,44.4761,0,0,1,255.6518,116.07Z"/><path d="M240.0155,118.03c-.336-.4361-1.2194-1.088-1.2305-1.7544-.0088-.5287.9878-1.4282,1.648-1.5457a28.3954,28.3954,0,0,1,5.4058-.36c.5307.0082,1.1327.61,1.5234,1.0862.1083.1321-.3511,1.0774-.6747,1.16C244.6992,117.121,242.6751,117.4859,240.0155,118.03Z"/><path d="M236.6493,62.1835a11.9681,11.9681,0,0,1-2.7033.098c-.5625-.1007-1.0317-.7234-1.5427-1.1122.4058-.4888.7724-1.3551,1.2241-1.402a54.7354,54.7354,0,0,1,6.5087-.2528c.4117.0065,1.1923.7843,1.1359,1.0782-.1046.5449-.64,1.3344-1.1051,1.4181a20.0459,20.0459,0,0,1-3.5172.0671Z"/><path d="M152.9664,59.5668a37.796,37.796,0,0,1,5.9039.55c.7165.185,1.1778,1.3578,1.755,2.0821a6.89,6.89,0,0,1-2.33.7915,21.0868,21.0868,0,0,1-4.714-.7538,7.369,7.369,0,0,1-2.05-1.49Z"/><path d="M248.4436,58.8861c2.3234-.4416,4.6361-.9676,6.9779-1.2628.5539-.07,1.2056.6359,1.8123.9849-.5414.5162-1,1.2934-1.6406,1.4971a22.1554,22.1554,0,0,1-4.9388,1.0421c-.79.0615-1.637-.5995-2.4582-.9332Z"/><path d="M273.7618,57.5058c-2.5472.5265-4.9232,1.1079-7.334,1.4174-.3574.0459-1.3984-1.4009-1.2375-1.8C265.9718,55.1848,272.3066,55.2155,273.7618,57.5058Z"/><path d="M172.3256,63.9033a20.8092,20.8092,0,0,1-3.4851-.2187c-.4958-.1085-.8469-.8784-1.2638-1.348.458-.4036.9-1.13,1.3768-1.154a29.4736,29.4736,0,0,1,5.6431.1477c.7137.1022,1.3072,1.0444,1.9555,1.6039a11.0206,11.0206,0,0,1-2.08.989,9.077,9.077,0,0,1-2.1457.036Z"/><path d="M215.843,61.9882a22.52,22.52,0,0,1,7.4571-1.389,2.7708,2.7708,0,0,1,1.8382.979c.202.2347-.2423,1.5086-.4188,1.5141-2.794.088-5.5923.0542-8.3888.0046C216.2251,63.095,216.1273,62.6528,215.843,61.9882Z"/><path d="M188.7546,64.3125a16.8246,16.8246,0,0,1-3.2418-.0624,1.8933,1.8933,0,0,1-1.229-1.33c-.0233-.4155.7627-1.2314,1.2264-1.2584a41.4764,41.4764,0,0,1,6.2336.07c.4854.0451.8854,1.0086,1.3247,1.55a5.5072,5.5072,0,0,1-1.61.9335,15.3141,15.3141,0,0,1-2.7043.0416Z"/><path d="M271.9614,113.9566l-1.57-1.1974a10.23,10.23,0,0,1,2.1424-1.3458,18.1416,18.1416,0,0,1,4.3426-.97c.7444-.052,1.5385.6073,2.31.9451-.5442.7229-.9691,1.8944-1.6568,2.0772A33.17,33.17,0,0,1,271.9614,113.9566Z"/><path d="M165.2593,119.0492c-2.4129-.1436-4.8334-.22-7.2324-.4888-.4677-.0524-.8519-.8508-1.2746-1.3052.4354-.348.86-.9791,1.3081-.9958a37.9721,37.9721,0,0,1,6.2165.1326c.6389.0817,1.1485,1.1749,1.7173,1.8049Z"/><path d="M204.41,64.0988a11.0413,11.0413,0,0,1-2.7072-.0561c-.6-.1561-1.0648-.8352-1.59-1.2808.4881-.4116.9436-1.1244,1.47-1.1811a37.9642,37.9642,0,0,1,5.96-.22c.5469.0276,1.05.9115,1.574,1.4024-.48.4265-.9094,1.122-1.45,1.2222a18.0917,18.0917,0,0,1-3.2571.0574Z"/><path d="M225.8754,119.137c-1.2387-.5457-3.5776-1.2086-3.5341-1.6178.2485-2.3341,2.324-1.0178,3.6262-1.3074a12.7617,12.7617,0,0,1,3.5094-.2865c.5287.0324,1.0219.647,1.5312.9975-.4561.5353-.8384,1.4175-1.3837,1.5335a17.21,17.21,0,0,1-3.523.0724Z"/><path d="M218.9056,283.5445a7.2012,7.2012,0,0,1-1.7711,1.1852c-3.7847,1.1284-5.1078,4.0589-5.5876,7.5567-.7172,5.2289-5.4535,8.376-8.94,9.008-6.7449,1.2226-10.2637-.5883-13.8287-5.6814-1.6541-2.3633-1.93-4.7667-1.952-7.4194a26.26,26.26,0,0,0-.4154-4.2676c-.4791-2.7527,3.0006-6.87,5.7462-6.8937a11.8124,11.8124,0,0,0,2.7247-.8646c6.104-1.6829,11.1384.0019,15.2918,4.7406a2.6312,2.6312,0,0,0,2.3521.6818C216.6159,279.5542,216.5859,279.4941,218.9056,283.5445Zm-11.7729,5.0776c-.01-4.4492-3.7566-8.57-7.7683-8.3765-4.0749.1962-7.6463,4.349-7.8338,8.6467-.143,3.2767,4.0759,8.105,8.1026,8.0318C203.8215,296.8481,207.1427,293.2334,207.1327,288.6221Z"/><path d="M179.8754,297.8444c.7775-2.3531,1.2836-4.2561,2.0743-6.0326.2136-.48,1.3122-.8111,1.9607-.7494.3305.0315.8224,1.099.7927,1.6752a21.1636,21.1636,0,0,1-.7245,5.3269c-.2245.7017-1.5426,1.3337-2.427,1.4335C181.0637,299.553,180.444,298.44,179.8754,297.8444Z"/><path d="M199.9566,304.4887a19.9009,19.9009,0,0,1,3.7814-2,9.87,9.87,0,0,1,4.0594-.156c.69.101,1.2713.9488,1.9017,1.4592-.5577.6129-1.0771,1.7065-1.68,1.7546-2.5038.2-5.0328.0839-7.5526.0839Z"/><path d="M205.0975,267.8239c-1.2126,1.0946-2.4043,2.2138-3.6484,3.2713a4.953,4.953,0,0,1-1.6112.9567,14.1317,14.1317,0,0,1-2.2272.3691c.0318-.9241-.3109-2.2715.1656-2.693a23.0079,23.0079,0,0,1,4.8933-3.2029c.5591-.2819,1.5265.246,2.3071.4034Z"/><path d="M233.6541,301.0045c-1.7012-2.35-1.5293-2.8269,1.208-3.4849,1.3828-.3324,2.7237-.87,4.1188-1.1081a8.4861,8.4861,0,0,1,2.4006.2761c-.438.8261-.682,2.1073-1.3507,2.3923A55.6528,55.6528,0,0,1,233.6541,301.0045Z"/><path d="M188.5931,306.001a5.8534,5.8534,0,0,1-2.3983-.0685c-.6716-.3354-1.0628-1.2321-1.5767-1.8833.6926-.4,1.3823-1.1307,2.0782-1.1367a31.0926,31.0926,0,0,1,5.31.5132c.5645.0935,1.05.6662,1.5713,1.0195-.4915.518-.9139,1.3623-1.4893,1.4843A17.2792,17.2792,0,0,1,188.5931,306.001Z"/><path d="M218.5117,304.3022l-1.7166-1.4293a7.9139,7.9139,0,0,1,1.976-1.5726,21.4947,21.4947,0,0,1,4.6812-1.1526c.7083-.0864,1.4976.4914,2.25.7677-.4247.7118-.7021,1.847-1.3018,2.0556A50.2678,50.2678,0,0,1,218.5117,304.3022Z"/><path class="cls-2" d="M285.9784,329.8239a10.7762,10.7762,0,0,1,1.1677,2.6611,1.7165,1.7165,0,0,1-2.3025,2.0742,3.04,3.04,0,0,1-1.7557-2.3c.0127-.87,1.0657-1.7253,1.6653-2.587Z"/><path class="cls-2" d="M120.589,329.4594c-2.2127-1.3752-2.6779-2.8357-1.2671-4.4244a1.774,1.774,0,0,1,1.67-.3437C122.48,325.6706,122.2509,327.7565,120.589,329.4594Z"/><path class="cls-2" d="M207.1327,288.6221c.01,4.6113-3.3112,8.226-7.5,8.302-4.0267.0732-8.2456-4.7551-8.1026-8.0318.1875-4.2977,3.7589-8.45,7.8338-8.6467C203.3761,280.0525,207.1232,284.1729,207.1327,288.6221Zm-7.4158,6.7461c3.68-.0387,6.4312-3.1477,6.391-7.2233-.0324-3.2851-3.654-6.5637-7.0941-6.4222-3.2767.1347-5.7757,3.3483-5.8528,7.1705A5.9928,5.9928,0,0,0,199.7169,295.3682Z"/><path d="M199.7169,295.3682a5.9928,5.9928,0,0,1-6.5559-6.475c.0771-3.8222,2.5761-7.0358,5.8528-7.1705,3.44-.1415,7.0617,3.1371,7.0941,6.4222C206.1481,292.2205,203.3974,295.33,199.7169,295.3682ZM196.0855,288.5c-.0484,2.1426,1.497,4.1236,3.2735,4.1964,1.9382.0793,3.3524-1.5944,3.4035-4.0279.0462-2.1975-1.569-4.2609-3.4213-4.0469C197.1763,284.872,196.132,286.3334,196.0855,288.5Z"/><path class="cls-2" d="M196.0876,288.5019c.0444-2.1685,1.0887-3.63,3.2536-3.88,1.8523-.214,3.4675,1.8494,3.4213,4.0469-.0511,2.4335-1.4653,4.1072-3.4035,4.0279C197.5825,292.6237,196.0371,290.6427,196.0876,288.5019Z"/></svg>