<svg id="Layer_1" data-name="Layer 1" xmlns="http://www.w3.org/2000/svg" viewBox="0 0 339.703 339.9803"><defs><style>.cls-1{fill:#7d7e84;}.cls-2{fill:#c3c3c3;}</style></defs><title>icon6</title><path d="M370.6316,190.4047c2.3686,97.8132-77.51,172.4626-168.185,173.0371-96.1155.6091-170.7987-75.1308-171.4622-168.6995C30.3121,99.94,106.118,24.0839,199.163,23.4691,294.7815,22.8373,370.9832,99.5344,370.6316,190.4047ZM202.13,30.0082c-91.158-.8494-163.261,71.3224-164.2553,162.8323-.5014,46.1431,16.8957,86.5443,50.4561,118.6859,31.1519,29.8347,69.22,45.4073,112.2149,45.0991,50.4637-.3618,93.31-20.1091,125.8767-59.0527,25.44-30.4221,38.0618-66.0488,37.8576-106.0634A162.5075,162.5075,0,0,0,202.13,30.0082Z" transform="translate(-30.98 -23.4652)"/><path class="cls-1" d="M202.13,30.0082A162.5075,162.5075,0,0,1,364.28,191.5094c.2042,40.0146-12.4174,75.6413-37.8576,106.0634-32.5662,38.9436-75.413,58.6909-125.8767,59.0527-42.9948.3082-81.063-15.2644-112.2149-45.0991-33.56-32.1416-50.9575-72.5428-50.4561-118.6859C38.8688,101.3306,110.9718,29.1588,202.13,30.0082ZM343.6687,192.4568c.9936-33.866-9.9829-68.6448-40.63-100.247-27.021-27.8627-61.2813-41.9883-100.0522-42.3767-44.4384-.4453-82.105,16.4485-111.232,50.2086-23.87,27.6671-35.0226,60.7756-33.8949,96.9873C59.2283,240.99,77.6389,277.58,111.9039,305.44c26.3633,21.4359,57.1311,30.936,90.9732,30.6978C277.5323,335.6126,345.7828,273.48,343.6687,192.4568Z" transform="translate(-30.98 -23.4652)"/><path d="M343.6687,192.4568c2.1141,81.0228-66.1364,143.1558-140.7916,143.6813-33.8421.2382-64.61-9.2619-90.9732-30.6978-34.265-27.86-52.6756-64.45-54.0448-108.4113-1.1277-36.2117,10.0248-69.32,33.8949-96.9873,29.127-33.76,66.7936-50.6539,111.232-50.2086,38.7709.3884,73.0312,14.514,100.0522,42.3767C333.6858,123.812,344.6623,158.5908,343.6687,192.4568ZM202.2968,331.6675c72.9536,1.4837,138.7114-60.9332,138-139.8455-.67-74.32-59.64-135.5962-134.087-137.8066-44.8433-1.3314-81.9686,15.431-111.1608,48.8313-22.6435,25.9076-33.4207,57.4074-32.9064,91.3976.6368,42.08,17.3393,77.929,49.8631,105.3975C137.2421,320.9558,166.5174,331.9687,202.2968,331.6675Z" transform="translate(-30.98 -23.4652)"/><path class="cls-1" d="M202.2968,331.6675c-35.7794.3012-65.0547-10.7117-90.2911-32.0257-32.5238-27.4685-49.2263-63.3172-49.8631-105.3975-.5143-33.99,10.2629-65.49,32.9064-91.3976,29.1922-33.4,66.3175-50.1627,111.1608-48.8313,74.4467,2.21,133.417,63.4866,134.087,137.8066C341.0082,270.7343,275.25,333.1512,202.2968,331.6675ZM177.8783,190.6158c-.4815.7537-.6838,1.4017-1.1238,1.7072-4.11,2.8532-8.1922,5.7566-12.4287,8.4121-2.0207,1.2667-5.0222,3.4326-6.4282,2.7653-4.6771-2.22-9.4215-2.0219-14.2192-1.9751-11.2411.1094-18.7238,7.7236-22.7277,16.2034-3.2847,6.9565-3.8,14.5036-.1712,21.8616,3.5558,7.209,8.5727,13.3328,16.3965,15.2968,19.3778,4.8644,34.3472-5.46,36.3647-25.0734.5325-5.1757,2.5438-7.5034,6.2568-9.91,5.64-3.6556,11.0516-7.661,16.6214-11.4274,2.6253-1.7754,5.2428-3.96,8.5339-.875,1.3,1.2188,3.0676,1.933,4.6028,2.9076,6.0857,3.863,12.1913,7.6962,18.2111,11.6593a4.53,4.53,0,0,1,1.6533,2.64c.7928,3.7012,1.185,7.494,2.0823,11.1656,1.5305,6.2619,5.9556,10.34,10.8874,14.1191,3.6832,2.8227,7.8175,3.2363,12.1561,3.8039,5.81.76,11.5314.28,16.1822-2.9414a36.1966,36.1966,0,0,0,10.8312-11.149c2.8127-4.9353,4.7577-10.9066,3.2015-16.8445-2.17-8.28-6.2522-15.5883-14.1009-19.7991-5.931-3.182-12.1105-5.0858-19.14-2.6824-3.7994,1.2989-7.8714,3.3487-12.1294-.6656-3.2908-3.1025-7.91-4.7806-11.88-7.1891-.8617-.5227-1.9965-1.423-2.0517-2.2157-.0555-.7988.9054-1.93,1.7162-2.4836q6.6612-4.5451,13.5-8.8255a2.6478,2.6478,0,0,1,2.3067-.1182c6.6646,4.1458,13.4374,4.6653,21.1588,2.7075,9.891-2.5078,17.07-11.826,18.4933-20.3641,1.1377-6.8262,1.2059-13.7936-3.1669-20.0279-3.5341-5.0386-7.7087-9.5147-13.6021-11.09-8.1145-2.1687-16.4629-2.7492-24.1472,2.0566-7.5279,4.7079-12.4525,11.2129-12.8613,20.2979-.1671,3.7136-1.8867,5.81-4.715,7.67-6.7353,4.43-13.3894,8.9834-20.0717,13.4939a5.3036,5.3036,0,0,1-6.76-.0108c-5.7146-3.9881-11.7856-7.4732-17.424-11.56-3.0857-2.2366-7.79-2.5679-7.9437-8.4659-.443-17.0008-21.0524-30.1912-37.54-21.5649-10.31,5.3938-16.0808,13.5131-16.377,25.0237a25.9749,25.9749,0,0,0,2.6109,11.753c3.9925,8.057,10.5051,13.5255,19.6806,14.9074a28.8077,28.8077,0,0,0,17.8114-2.7611,5.8,5.8,0,0,1,4.7259.2317C167.8368,184.1074,172.6138,187.3,177.8783,190.6158Z" transform="translate(-30.98 -23.4652)"/><path d="M177.8783,190.6158c-5.2645-3.3162-10.0415-6.5084-15.0251-9.3365a5.8,5.8,0,0,0-4.7259-.2317,28.8077,28.8077,0,0,1-17.8114,2.7611c-9.1755-1.3819-15.6881-6.85-19.6806-14.9074a25.9749,25.9749,0,0,1-2.6109-11.753c.2962-11.5106,6.0674-19.63,16.377-25.0237,16.4875-8.6263,37.0969,4.5641,37.54,21.5649.1538,5.898,4.858,6.2293,7.9437,8.4659,5.6384,4.0866,11.7094,7.5717,17.424,11.56a5.3036,5.3036,0,0,0,6.76.0108c6.6823-4.5105,13.3364-9.0638,20.0717-13.4939,2.8283-1.86,4.5479-3.9561,4.715-7.67.4088-9.085,5.3334-15.59,12.8613-20.2979,7.6843-4.8058,16.0327-4.2253,24.1472-2.0566,5.8934,1.5752,10.068,6.0513,13.6021,11.09,4.3728,6.2343,4.3046,13.2017,3.1669,20.0279-1.4231,8.5381-8.6023,17.8563-18.4933,20.3641-7.7214,1.9578-14.4942,1.4383-21.1588-2.7075a2.6478,2.6478,0,0,0-2.3067.1182q-6.8265,4.2931-13.5,8.8255c-.8108.5532-1.7717,1.6848-1.7162,2.4836.0552.7927,1.19,1.693,2.0517,2.2157,3.97,2.4085,8.5895,4.0866,11.88,7.1891,4.258,4.0143,8.33,1.9645,12.1294.6656,7.03-2.4034,13.2094-.5,19.14,2.6824,7.8487,4.2108,11.9309,11.5191,14.1009,19.7991,1.5562,5.9379-.3888,11.9092-3.2015,16.8445a36.1966,36.1966,0,0,1-10.8312,11.149c-4.6508,3.2212-10.3725,3.7014-16.1822,2.9414-4.3386-.5676-8.4729-.9812-12.1561-3.8039-4.9318-3.78-9.3569-7.8572-10.8874-14.1191-.8973-3.6716-1.29-7.4644-2.0823-11.1656a4.53,4.53,0,0,0-1.6533-2.64c-6.02-3.9631-12.1254-7.7963-18.2111-11.6593-1.5352-.9746-3.3028-1.6888-4.6028-2.9076-3.2911-3.0854-5.9086-.9-8.5339.875-5.57,3.7664-10.9816,7.7718-16.6214,11.4274-3.713,2.4068-5.7243,4.7345-6.2568,9.91-2.0175,19.6138-16.9869,29.9378-36.3647,25.0734-7.8238-1.964-12.8407-8.0878-16.3965-15.2968-3.6292-7.358-3.1135-14.9051.1712-21.8616,4.0039-8.48,11.4866-16.094,22.7277-16.2034,4.7977-.0468,9.5421-.2446,14.2192,1.9751,1.406.6673,4.4075-1.4986,6.4282-2.7653,4.2365-2.6555,8.3189-5.5589,12.4287-8.4121C177.1945,192.0175,177.3968,191.37,177.8783,190.6158Zm-11.6969,38.7065c-5.29,3.4463-10.2132,6.7822-15.2744,9.8935-2.3534,1.4465-4.6327,1.5218-6.9481-.7974-3.09-3.0951-1.3433-5.94.1753-9.4187a18.6853,18.6853,0,0,0-2.78,1.009c-3.1847,1.8708-5.67,1.35-7.8857-1.7344-1.4219-1.98-.8275-6.2618,1.2614-7.7778,3.4593-2.5107,7.0383-4.8558,10.537-7.3131,1.9271-1.3535,3.7932-2.7938,6.2186-4.5885-9.5537-2.3477-17.5786.999-23.7284,10.8306-3.3712,5.39-2.0319,17.0181,2.714,22.8159,4.9841,6.0886,15.9668,9.3089,22.212,6.5127C161.5972,244.7631,166.7683,237.4594,166.1814,229.3223Zm86.4132-21.2912c4.5822,2.9157,9.12,5.9051,13.7619,8.7224,3.2735,1.9867,5.0327,5.6835,3.8372,8.6591-1.29,3.2116-3.6439,4.1666-7.9845,3.23-.6671-.1439-1.3267-.322-2.228-.5424,1.7766,3.9406,1.5916,7.3981-.2912,8.906-2.33,1.8659-6.9913,1.5207-9.76-.6454a50.1282,50.1282,0,0,0-5.0473-3.6248c-2.3921-1.4319-4.9122-2.65-7.5854-4.0707-.78,10.3919,8.4212,18.5495,19.6927,18.9972,12.3747.4915,21.8073-9.6556,20.5566-23.327C276.6737,214.7978,267.4137,203.88,252.5946,208.0311Zm4.2978-55.359a11.0882,11.0882,0,0,0,1.4336-.4338c3.8127-1.9631,7.54-1.4282,9.3217,1.3524,1.7112,2.6712.3057,7.093-2.994,9.2662-4.779,3.1478-9.5956,6.2389-14.3525,9.42-.54.3611-.7994,1.1425-1.1889,1.729a21.2547,21.2547,0,0,0,2.232,1.4474c3.418,1.6724,6.65.9327,10.2393-.0405,8.1858-2.22,12.5-7.8278,14.6706-15.3684,2.2588-7.8464-1.5037-17.4638-10.3327-22.2717-10.5383-5.7387-21.4633-2.0868-27.4055,6.3026-1.4129,1.9947-2.09,4.51-3.1051,6.7867l1.1893.8292q3.8613-2.6437,7.7231-5.2868c2.1086-1.4395,4.0717-3.2175,6.3723-4.2171a5.724,5.724,0,0,1,7.2335,2.126C260.0317,147.1424,259.0357,149.816,256.8924,152.6721Zm-92.5611-.1974,1.2047-.79c-.784-1.5087-1.5564-3.0236-2.3539-4.5252-4.6349-8.7268-16.3726-14.3572-26.6675-8.8164-9.3781,5.0473-15.671,17.906-9.5123,28.1466,5.1572,8.5755,13.334,12.213,23.0182,10.9437a14.73,14.73,0,0,0,3.3111-1.2863,27.1825,27.1825,0,0,0-2.25-2.38,34.1982,34.1982,0,0,0-2.97-2.0594c-4.4368-2.9975-9.1027-5.7209-13.1858-9.14-1.3709-1.1481-2.0383-4.2612-1.5742-6.1118.3578-1.4268,2.8561-2.6838,4.6469-3.2711,1.5-.4915,3.3534.0954,5.2477.2175-1.0461-3.021-2.4677-6.1217.9025-8.4192,3.0608-2.0868,6.2629-1.317,9.1475.3747C157.0684,147.57,160.6613,150.0882,164.3313,152.4747Z" transform="translate(-30.98 -23.4652)"/><path class="cls-2" d="M166.1814,229.3223c.5869,8.1371-4.5842,15.4408-13.4982,19.4318-6.2452,2.7962-17.2279-.4241-22.212-6.5127-4.7459-5.7978-6.0852-17.4263-2.714-22.8159,6.15-9.8316,14.1747-13.1783,23.7284-10.8306-2.4254,1.7947-4.2915,3.235-6.2186,4.5885-3.4987,2.4573-7.0777,4.8024-10.537,7.3131-2.0889,1.516-2.6833,5.7982-1.2614,7.7778,2.2156,3.0845,4.701,3.6052,7.8857,1.7344a18.6853,18.6853,0,0,1,2.78-1.009c-1.5186,3.4783-3.2653,6.3236-.1753,9.4187,2.3154,2.3192,4.5947,2.2439,6.9481.7974C155.9682,236.1045,160.8912,232.7686,166.1814,229.3223Z" transform="translate(-30.98 -23.4652)"/><path class="cls-2" d="M252.5946,208.0311c14.8191-4.1515,24.0791,6.7667,24.9517,16.3046,1.2507,13.6714-8.1819,23.8185-20.5566,23.327-11.2715-.4477-20.4727-8.6053-19.6927-18.9972,2.6732,1.4205,5.1933,2.6388,7.5854,4.0707a50.1282,50.1282,0,0,1,5.0473,3.6248c2.769,2.1661,7.4306,2.5113,9.76.6454,1.8828-1.5079,2.0678-4.9654.2912-8.906.9013.22,1.5609.3985,2.228.5424,4.3406.9364,6.6943-.0186,7.9845-3.23,1.1955-2.9756-.5637-6.6724-3.8372-8.6591C261.7145,213.9362,257.1768,210.9468,252.5946,208.0311Z" transform="translate(-30.98 -23.4652)"/><path class="cls-2" d="M256.8924,152.6721c2.1433-2.8561,3.1393-5.53,1.0367-8.3593a5.724,5.724,0,0,0-7.2335-2.126c-2.3006,1-4.2637,2.7776-6.3723,4.2171q-3.8647,2.6387-7.7231,5.2868l-1.1893-.8292c1.0154-2.2762,1.6922-4.792,3.1051-6.7867,5.9422-8.3894,16.8672-12.0413,27.4055-6.3026,8.829,4.8079,12.5915,14.4253,10.3327,22.2717-2.1706,7.5406-6.4848,13.1487-14.6706,15.3684-3.589.9732-6.8213,1.7129-10.2393.0405a21.2547,21.2547,0,0,1-2.232-1.4474c.3895-.5865.6487-1.3679,1.1889-1.729,4.7569-3.1806,9.5735-6.2717,14.3525-9.4195,3.3-2.1732,4.7052-6.595,2.994-9.2662-1.7814-2.7806-5.509-3.3155-9.3217-1.3524A11.0882,11.0882,0,0,1,256.8924,152.6721Z" transform="translate(-30.98 -23.4652)"/><path class="cls-2" d="M164.3313,152.4747c-3.67-2.3865-7.2629-4.9046-11.0352-7.1168-2.8846-1.6917-6.0867-2.4615-9.1475-.3747-3.37,2.2975-1.9486,5.3982-.9025,8.4192-1.8943-.1221-3.7477-.709-5.2477-.2175-1.7908.5873-4.2891,1.8443-4.6469,3.2711-.4641,1.8506.2033,4.9637,1.5742,6.1118,4.0831,3.4195,8.749,6.1429,13.1858,9.14a34.1982,34.1982,0,0,1,2.97,2.0594,27.1825,27.1825,0,0,1,2.25,2.38,14.73,14.73,0,0,1-3.3111,1.2863c-9.6842,1.2693-17.861-2.3682-23.0182-10.9437-6.1587-10.2406.1342-23.0993,9.5123-28.1466,10.2949-5.5408,22.0326.09,26.6675,8.8164.7975,1.5016,1.57,3.0165,2.3539,4.5252Z" transform="translate(-30.98 -23.4652)"/></svg>