<svg id="Layer_1" data-name="Layer 1" xmlns="http://www.w3.org/2000/svg" viewBox="0 0 400 400"><defs><style>.cls-1{fill:#7d7e84;}.cls-2{fill:#c3c3c3;}</style></defs><title>pinned</title><path d="M42.184,246.3341c-5.1409-4.1686-3.0271-9.7372-4.1351-14.4746-1.1818-5.0525-2.0461-10.1892-2.8244-15.3232-.63-4.1584-.8365-8.38-1.3939-12.5511-.9009-6.7431-1.993-13.4607-2.8837-20.2049-.3255-2.4644-.1974-4.9862-.4682-7.4608-.5857-5.3521-1.37-10.6829-1.9289-16.0374-.3923-3.7591-.65-7.5392-.7875-11.3165-.4493-12.3447-.81-24.6927-1.2174-37.039a17.9372,17.9372,0,0,1,4.2207-12.095c4.5832-5.6611,9.0555-11.5,14.2842-16.5264,5.4782-5.2658,11.6871-9.8016,17.7753-14.3932,4.8046-3.6235,9.7885-7.0469,14.9206-10.1869A137.6155,137.6155,0,0,1,90.86,51.9188c5.5288-2.6123,11.1088-5.1363,16.7754-7.43,4.34-1.7566,8.8234-3.1742,13.2886-4.6,4.3721-1.396,8.8008-2.6154,13.2079-3.9011a15.0357,15.0357,0,0,1,1.5139-.3189c5.2191-.9529,10.4149-2.073,15.6646-2.8083,6.4366-.9016,12.9024-1.8246,19.384-2.1248,12.2521-.5675,24.5291-1.05,36.7869-.89,8.8121.1154,17.6176,1.2517,26.4111,2.0893,4.9374.47,9.8838,1.0471,14.7563,1.9517,8.2881,1.5388,16.5284,3.34,24.7733,5.1037a81.8127,81.8127,0,0,1,8.4,2.1766c9.2174,3.024,18.63,5.6169,27.5272,9.4091a237.18,237.18,0,0,1,28.0533,14.2565,109.8967,109.8967,0,0,1,27.0154,22.304c5.76,6.6328,7.8722,14.5264,7.2053,23.3311-.4985,6.5829-.503,13.2074-.6039,19.8153-.2522,16.5136-.25,33.0332-.7046,49.5407-.337,12.2494-1.19,24.4857-1.8988,36.7229-.207,3.5727-.14,7.3142-1.2279,10.6414-1.16,3.5469-3.5036,6.7161-5.4056,10.0067-.797,1.379-1.8062,2.6339-2.685,3.9675-1.0093,1.5316-1.225,2.5755,1.0454,3.3991,4.7671,1.73,9.4188,3.7823,14.0934,5.76,4.061,1.7184,8.0688,3.5634,12.1381,5.2615,2.3429.9776,4.7585,1.7816,7.1461,2.6509,4.554,1.6582,9.1472,3.22,13.6245,5.0637.5993.2468.9891,1.9654.8227,2.8842-.2518,1.39-.9219,3.0344-2.9456,2.2247-5.8149-2.3267-11.59-4.7514-17.3941-7.1064-2.3612-.9582-4.7648-1.8116-7.132-2.7556q-6.8221-2.72-13.6244-5.49c-3.6166-1.4636-7.2035-3.0077-10.8683-4.3376a2.5468,2.5468,0,0,0-2.2248.8449c-2.4834,3.5049-4.8072,7.1226-7.1941,10.6961-3.37,5.0459-6.7937,10.0568-10.1114,15.1367-3.054,4.6762-5.9762,9.4384-8.9974,14.1363-3.0529,4.7474-6.18,9.4472-9.23,14.1965-2.4247,3.7758-4.7777,7.5975-7.17,11.3941q-4.25,6.7452-8.512,13.483-3.8457,6.1035-7.678,12.2154c-4.5946,7.2962-9.0939,14.6553-13.84,21.8517a37.5379,37.5379,0,0,1-6.5415,7.88c-5.1079,4.3924-10.3047,3.2485-14.522-1.7834a36.7639,36.7639,0,0,1-6.721-13.049c-1.8552-6.0006-3.7118-12.0018-5.4581-18.0345a42.377,42.377,0,0,1-.8135-5.0843q-2.1089-13.1566-4.234-26.31c-.6025-3.6915-1.1194-3.9152-4.6561-3.1069a34.5322,34.5322,0,0,1-5.8938.6387,499.984,499.984,0,0,1-55.1963-.5473c-4.6134-.2713-4.4609-.3414-4.7523,4.3007-.5962,9.4978-1.2623,18.9939-2.1114,28.4717a127.7466,127.7466,0,0,1-2.05,14.19c-1.4462,7.0665-2.563,14.2871-5.9006,20.7888-2.4866,4.844-4.9,7.7973-10.4506,7.2963-3.5372-.3193-5.7065-2.7722-7.6411-5.063-5.5372-6.5573-10.6846-13.443-16.0107-20.1794q-6.6105-8.3612-13.2778-16.6772c-6.2678-7.857-12.4977-15.7447-18.8224-23.5557Q82.5741,296.2744,69.0343,279.8c-4.35-5.3043-8.8326-10.5-13.1723-15.8127-3.047-3.73-5.8219-7.6894-8.9756-11.3231-1.7628-2.0312-4.0312-.6327-5.94.1489-4.467,1.8285-8.8629,3.83-13.2921,5.7512q-10.98,4.7622-21.966,9.51c-3.5912,1.5523-7.1594,3.1641-10.7946,4.6064-1.8662.74-3.1008.3159-3.6914-2.0332-.5208-2.0719-.0011-2.94,1.833-3.7106,5.9535-2.5016,11.8326-5.18,17.7813-7.693,4.1406-1.7494,8.3719-3.2838,12.52-5.0173,3.916-1.6367,7.761-3.4425,11.666-5.1064C37.181,248.192,39.4188,247.4008,42.184,246.3341Zm286.4912-95.1312c.8656,0,1.9012.0309,2.9341-.0076,1.3638-.0508,3.0392.3221,4.03-.3274a68.24,68.24,0,0,0,8.5985-6.6227c6.6624-6.0862,13.2788-12.2624,17.5778-20.3857,1.8574-3.51,4.1058-6.8982,3.5343-11.2429-.4816-3.6617-.5376-7.3819-1.0737-11.0333-.4068-2.77-.6872-5.8149-2.0475-8.138-3.604-6.1544-9.1524-10.6559-14.7265-14.9293-5.0173-3.8464-10.338-7.3239-15.6986-10.6872a129.2436,129.2436,0,0,0-13.3064-7.3679c-5.4393-2.576-11.0518-4.8051-16.6651-6.99-6.4024-2.4918-12.7979-5.0683-19.364-7.0535-6.2725-1.8964-12.735-3.2026-19.1609-4.5435-6.6036-1.378-13.2379-2.657-19.9069-3.6592-6.3416-.9531-12.73-1.729-19.1257-2.1556-8.58-.5722-17.1851-.8527-25.7842-1.0463-17.0362-.3835-33.9694.63-50.6872,4.2-5.0223,1.0723-10.1281,1.8123-15.0809,3.1345-5.3309,1.4232-10.5517,3.2794-15.7745,5.08-4.6578,1.6062-9.3813,3.1151-13.8453,5.1682-6.7848,3.1206-13.4481,6.5311-20.0113,10.0977A122.3284,122.3284,0,0,0,71.56,70.057c-4.0125,2.804-7.9747,5.7092-11.73,8.8442-4.4781,3.738-8.8834,7.5972-13.0019,11.7218-3.5145,3.52-6.6154,7.4585-9.83,11.2706-2.4256,2.8768-4.23,6.4421-3.8156,9.9827a21.1571,21.1571,0,0,0,4.1038,9.7172,64.0081,64.0081,0,0,0,16.1071,14.8392c6.56,4.3317,13.4477,8.176,20.28,12.0795,1.5086.8619,3.3768,1.9545,4.82-.6577.46-.8332,2.0052-1.2246,3.1292-1.4636.5183-.11,1.3905.5125,1.76,1.0418.1751.2509-.3494,1.1536-.7406,1.6a31.758,31.758,0,0,1-2.3162,2.2l.3642.6295a21.4175,21.4175,0,0,0,3.4108-1.7018c1.3444-.9854,2.4122-2.3472,3.753-3.3388,2.3177-1.7143,4.7265-3.3105,7.1464-4.88,4.8218-3.128,9.5477-6.4359,14.5556-9.2359,4.7982-2.6828,9.9159-4.791,14.8713-7.1968,9.8552-4.7845,20.2428-8.1433,30.7491-11.0537a146.4338,146.4338,0,0,1,19.8187-4.0352c7.9706-1.055,16.0268-1.59,24.064-1.9618,4.1592-.1923,8.3558.6533,12.5383.6866,11.5723.0922,22.7567,2.6421,33.96,5.0974a86.3527,86.3527,0,0,1,9.13,2.4266c5.1356,1.7329,10.245,3.5678,15.2709,5.5942a164.4153,164.4153,0,0,1,15.3909,6.7967c6.8517,3.6183,13.581,7.5123,20.113,11.68,6.8065,4.3426,13.27,9.22,20.0023,13.6844,1.0866.7207,2.7908.51,4.2094.73C329.3987,154.0669,329.124,152.98,328.6752,151.2029Zm-283.959,82.851c-1.03,5.9337,2.469,9.2326,5.2716,12.7918,5.9816,7.5964,12.035,15.1363,18.0705,22.69,4.1216,5.1585,8.2206,10.3359,12.4065,15.4419,4.3876,5.3519,8.93,10.5773,13.2891,15.952,4.7835,5.898,9.4267,11.91,14.1463,17.86q4.5653,5.7554,9.1747,11.4756c5.6678,7.055,11.3667,14.0851,17.0111,21.1588,4.737,5.9364,9.5231,11.8387,14.0854,17.908,3.7608,5.0031,6.6684,3.6685,8.8294-.2675,2.7473-5.0038,3.4088-10.4642,4.9156-15.7241a67.5968,67.5968,0,0,0,1.9326-11.6322c.873-8.4267,1.5916-16.87,2.27-25.3157.7136-8.8814,1.0357-17.8028,2.0237-26.6516,1.1389-10.2,2.719-20.3553,4.3089-30.4985.74-4.72,1.8346-9.3954,2.9958-14.0341a89.9242,89.9242,0,0,1,3.0869-9.6729,106.3666,106.3666,0,0,1,4.6251-11.0267c2.3308-4.5744,4.94-9.0195,7.6508-13.3825a67.4322,67.4322,0,0,1,4.91-6.2232c-3.4075-2.1292-2.9789-2.4643-6.5878.3717-.3933.309-.6893.9058-1.1052.9873a14.6691,14.6691,0,0,1-2.6067.0789,14.1414,14.1414,0,0,1,.6207-2.9849c.2666-.6164,1.039-1.0142,1.7844-1.6907-2.0265-.6352-3.5943-1.0407-5.0986-1.613-6.7452-2.5661-13.4719-5.1808-20.2062-7.7754-2.3838-.9184-4.78-1.8048-7.1537-2.7489-6.2314-2.4787-12.4489-4.9924-18.6807-7.47-4.182-1.6627-8.4035-3.2283-12.5622-4.9466-4.0779-1.6849-8.0724-3.5718-12.1518-5.2528-4.2421-1.7482-8.5976-3.2282-12.8023-5.0578-5.2055-2.2649-10.3079-4.767-15.4531-7.17s-10.4407-4.5374-15.3949-7.286c-6.2835-3.4863-12.4282-7.2686-18.3725-11.3065-5.0886-3.4565-10.2272-6.9616-13.97-12.0524a30.0344,30.0344,0,0,0-3.4519-3.2693c0,1.7867-.0579,2.7063.01,3.6166.3986,5.382.7648,10.7676,1.259,16.1413.6982,7.5912,1.5043,15.1724,2.2528,22.759.6642,6.7325,1.2586,13.4724,1.9847,20.1982.6332,5.8648,1.3787,11.7181,2.1262,17.57.9661,7.5633,2.0236,15.1151,2.9471,22.6833.1983,1.625.59,2.4212,2.4746,2.4592a5.8324,5.8324,0,0,1,3.1341,1.7072c.9492.8227,1.5112,2.089,2.4525,2.9249,1.0269.912,1.7593,1.5032.4119,2.8062-1.2671,1.2254-2.1866,1.0085-3.1879-.18C47.2765,237.0773,46.1561,235.7565,44.7162,234.0539ZM365.8969,129.5715l-.9444-.1743c-.6127.6765-1.2531,1.33-1.8336,2.0335-3.0519,3.6969-5.6724,7.8787-9.2226,11.007a182.0319,182.0319,0,0,1-19.687,15.3769c-9.58,6.3386-19.521,12.1647-29.5484,17.78-6.7817,3.7977-13.929,6.9622-21.0041,10.2109-6.2979,2.8919-12.667,5.6465-19.1038,8.2132-7.2564,2.8935-14.4965,5.9429-21.9753,8.1342-9.0241,2.6439-18.0016,5.7225-27.5011,6.4321-.1269.0094-.24.2057-.47.4161.0809.3379.0393.906.2929,1.1137,5.1236,4.1961,8.0469,10.0779,11.0135,15.6637,3.5955,6.77,6.0636,14.1486,8.8685,21.3229,1.1132,2.8474,1.8675,5.84,2.7039,8.79,1.81,6.3814,3.6376,12.7593,5.3138,19.1762.7509,2.8745,1.1956,5.8325,1.7091,8.7649,1.3978,7.9819,2.7875,15.9655,4.1221,23.9582.7574,4.5357,1.4665,9.0815,2.0808,13.6385a169.0369,169.0369,0,0,0,6.3021,28.9687,53.7255,53.7255,0,0,0,6.8092,14.6856c2.6,3.7236,4.879,4.1489,8.0918.9685a46.3535,46.3535,0,0,0,6.0179-8.0367c2.5133-3.9112,4.6991-8.0317,7.1629-11.9765,3.2131-5.1445,6.5741-10.1964,9.8468-15.3039,2.3249-3.6283,4.5779-7.3028,6.9188-10.9205,3.671-5.6735,7.4367-11.2861,11.0743-16.9807,4.01-6.2773,7.8742-12.6476,11.8913-18.92,2.3725-3.7046,4.95-7.2774,7.3764-10.9481,2.3287-3.5223,4.5511-7.1148,6.8762-10.64,2.972-4.5056,6.0369-8.95,8.9941-13.4653,3.3375-5.0956,6.3684-10.41,9.9634-15.3136,3.2623-4.4495,5.2751-9.0862,4.7783-14.649a9.4472,9.4472,0,0,0-.3884-1.5314c-.4183.0427-.6209.0054-.75.0859-.8782.5485-1.61,2.4081-2.7419.79-.3981-.5692.3916-2.1954.95-3.1582,1.0039-1.7294,2.8607-3.1881,3.254-5a69.788,69.788,0,0,0,1.1568-11.1817c.2391-4.6287.2233-9.27.3466-13.9052.2538-9.5415.5432-19.0822.7865-28.624.1816-7.1236.3216-14.2484.4628-21.373C365.9273,133.1911,365.8969,131.381,365.8969,129.5715Zm-43.28,29.9741c-.467-.8187-.628-1.4906-1.0513-1.7829-4.3868-3.0295-8.719-6.1554-13.2569-8.9445-6.1861-3.8021-12.4465-7.505-18.843-10.9375-7.2281-3.8788-14.4281-7.9551-22.0326-10.949a209.421,209.421,0,0,0-26.329-8.2189,169.399,169.399,0,0,0-23.9841-4.13,158.6321,158.6321,0,0,0-44.8868,1.782c-4.5832.8556-9.0919,2.1177-13.6241,3.2367-4.1422,1.0226-8.2855,2.0473-12.3981,3.1808a55.7819,55.7819,0,0,0-6.53,2.2109q-6.5641,2.7205-13.03,5.6766c-4.5675,2.0879-9.3226,3.9081-13.56,6.5451-8.17,5.0843-16.0429,10.6483-24.0068,16.0607a8.1588,8.1588,0,0,0-1.4553,1.9114c3.5756,1.5737,6.7426,2.987,9.9256,4.3633q5.5089,2.3823,11.0415,4.71c5.8723,2.468,11.7429,4.9409,17.6364,7.3575,4.1647,1.7077,8.3886,3.2719,12.5458,4.9971,5.71,2.37,11.3543,4.9019,17.081,7.2306,4.4128,1.7944,8.9139,3.3707,13.3677,5.0652q10.3685,3.945,20.7262,7.9183a73.3164,73.3164,0,0,0,8.53,3.1808c4.0533.9906,7.6433,3.9677,12.1982,2.8972,1.2328-.29,2.5273-.3092,3.7888-.4859,5.9809-.8379,11.974-1.6024,17.9327-2.5765a37.96,37.96,0,0,0,6.617-1.8877q10.7976-3.8769,21.5372-7.9146c3.8231-1.4354,7.6348-2.9166,11.3759-4.5508,4.1076-1.7944,8.129-3.786,12.1859-5.696,3.4467-1.6227,6.9279-3.1774,10.3263-4.8957q7.1211-3.6,14.1344-7.4131C313.2462,164.9394,317.8385,162.2561,322.6168,159.5456ZM205.8278,273.03v-.2727c9.3686,0,18.7372-.0182,28.1057.0171,1.6556.0062,2.76-.21,2.1494-2.2968-1.8129-6.1967-3.5482-12.416-5.37-18.61a67.1823,67.1823,0,0,0-2.9736-9.178c-2.8814-6.2688-5.9859-12.4431-9.2135-18.5426A45.6933,45.6933,0,0,0,205.51,209.0837c-2.2739-1.724-3.927-1.4839-5.9523.2847-4.2726,3.7309-7.219,8.4664-9.7788,13.38-4.8912,9.3881-7.791,19.5358-10.3667,29.745-1.1857,4.7-1.7723,9.55-2.65,14.328a26.1119,26.1119,0,0,1-.7868,3.5008c-.72,2.1744-.3756,2.7051,2.0029,2.7061Q191.9028,273.0341,205.8278,273.03Zm.7741,11.7478.0012.4781q-14.9534,0-29.9066-.014c-1.2816-.0033-2.3626-.05-2.5506,1.6843-.3294,3.0372-.9126,6.0508-1.1236,9.0928-.0352.5079,1.24,1.5463,1.9658,1.6006,8.7967.6584,17.5983,1.2965,26.41,1.7055a205.654,205.654,0,0,0,37.2016-1.4374c1.8513-.25,2.6625-.8028,2.2669-2.7256-.5467-2.6571-1.0876-5.3192-1.4946-8-.2648-1.7441-.9805-2.444-2.8634-2.427C226.54,284.8254,216.5708,284.7774,206.6019,284.7774Zm31.5629-3.0854c.2187-4.7621-1.0739-6.2705-4.9457-6.1665-9.7613.2623-19.52.6623-29.2822.85-8.7655.1685-17.5379.2742-26.3011.099-3.0342-.0608-2.7746,1.7364-2.9695,3.574-.2617,2.4692,1.6159,1.7436,2.7935,1.7436,13.153,0,26.306-.0652,39.4591-.097C223.9555,281.678,230.9921,281.692,238.1648,281.692Z"/><path class="cls-1" d="M328.6752,151.2029c.4488,1.7768.7235,2.864.9982,3.9512-1.4187-.22-3.1229-.0093-4.2095-.73-6.7322-4.4646-13.1958-9.3418-20.0023-13.6844-6.532-4.1674-13.2613-8.0614-20.113-11.68a164.4153,164.4153,0,0,0-15.3909-6.7967c-5.0259-2.0264-10.1353-3.8613-15.2709-5.5942a86.3527,86.3527,0,0,0-9.13-2.4266c-11.2029-2.4553-22.3873-5.0052-33.96-5.0974-4.1825-.0333-8.3791-.8789-12.5383-.6866-8.0372.3715-16.0934.9068-24.064,1.9618a146.4338,146.4338,0,0,0-19.8187,4.0352c-10.5063,2.91-20.8939,6.2692-30.7491,11.0537-4.9554,2.4058-10.0731,4.514-14.8713,7.1968-5.0079,2.8-9.7338,6.1079-14.5556,9.2359-2.42,1.57-4.8287,3.166-7.1464,4.88-1.3408.9916-2.4086,2.3534-3.753,3.3388a21.4175,21.4175,0,0,1-3.4108,1.7018l-.3642-.6295a31.758,31.758,0,0,0,2.3162-2.2c.3912-.4467.9157-1.3494.7406-1.6-.3694-.5293-1.2416-1.152-1.76-1.0418-1.124.239-2.669.63-3.1292,1.4636-1.443,2.6122-3.3112,1.52-4.82.6577-6.8324-3.9035-13.72-7.7478-20.28-12.0795a64.0081,64.0081,0,0,1-16.1071-14.8392,21.1571,21.1571,0,0,1-4.1038-9.7172c-.4146-3.5406,1.39-7.1059,3.8156-9.9827,3.2143-3.8121,6.3152-7.7507,9.83-11.2706,4.1185-4.1246,8.5238-7.9838,13.0019-11.7218,3.7556-3.135,7.7178-6.04,11.73-8.8442a122.3284,122.3284,0,0,1,11.531-7.3633c6.5632-3.5666,13.2265-6.9771,20.0113-10.0977,4.464-2.0531,9.1875-3.562,13.8453-5.1682,5.2228-1.801,10.4436-3.6572,15.7745-5.08,4.9528-1.3222,10.0586-2.0622,15.0809-3.1345,16.7178-3.57,33.651-4.5834,50.6872-4.2,8.5991.1936,17.204.4741,25.7842,1.0463,6.3961.4266,12.7841,1.2025,19.1257,2.1556,6.669,1.0022,13.3033,2.2812,19.9069,3.6592,6.4259,1.3409,12.8884,2.6471,19.1609,4.5435,6.5661,1.9852,12.9616,4.5617,19.364,7.0535,5.6133,2.1847,11.2258,4.4138,16.6651,6.99a129.2436,129.2436,0,0,1,13.3064,7.3679c5.3606,3.3633,10.6813,6.8408,15.6986,10.6872,5.5741,4.2734,11.1225,8.7749,14.7265,14.9293,1.36,2.3231,1.6407,5.3683,2.0475,8.138.5361,3.6514.5921,7.3716,1.0737,11.0333.5715,4.3447-1.6769,7.7331-3.5343,11.2429-4.299,8.1233-10.9154,14.2995-17.5778,20.3857a68.24,68.24,0,0,1-8.5985,6.6227c-.99.65-2.6659.2766-4.03.3274C330.5764,151.2338,329.5408,151.2029,328.6752,151.2029ZM95.2093,134.6106a18.9007,18.9007,0,0,0-2.35,1.2547,30.379,30.379,0,0,1-3.5718,2.8023c-1.3243.6893-1.7849,1.6234-.84,2.5184a3.3873,3.3873,0,0,0,3.0464.7041,21.8937,21.8937,0,0,0,4.6305-3.821,3.232,3.232,0,0,0,.59-2.331C96.6774,135.3415,95.7933,135.0229,95.2093,134.6106Zm8.5385-2.3589c.7508-.3507,1.2164-.5251,1.639-.7729,1.8851-1.1056,3.8213-2.143,5.5967-3.4052.5352-.38.6114-1.4065.8979-2.1368-.9254-.2644-2.0464-.9952-2.7392-.7047a29.9906,29.9906,0,0,0-5.6917,3.2451,3.3055,3.3055,0,0,0-.79,2.3544C102.6483,131.2866,103.348,131.7607,103.7478,132.2517Zm31.6288-16.2035c2.3881-.8707,4.3389-1.73,6.3735-2.2769,1.61-.433,2.7315-1.2494,1.8-2.7551-.4189-.677-2.2483-.9035-3.2943-.6758a19.61,19.61,0,0,0-5.086,2.0431,2.7332,2.7332,0,0,0-1.116,2.0708C134.0511,114.9928,134.9206,115.5356,135.3766,116.0482Zm71.7345-12.6457,0,.143a9.1111,9.1111,0,0,0,2.7922-.0672c.7045-.2381,1.2107-1.0633,1.8046-1.6285-.5917-.5585-1.1393-1.53-1.7834-1.5989a32.2251,32.2251,0,0,0-6.128-.0337c-.6146.0523-1.5964.9007-1.6193,1.4195a2.2445,2.2445,0,0,0,1.376,1.687A15.3984,15.3984,0,0,0,207.1111,103.4025Zm-87.77,19.3963a7.3059,7.3059,0,0,0,1.2274-.2026c1.7795-.766,3.508-1.6784,5.3374-2.2919,1.3826-.4637,1.9749-1.3414,1.2287-2.4055a2.8926,2.8926,0,0,0-2.6321-.598,36.9753,36.9753,0,0,0-5.4525,2.6382,7.4525,7.4525,0,0,0-1.4726,1.46Zm32.88-12.7317c2.7936-.7271,5.1888-1.2835,7.5226-2.0314.3429-.11.66-1.2133.5046-1.7037a1.8283,1.8283,0,0,0-1.4175-1.05,53.3254,53.3254,0,0,0-6.9612,1.4936c-.638.1894-1.0245,1.2257-1.5264,1.8735Zm18.0209-4.3131c2.1185-.2178,3.7282-.4539,5.3453-.5275,1.3352-.0607,2.066-.7134,1.5851-1.9029-.2812-.6955-1.3692-1.5962-1.9959-1.526a59.5879,59.5879,0,0,0-6.9381,1.4024c-.3417.08-.85.5329-.838.793a1.5691,1.5691,0,0,0,.65,1.2079A11.916,11.916,0,0,0,170.2413,105.754Zm58.38-.065c.0084-3.5009-6.0633-5.3578-9.8046-3.2319C221.3943,105.7843,225.0952,105.0671,228.6211,105.689Zm65.7029,21.97c-.2907-.6362-.3313-.97-.5064-1.0712-2.41-1.3987-4.8158-2.8077-7.2874-4.09-.3335-.173-1.1751.1993-1.4888.568a1.4255,1.4255,0,0,0,.1086,1.395,74.6392,74.6392,0,0,0,6.9052,4.122C292.5238,128.82,293.525,128.0068,294.324,127.659ZM189.3007,103.57v-.0714a9.8871,9.8871,0,0,0,2.7936-.0546c.9919-.3047,2.6731-1.1057,2.6286-1.5477-.1536-1.5276-1.4394-2.07-2.9952-1.8248-1.83.2884-3.6852.4443-5.49.84-.56.1228-.99.8385-1.48,1.2827.4922.4588.9235,1.1888,1.49,1.3159A14.2153,14.2153,0,0,0,189.3007,103.57Zm64.1479,5.2616-.6547.7427c.277.7559.351,1.9546.8662,2.1906a51.152,51.152,0,0,0,6.6716,2.4195,1.7617,1.7617,0,0,0,1.5557-.78c.1742-.4826-.123-1.5931-.4917-1.7405C258.7864,110.62,256.1062,109.7543,253.4486,108.8316Zm-17.0616-4.5228c-.4215,1.5386-.6016,2.8421,1.525,3.3268,1.6426.3743,3.2558.9184,4.9151,1.1609.8116.1186,2.2014-.0149,2.4515-.4933.6087-1.1644-.0274-2.0072-1.4538-2.284C241.4245,105.5536,239.0546,104.9316,236.387,104.3088Zm70.543,33.267,1.9972-1.3325a5.9581,5.9581,0,0,0-1.2-1.5867c-1.6853-1.0991-3.4357-2.1062-5.2122-3.0524a5.5477,5.5477,0,0,0-1.7636-.2816c-.0387.81-.4194,2.0876-.059,2.3507C302.6363,135.0924,304.7638,136.26,306.93,137.5758ZM269.1333,114.64c.3949,1.6849.3433,3.0029.82,3.2345a55.2436,55.2436,0,0,0,6.8365,2.6421c.309.1022,1.124-.4849,1.2458-.8906a1.6086,1.6086,0,0,0-.5251-1.4661C275.0124,117.02,272.4534,116.0125,269.1333,114.64Zm52.278,32.9011c.6219-.4354,1.4-.7051,1.5945-1.2028a1.9433,1.9433,0,0,0-.6493-1.604,34.8493,34.8493,0,0,0-3.4352-2.5745c-1.0964-.7508-2.1937-2.7337-3.5829-1.2609-1.8078,1.9166.8591,2.4895,1.7415,3.3884A34.4818,34.4818,0,0,0,321.4113,147.5414Z"/><path class="cls-1" d="M44.7162,234.0539c1.44,1.7026,2.56,3.0234,3.6761,4.348,1.0013,1.1886,1.9208,1.4055,3.1879.18,1.3474-1.303.615-1.8942-.4119-2.8062-.9413-.8359-1.5033-2.1022-2.4525-2.9249a5.8324,5.8324,0,0,0-3.1341-1.7072c-1.8843-.038-2.2763-.8342-2.4746-2.4592-.9235-7.5682-1.981-15.12-2.9471-22.6833-.7475-5.8518-1.493-11.7051-2.1262-17.57-.7261-6.7258-1.3205-13.4657-1.9847-20.1982-.7485-7.5866-1.5546-15.1678-2.2528-22.759-.4942-5.3737-.86-10.7593-1.259-16.1413-.0674-.91-.01-1.83-.01-3.6166a30.0344,30.0344,0,0,1,3.4519,3.2693c3.7428,5.0908,8.8814,8.5959,13.97,12.0524,5.9443,4.0379,12.089,7.82,18.3725,11.3065,4.9542,2.7486,10.2494,4.8826,15.3949,7.286s10.2476,4.9054,15.4531,7.17c4.2047,1.83,8.56,3.31,12.8023,5.0578,4.0794,1.681,8.0739,3.5679,12.1518,5.2528,4.1587,1.7183,8.38,3.2839,12.5622,4.9466,6.2318,2.4777,12.4493,4.9914,18.6807,7.47,2.3735.9441,4.77,1.8305,7.1537,2.7489,6.7343,2.5946,13.461,5.2093,20.2062,7.7754,1.5043.5723,3.0721.9778,5.0986,1.613-.7454.6765-1.5178,1.0743-1.7844,1.6907a14.1414,14.1414,0,0,0-.6207,2.9849,14.6691,14.6691,0,0,0,2.6067-.0789c.4159-.0815.7119-.6783,1.1052-.9873,3.6089-2.836,3.18-2.5009,6.5878-.3717a67.4322,67.4322,0,0,0-4.91,6.2232c-2.711,4.363-5.32,8.8081-7.6508,13.3825a106.3666,106.3666,0,0,0-4.6251,11.0267,89.9242,89.9242,0,0,0-3.0869,9.6729c-1.1612,4.6387-2.256,9.3143-2.9958,14.0341-1.59,10.1432-3.17,20.2985-4.3089,30.4985-.988,8.8488-1.31,17.77-2.0237,26.6516-.6785,8.4452-1.3971,16.889-2.27,25.3157a67.5968,67.5968,0,0,1-1.9326,11.6322c-1.5068,5.26-2.1683,10.72-4.9156,15.7241-2.161,3.936-5.0686,5.2706-8.8294.2675-4.5623-6.0693-9.3484-11.9716-14.0854-17.908-5.6444-7.0737-11.3433-14.1038-17.0111-21.1588q-4.6009-5.727-9.1747-11.4756c-4.72-5.95-9.3628-11.9618-14.1463-17.86-4.3589-5.3747-8.9015-10.6-13.2891-15.952-4.1859-5.106-8.2849-10.2834-12.4065-15.4419-6.0355-7.5539-12.0889-15.0938-18.0705-22.69C47.1852,243.2865,43.6866,239.9876,44.7162,234.0539ZM126.74,271.3631v-.059a58.0057,58.0057,0,0,0-5.9246.0448,22.6279,22.6279,0,0,0-5.6326,1.207c-4.1976,1.5842-4.6955,6.3444-4.1115,9.77.52,3.0489,3.7226,5.5056,7.1425,5.5637,5.24.089,10.4848.109,15.722-.04a10.1319,10.1319,0,0,0,4.9261-1.1907c3.2957-2.071,4.3314-6.37,2.9734-10.562-.7457-2.3019-4.5057-4.6676-7.62-4.7249C131.7243,271.3266,129.2317,271.3631,126.74,271.3631ZM68.4529,256.9305a14.421,14.421,0,0,0-2.3665,1.9735c-.1829.2266.2984,1.1845.679,1.6356a56.1875,56.1875,0,0,0,4.2556,4.6656c.5246.496,1.5178.4961,2.2969.7227.1546-.9262.7547-2.1312.3817-2.7275a55.1148,55.1148,0,0,0-4.1911-5.3916A7.69,7.69,0,0,0,68.4529,256.9305ZM57.2668,243.705c-.7624.4714-1.6988.7285-1.8923,1.2575a2.6232,2.6232,0,0,0,.5049,2.0751c1.0676,1.42,2.5411,2.5721,3.427,4.081.9064,1.544,2.1236,1.6533,3.193.906,1.3594-.95.68-2.2459-.225-3.2965-1.046-1.2137-2.07-2.4486-3.1693-3.6129A14.8547,14.8547,0,0,0,57.2668,243.705Zm28.114,34.1821a49.8411,49.8411,0,0,0-4.1012-5.8286c-.6428-.7-2.2015-.5585-3.3435-.8.1156,1.0061-.0549,2.1779.4106,2.9814.7928,1.3687,2.1281,2.4159,2.9778,3.7609C82.7372,280.2376,83.9236,279.6656,85.3808,277.8871ZM101.0277,297.72c-.66.5068-1.6175.8862-1.8546,1.5306a2.8088,2.8088,0,0,0,.6754,2.1283,19.02,19.02,0,0,0,3.243,3.5333,11.1146,11.1146,0,0,0,3.1921,1.1846c-.13-1.1772.0829-2.5588-.4683-3.4858a27.7122,27.7122,0,0,0-3.5587-4.2A5.14,5.14,0,0,0,101.0277,297.72ZM90.131,284.4575c-.7223.4088-1.5784.62-1.8731,1.1467a2.1456,2.1456,0,0,0,.3949,1.8293,38.2988,38.2988,0,0,0,3.9545,4.5824c.5666.5365,1.684.4915,2.55.7114.0679-.9692.5137-2.1409.1254-2.8658a23.1266,23.1266,0,0,0-3.1761-4.1841A8.3419,8.3419,0,0,0,90.131,284.4575Zm60.1162,75.6032-.6275-.8028c-.2565-.4122-.4918-.84-.7734-1.2339a45.51,45.51,0,0,0-3.2949-4.4527,8.4559,8.4559,0,0,0-2.6224-1.3262c-.0769,1.1357-.5641,2.4626-.143,3.3661a25.268,25.268,0,0,0,3.2773,4.7992,2.3758,2.3758,0,0,0,1.7813.9281A8.6711,8.6711,0,0,0,150.2472,360.0607Zm-10.9033-14.4916c-1.9188-2.3053-3.6453-4.4822-5.5171-6.526a2.0725,2.0725,0,0,0-1.8191-.0692,2.9592,2.9592,0,0,0-.2579,2.3206,50.5578,50.5578,0,0,0,4.2908,5.6377c.2929.3393,1.3235.3085,1.8682.0883C138.4551,346.8,138.8194,346.1287,139.3439,345.5691Zm-21.9313-27.8168c-1.1014-1.4421-2.4823-3.4093-4.0566-5.2072-.4291-.49-1.44-.4709-2.1837-.6854-.1834.8216-.7948,1.9174-.4749,2.4167a39.6712,39.6712,0,0,0,4.4064,5.7358C116.0318,321.0023,117.3135,320.0906,117.4126,317.7523Zm42.8358,29.9128a8.587,8.587,0,0,0-2.1948-1.602c-.4158-.15-1.5133.5074-1.71,1.0239-.8662,2.2794-1.5664,4.6273-2.2011,6.9841-.1183.4391.24,1.3883.555,1.4775.5415.1531,1.5821.0148,1.7852-.35C157.736,352.9454,158.8132,350.5948,160.2484,347.6651Zm.777-64.2786h-.1338a6.9252,6.9252,0,0,0,.0395,2.0457c.2724.8405.7405,2.1909,1.2706,2.2639,1.4276.1968,2.3745-.6839,2.3473-2.314a48.0531,48.0531,0,0,0-.0531-4.8818c-.0848-.7075-.8472-1.3338-1.302-1.9969-.7228.5989-1.7659,1.0649-2.0842,1.8318A8.493,8.493,0,0,0,161.0254,283.3865Zm-38.72,41.4769c-.4517.2445-1.251.4954-1.24.7014a6.7393,6.7393,0,0,0,.5812,3.1361,23.28,23.28,0,0,0,3.4892,4.0554c.4747.4606,1.3669.491,2.0687.7175.16-.7645.7087-1.77.4109-2.2515a70.2016,70.2016,0,0,0-4.1469-5.7293C123.2416,325.197,122.7575,325.0984,122.3053,324.8634Zm58.2-113.337-.9942-.1835c-1.5662,2.3246-3.2135,4.6013-4.6335,7.012-.3023.5131.2232,1.5137.3674,2.29.6641-.2021,1.5992-.1953,1.9445-.6432a37.0775,37.0775,0,0,0,3.7431-5.6256C181.2888,213.6812,180.6761,212.4905,180.5057,211.5264Zm-19.5833,94.3184c2.6831-2.0094,4.1064-7.364,2.9941-9.4963a1.9132,1.9132,0,0,0-1.6358-.8078,2.2528,2.2528,0,0,0-1.4438,1.3867,21.0642,21.0642,0,0,0-.3257,4.3437C160.5239,302.6207,160.7436,303.9685,160.9224,305.8448Zm7.4594-60.1766c-.25-.3353-.6188-1.3223-1.245-1.5288-.6022-.1986-2.0524.2973-2.1275.6833a56.0177,56.0177,0,0,0-.8873,7.383c-.0279.4708.7875.9915,1.2138,1.4892.4607-.4249,1.1786-.7713,1.3368-1.2887C167.2894,250.389,167.7289,248.3175,168.3818,245.6682Zm-5.5072,71.6462.1245,0a15.9052,15.9052,0,0,0-.0509-3.0739,6.4039,6.4039,0,0,0-1.1531-1.8783c-.5384.5364-1.4683,1.0223-1.545,1.6181a42.5984,42.5984,0,0,0-.32,6.65c.0161.5584.9,1.0917,1.3854,1.6366.52-.5373,1.3439-1.0028,1.4911-1.6279A14.8054,14.8054,0,0,0,162.8746,317.3144Zm-.4988,12.7092-.9537-.5286c-.982.6149-2.6566,1.0909-2.8132,1.8715a29.6994,29.6994,0,0,0-.216,6.6363c.0114.3953.6545.9554,1.1112,1.095.3438.1051,1.1821-.2705,1.2429-.5523C161.3561,335.7191,161.85,332.8679,162.3758,330.0236ZM173.35,228.9081c-.3844-.5881-.6983-1.5026-1.0575-1.5207a2.2293,2.2293,0,0,0-1.8148.8283,49.9462,49.9462,0,0,0-2.3767,6.0955c-.1709.5324.2762,1.2631.4393,1.9027.8172-.2476,2.1166-.2637,2.3663-.7839A69.2792,69.2792,0,0,0,173.35,228.9081Zm-8.36,32.3038-.8154-.6084c-.5646.782-1.4842,1.5062-1.6229,2.3576a34.51,34.51,0,0,0-.3315,6.1145c.01.5606.6906,1.11,1.0635,1.6642.5688-.469,1.5991-.91,1.6293-1.4118C165.0761,266.6309,164.99,263.9188,164.99,261.2119ZM104.9191,232.11l.6058-1.09c-.6833-.2761-1.43-.86-2.0309-.736a2.086,2.086,0,0,0-1.2393,1.564c-.0273.44.7771,1.1433,1.34,1.3209C103.8953,233.2631,104.4689,232.4907,104.9191,232.11Z"/><path class="cls-1" d="M365.8969,129.5715c0,1.81.03,3.62-.0054,5.4284-.1412,7.1246-.2812,14.2494-.4628,21.373-.2433,9.5418-.5327,19.0825-.7865,28.624-.1233,4.6351-.1075,9.2765-.3466,13.9052a69.788,69.788,0,0,1-1.1568,11.1817c-.3933,1.8122-2.25,3.2709-3.254,5-.5589.9628-1.3486,2.589-.95,3.1582,1.1316,1.6179,1.8637-.2417,2.7419-.79.129-.0805.3316-.0432.75-.0859a9.4472,9.4472,0,0,1,.3884,1.5314c.4968,5.5628-1.516,10.2-4.7783,14.649-3.595,4.9035-6.6259,10.218-9.9634,15.3136-2.9572,4.5152-6.0221,8.96-8.9941,13.4653-2.3251,3.5248-4.5475,7.1173-6.8762,10.64-2.4267,3.6707-5.0039,7.2435-7.3764,10.9481-4.0171,6.2726-7.8815,12.6429-11.8913,18.92-3.6376,5.6946-7.4033,11.3072-11.0743,16.9807-2.3409,3.6177-4.5939,7.2922-6.9188,10.9205-3.2727,5.1075-6.6337,10.1594-9.8468,15.3039-2.4638,3.9448-4.65,8.0653-7.1629,11.9765a46.3535,46.3535,0,0,1-6.0179,8.0367c-3.2128,3.18-5.4917,2.7551-8.0918-.9685a53.7255,53.7255,0,0,1-6.8092-14.6856,169.0369,169.0369,0,0,1-6.3021-28.9687c-.6143-4.557-1.3234-9.1028-2.0808-13.6385-1.3346-7.9927-2.7243-15.9763-4.1221-23.9582-.5135-2.9324-.9582-5.89-1.7091-8.7649-1.6762-6.4169-3.5041-12.7948-5.3138-19.1762-.8364-2.95-1.5907-5.9423-2.7039-8.79-2.8049-7.1743-5.273-14.5531-8.8685-21.3229-2.9666-5.5858-5.89-11.4676-11.0135-15.6637-.2536-.2077-.212-.7758-.2929-1.1137.23-.21.3433-.4067.47-.4161,9.4995-.71,18.477-3.7882,27.5011-6.4321,7.4788-2.1913,14.7189-5.2407,21.9753-8.1342,6.4368-2.5667,12.8059-5.3213,19.1038-8.2132,7.0751-3.2487,14.2224-6.4132,21.0041-10.2109,10.0274-5.6153,19.9688-11.4414,29.5484-17.78a182.0319,182.0319,0,0,0,19.687-15.3769c3.55-3.1283,6.1707-7.31,9.2226-11.007.5805-.7032,1.2209-1.357,1.8336-2.0335ZM288.3918,287.2369l.0538-.4072c1.8061,0,3.6153.0673,5.4177-.0137,4.04-.1816,7.95-2.7288,8.9167-5.7235,1.8677-5.7865-1.7229-10.7249-7.87-10.8485-3.2606-.0656-6.5852.2057-9.7659-.3425-5.1-.8789-10.0107,1.0074-12.4234,5.4-1.8139,3.3028,1.1083,9.8084,4.8075,10.4423C281.1291,286.3613,284.7691,286.7487,288.3918,287.2369Zm-61.5272-74.38c-.63.3133-1.4446.4629-1.5829.8525a2.2614,2.2614,0,0,0,.4356,1.7005,29.9765,29.9765,0,0,0,3.5037,4.5966c.6633.65,1.9862.6268,3.0105.9083-.0945-1.021.1343-2.245-.3522-3.02a29.1235,29.1235,0,0,0-3.5209-4.1617A6.1467,6.1467,0,0,0,226.8646,212.8564ZM257.8406,318.23c-.6642-2.402-1.1605-4.5385-1.8955-6.5894-.1626-.4535-1.17-.6044-1.7879-.8947-.2614.5837-.8116,1.21-.7333,1.7436a44.0222,44.0222,0,0,0,1.3091,6.2281c.1959.655,1.1411,1.0859,1.7436,1.6192ZM240.967,234.9116c-1.1108-2.4513-1.9619-4.6634-3.137-6.6874-.2924-.5037-1.6316-.4-2.49-.5751-.0833.7-.4211,1.494-.203,2.0821a31.6063,31.6063,0,0,0,2.51,5.4881c.3314.5437,1.5934.6557,2.4387.6829C240.4158,235.9128,240.771,235.1467,240.967,234.9116Zm10.7985,50.2028a52.1933,52.1933,0,0,0-.7142-6.3138c-.1587-.6722-1.2578-1.1224-1.9279-1.6738-.4493.7462-1.3079,1.5154-1.2678,2.2343a24.9,24.9,0,0,0,1.0032,5.46c.2162.75,1.03,1.327,1.5716,1.9826Zm23.4273,65.08c1.08-.4187,1.6718-.4575,1.832-.7406,1.24-2.1917,2.4391-4.41,3.5215-6.682.1265-.2656-.4492-1.1688-.8535-1.3a1.7053,1.7053,0,0,0-1.4958.5485,48.87,48.87,0,0,0-3.6918,5.6979C274.23,348.2418,274.9112,349.269,275.1928,350.1945Zm-18.19-21.4543c.3818,2.2143.6851,3.97.9868,5.7269.0433.2516-.0141.6122.133.7386.6928.595,1.4406,1.1259,2.1688,1.68.3465-.8158,1.0986-1.7083.9617-2.4328a34.1738,34.1738,0,0,0-1.7712-5.8135c-.2119-.5532-.9934-.8883-1.5137-1.3233C257.5771,327.893,257.1859,328.47,257.0029,328.74Zm44.4888-23.597c1.9178,1.81,2.5665,1.744,3.79-.3552.8876-1.5228,1.8877-2.9888,2.6522-4.57.27-.5585-.0092-1.3826-.0376-2.0855-.8021.2162-1.9562.1715-2.3439.6948C304.0657,300.834,302.8249,303.0228,301.4917,305.1432Zm-55.7224-54.0289a49.5415,49.5415,0,0,0-1.35-6.3929c-.1994-.582-1.6018-.7518-2.4532-1.1105-.2829.69-.9236,1.4647-.7827,2.0526a33.2239,33.2239,0,0,0,1.87,5.5c.2625.6023,1.1227.9443,1.71,1.4052Zm108.3593-26.4635c-.7566.3428-1.1723.3952-1.3334.6255-1.3839,1.9781-2.7805,3.9532-4.02,6.021a1.7677,1.7677,0,0,0,.4306,1.6969c.531.2844,1.7268.3159,1.9764-.027a44.4662,44.4662,0,0,0,3.7076-5.9416C355.1436,226.5271,354.437,225.5393,354.1286,224.6508Zm-15.2469,22.4108c1.4156,1.3029,2.4538,1.8326,3.4339-.4715.6827-1.605,1.9825-2.9383,2.7855-4.5062.2858-.5579-.08-1.45-.1486-2.1889-.8653.2328-2.1433.1877-2.5209.7487C341.1231,242.5877,340.1276,244.7425,338.8817,247.0616ZM249.27,266.4355a17.8175,17.8175,0,0,0-.6938-4.3879c-.3383-.8337-1.6353-1.2782-2.5015-1.8976-.2787.7785-.8831,1.6064-.7739,2.3261a47.2127,47.2127,0,0,0,1.4248,5.928,1.3831,1.3831,0,0,0,1.0549.81,1.8869,1.8869,0,0,0,1.3284-.8307A5.5346,5.5346,0,0,0,249.27,266.4355ZM336.776,255.689c-.6188-.6914-.9964-1.4483-1.346-1.4355-.777.0284-1.8761.2082-2.2473.7416a34.3509,34.3509,0,0,0-3.2067,5.622c-.4724,1.0623.4676,2.5814,1.4179,1.7186C333.4409,260.4771,334.9486,258.0248,336.776,255.689Zm-86.0552,41.4963-.1284.0261a38.5882,38.5882,0,0,0,.8672,4.7683c.1828.6067,1.0931.9943,1.6721,1.4816.5263-.686,1.5478-1.4187,1.4883-2.0494a37.1255,37.1255,0,0,0-1.2723-6.2068,1.76,1.76,0,0,0-1.3542-1.0359c-.4588.0437-1.013.7174-1.2269,1.2385A4.9952,4.9952,0,0,0,250.7208,297.1853Zm76.5012-27.2481c-.4923-.3732-.9725-1.0211-1.3607-.97a3.1842,3.1842,0,0,0-2.0319.9645,38.5257,38.5257,0,0,0-2.8729,4.7744,5.9849,5.9849,0,0,0-.2843,1.9456c.9068-.0994,2.1974.14,2.6442-.3652a27.5952,27.5952,0,0,0,2.6629-4.2675Zm-59.3454,81.88c.49-.2846,1.1038-.4363,1.2809-.8a1.6789,1.6789,0,0,0-.1556-1.421,56.4622,56.4622,0,0,0-3.9078-5.2689,2.5577,2.5577,0,0,0-2.16-.2888c-.2647.0711-.55,1.4049-.29,1.8545a44.3728,44.3728,0,0,0,3.4127,5.0087C266.4233,351.3728,267.2263,351.5058,267.8766,351.8167Zm50.6611-67.5475a11.22,11.22,0,0,0-1.9751-.7528c-.448-.0728-1.18-.0364-1.3758.241-1.3556,1.9223-2.6678,3.8838-3.8347,5.9237a2.3191,2.3191,0,0,0,.3316,1.8391,1.4535,1.4535,0,0,0,1.36.1105C314.73,289.4935,316.3188,287.2791,318.5377,284.2692Zm-33.99,51.4692c.8652-.4407,1.2766-.5128,1.4336-.7518,1.34-2.0414,2.6815-4.0858,3.8942-6.2028.2-.35-.1291-1.4632-.3778-1.5212-.6657-.1555-1.8026-.1978-2.0756.19a48.0831,48.0831,0,0,0-3.6488,6.0913C283.5486,333.9934,284.2282,334.8955,284.5479,335.7384Zm14.5737-21.6232c-.3652-.6294-.5778-1.35-.8332-1.3652-.6042-.0367-1.5079.0593-1.7974.4589a62.8882,62.8882,0,0,0-3.6568,5.72c-.2157.3777.0113,1.4738.27,1.5641.6212.2172,1.7764.3133,2.022-.0334C296.5663,318.4264,297.8073,316.252,299.1216,314.1152Z"/><path class="cls-1" d="M205.8278,273.03q-13.9249,0-27.85-.0017c-2.3785-.001-2.7232-.5317-2.0029-2.7061a26.1119,26.1119,0,0,0,.7868-3.5008c.8778-4.7782,1.4644-9.6284,2.65-14.328,2.5757-10.2092,5.4755-20.3569,10.3667-29.745,2.56-4.9132,5.5062-9.6487,9.7788-13.38,2.0253-1.7686,3.6784-2.0087,5.9523-.2847a45.6933,45.6933,0,0,1,13.0166,15.0628c3.2276,6.1,6.3321,12.2738,9.2135,18.5426a67.1823,67.1823,0,0,1,2.9736,9.178c1.8215,6.1941,3.5568,12.4134,5.37,18.61.6105,2.087-.4938,2.303-2.1494,2.2968-9.3685-.0353-18.7371-.0171-28.1057-.0171Zm-1.0712-36.949c-6.1517.344-8.8356,2.0261-11.93,7.4994a11.1885,11.1885,0,0,0,.6138,12.7288c2.65,3.79,6.2048,6.4339,11.045,6.0958a27.1284,27.1284,0,0,0,7.5742-1.9287c4.7063-1.79,9.3848-9.5024,6.8251-15.2562C216.7089,240.3293,209.7311,235.1116,204.7566,236.0806Z"/><path class="cls-1" d="M206.6019,284.7774c9.9689,0,19.9382.048,29.9062-.0426,1.8829-.017,2.5986.6829,2.8634,2.427.407,2.6807.9479,5.3428,1.4946,8,.3956,1.9228-.4156,2.4751-2.2669,2.7256a205.654,205.654,0,0,1-37.2016,1.4374c-8.8112-.409-17.6128-1.0471-26.41-1.7055-.7253-.0543-2.001-1.0927-1.9658-1.6006.211-3.042.7942-6.0556,1.1236-9.0928.188-1.7339,1.269-1.6876,2.5506-1.6843q14.9532.0381,29.9066.014Z"/><path class="cls-2" d="M238.1648,281.692c-7.1727,0-14.2093-.014-21.2459.0029-13.1531.0318-26.3061.0972-39.4591.097-1.1776,0-3.0552.7256-2.7935-1.7436.1949-1.8376-.0647-3.6348,2.9695-3.574,8.7632.1752,17.5356.0695,26.3011-.099,9.7626-.1875,19.5209-.5875,29.2822-.85C237.0909,275.4215,238.3835,276.93,238.1648,281.692Z"/><path d="M95.2093,134.6106c.584.4123,1.4681.7309,1.5046,1.1275a3.232,3.232,0,0,1-.59,2.331,21.8937,21.8937,0,0,1-4.6305,3.821,3.3873,3.3873,0,0,1-3.0464-.7041c-.9447-.895-.4841-1.8291.84-2.5184a30.379,30.379,0,0,0,3.5718-2.8023A18.9007,18.9007,0,0,1,95.2093,134.6106Z"/><path d="M103.7478,132.2517c-.4-.491-1.0995-.9651-1.0874-1.42a3.3055,3.3055,0,0,1,.79-2.3544,29.9906,29.9906,0,0,1,5.6917-3.2451c.6928-.2905,1.8138.44,2.7392.7047-.2865.73-.3627,1.7563-.8979,2.1368-1.7754,1.2622-3.7116,2.3-5.5967,3.4052C104.9642,131.7266,104.4986,131.901,103.7478,132.2517Z"/><path d="M135.3766,116.0482c-.456-.5126-1.3255-1.0554-1.3227-1.5939a2.7332,2.7332,0,0,1,1.116-2.0708,19.61,19.61,0,0,1,5.086-2.0431c1.046-.2277,2.8754-.0012,3.2943.6758.9314,1.5057-.19,2.3221-1.8,2.7551C139.7155,114.3185,137.7647,115.1775,135.3766,116.0482Z"/><path d="M207.1111,103.4025a15.3984,15.3984,0,0,1-3.5577-.0788,2.2445,2.2445,0,0,1-1.376-1.687c.0229-.5188,1.0047-1.3672,1.6193-1.4195a32.2251,32.2251,0,0,1,6.128.0337c.6441.0689,1.1917,1.04,1.7834,1.5989-.5939.5652-1.1,1.39-1.8046,1.6285a9.1111,9.1111,0,0,1-2.7922.0672Z"/><path d="M119.3406,122.7988l-1.7637-1.4a7.4525,7.4525,0,0,1,1.4726-1.46,36.9753,36.9753,0,0,1,5.4525-2.6382,2.8926,2.8926,0,0,1,2.6321.598c.7462,1.0641.1539,1.9418-1.2287,2.4055-1.8294.6135-3.5579,1.5259-5.3374,2.2919A7.3059,7.3059,0,0,1,119.3406,122.7988Z"/><path d="M152.22,110.0671l-1.8779-1.4178c.5019-.6478.8884-1.6841,1.5264-1.8735a53.3254,53.3254,0,0,1,6.9612-1.4936,1.8283,1.8283,0,0,1,1.4175,1.05c.1553.49-.1617,1.5938-.5046,1.7037C157.4092,108.7836,155.014,109.34,152.22,110.0671Z"/><path d="M170.2413,105.754a11.916,11.916,0,0,1-2.1911-.5531,1.5691,1.5691,0,0,1-.65-1.2079c-.0119-.26.4963-.7127.838-.793a59.5879,59.5879,0,0,1,6.9381-1.4024c.6267-.07,1.7147.8305,1.9959,1.526.4809,1.1895-.25,1.8422-1.5851,1.9029C173.97,105.3,172.36,105.5362,170.2413,105.754Z"/><path d="M228.6211,105.689c-3.5259-.6219-7.2268.0953-9.8046-3.2319C222.5578,100.3312,228.63,102.1881,228.6211,105.689Z"/><path d="M294.324,127.659c-.799.3478-1.8,1.1614-2.2688.924a74.6392,74.6392,0,0,1-6.9052-4.122,1.4255,1.4255,0,0,1-.1086-1.395c.3137-.3687,1.1553-.741,1.4888-.568,2.4716,1.2821,4.8778,2.6911,7.2874,4.09C293.9927,126.6894,294.0333,127.0228,294.324,127.659Z"/><path d="M189.3007,103.57a14.2153,14.2153,0,0,1-3.0528-.06c-.5666-.1271-.9979-.8571-1.49-1.3159.49-.4442.92-1.16,1.48-1.2827,1.8044-.3953,3.66-.5512,5.49-.84,1.5558-.2452,2.8416.2972,2.9952,1.8248.0445.442-1.6367,1.243-2.6286,1.5477a9.8871,9.8871,0,0,1-2.7936.0546Z"/><path d="M253.4486,108.8316c2.6576.9227,5.3378,1.7888,7.9471,2.8322.3687.1474.6659,1.2579.4917,1.7405a1.7617,1.7617,0,0,1-1.5557.78,51.152,51.152,0,0,1-6.6716-2.4195c-.5152-.236-.5892-1.4347-.8662-2.1906Z"/><path d="M236.387,104.3088c2.6676.6228,5.0375,1.2448,7.4378,1.71,1.4264.2768,2.0625,1.12,1.4538,2.284-.25.4784-1.64.6119-2.4515.4933-1.6593-.2425-3.2725-.7866-4.9151-1.1609C235.7854,107.1509,235.9655,105.8474,236.387,104.3088Z"/><path d="M306.93,137.5758c-2.1662-1.3162-4.2937-2.4834-6.2373-3.9025-.36-.2631.02-1.5411.059-2.3507a5.5477,5.5477,0,0,1,1.7636.2816c1.7765.9462,3.5269,1.9533,5.2122,3.0524a5.9581,5.9581,0,0,1,1.2,1.5867Z"/><path d="M269.1333,114.64c3.32,1.3722,5.8791,2.3792,8.377,3.52a1.6086,1.6086,0,0,1,.5251,1.4661c-.1218.4057-.9368.9928-1.2458.8906a55.2436,55.2436,0,0,1-6.8365-2.6421C269.4766,117.6432,269.5282,116.3252,269.1333,114.64Z"/><path d="M321.4113,147.5414a34.4818,34.4818,0,0,1-4.3314-3.2538c-.8824-.8989-3.5493-1.4718-1.7415-3.3884,1.3892-1.4728,2.4865.51,3.5829,1.2609a34.8493,34.8493,0,0,1,3.4352,2.5745,1.9433,1.9433,0,0,1,.6493,1.604C322.8113,146.8363,322.0332,147.106,321.4113,147.5414Z"/><path d="M126.74,271.3631c2.492,0,4.9846-.0365,7.4758.0093,3.1138.0573,6.8738,2.423,7.62,4.7249,1.358,4.1918.3223,8.491-2.9734,10.562a10.1319,10.1319,0,0,1-4.9261,1.1907c-5.2372.1487-10.4823.1287-15.722.04-3.42-.0581-6.6227-2.5148-7.1425-5.5637-.584-3.4257-.0861-8.1859,4.1115-9.77a22.6279,22.6279,0,0,1,5.6326-1.207,58.0057,58.0057,0,0,1,5.9246-.0448Zm-.0291,5.5783-.0005-.0638c-2.0614,0-4.1236.0346-6.1841-.01-2.0371-.0438-3.7454.5055-3.7115,2.85.0308,2.1373,1.6669,3.2572,3.5926,3.2857a137.5288,137.5288,0,0,0,13.8937-.3528c1.09-.0944,2.6042-1.6646,2.9224-2.8293.4963-1.817-1.0619-2.7792-2.7928-2.8519C131.8613,276.8614,129.2843,276.9414,126.7106,276.9414Z"/><path d="M68.4529,256.9305a7.69,7.69,0,0,1,1.0556.8783A55.1148,55.1148,0,0,1,73.7,263.2c.373.5963-.2271,1.8013-.3817,2.7276-.7791-.2267-1.7723-.2268-2.2969-.7228a56.1875,56.1875,0,0,1-4.2556-4.6656c-.3806-.4511-.8619-1.409-.679-1.6356A14.421,14.421,0,0,1,68.4529,256.9305Z"/><path d="M57.2668,243.705a14.8547,14.8547,0,0,1,1.8383,1.41c1.0989,1.1643,2.1233,2.3992,3.1693,3.6129.9054,1.0506,1.5844,2.3464.225,3.2965-1.0694.7473-2.2866.638-3.193-.906-.8859-1.5089-2.3594-2.661-3.427-4.081a2.6232,2.6232,0,0,1-.5049-2.0751C55.568,244.4335,56.5044,244.1764,57.2668,243.705Z"/><path d="M85.3808,277.8871c-1.4572,1.7785-2.6436,2.3505-4.0563.1139-.85-1.345-2.185-2.3922-2.9778-3.7609-.4655-.8035-.295-1.9753-.4106-2.9814,1.142.2413,2.7007.1,3.3435.8A49.8411,49.8411,0,0,1,85.3808,277.8871Z"/><path d="M101.0277,297.72a5.14,5.14,0,0,1,1.2289.6913,27.7122,27.7122,0,0,1,3.5587,4.2c.5512.927.3379,2.3086.4683,3.4858a11.1146,11.1146,0,0,1-3.1921-1.1846,19.02,19.02,0,0,1-3.243-3.5333,2.8088,2.8088,0,0,1-.6754-2.1283C99.41,298.6065,100.3675,298.2271,101.0277,297.72Z"/><path d="M90.131,284.4575a8.3419,8.3419,0,0,1,1.976,1.22,23.1266,23.1266,0,0,1,3.1761,4.1841c.3883.7249-.0575,1.8966-.1254,2.8658-.8664-.22-1.9838-.1749-2.55-.7114a38.2988,38.2988,0,0,1-3.9545-4.5824,2.1456,2.1456,0,0,1-.3949-1.8293C88.5526,285.078,89.4087,284.8663,90.131,284.4575Z"/><path d="M150.2472,360.0607a8.6711,8.6711,0,0,1-2.4026,1.2778,2.3758,2.3758,0,0,1-1.7813-.9281,25.268,25.268,0,0,1-3.2773-4.7992c-.4211-.9035.0661-2.23.1431-3.3661a8.4564,8.4564,0,0,1,2.6223,1.3262,45.51,45.51,0,0,1,3.2949,4.4527c.2816.3943.5169.8217.7734,1.2339Z"/><path d="M139.3439,345.5691c-.5245.56-.8888,1.2307-1.4351,1.4514-.5447.22-1.5753.251-1.8682-.0883a50.5578,50.5578,0,0,1-4.2908-5.6377,2.9592,2.9592,0,0,1,.2579-2.3206,2.0725,2.0725,0,0,1,1.8191.0692C135.6986,341.0869,137.4251,343.2638,139.3439,345.5691Z"/><path d="M117.4126,317.7523c-.0991,2.3383-1.3808,3.25-2.3088,2.26a39.6712,39.6712,0,0,1-4.4064-5.7358c-.32-.4993.2915-1.5951.4749-2.4167.7438.2145,1.7546.1953,2.1837.6854C114.93,314.343,116.3112,316.31,117.4126,317.7523Z"/><path d="M160.2484,347.6651c-1.4352,2.93-2.5124,5.28-3.7653,7.5331-.2031.3652-1.2437.5035-1.7852.35-.315-.0892-.6733-1.0384-.555-1.4775.6347-2.3568,1.3349-4.7047,2.2011-6.9841.1963-.5165,1.2938-1.1734,1.71-1.0239A8.587,8.587,0,0,1,160.2484,347.6651Z"/><path d="M161.0254,283.3865a8.493,8.493,0,0,1,.0843-3.0512c.3183-.7669,1.3614-1.2329,2.0842-1.8318.4548.6631,1.2172,1.2894,1.302,1.9969a48.0531,48.0531,0,0,1,.0531,4.8818c.0272,1.63-.92,2.5108-2.3473,2.314-.53-.073-.9982-1.4234-1.2706-2.2639a6.9252,6.9252,0,0,1-.0395-2.0457Z"/><path d="M122.3053,324.8634c.4522.235.9363.3336,1.1635.63a70.2016,70.2016,0,0,1,4.1469,5.7293c.2978.4818-.2513,1.487-.4109,2.2515-.7018-.2265-1.594-.2569-2.0687-.7175a23.28,23.28,0,0,1-3.4892-4.0554,6.7393,6.7393,0,0,1-.5812-3.1361C121.0543,325.3588,121.8536,325.1079,122.3053,324.8634Z"/><path d="M180.5057,211.5264c.17.9641.7831,2.1548.4273,2.85a37.0775,37.0775,0,0,1-3.7431,5.6256c-.3453.4479-1.28.4411-1.9445.6432-.1442-.7761-.67-1.7767-.3674-2.29,1.42-2.4107,3.0673-4.6874,4.6335-7.012Z"/><path d="M160.9224,305.8448c-.1788-1.8763-.3985-3.2241-.4112-4.5737a21.0642,21.0642,0,0,1,.3257-4.3437,2.2528,2.2528,0,0,1,1.4438-1.3867,1.9132,1.9132,0,0,1,1.6358.8078C165.0288,298.4808,163.6055,303.8354,160.9224,305.8448Z"/><path d="M168.3818,245.6682c-.6529,2.6493-1.0924,4.7208-1.7092,6.738-.1582.5174-.8761.8638-1.3368,1.2887-.4263-.4977-1.2417-1.0184-1.2138-1.4892a56.0177,56.0177,0,0,1,.8873-7.383c.0751-.386,1.5253-.8819,2.1275-.6833C167.763,244.3459,168.1319,245.3329,168.3818,245.6682Z"/><path d="M162.8746,317.3144a14.8054,14.8054,0,0,1-.0682,3.3242c-.1472.6251-.9713,1.0906-1.4911,1.6279-.4852-.5449-1.3693-1.0782-1.3854-1.6366a42.5984,42.5984,0,0,1,.32-6.65c.0767-.5958,1.0066-1.0817,1.545-1.6181a6.4039,6.4039,0,0,1,1.1531,1.8783,15.9052,15.9052,0,0,1,.0509,3.0739Z"/><path d="M162.3758,330.0236c-.5261,2.8443-1.02,5.6955-1.6288,8.5219-.0608.2818-.8991.6574-1.2429.5523-.4567-.14-1.1-.7-1.1112-1.095a29.6994,29.6994,0,0,1,.216-6.6363c.1566-.7806,1.8312-1.2566,2.8132-1.8715Z"/><path d="M173.35,228.9081a69.2792,69.2792,0,0,1-2.4434,6.5219c-.25.52-1.5491.5363-2.3663.7839-.1631-.64-.61-1.37-.4393-1.9027a49.9462,49.9462,0,0,1,2.3767-6.0955,2.2293,2.2293,0,0,1,1.8148-.8283C172.652,227.4055,172.9659,228.32,173.35,228.9081Z"/><path d="M164.99,261.2119c0,2.7069.0858,5.419-.077,8.1161-.03.5016-1.06.9428-1.6293,1.4118-.3729-.5544-1.054-1.1036-1.0635-1.6642a34.51,34.51,0,0,1,.3315-6.1145c.1387-.8514,1.0583-1.5756,1.6229-2.3576Z"/><path d="M104.9191,232.11c-.45.381-1.0238,1.1534-1.324,1.0587-.5633-.1776-1.3677-.8813-1.34-1.3209a2.086,2.086,0,0,1,1.2393-1.564c.6009-.1239,1.3476.46,2.0309.736Z"/><path d="M288.3918,287.2369c-3.6227-.4882-7.2627-.8756-10.8633-1.4927-3.6992-.6339-6.6214-7.1395-4.8075-10.4423,2.4127-4.393,7.3233-6.2793,12.4234-5.4,3.1807.5482,6.5053.2769,9.7659.3425,6.1468.1236,9.7374,5.062,7.87,10.8485-.9666,2.9947-4.877,5.5419-8.9167,5.7235-1.8024.081-3.6116.0137-5.4177.0137Zm-.6677-12.23v.0337q-3.6063,0-7.2127-.001c-2.1856-.0035-2.7965,1.4795-2.7767,3.2346.0189,1.6659.6877,2.9844,2.7317,3.01,4.5452.056,9.09.2326,13.6344.2332,2.57,0,4.2593-1.4106,4.1694-3.1781-.0907-1.7814-2.0415-3.2923-4.3628-3.3257C291.8467,274.9835,289.7853,275.0069,287.7241,275.0069Z"/><path d="M226.8646,212.8564a6.1467,6.1467,0,0,1,1.4938.8762,29.1235,29.1235,0,0,1,3.5209,4.1617c.4865.775.2577,1.999.3522,3.02-1.0243-.2815-2.3472-.2583-3.0105-.9083a29.9765,29.9765,0,0,1-3.5037-4.5966,2.2614,2.2614,0,0,1-.4356-1.7005C225.42,213.3193,226.2342,213.17,226.8646,212.8564Z"/><path d="M257.8406,318.23l-1.364,2.1068c-.6025-.5333-1.5477-.9642-1.7436-1.6192a44.0222,44.0222,0,0,1-1.3091-6.2281c-.0783-.5339.4719-1.16.7333-1.7436.6182.29,1.6253.4412,1.7879.8947C256.68,313.6912,257.1764,315.8277,257.8406,318.23Z"/><path d="M240.967,234.9116c-.196.2351-.5512,1.0012-.8813.9906-.8453-.0272-2.1073-.1392-2.4387-.6829a31.6063,31.6063,0,0,1-2.51-5.4881c-.2181-.5881.12-1.3823.203-2.0821.858.1753,2.1972.0714,2.49.5751C239.0051,230.2482,239.8562,232.46,240.967,234.9116Z"/><path d="M251.7655,285.1144l-1.3351,1.6889c-.542-.6556-1.3554-1.233-1.5716-1.9826a24.9,24.9,0,0,1-1.0032-5.46c-.04-.7189.8185-1.4881,1.2677-2.2343.67.5514,1.7693,1.0016,1.928,1.6738A52.1933,52.1933,0,0,1,251.7655,285.1144Z"/><path d="M275.1928,350.1945c-.2816-.9255-.9632-1.9527-.6876-2.4758a48.87,48.87,0,0,1,3.6918-5.6979,1.7053,1.7053,0,0,1,1.4958-.5485c.4043.1308.98,1.034.8535,1.3-1.0824,2.2718-2.2816,4.49-3.5215,6.682C276.8646,349.737,276.2727,349.7758,275.1928,350.1945Z"/><path d="M257.0029,328.74c.183-.27.5742-.8472.9654-1.4243.52.435,1.3018.77,1.5137,1.3233a34.1738,34.1738,0,0,1,1.7712,5.8135c.1369.7245-.6152,1.617-.9617,2.4328-.7282-.5539-1.476-1.0848-2.1688-1.68-.1471-.1264-.09-.487-.133-.7386C257.688,332.7107,257.3847,330.9545,257.0029,328.74Z"/><path d="M301.492,305.1434c1.3329-2.1206,2.5737-4.3094,4.06-6.3159.3877-.5233,1.5418-.4786,2.3439-.6948.0284.7029.3077,1.527.0376,2.0855-.7645,1.581-1.7646,3.047-2.6522,4.57C304.0582,306.8872,303.41,306.9535,301.492,305.1434Z"/><path d="M245.7693,251.1143l-1.006,1.4542c-.587-.4609-1.4472-.8029-1.71-1.4052a33.2239,33.2239,0,0,1-1.87-5.5c-.1409-.5879.5-1.3631.7827-2.0526.8514.3587,2.2538.5285,2.4532,1.1105A49.5415,49.5415,0,0,1,245.7693,251.1143Z"/><path d="M354.1286,224.6508c.3084.8885,1.015,1.8763.7611,2.3748a44.4662,44.4662,0,0,1-3.7076,5.9416c-.25.3429-1.4454.3114-1.9764.027a1.7677,1.7677,0,0,1-.4306-1.6969c1.24-2.0678,2.6362-4.0429,4.02-6.021C352.9563,225.046,353.372,224.9936,354.1286,224.6508Z"/><path d="M338.8817,247.0616c1.2459-2.3191,2.2414-4.4739,3.55-6.4179.3776-.561,1.6556-.5159,2.5209-.7487.0684.7394.4344,1.631.1486,2.1889-.803,1.5679-2.1028,2.9012-2.7855,4.5062C341.3355,248.8942,340.2973,248.3645,338.8817,247.0616Z"/><path d="M249.27,266.4355a5.5346,5.5346,0,0,1-.1611,1.9477,1.8869,1.8869,0,0,1-1.3284.8307,1.3831,1.3831,0,0,1-1.0549-.81,47.2127,47.2127,0,0,1-1.4248-5.928c-.1092-.72.4952-1.5476.7739-2.3261.8662.6194,2.1632,1.0639,2.5015,1.8976A17.8175,17.8175,0,0,1,249.27,266.4355Z"/><path d="M336.776,255.689c-1.8274,2.3358-3.3351,4.7881-5.3821,6.6467-.95.8628-1.89-.6563-1.4179-1.7186a34.3509,34.3509,0,0,1,3.2067-5.622c.3712-.5334,1.47-.7132,2.2473-.7416C335.78,254.2407,336.1572,254.9976,336.776,255.689Z"/><path d="M250.7208,297.1853a4.9952,4.9952,0,0,1,.0458-1.7776c.2139-.5211.7681-1.1948,1.2269-1.2385a1.76,1.76,0,0,1,1.3542,1.0359,37.1255,37.1255,0,0,1,1.2723,6.2068c.0595.6307-.962,1.3634-1.4883,2.0494-.579-.4873-1.4893-.8749-1.6721-1.4816a38.5882,38.5882,0,0,1-.8672-4.7683Z"/><path d="M327.222,269.9372l-1.2427,2.0818a27.5952,27.5952,0,0,1-2.6629,4.2675c-.4468.5057-1.7374.2658-2.6442.3652a5.9849,5.9849,0,0,1,.2843-1.9456,38.5257,38.5257,0,0,1,2.8729-4.7744,3.1842,3.1842,0,0,1,2.0319-.9645C326.25,268.9161,326.73,269.564,327.222,269.9372Z"/><path d="M267.8766,351.8167c-.65-.3109-1.4533-.4439-1.82-.9158a44.3728,44.3728,0,0,1-3.4127-5.0087c-.26-.45.0253-1.7834.29-1.8545a2.5577,2.5577,0,0,1,2.16.2888,56.4622,56.4622,0,0,1,3.9078,5.2689,1.6789,1.6789,0,0,1,.1556,1.421C268.98,351.38,268.3669,351.5321,267.8766,351.8167Z"/><path d="M318.5377,284.2692c-2.2189,3.01-3.8077,5.2243-5.4944,7.3615a1.4535,1.4535,0,0,1-1.36-.1105,2.3191,2.3191,0,0,1-.3316-1.8391c1.1669-2.04,2.4791-4.0014,3.8347-5.9237.1955-.2774.9278-.3138,1.3758-.241A11.22,11.22,0,0,1,318.5377,284.2692Z"/><path d="M284.5479,335.7384c-.32-.8429-.9993-1.745-.7744-2.194a48.0831,48.0831,0,0,1,3.6488-6.0913c.273-.3883,1.41-.346,2.0756-.19.2487.058.5782,1.1714.3778,1.5212-1.2127,2.117-2.5542,4.1614-3.8942,6.2028C285.8245,335.2256,285.4131,335.2977,284.5479,335.7384Z"/><path d="M299.1216,314.1152c-1.3143,2.1368-2.5553,4.3112-3.9956,6.3445-.2456.3467-1.4008.2506-2.022.0334-.2585-.09-.4855-1.1864-.27-1.5641a62.8882,62.8882,0,0,1,3.6568-5.72c.29-.4,1.1932-.4956,1.7974-.4589C298.5438,312.7655,298.7564,313.4858,299.1216,314.1152Z"/><path d="M204.7566,236.0806c4.9745-.969,11.9523,4.2487,14.128,9.1391,2.56,5.7538-2.1188,13.4663-6.8251,15.2562a27.1284,27.1284,0,0,1-7.5742,1.9287c-4.84.3381-8.395-2.3058-11.045-6.0958a11.1885,11.1885,0,0,1-.6138-12.7288C195.921,238.1067,198.6049,236.4246,204.7566,236.0806Zm1.135,5.2282c-.6645.0349-1.1791.09-1.6929.0843-3.2686-.0359-5.8267,1.52-6.66,4.5011-.8718,3.12-1.4337,6.5063,1.7129,9.2186,3.0316,2.6132,6.3639,1.9922,9.6994,1.4166,2.6666-.46,4.1357-2.4821,5.089-4.8578C215.778,247.3416,211.5584,240.5176,205.8916,241.3088Z"/><path class="cls-2" d="M126.7106,276.9414c2.5737,0,5.1507-.08,7.72.0279,1.7309.0727,3.2891,1.0349,2.7928,2.8519-.3182,1.1647-1.8323,2.7349-2.9224,2.8293a137.5288,137.5288,0,0,1-13.8937.3528c-1.9257-.0285-3.5618-1.1484-3.5926-3.2857-.0339-2.3443,1.6744-2.8936,3.7115-2.85,2.0605.0444,4.1227.01,6.1841.01Z"/><path class="cls-2" d="M287.7241,275.0069c2.0612,0,4.1226-.0234,6.1833.0063,2.3213.0334,4.2721,1.5443,4.3628,3.3257.09,1.7675-1.6,3.1785-4.1694,3.1781-4.5448-.0006-9.0892-.1772-13.6344-.2332-2.044-.0252-2.7128-1.3437-2.7317-3.01-.02-1.7551.5911-3.2381,2.7767-3.2346q3.6063.006,7.2127.001Z"/><path class="cls-2" d="M205.8916,241.3088c5.6668-.7912,9.8864,6.0328,8.1489,10.3628-.9533,2.3757-2.4224,4.3977-5.089,4.8578-3.3355.5756-6.6678,1.1966-9.6994-1.4166-3.1466-2.7123-2.5847-6.0985-1.7129-9.2186.8328-2.9806,3.3909-4.537,6.66-4.5011C204.7125,241.3987,205.2271,241.3437,205.8916,241.3088Zm-.943,14.8281c4.4854.0015,7.5883-2.8205,7.5521-6.8256-.041-4.5287-3.0784-6.9812-7.3528-6.9713a7.4713,7.4713,0,0,0-6.986,6.97A7.1861,7.1861,0,0,0,204.9486,256.1369Z"/><path d="M204.9486,256.1369a7.1861,7.1861,0,0,1-6.7867-6.8266,7.4713,7.4713,0,0,1,6.986-6.97c4.2744-.01,7.3118,2.4426,7.3528,6.9713C212.5369,253.3164,209.434,256.1384,204.9486,256.1369Zm-3.3605-6.6288c.0454,2.2366,1.5487,3.5257,4.0587,3.48a3.9963,3.9963,0,0,0,3.87-3.6494c.0474-1.7773-2.4037-4.2593-4.1017-4.1534A4.1246,4.1246,0,0,0,201.5881,249.5081Z"/><path class="cls-2" d="M201.5881,249.5081a4.1246,4.1246,0,0,1,3.8269-4.3225c1.698-.1059,4.1491,2.3761,4.1017,4.1534a3.9963,3.9963,0,0,1-3.87,3.6494C203.1368,253.0338,201.6335,251.7447,201.5881,249.5081Z"/></svg>