<svg id="Layer_1" data-name="Layer 1" xmlns="http://www.w3.org/2000/svg" viewBox="0 0 400 400"><defs><style>.cls-1{fill:#7d7e84;}.cls-2{fill:#c3c3c3;}</style></defs><title>suspenders</title><path d="M285.82,56.6823c-1.1717,1.0542-2.4372,2.06-3.5,3.1707-6.3478,6.639-12.5952,13.3306-18.9823,19.9487-5.193,5.3808-10.6147,10.6414-15.7876,16.0325-5.07,5.2837-9.9711,10.6563-14.8929,16.0166a4.4768,4.4768,0,0,0-.916,1.9175c-1.0049,3.7438-1.8381,7.5148-2.9539,11.24-1.1971,3.9966-2.8455,7.9236-3.8952,11.9383-.5447,2.0832-.2708,4.29-.2831,6.4411-.2063,35.9789-.5345,71.9578-.5475,107.9367-.0085,23.5244.4438,47.0489.69,70.5734,3.3073,12.0823.7463,24.3624,2.2245,36.51a29.5429,29.5429,0,0,1-.3237,6.2115c-.1245,1.3544-1.2171,2.0139-3.0768,2.0643-4.14.1122-8.2771.2675-13.0433.4261.4426,1.1744.401,2.5882,1.2412,2.9858,1.9311.914,1.77,2.1146,1.7751,3.3962.0182,4.3831-.1667,8.7718.082,13.1474.2218,3.9048-2.1642,6.7271-6.5012,8.3784a15.941,15.941,0,0,1-8.0963.7486c-3.0534-.6493-5.9736-1.9021-7.8276-4.3952-2.4272-3.2636-2.1942-6.6267-2.2889-10.0453-.0745-2.69-.0449-5.3827-.0051-8.0738.0192-1.2984-.6831-2.8561,2.1185-3.2841.3137-.048.6184-1.2852.37-1.8333a2.6207,2.6207,0,0,0-1.8768-1.0887c-3.2193-.12-6.4511-.04-9.6775-.0792-3.3541-.04-4.1765-.7112-4.1811-3.2169-.0079-4.2283.07-8.4587-.0818-12.6845-.2471-6.8947-1.5882-13.8446-.8108-20.6683,2.3592-20.7072.37-41.4112.8316-62.11.0949-4.2589.1341-8.5216.0032-12.7793-.1435-4.6687-.6143-9.3323-.7372-14.001-.0519-1.9734.6079-3.9546.6027-5.9318-.0053-1.97-.6111-3.9377-.6512-5.91-.1175-5.766-.2693-11.5371-.0774-17.3q1.1487-34.4907,2.5392-68.9771c.0647-1.6534.9033-3.29.97-4.9435.2644-6.539-1.8508-12.8638-3.3963-19.2393-.3845-1.5858-.9846-3.23-.7649-4.7924.6447-4.5851-3.4575-7.6594-6.1907-11.1241-2.7773-3.5207-6.0715-6.818-9.1089-10.2279q-6.8787-7.722-13.7144-15.4649-4.4259-5-8.8309-10.01-4.6325-5.2625-9.2536-10.53l-.844.1093c0,1.1629.0662,2.3281-.01,3.4883q-1.3817,21.0224-2.8059,42.0435c-.8261,12.0289-1.9461,24.05-2.4969,36.0853q-.9839,21.4993-1.18,43.0175c-.1541,15.3007.0554,30.6039.22,45.9053.0444,4.1313.73,8.2607.7077,12.39-.0255,4.7722-.8217,9.546-.74,14.314.4677,27.3057,1.0792,54.61,1.6828,81.9145.1631,7.3776.502,14.753.6918,22.13.0771,3-4.0489,4.9979-8.0021,3.9825a12.7664,12.7664,0,0,0-2.6682-.4753c-4.5382-.1657-5.8037,1.22-4.512,4.4839a20.8868,20.8868,0,0,1,1.4377,5.7272,73.1246,73.1246,0,0,1,.0981,8.3c-.0806,3.559-2.3511,6.5374-6.3777,8.1017-5.2713,2.0481-12.51,1.2124-15.34-4.3656-1.0148-2-2.4208-4.0124-1.2058-6.3394a3.0854,3.0854,0,0,0-.1089-2.5,9.3933,9.3933,0,0,1,.5851-8.5233c1.4449-2.7428.3839-3.8179-3.4711-4.1382-2.7359-.2274-5.4458-.6411-8.1855-.8219-2.6752-.1765-3.5781-1.24-3.3431-3.0641.3536-2.7447,1.0526-5.493,1.0025-8.2337-.3139-17.1434-1.0228-34.2843-1.1588-51.4279-.1446-18.2163.2005-36.4348.3337-54.6523q.2006-27.4467.411-54.8933c.1247-14.1419.3082-28.2835.4643-42.4253.0619-5.6119-.0113-11.2266.2074-16.8351.4569-11.7235,1.1348-23.4422,1.5926-35.1656.3659-9.37.3618-18.75.8506-28.1155.4835-9.2643,1.3322-18.5191,2.1118-27.7739.4375-5.1927,1.0565-10.3771,1.6-15.565.4531-4.3281,1.4992-8.5992,6.0855-11.6171,2.22-1.4609,5.2783-2.27,8.0607-3.2065A34.913,34.913,0,0,1,98.28,7.6246c9.3928-1.4923,18.8038-2.9217,28.2064-4.38,6.7719-1.0506,11.1827,1.3927,14.701,5.306,6.0382,6.7162,12.3055,13.323,18.1841,20.1137,6.0946,7.04,11.7667,14.2791,17.7659,21.3653,4.3185,5.1009,8.8993,10.08,13.3076,15.14,2.6468,3.0381,5.1216,6.1592,7.8386,9.1615.4576.5056,1.727.665,2.6673.8688,7.3124,1.5853,9.1336-3.1773,12.3546-6.0567,3.5012-3.13,6.4706-6.5841,9.6665-9.9,3.728-3.8676,7.3674-7.7836,11.1991-11.5943,3.5894-3.57,7.36-7.0406,11.086-10.5348,6.4307-6.0315,12.72-12.1516,19.3985-18.03a120.2878,120.2878,0,0,1,12.7655-9.5783,9.3569,9.3569,0,0,1,5.603-.881c5.6979.8955,11.2993,2.1385,16.9094,3.3211,2.7625.5823,5.5131,1.232,8.1813,2.0146,6.9542,2.04,13.9809,3.98,20.7419,6.3311,4.3921,1.5274,7.215,4.42,7.6779,8.07a68.0991,68.0991,0,0,1,.407,11.0342c-.17,4.6823-.53,9.371-1.1522,14.0318-1.0232,7.6665-2.3918,15.3074-3.4785,22.97-.596,4.2021-.9961,8.4221-1.34,12.6405-.9357,11.479-1.7869,22.9618-2.6875,34.4425-.3175,4.0475-.8089,8.09-.9673,12.1406-.0739,1.8866.6353,3.7848.66,5.68.0216,1.6552-.6551,3.317-.6117,4.97.1363,5.1984.6417,10.3936.662,15.5908.0144,3.6548-.7858,7.3116-.763,10.9659.0344,5.5191.5442,11.0357.69,16.5556.046,1.7436-.6745,3.4986-.6231,5.2416.2869,9.7384.8582,19.473,1.0421,29.2119.3732,19.7586.29,39.5239.9134,59.2775.4694,14.8813,1.7535,29.7486,2.6586,44.6226q.7824,12.8579,1.51,25.7176c.2022,3.53.2946,7.0633.5626,10.59.1581,2.08-1.2632,2.6743-3.7654,2.619-3.2214-.0713-6.4463-.0569-9.67-.0874-1.5922-.015-2.3145.5407-2.0743,1.713a18.9424,18.9424,0,0,0,.7813,3.3748c2.8533,7.0655,3.0866,13.9215-2.9824,20.2366-2.7927,2.9058-11.7447,2.784-14.79-.0416a13.173,13.173,0,0,1-4.46-9.7312c-.07-2.8442-.16-5.6962.0518-8.5329.1154-1.5445.9552-3.052,1.2593-4.5986.31-1.5783-.4692-2.4193-2.9617-2.2569-2.58.1681-5.1983.023-7.8.02-3.1185-.0034-4.41-.8354-4.4494-3.15-.0432-2.5347.3223-5.0778.17-7.6062-.3129-5.1856-1.0192-10.3593-1.2657-15.5457-.577-12.1341-.8763-24.2755-1.4782-36.4087-.6389-12.8814-1.7689-25.7522-2.1826-38.6364-.4045-12.6018-.2127-25.2147-.2165-37.8227-.0044-14.8382.0742-29.6763.0628-44.5145-.0005-.714-.564-1.42-.7858-2.1437a4.4268,4.4268,0,0,1-.3208-1.774c.3511-2.7857,1.1105-5.5623,1.1546-8.3471.3086-19.4469.18-38.9.82-58.34.2965-9.0121,1.9348-18.0036,3.0932-26.9954.6559-5.0914,1.553-10.1662,2.3772-15.2454.6014-3.7064,1.2805-7.4058,1.8777-11.1125a13.8944,13.8944,0,0,0,.0168-2.2054Zm41.9342,302.5062a40.3887,40.3887,0,0,1-.6245-3.9924q-1.1968-21.9594-2.3253-43.9206c-.3041-5.8335-.6875-11.6661-.85-17.502-.2465-8.8359-.2407-17.6758-.5079-26.5112-.3525-11.6587-1.1789-23.3135-1.25-34.9719-.21-34.3565-.1707-68.7137-.1338-103.0706.0019-1.8769-.8137-2.343-3.18-2.3527-10.4024-.0427-20.8074-.1169-31.2035-.3628-2.9116-.0688-3.6567.5376-3.6673,2.6611-.116,23.2764-.4183,46.5521-.5707,69.8284-.0939,14.3646-.3008,28.7336.0582,43.0937.4126,16.4978,1.3914,32.9878,2.13,49.4811.2717,6.0665.5113,12.1341.8519,18.1985.6367,11.3372,1.3467,22.6721,2.005,34.0088q.4011,6.9047.7025,13.8125c.0624,1.4478.6334,2.2489,2.9156,2.2158,11.2355-.1625,22.4734-.23,33.71-.35A14.6836,14.6836,0,0,0,327.7539,359.1885Zm-250.7-104.1549h-.1158c0,4.0733.0506,8.147-.0084,12.22-.33,22.8049-.7279,45.6075,1.278,68.3921.4924,5.593.3826,11.2158.5042,16.8255.0581,2.6838.3544,2.97,3.8779,2.84,10.2586-.38,20.5111-.8885,30.7754-1.1171,2.5726-.0573,2.9519-.6957,2.8507-2.2857-.21-3.3011-.2827-6.6077-.3548-9.9127-.0912-4.1712-.022-8.3457-.2211-12.5137-.131-2.7445-.8688-5.4785-.8945-8.2195-.122-12.9922-.0631-25.9854-.1231-38.978-.1285-27.8228-.3212-55.6455-.43-83.4683-.1-25.6531-1.0738-51.318,1.73-76.9354.1424-1.3012.0694-2.1939-2.2973-2.2075-9.9884-.0575-19.9751-.2488-29.9631-.3525-4.4857-.0467-4.4546-.0048-4.6317,3.4137-.0834,1.61-.4271,3.2151-.4635,4.8247-.39,17.2759-.8458,34.5517-1.0776,51.829-.2567,19.1419-.3095,38.2854-.4292,57.4283C77.0219,242.8887,77.0539,248.9612,77.0539,255.0336Zm141.8232,69.8772c0-.8817.0019-2.1577,0-3.4336q-.0687-38.8519-.1485-77.7039c-.03-10.063-.2982-20.126-.2419-30.1885.1313-23.4457.3942-46.891.6019-70.3365a19.6012,19.6012,0,0,0-.08-4.1412,2.68,2.68,0,0,0-1.9187-1.4705c-3.2119-.42-6.4692-.7525-9.7257-.8631-7.1713-.2432-14.3531-.3114-21.5283-.5-1.77-.0464-2.2881.4628-2.35,1.7451-.3087,6.4308-.9164,12.8555-1.11,19.2874-.554,18.3651-1.3076,36.7322-1.3443,55.0993-.0638,31.8227.3555,63.646.5653,95.4691.0345,5.2268.012,10.4538.0639,15.68.014,1.4195.3682,1.9749,2.9735,1.75,5.2331-.4523,10.5823-.2225,15.8821-.1773,1.9293.0165,3.862.4852,5.7794.4386C210.271,325.4694,214.2374,325.166,218.8771,324.9108Zm-92.02-317.8c-4.74.7074-8.558,1.1684-12.2974,1.86-5.9778,1.106-11.8424,2.5851-17.8677,3.5013-6.76,1.028-11.8837,4.5634-12.4937,9.59-.7407,6.1026-1.27,12.2205-1.7709,18.3372-.2886,3.5262-.3042,7.0642-.5038,10.5951-.7363,13.0232-1.5356,26.0445-2.2318,39.0688-.2788,5.2164-.3643,10.4386-.5109,15.6586-.0468,1.6656-.0073,3.3326-.0073,4.9925,3.3357.269,6.2967.7016,9.2581.7031,4.9643.0025,9.9287-.2723,14.8936-.42a8.4734,8.4734,0,0,1,.9179.108c3.1682.2615,6.3383.5105,9.5052.78,2.156.1836,2.9085-.5678,3.0387-2.1018.3942-4.6458,1.06-9.28,1.4-13.9272.9661-13.2193,1.7775-26.4446,2.7377-39.6641.7-9.6392,1.5184-19.2737,2.3245-28.9085C123.7957,20.7611,122.7828,14.1059,126.8576,7.1108ZM322.1644,117.7083c.3663-1.9872.8893-4.0819,1.1177-6.1941.8662-8.011,1.5895-16.03,2.4576-24.0412.8174-7.5434,1.74-15.08,2.6354-22.6191.49-4.1295,1.1633-8.25,1.5011-12.3859.6168-7.555,1.2351-15.1156,1.4467-22.68.0707-2.5233-2.2636-4.6073-5.2564-5.8057-3.7007-1.4821-7.6286-2.6666-11.5147-3.8812-3.7606-1.1754-7.5807-2.2495-11.3979-3.3229-2.7286-.7672-5.4956-1.46-8.7771-2.3261.166,1.3926.2327,2.3638.4069,3.3242.326,1.797,1.0514,3.5926,1.0059,5.38-.0914,3.5865-.54,7.17-.93,10.75-.8555,7.8492-1.6747,15.7016-2.6872,23.54-.6566,5.0832-1.6887,10.1393-2.4438,15.2164q-1.3542,9.1033-2.515,18.222c-.8814,6.8523-1.6949,13.7094-2.4889,20.5676a20.0129,20.0129,0,0,0-.15,4.8278c.0669.52,1.3383,1.3616,2.0681,1.367C298.2765,117.7338,309.912,117.7083,322.1644,117.7083ZM230.588,106.6515c.8231-1.008,1.3225-1.7156,1.9409-2.3611,3.8826-4.0529,7.804-8.0856,11.6878-12.138,2.6589-2.7742,5.2285-5.5957,7.9242-8.35q9.8514-10.0657,19.7884-20.0857c3.716-3.7538,7.7695-7.3456,11.1307-11.2631,2.1219-2.4731,5.5117-4.4613,5.6037-7.87.203-7.5256.8117-15.045,1.05-22.57a15.49,15.49,0,0,0-1.0456-5.9032c-1.1217-2.96-6.3013-5.0932-9.7993-2.2586-3.08,2.4961-6.4532,4.8081-9.3534,7.41-4.992,4.4791-9.7349,9.11-14.5494,13.6964-4.87,4.6387-9.6956,9.3027-14.5484,13.9512-2.7292,2.6143-5.5183,5.1951-8.2009,7.8351-3.4861,3.431-6.9442,6.8789-10.3188,10.37-3.0262,3.1307-5.8192,6.3861-8.9106,9.48-2.38,2.382-2.5039,3.076-.2961,5.3411a36.5289,36.5289,0,0,1,3.74,4.3793c3.6723,5.2194,7.2234,10.4854,10.8394,15.7266C228.2625,103.48,229.32,104.8939,230.588,106.6515ZM127.2374,42.3453l-.3254-.0023a33.84,33.84,0,0,0,.0559,4.83,7.2568,7.2568,0,0,0,1.3787,3.6227c3.5914,4.3584,7.3863,8.6258,11.1368,12.912q5.1353,5.8687,10.3333,11.7072c4.7414,5.3422,9.5306,10.6614,14.2414,16.0182,3.2815,3.7314,6.4312,7.5261,9.7146,11.2566.99,1.1242,2.0986,1.4878,3.163-.0939,3.3184-4.9309,6.6473-9.8592,10.1077-14.7361a34.3667,34.3667,0,0,1,5.5712-6.7776c2.1411-1.8115,1.7877-3.2228.3928-4.9217-.5788-.7051-1.2267-1.3789-1.8215-2.077-4.3559-5.1124-8.723-10.22-13.053-15.3439Q173.3758,53.11,168.7055,47.44c-3.5324-4.3012-6.897-8.68-10.5326-12.9322-4.668-5.46-9.4765-10.856-14.3358-16.2246-2.6632-2.9423-5.4676-5.821-8.3826-8.63-1.3963-1.3455-3.3426-1.2193-3.8565.13-.9205,2.4175-2.0591,4.8575-2.3151,7.3328C128.4144,25.5159,127.892,33.9343,127.2374,42.3453Zm84.8577,90.0256.002.6643c2.1858,0,4.3917.1244,6.5467-.0656a2.9317,2.9317,0,0,0,2.0918-1.3775c1.314-3.914,2.4022-7.8691,3.6117-11.8028.295-.9593.921-1.87,1.1357-2.8346.713-3.2033,2.1512-6.3533-.6693-9.55-2.2774-2.5814-3.8182-5.5116-5.8013-8.2413-4.303-5.9233-8.572-11.8626-13.077-17.7018-1.92-2.4892-4.0975-2.7688-5.9288-.8676a101.19,101.19,0,0,0-8.2959,9.6892c-3.0491,4.0943-5.4643,8.4484-8.5685,12.5175-2.9856,3.9137-4.798,7.8472-3.4085,12.3762.6832,2.2266,1.1557,4.4917,1.6151,6.7515.37,1.8206.5826,3.6589.8563,5.49.6,4.0145,1.45,4.8043,6.82,4.9131C196.71,132.4869,204.4045,132.3709,212.0951,132.3709ZM200.812,357.6862v-.1032c5.7146,0,11.43-.0386,17.1434.0194,2.2235.0226,3.0853-.5076,3.0435-2.2653-.179-7.5191-.2238-15.0408-.1961-22.5613.0078-2.1033-1.195-2.8188-3.9417-2.8125q-16.6707.0381-33.3414-.1121c-2.4341-.0236-2.68.8706-2.6622,2.2822.0963,7.7507.1989,15.5022.14,23.2526-.0141,1.8643.9253,2.3718,3.2981,2.3307C189.7986,357.6211,195.3063,357.6862,200.812,357.6862Zm8.2853,15.1221c-5.2467,0-10.2047-.0361-15.1588.0511-.5441.01-1.5561.75-1.5233,1.1105a129.1891,129.1891,0,0,0,1.7394,14.8369c.5638,2.6952,4.5463,4.2288,8.1053,3.9209,3.7574-.325,6.669-2.3877,6.7854-5.2736C209.237,382.7024,209.0973,377.9433,209.0973,372.8083Zm112.6236-251.64c-4.87-.291-9.7747-.65-14.6913-.84-1.61-.0621-3.2605.5011-4.8763.4566-5.055-.1388-10.105-.4047-15.1512-.6788-1.7062-.0928-2.826.13-2.889,1.6206-.0671,1.5829.8309,2.1077,2.9785,2.0712,4.9821-.0847,9.97.0026,14.955.0284,5.4417.0281,10.8936-.0736,16.3216.1448C322.3678,124.1316,322.49,124.2135,321.7209,121.1678Zm-224.2642-6.973v-.1307c-5.3984,0-10.7982-.0414-16.1939.0484-.74.0123-1.46.6773-2.1889,1.04.6111.4451,1.2011,1.26,1.8363,1.28,10.7346.3321,21.4751.5585,32.2134.8271,1.7223.0431,3.2024-.1,3.14-1.7326-.066-1.734-1.9263-1.3-3.2375-1.3125C107.8372,114.1667,102.6467,114.1948,97.4567,114.1948ZM315.489,385.6418H302.2235q-.3931.26-.7865.5191c1.3273,1.4052,2.281,3.2706,4.0966,4.0745a9.1589,9.1589,0,0,0,6.0535-.0046C313.5307,389.3482,316.477,388.2577,315.489,385.6418ZM99.0347,372.1483l-.195.0043a33.1023,33.1023,0,0,0,.0719,4.594c.0807.576.9742,1.09,1.4972,1.6319.537-.5152,1.2952-.9773,1.5508-1.56a6.0732,6.0732,0,0,0,.0924-2.0555c.2025-3.199.4968-6.3963.5918-9.5969a7.0671,7.0671,0,0,0-.8018-2.935,2.7274,2.7274,0,0,0-1.6211-.214c-.66.8011-1.5327,1.6882-1.5581,2.5586C98.5893,367.097,98.8843,369.6238,99.0347,372.1483ZM302.3,366.9526a3.5553,3.5553,0,0,0-.201,1.311,49.5235,49.5235,0,0,1,1.2559,5.1063c.2713,2.436.0774,4.9007.3605,7.3355.0927.7969,1.0528,1.5387,1.6162,2.3057.4194-.671,1.1881-1.3384,1.2009-2.0136.0745-3.915-.0115-7.8321-.0785-11.7481C306.4074,366.5211,306.313,366.4818,302.3,366.9526Zm8.3574,7.6.31,0c0,2.3-.125,4.6068.08,6.8971.058.6494,1.0776,1.2519,1.6561,1.8759.5351-.5957,1.5168-1.1844,1.5341-1.7881.1268-4.44.1319-8.8853-.0379-13.3243-.02-.5334-1.3194-1.04-2.0259-1.559-.5052.5629-1.3955,1.1076-1.4461,1.6919C310.5483,370.4072,310.6574,372.4824,310.6574,374.5524ZM94.478,371.7l.222-.0074c-.2144-2.6064-.343-5.2193-.7132-7.8135-.0769-.54-1.0483-1.01-1.6075-1.5122-.7411.615-2.1533,1.2536-2.1156,1.8413.2694,4.1921.7866,8.3773,1.36,12.5546.0808.588.8972,1.1209,1.3731,1.6793.4937-.556,1.3462-1.09,1.413-1.6723A44.5183,44.5183,0,0,0,94.478,371.7Zm-5.3221,9.8073c.9964,1.0526,1.46,1.5269,1.9019,2.0117,3.0672,3.361,9.71,3.2272,12.3568-.3209.2585-.3465-.5-1.6074-.8282-1.6163C98.4,381.469,94.2053,381.5073,89.1559,381.5073Zm112.313-11.3718v-.0437c.8284,0,1.6589-.0277,2.4848.0061,1.4687.06,2.7178.0262,2.6045-1.49-.0935-1.2519-.8207-1.7665-2.5309-1.6957-1.9623.0813-3.9726-.1189-5.8832.1313a2.8961,2.8961,0,0,0-2.0029,1.6273c-.1121.3615,1.12,1.2062,1.9371,1.4043A15.297,15.297,0,0,0,201.4689,370.1355Zm-21.6468-7.0423c2.7352,1.8865,7.9234,1.8306,10.5092,0Zm25.8338.1309h-9.1853C198.9568,364.923,204.6863,364.7358,205.6559,363.2241Zm6.3653-.1687-.0352.4256h9.1878l-.0127-.4256Z"/><path class="cls-1" d="M327.7539,359.1885a14.6836,14.6836,0,0,1-1.94.2659c-11.2367.12-22.4746.1873-33.71.35-2.2822.0331-2.8532-.768-2.9156-2.2158q-.2978-6.9076-.7025-13.8125c-.6583-11.3367-1.3683-22.6716-2.005-34.0088-.3406-6.0644-.58-12.132-.8519-18.1985-.7389-16.4933-1.7177-32.9833-2.13-49.4811-.359-14.36-.1521-28.7291-.0582-43.0937.1524-23.2763.4547-46.552.5707-69.8284.0106-2.1235.7557-2.73,3.6673-2.6611,10.3961.2459,20.8011.32,31.2035.3628,2.3662.01,3.1818.4758,3.18,2.3527-.0369,34.3569-.0765,68.7141.1338,103.0706.0714,11.6584.8978,23.3132,1.25,34.9719.2672,8.8354.2614,17.6753.5079,26.5112.1627,5.8359.5461,11.6685.85,17.502q1.1448,21.9607,2.3253,43.9206A40.3887,40.3887,0,0,0,327.7539,359.1885Z"/><path class="cls-1" d="M77.0539,255.0336c0-6.0724-.032-12.1449.006-18.2172.12-19.1429.1725-38.2864.4292-57.4283.2318-17.2773.6874-34.5531,1.0776-51.829.0364-1.61.38-3.2144.4635-4.8247.1771-3.4185.146-3.46,4.6317-3.4137,9.988.1037,19.9747.295,29.9631.3525,2.3667.0136,2.44.9063,2.2973,2.2075-2.8036,25.6174-1.83,51.2823-1.73,76.9354.1087,27.8228.3014,55.6455.43,83.4683.06,12.9926.0011,25.9858.1231,38.978.0257,2.741.7635,5.475.8945,8.2195.1991,4.168.13,8.3425.2211,12.5137.0721,3.305.1446,6.6116.3548,9.9127.1012,1.59-.2781,2.2284-2.8507,2.2857-10.2643.2286-20.5168.7375-30.7754,1.1171-3.5235.13-3.82-.1563-3.8779-2.84-.1216-5.61-.0118-11.2325-.5042-16.8255-2.0059-22.7846-1.6084-45.5872-1.278-68.3921.059-4.0729.0084-8.1466.0084-12.22Z"/><path class="cls-1" d="M218.8771,324.9108c-4.64.2552-8.6061.5586-12.5816.6552-1.9174.0466-3.85-.4221-5.7794-.4386-5.3-.0452-10.649-.275-15.8821.1773-2.6053.2252-2.9595-.33-2.9735-1.75-.0519-5.2266-.0294-10.4536-.0639-15.68-.21-31.8231-.6291-63.6464-.5653-95.4691.0367-18.3671.79-36.7342,1.3443-55.0993.194-6.4319.8017-12.8566,1.11-19.2874.0615-1.2823.5795-1.7915,2.35-1.7451,7.1752.1884,14.357.2566,21.5283.5,3.2565.1106,6.5138.4434,9.7257.8631a2.68,2.68,0,0,1,1.9187,1.4705,19.6012,19.6012,0,0,1,.08,4.1412c-.2077,23.4455-.4706,46.8908-.6019,70.3365-.0563,10.0625.2121,20.1255.2419,30.1885q.1152,38.8519.1485,77.7039C218.879,322.7531,218.8771,324.0291,218.8771,324.9108Z"/><path class="cls-1" d="M126.8576,7.1108c-4.0748,6.9951-3.0619,13.65-3.6077,20.1737-.8061,9.6348-1.6243,19.2693-2.3245,28.9085-.96,13.2195-1.7716,26.4448-2.7377,39.6641-.34,4.6474-1.0059,9.2814-1.4,13.9272-.13,1.534-.8827,2.2854-3.0387,2.1018-3.1669-.27-6.337-.5189-9.5052-.78a8.4734,8.4734,0,0,0-.9179-.108c-4.9649.1478-9.9293.4226-14.8936.42-2.9614-.0015-5.9224-.4341-9.2581-.7031,0-1.66-.0395-3.3269.0073-4.9925.1466-5.22.2321-10.4422.5109-15.6586.6962-13.0243,1.4955-26.0456,2.2318-39.0688.2-3.5309.2152-7.0689.5038-10.5951.5006-6.1167,1.03-12.2346,1.7709-18.3372.61-5.0267,5.7332-8.5621,12.4937-9.59,6.0253-.9162,11.89-2.3953,17.8677-3.5013C118.3,8.2792,122.1175,7.8182,126.8576,7.1108Z"/><path class="cls-1" d="M322.1644,117.7083c-12.2524,0-23.8879.0255-35.5218-.0609-.73-.0054-2.0012-.8474-2.0681-1.367a20.0129,20.0129,0,0,1,.15-4.8278c.794-6.8582,1.6075-13.7153,2.4889-20.5676q1.1727-9.117,2.515-18.222c.7551-5.0771,1.7872-10.1332,2.4438-15.2164,1.0125-7.8385,1.8317-15.6909,2.6872-23.54.39-3.58.839-7.1634.93-10.75.0455-1.7878-.68-3.5834-1.0059-5.38-.1742-.96-.2409-1.9316-.4069-3.3242,3.2815.8662,6.0485,1.5589,8.7771,2.3261,3.8172,1.0734,7.6373,2.1475,11.3979,3.3229,3.8861,1.2146,7.814,2.3991,11.5147,3.8812,2.9928,1.1984,5.3271,3.2824,5.2564,5.8057-.2116,7.5645-.83,15.1251-1.4467,22.68-.3378,4.1358-1.0107,8.2564-1.5011,12.3859-.8953,7.5386-1.818,15.0757-2.6354,22.6191-.8681,8.0108-1.5914,16.03-2.4576,24.0412C323.0537,113.6264,322.5307,115.7211,322.1644,117.7083Z"/><path class="cls-1" d="M230.588,106.6515c-1.2676-1.7576-2.3255-3.1717-3.3181-4.61-3.616-5.2412-7.1671-10.5072-10.8394-15.7266a36.5289,36.5289,0,0,0-3.74-4.3793c-2.2078-2.2651-2.0844-2.9591.2961-5.3411,3.0914-3.0937,5.8844-6.3491,8.9106-9.48,3.3746-3.491,6.8327-6.9389,10.3188-10.37,2.6826-2.64,5.4717-5.2208,8.2009-7.8351,4.8528-4.6485,9.6786-9.3125,14.5484-13.9512,4.8145-4.5862,9.5574-9.2173,14.5494-13.6964,2.9-2.6022,6.2729-4.9142,9.3534-7.41,3.498-2.8346,8.6776-.7016,9.7993,2.2586a15.49,15.49,0,0,1,1.0456,5.9032c-.238,7.5255-.8467,15.0449-1.05,22.5705-.092,3.4085-3.4818,5.3967-5.6037,7.87-3.3612,3.9175-7.4147,7.5093-11.1307,11.2631q-9.9255,10.026-19.7884,20.0857c-2.6957,2.7544-5.2653,5.5759-7.9242,8.35-3.8838,4.0524-7.8052,8.0851-11.6878,12.138C231.9105,104.9359,231.4111,105.6435,230.588,106.6515Z"/><path class="cls-1" d="M127.2374,42.3453c.6546-8.411,1.177-16.8294,2.0455-25.2284.256-2.4753,1.3946-4.9153,2.3151-7.3328.5139-1.35,2.46-1.4759,3.8565-.13,2.915,2.8088,5.7194,5.6875,8.3826,8.63,4.8593,5.3686,9.6678,10.7646,14.3358,16.2246,3.6356,4.2525,7,8.631,10.5326,12.9322q4.66,5.6736,9.4274,11.2989c4.33,5.1243,8.6971,10.2315,13.053,15.3439.5948.6981,1.2427,1.3719,1.8215,2.077,1.3949,1.6989,1.7483,3.11-.3928,4.9217a34.3667,34.3667,0,0,0-5.5712,6.7776c-3.46,4.8769-6.7893,9.8052-10.1077,14.7361-1.0644,1.5817-2.1735,1.2181-3.163.0939-3.2834-3.7305-6.4331-7.5252-9.7146-11.2566-4.7108-5.3568-9.5-10.676-14.2414-16.0182q-5.1867-5.8438-10.3333-11.7072c-3.75-4.2862-7.5454-8.5536-11.1368-12.912a7.2568,7.2568,0,0,1-1.3787-3.6227,33.84,33.84,0,0,1-.0559-4.83Z"/><path d="M212.0951,132.3709c-7.6906,0-15.3856.116-23.07-.04-5.37-.1088-6.2193-.8986-6.82-4.9131-.2737-1.8311-.4861-3.6694-.8563-5.49-.4594-2.26-.9319-4.5249-1.6151-6.7515-1.3895-4.529.4229-8.4625,3.4085-12.3762,3.1042-4.0691,5.5194-8.4232,8.5685-12.5175a101.19,101.19,0,0,1,8.2959-9.6892c1.8313-1.9012,4.0083-1.6216,5.9288.8676,4.505,5.8392,8.774,11.7785,13.077,17.7018,1.9831,2.73,3.5239,5.66,5.8013,8.2413,2.82,3.197,1.3823,6.347.6693,9.55-.2147.9645-.8407,1.8753-1.1357,2.8346-1.2095,3.9337-2.2977,7.8888-3.6117,11.8028a2.9317,2.9317,0,0,1-2.0918,1.3775c-2.155.19-4.3609.0656-6.5467.0656Z"/><path d="M200.812,357.6862c-5.5057,0-11.0134-.0651-16.516.0305-2.3728.0411-3.3122-.4664-3.2981-2.3307.0586-7.75-.044-15.5019-.14-23.2526-.0176-1.4116.2281-2.3058,2.6622-2.2822q16.6691.162,33.3414.1121c2.7467-.0063,3.95.7092,3.9417,2.8125-.0277,7.52.0171,15.0422.1961,22.5613.0418,1.7577-.82,2.2879-3.0435,2.2653-5.7135-.058-11.4288-.0194-17.1434-.0194Z"/><path class="cls-2" d="M209.0973,372.8083c0,5.135.14,9.8941-.052,14.6458-.1164,2.8859-3.028,4.9486-6.7854,5.2736-3.559.3079-7.5415-1.2257-8.1053-3.9209a129.1891,129.1891,0,0,1-1.7394-14.8369c-.0328-.3605.9792-1.1009,1.5233-1.1105C198.8926,372.7722,203.8506,372.8083,209.0973,372.8083Z"/><path class="cls-2" d="M321.7209,121.1678c.7687,3.0457.6469,2.9638-3.3527,2.8029-5.428-.2184-10.88-.1167-16.3216-.1448-4.9853-.0258-9.9729-.1131-14.955-.0284-2.1476.0365-3.0456-.4883-2.9785-2.0712.063-1.49,1.1828-1.7134,2.889-1.6206,5.0462.2741,10.0962.54,15.1512.6788,1.6158.0445,3.2663-.5187,4.8763-.4566C311.9462,120.5178,316.8509,120.8768,321.7209,121.1678Z"/><path class="cls-2" d="M97.4567,114.1948c5.19,0,10.38-.0281,15.57.02,1.3112.0121,3.1715-.4215,3.2375,1.3125.0621,1.6324-1.418,1.7757-3.14,1.7326-10.7383-.2686-21.4788-.495-32.2134-.8271-.6352-.02-1.2252-.8348-1.8363-1.28.7292-.3627,1.4491-1.0277,2.1889-1.04,5.3957-.09,10.7955-.0484,16.1939-.0484Z"/><path class="cls-2" d="M315.489,385.6418c.988,2.6159-1.9583,3.7064-3.9019,4.589a9.1589,9.1589,0,0,1-6.0535.0046c-1.8156-.8039-2.7693-2.6693-4.0966-4.0745q.3933-.26.7865-.5191Z"/><path class="cls-2" d="M99.0347,372.1483c-.15-2.5245-.4454-5.0513-.3719-7.5723.0254-.87.8978-1.7575,1.5581-2.5586a2.7274,2.7274,0,0,1,1.6211.214,7.0671,7.0671,0,0,1,.8018,2.935c-.095,3.2006-.3893,6.3979-.5918,9.5969a6.0732,6.0732,0,0,1-.0924,2.0555c-.2556.5824-1.0138,1.0445-1.5508,1.56-.523-.5421-1.4165-1.0559-1.4972-1.6319a33.1023,33.1023,0,0,1-.0719-4.594Z"/><path class="cls-2" d="M302.3,366.9526c4.013-.4708,4.1074-.4315,4.154,2.2968.067,3.916.153,7.8331.0785,11.7481-.0128.6752-.7815,1.3426-1.2009,2.0136-.5634-.767-1.5235-1.5088-1.6162-2.3057-.2831-2.4348-.0892-4.8995-.3605-7.3355a49.5235,49.5235,0,0,0-1.2559-5.1063A3.5553,3.5553,0,0,1,302.3,366.9526Z"/><path class="cls-2" d="M310.6574,374.5524c0-2.07-.1091-4.1452.07-6.2067.0506-.5843.9409-1.129,1.4461-1.6919.7065.519,2.0055,1.0256,2.0259,1.559.17,4.439.1647,8.8839.0379,13.3243-.0173.6037-.999,1.1924-1.5341,1.7881-.5785-.624-1.5981-1.2265-1.6561-1.8759-.2046-2.29-.08-4.5968-.08-6.8971Z"/><path class="cls-2" d="M94.478,371.7a44.5183,44.5183,0,0,1-.068,5.07c-.0668.5827-.9193,1.1163-1.413,1.6723-.4759-.5584-1.2923-1.0913-1.3731-1.6793-.5736-4.1773-1.0908-8.3625-1.36-12.5546-.0377-.5877,1.3745-1.2263,2.1156-1.8413.5592.5022,1.5306.9723,1.6075,1.5122.37,2.5942.4988,5.2071.7132,7.8135Z"/><path class="cls-2" d="M89.1559,381.5073c5.0494,0,9.2437-.0383,13.43.0745.3277.0089,1.0867,1.27.8282,1.6163-2.6472,3.5481-9.29,3.6819-12.3568.3209C90.6155,383.0342,90.1523,382.56,89.1559,381.5073Z"/><path class="cls-2" d="M201.4689,370.1355a15.297,15.297,0,0,1-3.3906-.06c-.8171-.1981-2.0492-1.0428-1.9371-1.4043a2.8961,2.8961,0,0,1,2.0029-1.6273c1.9106-.25,3.9209-.05,5.8832-.1313,1.71-.0708,2.4374.4438,2.5309,1.6957.1133,1.5159-1.1358,1.55-2.6045,1.49-.8259-.0338-1.6564-.0061-2.4848-.0061Z"/><path class="cls-1" d="M179.8221,363.0932h10.5092C187.7455,364.9238,182.5573,364.98,179.8221,363.0932Z"/><path class="cls-1" d="M205.6559,363.2241c-.97,1.5117-6.6991,1.6989-9.1853,0Z"/><path class="cls-1" d="M212.0212,363.0554h9.14l.0127.4256H211.986Z"/></svg>